<svg width="50" height="79" viewBox="0 0 50 79" fill="none" xmlns="http://www.w3.org/2000/svg">
<path d="M0 0V79L25 66L50 79V0H0Z" fill="white"/>
<path d="M18.46 33.81V35.56C17.38 37.37 16.16 39.12 14.75 40.84H18.92V42.31C18.4 44.77 17.75 46.82 16.96 48.48C17.21 48.6 17.48 48.79 17.73 49.03C18.71 49.92 19.73 50.6 20.77 51.06C21.81 51.43 23.23 51.64 25.07 51.7C26.79 51.7 28.75 51.73 30.99 51.73C33.08 51.73 35.75 51.67 39.06 51.55L38.57 53.67H31.26C28.87 53.67 26.75 53.64 24.9 53.58C22.72 53.52 21.06 53.27 19.93 52.81C18.64 52.32 17.44 51.52 16.37 50.48C16.12 50.27 15.85 50.17 15.57 50.17C14.9 50.17 13.88 51.52 12.59 54.22L10.96 52.78C12.37 49.99 13.69 48.42 14.98 48.08C15.72 46.48 16.33 44.7 16.82 42.71H12.12V41.02C13.66 39.27 14.98 37.55 16.02 35.83H11.35V33.8H18.46V33.81ZM18.43 30.77L16.99 32.21C15.85 30.83 14.29 29.36 12.32 27.79L13.76 26.38C15.6 27.85 17.17 29.29 18.43 30.77ZM22.17 35L20.33 33.83C21.8 31.74 22.91 29.38 23.58 26.8L25.58 27.23C25.33 28.15 25.06 29.01 24.75 29.84H28.65V26.16H30.77V29.84H37.06V31.9H30.77V35.89H38.66V37.92H19.87V35.89H28.65V31.9H23.92C23.4 33.01 22.82 34.05 22.17 35ZM36.27 40.38V49H22.51V40.37H36.27V40.38ZM34.12 42.43H24.66V46.94H34.12V42.43Z" fill="#6DB224" stroke="#6DB224" stroke-width="0.5" stroke-miterlimit="10"/>
</svg>
