<svg width="50" height="79" viewBox="0 0 50 79" fill="none" xmlns="http://www.w3.org/2000/svg">
<path d="M0 0V79L25 66L50 79V0H0Z" fill="#282828"/>
<path d="M21.08 46.88L19.17 45.24L19.01 45.43C16.94 47.83 14.42 49.93 11.52 51.67L11.28 51.81L12.9 54L13.1 53.88C16.24 51.9 18.87 49.61 20.93 47.07L21.08 46.88Z" fill="#D64D2D"/>
<path d="M35.87 46.18L36 46.42L38.17 44.94L38.05 44.74C36.71 42.5 34.85 39.95 32.53 37.16L32.39 36.99L30.34 38.27L30.52 38.49C31.2 39.32 31.87 40.18 32.62 41.19C29.12 41.52 25.23 41.81 21.02 42.05C25.02 40.29 29.57 37.69 34.87 34.14L35.23 33.9L32.59 32.64L31.87 33.13C30.68 33.93 29.56 34.69 28.42 35.42L21.4 35.96C23.83 34.77 26.19 33.28 28.44 31.54L28.7 31.33L26.69 29.89C28.86 29.3 31.09 28.56 33.32 27.67L33.78 27.49L31.35 25.96L31.23 26C29.15 26.81 26.77 27.52 23.93 28.17C20.74 28.88 17.32 29.45 13.76 29.85L13.37 29.89L14.8 32.18L14.96 32.15C19.42 31.44 23.04 30.76 25.73 30.12C26.01 30.05 26.29 29.98 26.57 29.9L26.5 29.95C22.53 32.96 18.68 34.92 14.74 35.95L14.52 36.01L14.94 38.33L15.16 38.32C18.51 38.17 21.53 38 24.34 37.81C21.02 39.64 17.98 41 15.29 41.85C14.63 42.06 14.03 42.18 13.44 42.24L13.13 42.27L13.9 44.68L14.09 44.67C17.69 44.55 20.98 44.37 23.99 44.19V51.08C23.99 51.65 23.75 51.91 23.23 51.91C22.29 51.91 21.27 51.86 20.03 51.76L19.69 51.73L20.31 54.35H24.01C25.8 54.35 26.75 53.4 26.75 51.61V44.02C29.47 43.84 31.98 43.64 34.2 43.41C34.8 44.36 35.36 45.31 35.87 46.18Z" fill="#D64D2D"/>
<path d="M38.08 52.03C36.01 49.67 33.5 47.34 30.62 45.09L30.45 44.96L28.65 46.69L28.87 46.87C32.06 49.46 34.45 51.76 36.17 53.89L36.34 54.11L38.24 52.21L38.08 52.03Z" fill="#D64D2D"/>
</svg>
