<svg width="164" height="75" viewBox="0 0 164 75" fill="none" xmlns="http://www.w3.org/2000/svg">
<path d="M65.3337 62.553H67.1566V48.2024H65.3337V62.553ZM52.2591 61.3561L53.5867 62.8402C57.676 60.3656 58.4568 57.9701 58.5084 54.1146C58.5342 51.7707 58.56 50.5979 58.56 48.2024H56.7371C56.7371 50.5979 56.7371 51.7449 56.6855 54.1404C56.6339 56.9538 56.1662 59.4284 52.2591 61.3561ZM50.149 48.6203L51.217 50.1301C55.6193 48.6976 59.1343 46.1199 61.5315 42.9161C64.5014 46.223 68.1471 48.438 72.4188 50.1559L73.356 48.4896C68.9021 46.8748 65.2048 44.5825 62.4688 41.5352L63.093 40.4415L61.4524 39.7382C59.578 43.3323 55.5144 46.9264 50.149 48.6203Z" fill="white"/>
<path d="M91.5604 59.8445V48.0716H95.2062C95.3626 48.0716 95.4658 48.1765 95.4658 48.3313V59.5831C95.4658 59.7396 95.3609 59.8428 95.2062 59.8428H91.5604V59.8445ZM85.674 51.0415V48.0716H89.8666V51.0415H85.674ZM85.674 55.4439V52.474H89.8666V55.4439H85.674ZM85.674 59.8445V56.8746H89.8666V59.8445H85.674ZM80.0748 59.5848V48.333C80.0748 48.1765 80.1797 48.0734 80.3344 48.0734H83.9801V59.8445H80.3344C80.1797 59.8445 80.0748 59.7413 80.0748 59.5848ZM77.0791 43.358H86.2209C86.0386 44.4517 85.7514 45.5196 85.3352 46.6392H78.9535C78.5374 46.6392 78.3018 46.873 78.3018 47.2909V60.6252C78.3018 61.0414 78.5357 61.277 78.9535 61.277H96.5853C97.0015 61.277 97.2371 61.0431 97.2371 60.6252V47.2909C97.2371 46.8747 97.0032 46.6392 96.5853 46.6392H87.2097C87.6 45.4663 87.913 44.4517 88.1469 43.358H98.434V41.8481H77.0791V43.358Z" fill="white"/>
<path d="M115.443 52.1868H121.225C120.496 54.1403 119.479 55.7551 118.1 57.0569C116.876 55.7809 116.016 54.1661 115.443 52.1868ZM112.111 50.7543V52.1868H113.699C114.403 54.7387 115.392 56.6665 116.773 58.1764C115.184 59.3217 113.23 60.2073 110.86 60.9106L111.877 62.4738C114.403 61.614 116.434 60.5994 118.076 59.375C119.717 60.6768 121.852 61.6415 124.613 62.4996L125.421 60.8333C122.972 60.2606 120.967 59.4266 119.404 58.228C121.044 56.5874 122.217 54.6339 123.024 52.185V50.7526H112.111V50.7543ZM114.401 41.5351V42.3158C114.401 43.566 114.35 44.842 114.114 45.6503C113.672 46.9521 112.838 47.6038 110.989 48.2814L111.98 49.8188C114.09 48.9073 115.314 47.9168 115.835 46.0424C116.069 45.1567 116.123 43.8807 116.123 42.579C116.123 42.4225 116.227 42.3193 116.382 42.3193H119.404C119.56 42.3193 119.663 42.4242 119.663 42.579V48.0492C119.663 48.8042 120.079 49.1687 120.836 49.222C121.827 49.2994 122.815 49.2994 123.806 49.222C124.666 49.1704 124.979 48.701 125.056 47.9976C125.134 47.0862 125.134 46.3571 125.134 45.523L123.57 45.315C123.596 46.1748 123.596 46.8523 123.519 47.4508C123.493 47.6847 123.388 47.7638 123.154 47.7896C122.712 47.8412 122.217 47.8412 121.773 47.7896C121.539 47.7638 121.383 47.6331 121.383 47.3992V41.5386C121.383 41.1224 121.149 40.8868 120.731 40.8868H115.053C114.637 40.8834 114.401 41.119 114.401 41.5351ZM102.604 43.4887V44.9211H112.006V43.4887H108.229V40.364H106.406V43.4887H102.604ZM105.364 59.7929V55.7293C105.364 55.5728 105.469 55.4696 105.624 55.4696H108.853C109.01 55.4696 109.113 55.5745 109.113 55.7293V59.7929C109.113 59.9494 109.008 60.0525 108.853 60.0525H105.624C105.469 60.0525 105.364 59.9494 105.364 59.7929ZM104.375 61.485H110.105C110.522 61.485 110.757 61.2511 110.757 60.8333V54.6872C110.757 54.271 110.523 54.0354 110.105 54.0354H104.375C103.959 54.0354 103.724 54.2693 103.724 54.6872V60.8333C103.724 61.2511 103.958 61.485 104.375 61.485ZM103.827 50.5204V51.9529H110.676V50.5204H103.827ZM103.827 47.0054V48.4379H110.676V47.0054H103.827Z" fill="white"/>
<path d="M138.286 48.0991V49.609H143.651V61.9287H145.525V49.609H151.073V48.0991H145.525V40.7544H143.651V48.0991H138.286ZM128.649 43.4887V44.9211H138.311V43.4887H134.404V40.364H132.581V43.4887H128.649ZM131.488 59.7929V55.7293C131.488 55.5728 131.593 55.4696 131.747 55.4696H135.237C135.393 55.4696 135.496 55.5745 135.496 55.7293V59.7929C135.496 59.9493 135.391 60.0525 135.237 60.0525H131.747C131.591 60.0525 131.488 59.9493 131.488 59.7929ZM130.471 61.485H136.514C136.931 61.485 137.166 61.2511 137.166 60.8333V54.6872C137.166 54.271 136.932 54.0354 136.514 54.0354H130.471C130.055 54.0354 129.82 54.2693 129.82 54.6872V60.8333C129.82 61.2511 130.055 61.485 130.471 61.485ZM129.925 50.5204V51.9529H137.035V50.5204H129.925ZM129.925 47.0054V48.4379H137.035V47.0054H129.925Z" fill="white"/>
<path d="M150.385 75H7.13663C3.20203 75 0 71.798 0 67.8634V0H155.923C159.857 0 163.059 3.20203 163.059 7.13663V74.4617H160.824V7.13663C160.824 4.43503 158.624 2.23557 155.923 2.23557H2.23557V67.8634C2.23557 70.565 4.43503 72.7644 7.13663 72.7644H150.385V75Z" fill="white"/>
<path d="M13.1916 29.4562C12.1701 28.4709 11.6594 27.1536 11.6594 25.5044V17.0075C11.6594 15.3584 12.1701 14.0463 13.1916 13.0678C14.2131 12.091 15.5854 11.6026 17.305 11.6026C19.0436 11.6026 20.4331 12.0962 21.4718 13.0815C22.5105 14.0669 23.0315 15.3756 23.0315 17.0075V25.5044C23.0315 27.1536 22.5122 28.4709 21.4718 29.4562C20.4314 30.4416 19.0436 30.9351 17.305 30.9351C15.5837 30.9351 14.2131 30.4416 13.1916 29.4562ZM20.0737 28.2731C20.7736 27.611 21.1227 26.7237 21.1227 25.611V16.9267C21.1227 15.833 20.7771 14.9542 20.0875 14.2922C19.3979 13.6284 18.4693 13.2965 17.305 13.2965C16.1752 13.2965 15.2707 13.6284 14.5897 14.2922C13.9087 14.956 13.5682 15.8347 13.5682 16.9267V25.611C13.5682 26.7219 13.9087 27.6093 14.5897 28.2731C15.2707 28.9369 16.1769 29.2688 17.305 29.2688C18.4521 29.2671 19.3755 28.9352 20.0737 28.2731Z" fill="white"/>
<path d="M37.0401 24.9112C37.0401 25.8966 36.9059 26.7667 36.6377 27.52C36.2782 28.5947 35.6746 29.4253 34.8234 30.0066C33.9722 30.5896 32.918 30.8802 31.6644 30.8802C30.409 30.8802 29.3342 30.5534 28.4383 29.8983C27.5423 29.2448 26.9232 28.3609 26.5827 27.25C26.4211 26.7478 26.3231 26.0668 26.287 25.207C26.287 25.0282 26.3764 24.9387 26.5552 24.9387H27.9258C28.1046 24.9387 28.1941 25.0282 28.1941 25.207C28.2302 25.7263 28.2921 26.2113 28.3815 26.6584C28.5793 27.4477 28.9593 28.0702 29.5234 28.5277C30.0874 28.9851 30.7908 29.2138 31.6334 29.2138C33.2465 29.2138 34.2955 28.4967 34.7787 27.0625C34.9937 26.471 35.102 25.7366 35.102 24.8579C35.102 23.7831 34.9593 22.9044 34.6721 22.2234C34.0977 20.9336 33.0865 20.287 31.6334 20.287C31.3651 20.287 31.0332 20.385 30.6377 20.5828C30.5655 20.6189 30.5122 20.6361 30.4761 20.6361C30.4038 20.6361 30.3419 20.5914 30.2886 20.502L29.5887 19.5613C29.4993 19.4186 29.5079 19.293 29.6162 19.1847L34.3488 13.6456C34.4021 13.5562 34.3849 13.5115 34.2955 13.5115H26.7134C26.5346 13.5115 26.4452 13.4221 26.4452 13.2432V12.1134C26.4452 11.9346 26.5346 11.8452 26.7134 11.8452H36.6617C36.8406 11.8452 36.93 11.9346 36.93 12.1134V13.4307C36.93 13.5201 36.8853 13.6284 36.7959 13.754L32.4967 18.9164C32.4606 18.9526 32.452 18.9835 32.4692 19.011C32.4864 19.0385 32.5225 19.0506 32.5758 19.0506C34.4932 19.1761 35.8019 20.0824 36.5018 21.7659C36.8612 22.6447 37.0401 23.692 37.0401 24.9112Z" fill="white"/>
</svg>
