<svg width="164" height="75" viewBox="0 0 164 75" fill="none" xmlns="http://www.w3.org/2000/svg">
<path d="M150.385 75H7.13663C3.20203 75 0 71.798 0 67.8634V0H155.923C159.857 0 163.059 3.20203 163.059 7.13663V74.4617H160.824V7.13663C160.824 4.43503 158.624 2.23557 155.923 2.23557H2.23557V67.8634C2.23557 70.565 4.43503 72.7644 7.13663 72.7644H150.385V75Z" fill="white"/>
<path d="M13.1916 29.4562C12.1701 28.4708 11.6594 27.1535 11.6594 25.5044V17.0075C11.6594 15.3583 12.1701 14.0462 13.1916 13.0677C14.2131 12.0909 15.5854 11.6025 17.305 11.6025C19.0436 11.6025 20.4331 12.0961 21.4718 13.0815C22.5105 14.0668 23.0315 15.3755 23.0315 17.0075V25.5044C23.0315 27.1535 22.5122 28.4708 21.4718 29.4562C20.4314 30.4415 19.0436 30.9351 17.305 30.9351C15.5837 30.9351 14.2131 30.4415 13.1916 29.4562ZM20.0737 28.273C20.7736 27.611 21.1227 26.7236 21.1227 25.611V16.9267C21.1227 15.8329 20.7771 14.9542 20.0875 14.2921C19.3979 13.6283 18.4693 13.2964 17.305 13.2964C16.1752 13.2964 15.2707 13.6283 14.5897 14.2921C13.9087 14.9559 13.5682 15.8347 13.5682 16.9267V25.611C13.5682 26.7219 13.9087 27.6092 14.5897 28.273C15.2707 28.9368 16.1769 29.2687 17.305 29.2687C18.4521 29.267 19.3755 28.9351 20.0737 28.273Z" fill="white"/>
<path d="M37.4167 24.8578C37.4167 25.7366 37.3358 26.4898 37.1742 27.1158C36.8698 28.2628 36.2593 29.1725 35.3462 29.8449C34.4313 30.5173 33.329 30.8526 32.0392 30.8526C30.7667 30.8526 29.6816 30.5293 28.7856 29.8844C27.8897 29.2396 27.2792 28.378 26.9576 27.3032C26.8321 26.9094 26.7513 26.5156 26.7151 26.1201V26.0667C26.7151 25.924 26.796 25.8518 26.9576 25.8518H28.3832C28.5621 25.8518 28.6618 25.9412 28.679 26.1201C28.679 26.2267 28.7151 26.4073 28.7874 26.6583C28.9662 27.4287 29.3394 28.0427 29.9034 28.5001C30.4675 28.9575 31.1708 29.1862 32.0135 29.1862C32.8733 29.1862 33.5956 28.9438 34.1785 28.4605C34.7615 27.9773 35.1415 27.3135 35.3221 26.4709C35.4287 26.0582 35.4837 25.5216 35.4837 24.8578C35.4837 24.2491 35.439 23.6661 35.3496 23.1106C35.2241 22.2869 34.8664 21.6592 34.2748 21.2276C33.6833 20.7977 32.9472 20.5827 32.0702 20.5827C31.2809 20.5827 30.5741 20.7616 29.9464 21.121C29.3187 21.4804 28.9146 21.955 28.7358 22.5466C28.6825 22.7082 28.5827 22.7891 28.44 22.7891H26.9886C26.8097 22.7891 26.7203 22.6996 26.7203 22.5208V12.1151C26.7203 11.9362 26.8097 11.8468 26.9886 11.8468H36.3986C36.5775 11.8468 36.6669 11.9362 36.6669 12.1151V13.2449C36.6669 13.4237 36.5775 13.5132 36.3986 13.5132H28.7358C28.6635 13.5132 28.6274 13.5493 28.6274 13.6198L28.5999 20.127C28.5999 20.1631 28.6137 20.1906 28.6412 20.2078C28.6687 20.225 28.6996 20.2164 28.7358 20.1803C29.1829 19.7676 29.7125 19.4495 30.3213 19.2259C30.9301 19.0024 31.5749 18.8906 32.2576 18.8906C33.5302 18.8906 34.605 19.2001 35.4837 19.8175C36.3625 20.4366 36.9266 21.3101 37.1776 22.44C37.3358 23.2276 37.4167 24.0341 37.4167 24.8578Z" fill="white"/>
<path d="M54.529 50.6908V47.8327H59.3355V50.6908H54.529ZM54.529 54.9779V52.1198H59.3355V54.9779H54.529ZM50.8386 44.7407H72.1454V43.2343H65.3905C65.9614 42.273 66.4292 41.2601 66.7937 40.3246L65.0534 39.8311C64.6631 40.9746 64.0921 42.0924 63.3905 43.2343H59.6726C59.2564 41.9084 58.7887 41.1036 58.2177 40.1165L56.529 40.715C57.0226 41.5198 57.4129 42.2747 57.7758 43.236H50.8386V44.7407ZM50.6306 61.2926L52.1112 62.5393C53.7225 60.6425 54.3192 58.6683 54.4757 56.407H59.3338V60.0699C59.3338 60.6408 59.2306 60.8231 58.7629 60.8747C58.087 60.952 57.308 60.9521 56.3467 60.9263L56.7629 62.486C57.7242 62.4602 58.7371 62.4086 59.6468 62.2779C60.7646 62.1214 61.1016 61.4731 61.1016 59.9908V46.4019H52.7612C52.7612 49.6246 52.787 52.4827 52.7612 54.6649C52.7354 57.6812 52.3726 59.3167 50.6306 61.2926ZM70.3259 59.9151V45.6504H68.5598V59.9667C68.5598 60.5376 68.4033 60.7199 67.9356 60.7973C66.9227 60.9005 65.8565 60.928 64.4275 60.8489L64.8436 62.4344C66.1953 62.4344 67.6243 62.3828 68.8711 62.2263C69.9889 62.0458 70.3259 61.3957 70.3259 59.9151ZM63.8307 58.2006H65.5968V47.3133H63.8307V58.2006Z" fill="white"/>
<path d="M78.926 57.0053L80.6147 56.6149C80.1986 53.2375 79.7308 49.86 79.0034 46.6632L77.3405 47.0002C78.0696 50.2487 78.5632 53.6536 78.926 57.0053ZM75.8598 58.8488L76.5873 60.5375C79.3938 59.8617 82.5889 58.9262 85.3954 57.9391L84.9019 56.4584L82.9019 57.0827C83.5261 53.6003 83.9406 50.2487 84.2535 46.7148L82.5906 46.5067C82.2536 50.2229 81.8116 53.86 81.1874 57.5762C79.3938 58.044 77.5503 58.4859 75.8598 58.8488ZM86.0454 46.4809H97.3213V41.2583H95.6068V45.0518H92.5406V40.4792H90.8261V45.0518H87.76V41.2583H86.0454V46.4809ZM76.7695 45.7793H84.9535V44.2728H81.6018V40.9212H79.8357V44.2728H76.7695V45.7793ZM84.8245 49.4697H90.618C90.4874 50.1197 90.281 50.768 90.0196 51.4697H85.576V62.252H87.2905V52.8987H89.1357V61.9149H90.7986V52.8987H92.6438V61.9149H94.3067V52.8987H96.1519V60.5117C96.1519 60.8763 96.1004 60.9794 95.8149 61.0052C95.4778 61.0568 95.1649 61.0568 94.489 61.031L94.8261 62.4601C95.397 62.4859 95.9697 62.4859 96.7487 62.3569C97.5277 62.2004 97.8665 61.6037 97.8665 60.4601V51.4697H91.7616C91.9955 50.7422 92.1778 50.118 92.3068 49.4697H98.5165V48.0406H84.8228V49.4697H84.8245Z" fill="white"/>
<path d="M111.899 54.7698L111.925 51.9633H114.991V54.7698H111.899ZM116.031 44.5584V42.9987C116.031 42.8422 116.134 42.739 116.291 42.739H121.488V44.5584H116.031ZM116.031 47.5472V45.9875H121.488V47.8069H116.291C116.134 47.8069 116.031 47.7037 116.031 47.5472ZM123.306 59.7844V41.96C123.306 41.5438 123.072 41.3099 122.655 41.3099H114.912C114.496 41.3099 114.262 41.5438 114.262 41.96V48.5859C114.262 49.002 114.496 49.2359 114.912 49.2359H121.486V59.8102C121.486 60.4086 121.33 60.5892 120.862 60.6683C119.875 60.7715 118.862 60.799 117.51 60.7199L117.926 62.3828C119.252 62.3828 120.602 62.3312 121.823 62.1747C122.968 61.9684 123.306 61.3183 123.306 59.7844ZM107.612 51.9633H110.184L110.159 54.7698H106.468V56.1989H110.131C110.054 57.8102 109.612 59.4215 107.117 60.5892L108.363 61.9408C111.144 60.2779 111.82 58.615 111.897 56.1989H114.989V61.5247H116.755V56.1989H120.446V54.7698H116.755V51.9633H119.302V50.5343H107.61V51.9633H107.612ZM105.43 44.5584V42.739H110.626C110.783 42.739 110.886 42.8422 110.886 42.9987V44.5584H105.43ZM110.626 47.8069H105.43V45.9875H110.886V47.5472C110.886 47.7037 110.781 47.8069 110.626 47.8069ZM103.61 41.96V62.2263H105.43V49.2342H112.004C112.42 49.2342 112.654 49.0003 112.654 48.5842V41.96C112.654 41.5438 112.42 41.3099 112.004 41.3099H104.26C103.844 41.3117 103.61 41.5455 103.61 41.96Z" fill="white"/>
<path d="M141.988 55.6795H146.483C145.912 56.7182 145.157 57.5763 144.17 58.2779C143.235 57.6021 142.533 56.7457 141.988 55.6795ZM138.714 54.2762V55.6795H140.169C140.819 57.1343 141.546 58.2779 142.611 59.2134C141.364 59.8118 139.883 60.2779 138.09 60.6424L139.051 62.228C141.13 61.7086 142.819 61.0844 144.17 60.3054C145.599 61.0844 147.47 61.6828 150.017 62.228L150.588 60.565C148.614 60.2005 147.054 59.7603 145.782 59.1876C146.951 58.2263 147.782 57.0827 148.38 55.6795V54.2762H138.714ZM150.095 50.1972L151.004 48.5858C149.472 48.1439 148.12 47.6761 146.925 47.0261C148.588 45.9083 149.549 44.947 150.562 43.5696L149.107 42.7114C148.249 43.9066 147.107 45.1018 145.522 46.1405C144.977 45.7501 144.509 45.3099 144.041 44.8146C145.627 43.8275 146.562 42.892 147.575 41.671L146.172 40.7871C145.419 41.8 144.509 42.6323 143.106 43.5936C142.507 42.7355 141.988 41.7226 141.52 40.5275L139.857 41.021C141.261 44.8146 143.08 46.8937 145.807 48.4001H141.209C140.975 48.4001 140.819 48.5308 140.819 48.7905C140.819 51.3115 140.533 51.726 138.272 52.4534L139.156 53.9598C141.469 53.0759 142.43 52.0372 142.43 49.9839C142.43 49.8532 142.507 49.8016 142.612 49.8016H144.691C144.795 49.8016 144.874 49.879 144.874 49.9839V52.2711C144.874 53.0243 145.29 53.4147 146.017 53.4147H148.511C149.343 53.4147 149.629 52.9211 149.706 52.2195C149.757 51.6486 149.757 51.3356 149.757 50.8678L148.251 50.6598C148.277 51.0759 148.277 51.3356 148.251 51.6984C148.225 51.9323 148.12 52.0355 147.886 52.0355H146.925C146.691 52.0355 146.535 51.879 146.535 51.6451V48.787C147.574 49.3132 148.769 49.7552 150.095 50.1972ZM130.451 41.3632V42.7923H137.414C136.609 44.1181 135.673 45.2084 134.504 46.1181C133.386 45.0003 132.348 44.1697 131.204 43.4165L130.009 44.5343C131.101 45.3133 132.114 46.1714 133.075 47.1327C131.646 47.9633 129.957 48.6134 127.93 49.1069L128.917 50.7182C129.801 50.4586 130.606 50.1731 131.333 49.8876H136.036C136.167 49.8876 136.244 49.965 136.244 50.0957V51.8102C136.244 51.9409 136.167 52.0183 136.036 52.0183H130.423C130.397 53.6812 130.241 55.4215 129.981 57.0071H136.139C136.114 57.9168 136.062 58.7474 135.957 59.762C135.906 60.2297 135.801 60.412 135.333 60.4378C134.112 60.541 132.786 60.541 131.123 60.4636L131.539 62.1781C133.125 62.1265 134.788 62.1007 136.268 61.9185C137.412 61.7878 137.646 61.1652 137.749 59.9958C137.906 58.1764 137.931 57.5539 137.931 56.0991C137.931 55.762 137.749 55.5797 137.412 55.5797H131.93C132.007 54.9039 132.06 54.1765 132.086 53.4491H137.491C137.828 53.4491 138.01 53.2668 138.01 52.9297V48.9796C138.01 48.6426 137.828 48.4603 137.491 48.4603H134.217C136.53 47.0313 138.088 45.2118 139.362 42.7957V41.3667H130.451V41.3632Z" fill="white"/>
</svg>
