<svg width="164" height="75" viewBox="0 0 164 75" fill="none" xmlns="http://www.w3.org/2000/svg">
<path d="M93.7761 48.5635V45.6727H95.7039C95.8604 45.6727 95.9635 45.7776 95.9635 45.9324V48.3021C95.9635 48.4586 95.8586 48.5618 95.7039 48.5618H93.7761V48.5635ZM89.9739 44.4225V42.7819H92.1613V44.4225H89.9739ZM89.9739 48.5635V45.6727H92.1613V48.5635H89.9739ZM97.4218 61.3527L98.7769 60.1799C97.5009 58.6958 95.9377 57.3149 94.0633 56.2212L93.0728 57.2375C94.7924 58.3828 96.2507 59.8927 97.4218 61.3527ZM82.8373 59.9718L83.9052 61.3269C86.1459 60.0509 87.5251 58.9572 89.0367 57.0294L87.7091 56.1438C86.5363 57.6794 85.0247 58.9296 82.8373 59.9718ZM76.275 46.7148H78.9835C78.6189 50.5428 77.2122 53.5901 75.4668 56.1163L76.6654 57.7052C77.9672 55.6743 78.8012 53.6159 79.3223 51.6107V62.3415H81.0935V50.1782C81.7178 51.0897 82.213 52.0269 82.8132 53.2255L84.0634 52.0802C83.152 50.4138 82.3179 49.241 81.0935 47.9134V46.7148H83.6713V45.2308H81.0935V40.5687H79.3223V45.2308H76.275V46.7148ZM86.1717 48.3038V45.9341C86.1717 45.7776 86.2766 45.6744 86.4314 45.6744H88.3591V48.5652H86.4314C86.2749 48.5635 86.1717 48.4603 86.1717 48.3038ZM85.207 49.8137H96.9265C97.3427 49.8137 97.5783 49.5798 97.5783 49.1619V45.0725C97.5783 44.6564 97.3444 44.4208 96.9265 44.4208H93.7744V42.7802H98.1492V41.4251H83.9551V42.7802H88.3574V44.4208H85.2053C84.7891 44.4208 84.5535 44.6547 84.5535 45.0725V49.1619C84.5569 49.5798 84.7908 49.8137 85.207 49.8137ZM85.6507 52.6786H96.4588V51.3769H85.6507V52.6786ZM84.0875 55.5436H90.182V59.9976C90.182 60.5186 90.0255 60.6751 89.5577 60.7525C88.9335 60.8299 88.1769 60.8832 87.2654 60.8041L87.6816 62.3673C88.593 62.4189 89.6351 62.3157 90.495 62.185C91.6145 62.0027 91.9533 61.3509 91.9533 59.8927V55.5436H98.022V54.2418H84.0875V55.5436Z" fill="white"/>
<path d="M112.321 46.168V44.5016H116.385V46.168H112.321ZM112.321 49.1361V47.4698H116.385V49.1361H112.321ZM112.321 52.106V50.4397H116.385V52.106H112.321ZM102.215 52.6787L103.334 54.1369C106.304 52.756 108.022 51.3236 109.767 48.8507L108.386 47.9135C106.902 49.9444 105.21 51.3769 102.215 52.6787ZM108.753 43.7983L109.456 42.2609C107.867 41.5576 106.357 40.9849 104.846 40.5412L104.194 41.9995C105.705 42.469 107.267 43.0691 108.753 43.7983ZM107.059 47.7037L107.683 46.1938C106.043 45.4388 104.505 44.9952 102.865 44.5274L102.344 46.0906C103.881 46.481 105.392 47.002 107.059 47.7037ZM110.55 53.4611H124.197V52.106H118.154V50.4397H123.129V49.1379H118.154V47.4715H123.129V46.1697H118.154V44.5034H123.807V43.1482H118.441L117.686 40.6478L116.097 40.935L116.749 43.1482H112.894C113.363 42.3675 113.728 41.5077 114.066 40.5963L112.478 40.0752C111.54 42.7321 109.872 44.9453 108.206 46.0648L109.379 47.3666C109.795 47.0278 110.187 46.6633 110.551 46.2987V53.4611H110.55ZM112.503 62.498H114.378V57.1842H124.639V55.6743H114.378V53.9547H112.503V55.6743H102.242V57.1842H112.503V62.498Z" fill="white"/>
<path d="M128.156 54.2676H138.912V59.5023C138.912 60.1266 138.782 60.3106 138.235 60.3879C136.697 60.5702 135.11 60.6218 132.869 60.283L133.182 62.1059C135.292 62.2882 137.428 62.2108 138.938 62.001C140.475 61.7929 140.866 61.0638 140.866 59.4748V54.2659H150.814V52.756H140.866V51.793C143.053 50.7251 144.773 49.5265 146.049 48.0682V46.6357H132.844V48.0682H143.887C142.611 49.1103 140.917 50.0734 138.912 50.8558V52.7578H128.156V54.2676ZM128.936 43.5902V47.8877H130.811V44.4242C130.811 44.1904 130.967 44.0339 131.201 44.0339H147.765C147.999 44.0339 148.156 44.1904 148.156 44.4242V47.8877H150.03V43.5902C150.03 42.9127 149.665 42.5481 148.988 42.5481H140.47V39.7605H138.517V42.5481H129.973C129.301 42.5481 128.936 42.9127 128.936 43.5902Z" fill="white"/>
<path d="M150.444 75H7.19584C3.26123 75 0.0592041 71.798 0.0592041 67.8634V0H155.982C159.916 0 163.118 3.20203 163.118 7.13663V74.4617H160.883V7.13663C160.883 4.43503 158.683 2.23557 155.982 2.23557H2.29478V67.8634C2.29478 70.565 4.49423 72.7644 7.19584 72.7644H150.444V75Z" fill="white"/>
<path d="M13.2508 29.4563C12.2293 28.4709 11.7186 27.1537 11.7186 25.5045V17.0059C11.7186 15.3567 12.2293 14.0446 13.2508 13.0661C14.2723 12.0893 15.6446 11.601 17.3643 11.601C19.1028 11.601 20.4923 12.0945 21.531 13.0799C22.5697 14.0652 23.0908 15.3739 23.0908 17.0059V25.5028C23.0908 27.1519 22.5714 28.4692 21.531 29.4546C20.4906 30.4399 19.1028 30.9335 17.3643 30.9335C15.6429 30.9352 14.2723 30.4417 13.2508 29.4563ZM20.1329 28.2732C20.8328 27.6111 21.1819 26.7237 21.1819 25.6111V16.9268C21.1819 15.8331 20.8363 14.9543 20.1467 14.2922C19.4571 13.6284 18.5285 13.2965 17.3643 13.2965C16.2344 13.2965 15.3299 13.6284 14.6489 14.2922C13.9679 14.956 13.6274 15.8348 13.6274 16.9268V25.6111C13.6274 26.722 13.9679 27.6094 14.6489 28.2732C15.3299 28.937 16.2361 29.2688 17.3643 29.2688C18.5113 29.2671 19.4347 28.9352 20.1329 28.2732Z" fill="white"/>
<path d="M29.1406 28.9988H37.5841C37.763 28.9988 37.8524 29.0882 37.8524 29.2671V30.3969C37.8524 30.5757 37.763 30.6652 37.5841 30.6652H26.8568C26.678 30.6652 26.5886 30.5757 26.5886 30.3969V29.2671C26.5886 29.1415 26.6333 29.0349 26.7227 28.9438C27.3315 28.2267 28.7038 26.5414 30.8361 23.8897L32.8258 21.4168C34.5111 19.2844 35.3537 17.6249 35.3537 16.4418C35.3537 15.4925 35.0304 14.7307 34.3855 14.1563C33.7407 13.5837 32.898 13.2965 31.8576 13.2965C30.8362 13.2965 30.0107 13.5888 29.3848 14.1701C28.7571 14.753 28.4527 15.5183 28.4699 16.4693V17.3033C28.4699 17.4822 28.3805 17.5716 28.2016 17.5716H26.8035C26.6247 17.5716 26.5352 17.4822 26.5352 17.3033V16.2285C26.5714 14.8476 27.0873 13.7367 28.0812 12.8941C29.0769 12.0514 30.3357 11.6301 31.8594 11.6301C32.9342 11.6301 33.8851 11.8365 34.7088 12.2492C35.5326 12.6619 36.1706 13.2311 36.6177 13.9568C37.0648 14.6825 37.2901 15.5028 37.2901 16.4177C37.2901 17.9413 36.4474 19.7779 34.7622 21.9292C33.8834 23.0591 32.1895 25.1381 29.6805 28.1665L29.089 28.8664C29.0322 28.9541 29.0511 28.9988 29.1406 28.9988Z" fill="white"/>
</svg>
