<svg width="164" height="75" viewBox="0 0 164 75" fill="none" xmlns="http://www.w3.org/2000/svg">
<path d="M50.4018 54.2281H61.1566V59.4628C61.1566 60.087 61.026 60.2693 60.4791 60.3484C58.9434 60.5307 57.3545 60.5823 55.1154 60.2435L55.4284 62.0664C57.5385 62.2487 59.6726 62.1713 61.1842 61.9615C62.7198 61.7534 63.1119 61.0243 63.1119 59.4353V54.2264H73.0585V52.7165H63.1119V51.7535C65.2993 50.6856 67.0173 49.4887 68.2933 48.0304V46.5979H55.0914V48.0304H66.1317C64.8557 49.0726 63.1635 50.0356 61.1584 50.8163V52.7165H50.4035V54.2281H50.4018ZM51.1826 43.5524V47.8499H53.057V44.3865C53.057 44.1526 53.2135 43.9961 53.4474 43.9961H70.0095C70.2434 43.9961 70.3999 44.1526 70.3999 44.3865V47.8499H72.2743V43.5524C72.2743 42.8749 71.9097 42.5103 71.2322 42.5103H62.7164V39.7244H60.7628V42.5103H52.2212C51.5471 42.5103 51.1826 42.8749 51.1826 43.5524Z" fill="white"/>
<path d="M82.4049 46.8335C82.4565 45.4526 82.4565 44.1508 82.4565 42.8232H85.3215V46.8335H82.4049ZM97.7169 51.3648V40.9488H95.9456V51.4422C95.9456 52.0149 95.7891 52.1972 95.3214 52.2763C94.4615 52.3812 93.4985 52.4843 92.2741 52.407L92.6903 53.9701C93.8614 53.9701 95.1649 53.8394 96.2586 53.683C97.3781 53.499 97.7169 52.8489 97.7169 51.3648ZM91.7273 50.6099H93.4985V41.8086H91.7273V50.6099ZM78.135 42.8232H80.7128C80.7128 44.2299 80.7128 45.5317 80.6612 46.8335H77.2235V48.266H80.5821C80.3998 50.1937 79.6964 51.3648 77.0671 52.7973L78.448 54.1782C81.1306 52.4328 82.1194 51.002 82.3275 48.2677H85.3215V53.4766H87.0927V48.2677H90.269V46.8352H87.0927V42.825H89.5673V41.3925H78.135V42.8232ZM76.9622 61.4679H98.575V60.0354H89.1219V57.4318H96.4907V55.9994H89.1219V53.3958H87.2217V55.9994H79.0447V57.4318H87.2217V60.0354H76.9622V61.4679Z" fill="white"/>
<path d="M115.45 52.1972H121.232C120.502 54.1507 119.486 55.7655 118.107 57.0673C116.883 55.7913 116.023 54.1765 115.45 52.1972ZM112.117 50.7647V52.1972H113.706C114.41 54.7492 115.399 56.6769 116.779 58.1868C115.19 59.3321 113.239 60.2177 110.869 60.9211L111.885 62.4843C114.411 61.6244 116.442 60.6098 118.083 59.3854C119.723 60.6872 121.859 61.6502 124.619 62.51L125.426 60.8437C122.979 60.271 120.974 59.437 119.411 58.2401C121.051 56.5995 122.222 54.646 123.03 52.1989V50.7664H112.117V50.7647ZM114.408 41.5473V42.328C114.408 43.5782 114.356 44.8542 114.121 45.6607C113.679 46.9625 112.845 47.6143 110.996 48.2901L111.985 49.8258C114.095 48.9143 115.318 47.9255 115.839 46.0494C116.073 45.1637 116.126 43.8877 116.126 42.5859C116.126 42.4294 116.231 42.3263 116.386 42.3263H119.407C119.564 42.3263 119.667 42.4312 119.667 42.5859V48.0545C119.667 48.8094 120.083 49.174 120.838 49.2256C121.827 49.303 122.817 49.303 123.806 49.2256C124.666 49.174 124.977 48.7045 125.056 48.0012C125.134 47.0898 125.134 46.3606 125.134 45.5266L123.57 45.3185C123.596 46.1783 123.596 46.8542 123.519 47.4543C123.493 47.6882 123.388 47.7673 123.154 47.7931C122.712 47.8447 122.217 47.8447 121.773 47.7931C121.539 47.7673 121.383 47.6366 121.383 47.4027V41.5473C121.383 41.1311 121.149 40.8955 120.731 40.8955H115.055C114.642 40.8955 114.408 41.1311 114.408 41.5473ZM102.613 43.5008V44.9333H112.012V43.5008H108.236V40.3762H106.413V43.5008H102.613ZM105.373 59.8016V55.7397C105.373 55.5832 105.478 55.48 105.633 55.48H108.862C109.019 55.48 109.122 55.5849 109.122 55.7397V59.8016C109.122 59.9581 109.017 60.0612 108.862 60.0612H105.633C105.476 60.0612 105.373 59.9581 105.373 59.8016ZM104.382 61.4937H110.111C110.527 61.4937 110.762 61.2598 110.762 60.842V54.6959C110.762 54.2797 110.528 54.0441 110.111 54.0441H104.382C103.966 54.0441 103.731 54.278 103.731 54.6959V60.842C103.732 61.2598 103.966 61.4937 104.382 61.4937ZM103.835 50.5308V51.9633H110.685V50.5308H103.835ZM103.835 47.0158V48.4483H110.685V47.0158H103.835Z" fill="white"/>
<path d="M138.287 48.1095V49.6194H143.651V61.9357H145.525V49.6194H151.071V48.1095H145.525V40.7665H143.651V48.1095H138.287ZM128.652 43.5008V44.9333H138.313V43.5008H134.408V40.3762H132.585V43.5008H128.652ZM131.491 59.8016V55.7397C131.491 55.5832 131.596 55.48 131.751 55.48H135.24C135.397 55.48 135.5 55.5849 135.5 55.7397V59.8016C135.5 59.9581 135.395 60.0612 135.24 60.0612H131.751C131.594 60.0612 131.491 59.9581 131.491 59.8016ZM130.475 61.4937H136.516C136.932 61.4937 137.168 61.2598 137.168 60.842V54.6959C137.168 54.2797 136.934 54.0441 136.516 54.0441H130.475C130.059 54.0441 129.823 54.278 129.823 54.6959V60.842C129.825 61.2598 130.059 61.4937 130.475 61.4937ZM129.928 50.5308V51.9633H137.037V50.5308H129.928ZM129.928 47.0158V48.4483H137.037V47.0158H129.928Z" fill="white"/>
<path d="M150.385 75H7.13663C3.20203 75 0 71.798 0 67.8634V0H155.923C159.857 0 163.059 3.20203 163.059 7.13663V74.4617H160.824V7.13663C160.824 4.43503 158.624 2.23557 155.923 2.23557H2.23557V67.8634C2.23557 70.565 4.43503 72.7644 7.13663 72.7644H150.385V75Z" fill="white"/>
<path d="M13.1916 29.4563C12.1701 28.4709 11.6594 27.1537 11.6594 25.5045V17.0059C11.6594 15.3567 12.1701 14.0446 13.1916 13.0661C14.2131 12.0893 15.5854 11.601 17.305 11.601C19.0436 11.601 20.4331 12.0945 21.4718 13.0799C22.5105 14.0652 23.0315 15.3739 23.0315 17.0059V25.5028C23.0315 27.1519 22.5122 28.4692 21.4718 29.4546C20.4314 30.4399 19.0436 30.9335 17.305 30.9335C15.5837 30.9352 14.2131 30.4417 13.1916 29.4563ZM20.0737 28.2732C20.7736 27.6111 21.1227 26.7237 21.1227 25.6111V16.9268C21.1227 15.8331 20.7771 14.9543 20.0875 14.2922C19.3979 13.6284 18.4693 13.2965 17.305 13.2965C16.1752 13.2965 15.2707 13.6284 14.5897 14.2922C13.9087 14.956 13.5682 15.8348 13.5682 16.9268V25.6111C13.5682 26.722 13.9087 27.6094 14.5897 28.2732C15.2707 28.937 16.1769 29.2688 17.305 29.2688C18.4521 29.2671 19.3755 28.9352 20.0737 28.2732Z" fill="white"/>
<path d="M30.722 11.8434H32.1734C32.3522 11.8434 32.4416 11.9328 32.4416 12.1117V30.3952C32.4416 30.574 32.3522 30.6635 32.1734 30.6635H30.8028C30.6239 30.6635 30.5345 30.574 30.5345 30.3952V14.0222C30.5345 13.9861 30.5208 13.9603 30.495 13.9414C30.4675 13.9242 30.4365 13.9242 30.4004 13.9414L27.5509 15.097L27.4443 15.1245C27.3377 15.1245 27.2654 15.0523 27.2293 14.9096L27.0952 13.8881V13.8348C27.0952 13.7453 27.1571 13.6559 27.2826 13.5665L30.3746 11.9259C30.4795 11.8709 30.5964 11.8434 30.722 11.8434Z" fill="white"/>
</svg>
