<svg width="164" height="75" viewBox="0 0 164 75" fill="none" xmlns="http://www.w3.org/2000/svg">
<path d="M150.444 75H7.19584C3.26123 75 0.0592041 71.798 0.0592041 67.8634V0H155.982C159.916 0 163.118 3.20203 163.118 7.13663V74.4617H160.883V7.13663C160.883 4.43503 158.683 2.23557 155.982 2.23557H2.29478V67.8634C2.29478 70.565 4.49423 72.7644 7.19584 72.7644H150.444V75Z" fill="white"/>
<path d="M13.2508 29.4562C12.2293 28.4709 11.7186 27.1536 11.7186 25.5044V17.0075C11.7186 15.3584 12.2293 14.0463 13.2508 13.0678C14.2723 12.091 15.6446 11.6026 17.3643 11.6026C19.1028 11.6026 20.4923 12.0962 21.531 13.0815C22.5697 14.0669 23.0908 15.3756 23.0908 17.0075V25.5044C23.0908 27.1536 22.5714 28.4709 21.531 29.4562C20.4906 30.4416 19.1028 30.9351 17.3643 30.9351C15.6429 30.9351 14.2723 30.4416 13.2508 29.4562ZM20.1329 28.2731C20.8328 27.611 21.1819 26.7237 21.1819 25.611V16.9267C21.1819 15.833 20.8363 14.9542 20.1467 14.2922C19.4571 13.6284 18.5285 13.2965 17.3643 13.2965C16.2344 13.2965 15.3299 13.6284 14.6489 14.2922C13.9679 14.956 13.6274 15.8347 13.6274 16.9267V25.611C13.6274 26.7219 13.9679 27.6093 14.6489 28.2731C15.3299 28.9369 16.2361 29.2688 17.3643 29.2688C18.5113 29.2671 19.4347 28.9352 20.1329 28.2731Z" fill="white"/>
<path d="M38.1757 24.0238V25.2069C38.1757 25.3858 38.0863 25.4752 37.9074 25.4752H36.7518C36.6796 25.4752 36.6435 25.5113 36.6435 25.5836V30.3969C36.6435 30.5758 36.5541 30.6652 36.3752 30.6652H35.0046C34.8258 30.6652 34.7364 30.5758 34.7364 30.3969V25.5836C34.7364 25.5113 34.7003 25.4752 34.628 25.4752H26.5886C26.4097 25.4752 26.3203 25.3858 26.3203 25.2069V24.2113C26.3203 24.1218 26.3478 24.0135 26.4011 23.888L31.9127 12.0308C31.966 11.9053 32.064 11.8434 32.2084 11.8434H33.6341C33.7235 11.8434 33.7906 11.8743 33.8353 11.938C33.88 12.0016 33.8851 12.0773 33.849 12.1667L28.4974 23.6214C28.4785 23.6575 28.4785 23.6885 28.4974 23.716C28.5146 23.7435 28.5421 23.7555 28.5782 23.7555H34.628C34.7003 23.7555 34.7364 23.7194 34.7364 23.6489V19.3205C34.7364 19.1417 34.8258 19.0522 35.0046 19.0522H36.3752C36.5541 19.0522 36.6435 19.1417 36.6435 19.3205V23.6489C36.6435 23.7212 36.6796 23.7555 36.7518 23.7555H37.9074C38.0846 23.7555 38.1757 23.845 38.1757 24.0238Z" fill="white"/>
<path d="M62.8152 52.7406H56.1119V48.5842C56.1119 48.4277 56.215 48.3245 56.3715 48.3245H62.8152C62.9716 48.3245 63.0748 48.4277 63.0748 48.5842V52.4809C63.0765 52.6374 62.9716 52.7406 62.8152 52.7406ZM50.3183 49.1035L51.8247 50.4552C52.7602 49.6504 53.5908 48.8954 54.2925 48.1422L54.3698 60.3794C54.3698 61.4972 54.9683 62.0681 56.0586 62.0681H71.2845C72.2716 62.0681 72.8443 61.6777 73.0248 60.431C73.2329 59.1051 73.2845 57.6503 73.2845 55.9874L71.4393 55.7019C71.5167 57.4164 71.3877 58.8712 71.1796 59.989C71.128 60.3536 70.92 60.5084 70.6087 60.5084H56.7602C56.344 60.5084 56.1101 60.2745 56.1101 59.6245V54.1697H64.2425C64.6586 54.1697 64.8925 53.9358 64.8925 53.5196V47.5438C64.8925 47.1276 64.6586 46.8937 64.2425 46.8937H55.3569C56.0328 46.0098 56.6037 45.1001 57.123 44.0872H68.7377C68.92 44.0872 69.049 44.1904 69.049 44.3985C69.0748 47.2308 69.0747 49.9857 68.9716 52.8438C68.9458 53.4147 68.8409 53.597 68.3731 53.6486C67.515 53.726 66.6328 53.7793 65.3585 53.7002L65.7489 55.3115C66.9183 55.3115 68.165 55.3115 69.4651 55.1292C70.5829 54.9985 70.791 54.3502 70.8426 52.8679C70.9199 50.1663 70.9457 47.3856 70.9457 43.3323C70.9457 42.813 70.6603 42.5275 70.1667 42.5275H57.8247C58.1101 41.8259 58.3698 41.0726 58.6295 40.2403L56.7327 39.7726C55.5409 43.4389 54.0603 46.2454 50.3183 49.1035Z" fill="white"/>
<path d="M84.538 51.0777H86.3574V39.9824H84.538V43.0228H80.6412V40.476H78.8751V44.4518H84.5397V46.1406H77.7849V47.5696H79.8898C79.422 48.6083 78.6688 49.4664 77.2913 50.3503L78.6172 51.5455C80.4624 50.168 81.0849 49.1294 81.6576 47.5696H84.5415V51.0777H84.538ZM86.8768 44.7115H91.9171V48.5567H87.7865V50.0373H97.8414V48.5567H93.7365V44.7115H98.7511V43.2309H93.7365V40.2696H91.9171V43.2309H86.8768V44.7115ZM77.5751 53.7278H85.3445C83.5509 55.5214 80.98 56.4036 76.4848 57.1568L77.3429 58.8455C79.5252 58.3777 81.2672 57.91 82.6687 57.3391V60.2487C81.7075 60.431 80.6688 60.5858 79.5252 60.7423L79.9929 62.4052C84.1236 61.781 86.8785 61.1327 89.9447 60.0149L89.4253 58.4293C87.814 59.0003 86.2302 59.468 84.4882 59.8584V56.4809C85.814 55.7535 86.7753 54.8438 87.6059 53.726H87.7366C89.4511 57.9358 92.648 60.7148 98.4932 62.3777L99.4029 60.7664C96.4932 60.0131 94.2834 58.9469 92.6205 57.6486C94.5173 56.947 95.7125 56.2196 97.1157 54.947L95.7898 53.8292C94.6721 54.8421 93.1914 55.8567 91.3995 56.505C90.5947 55.6469 89.9705 54.7114 89.5285 53.7243H98.3625V52.2179H88.8785V50.5584H87.0591V52.2213H77.5751V53.7278Z" fill="white"/>
<path d="M115.587 52.1697H121.354C120.627 54.1181 119.614 55.7294 118.237 57.0277C117.016 55.7552 116.159 54.1439 115.587 52.1697ZM112.261 50.7406V52.1697H113.846C114.548 54.7165 115.535 56.6391 116.913 58.1455C115.327 59.2891 113.379 60.173 111.014 60.8729L112.027 62.4327C114.548 61.5746 116.574 60.5617 118.211 59.3407C119.848 60.6391 121.979 61.6021 124.732 62.4585L125.537 60.7956C123.095 60.2246 121.093 59.3923 119.535 58.1971C121.172 56.56 122.342 54.6116 123.146 52.1697V50.7406H112.261ZM114.548 41.5421V42.3211C114.548 43.5679 114.496 44.8422 114.263 45.647C113.821 46.9453 112.99 47.5954 111.145 48.2712L112.132 49.8034C114.237 48.8937 115.458 47.9066 115.977 46.0356C116.211 45.1517 116.263 43.8791 116.263 42.5791C116.263 42.4226 116.366 42.3194 116.522 42.3194H119.537C119.693 42.3194 119.796 42.4226 119.796 42.5791V48.0356C119.796 48.7888 120.213 49.1534 120.966 49.205C121.953 49.2824 122.94 49.2824 123.927 49.205C124.785 49.1534 125.096 48.6856 125.174 47.984C125.251 47.0743 125.251 46.3469 125.251 45.5163L123.691 45.3082C123.717 46.1663 123.717 46.8404 123.64 47.4389C123.614 47.6727 123.509 47.7501 123.275 47.7759C122.833 47.8275 122.34 47.8275 121.898 47.7759C121.664 47.7501 121.508 47.6194 121.508 47.3856V41.5387C121.508 41.1225 121.274 40.8886 120.857 40.8886H115.193C114.782 40.8921 114.548 41.126 114.548 41.5421ZM102.779 43.4905V44.9196H112.158V43.4905H108.39V40.3727H106.57V43.4905H102.779ZM105.532 59.7569V55.7036C105.532 55.5471 105.635 55.4439 105.791 55.4439H109.014C109.171 55.4439 109.274 55.5471 109.274 55.7036V59.7569C109.274 59.9134 109.171 60.0165 109.014 60.0165H105.791C105.637 60.0165 105.532 59.9116 105.532 59.7569ZM104.545 61.4456H110.261C110.677 61.4456 110.911 61.2117 110.911 60.7956V54.6632C110.911 54.247 110.677 54.0132 110.261 54.0132H104.545C104.129 54.0132 103.895 54.247 103.895 54.6632V60.7956C103.895 61.2117 104.129 61.4456 104.545 61.4456ZM104 50.5068V51.9358H110.834V50.5068H104ZM104 46.9986V48.4277H110.834V46.9986H104Z" fill="white"/>
<path d="M138.374 48.0906V49.597H143.727V61.8875H145.598V49.597H151.132V48.0906H145.598V40.7631H143.727V48.0906H138.374ZM128.761 43.4905V44.9196H138.402V43.4905H134.505V40.3727H132.685V43.4905H128.761ZM131.593 59.7569V55.7036C131.593 55.5471 131.697 55.4439 131.853 55.4439H135.335C135.492 55.4439 135.595 55.5471 135.595 55.7036V59.7569C135.595 59.9134 135.492 60.0165 135.335 60.0165H131.853C131.697 60.0165 131.593 59.9116 131.593 59.7569ZM130.58 61.4456H136.608C137.024 61.4456 137.258 61.2117 137.258 60.7956V54.6632C137.258 54.247 137.024 54.0132 136.608 54.0132H130.58C130.164 54.0132 129.93 54.247 129.93 54.6632V60.7956C129.93 61.2117 130.164 61.4456 130.58 61.4456ZM130.034 50.5068V51.9358H137.127V50.5068H130.034ZM130.034 46.9986V48.4277H137.127V46.9986H130.034Z" fill="white"/>
</svg>
