<svg width="106" height="56" viewBox="0 0 106 56" fill="none" xmlns="http://www.w3.org/2000/svg">
<path d="M41.1256 36.0438H10.6997V46.0745C10.6997 47.3452 11.435 48.0805 12.7057 48.0805H35.7758V45.4056H15.0461C14.4444 45.4056 14.0427 45.0047 14.0427 44.4022V38.7187H38.7851C39.3869 38.7187 39.7885 39.1196 39.7885 39.7221V48.0805H43.1323V38.0498C43.1316 36.7791 42.3962 36.0438 41.1256 36.0438ZM6.68691 15.3134V26.0123H10.0307V16.9857C10.0307 16.3839 10.4316 15.9823 11.0341 15.9823H43.8005V22.3347C43.8005 22.9365 43.3996 23.3381 42.7971 23.3381H14.0427V26.013H45.1376C46.4082 26.013 47.1436 25.2777 47.1436 24.007V13.3074H8.69291C7.42227 13.3074 6.68691 14.0435 6.68691 15.3134ZM0.133633 31.6973V55.4363H3.47746V33.3689C3.47746 32.7671 3.87836 32.3655 4.48084 32.3655H50.3538V51.7581C50.3538 52.3598 49.9529 52.7614 49.3504 52.7614H27.8846V55.4363H51.6909C52.9615 55.4363 53.6969 54.701 53.6969 53.4303V29.6906H2.13963C0.868988 29.6906 0.133633 30.4267 0.133633 31.6973ZM0 6.62047V9.62984H54.4994V6.62047H28.888V0H24.876V6.62047H0Z" fill="black"/>
<path d="M60.4993 25.9874H61.6725V29.1538H61.7027L64.5339 25.9874H65.8385L63.5328 28.5717L66.2228 32.6849H64.9182L62.8148 29.409L61.6725 30.6645V32.6849H60.4993V25.9874Z" fill="black"/>
<path d="M66.3165 32.7354H64.891L62.8088 29.492L61.7239 30.6849V32.7362H60.4495V25.9368H61.7239V29.0556L64.512 25.9368H65.9518L63.597 28.5762L66.3165 32.7354ZM64.9462 32.6343H66.1292L63.4694 28.5672L65.7253 26.038H64.5566L61.7254 29.2044H61.622V26.038H60.5499V32.6343H61.622V30.6449L62.8224 29.3259L64.9462 32.6343Z" fill="black"/>
<path d="M67.1318 31.3561C67.1318 30.2825 68.1428 29.7276 70.4583 29.4996C70.4485 28.9175 70.216 28.4079 69.3968 28.4079C68.8102 28.4079 68.2643 28.6442 67.7887 28.9175L67.3538 28.2078C67.9299 27.8801 68.709 27.5525 69.5984 27.5525C70.9838 27.5525 71.621 28.3444 71.621 29.6725V32.6849H70.6705L70.5693 32.1118H70.5391C70.0332 32.5029 69.4368 32.8034 68.7694 32.8034C67.8098 32.8034 67.1318 32.2387 67.1318 31.3561ZM70.4591 31.3931V30.1647C68.8109 30.3467 68.2545 30.7196 68.2545 31.2836C68.2545 31.7751 68.629 31.9752 69.1242 31.9752C69.6097 31.9752 70.0038 31.766 70.4591 31.3931Z" fill="black"/>
<path d="M68.7702 32.854C67.76 32.854 67.0813 32.2522 67.0813 31.3568C67.0813 30.2598 68.0764 29.6898 70.407 29.455C70.3813 28.7853 70.0507 28.4592 69.3968 28.4592C68.9144 28.4592 68.4116 28.6192 67.8144 28.962L67.7714 28.9862L67.2836 28.1897L67.3289 28.164C68.102 27.7246 68.8653 27.5019 69.5984 27.5019C70.9544 27.5019 71.6716 28.2523 71.6716 29.6724V32.7347H70.629L70.5316 32.1813C69.9419 32.6275 69.35 32.854 68.7702 32.854ZM69.3976 28.3573C70.1224 28.3573 70.4969 28.7415 70.5097 29.4988L70.5104 29.5456L70.4644 29.5501C68.1647 29.7759 67.1832 30.3165 67.1832 31.3561C67.1832 32.1911 67.8212 32.752 68.771 32.752C69.341 32.752 69.9261 32.5233 70.5097 32.071L70.5233 32.0605H70.6131L70.7143 32.6335H71.572V29.6717C71.572 28.318 70.8902 27.6023 69.5999 27.6023C68.8985 27.6023 68.1677 27.8122 67.4256 28.2251L67.8076 28.8488C68.4018 28.5143 68.9084 28.3573 69.3976 28.3573ZM69.1243 32.0257C68.5392 32.0257 68.204 31.7555 68.204 31.2836C68.204 30.6381 68.8767 30.2885 70.4531 30.1141L70.5089 30.1081V31.4172L70.4908 31.4323C69.9767 31.8536 69.5803 32.0257 69.1243 32.0257ZM70.4085 30.2206C68.546 30.435 68.3051 30.9001 68.3051 31.2836C68.3051 31.8415 68.8185 31.9246 69.1243 31.9246C69.5493 31.9246 69.9231 31.763 70.4085 31.3689V30.2206Z" fill="black"/>
<path d="M73.229 30.1919C73.229 28.5173 74.4725 27.5532 75.8481 27.5532C77.2236 27.5532 78.4671 28.5181 78.4671 30.1919C78.4671 31.8483 77.2236 32.8034 75.8481 32.8034C74.4725 32.8034 73.229 31.8476 73.229 30.1919ZM77.2735 30.1919C77.2735 29.1274 76.7276 28.4177 75.8481 28.4177C74.9783 28.4177 74.4325 29.1274 74.4325 30.1919C74.4325 31.2474 74.9783 31.948 75.8481 31.948C76.7276 31.948 77.2735 31.2474 77.2735 30.1919Z" fill="black"/>
<path d="M75.8481 32.854C74.5216 32.854 73.1785 31.9397 73.1785 30.1919C73.1785 29.3878 73.4586 28.7015 73.9886 28.2078C74.4763 27.7533 75.1361 27.5026 75.8481 27.5026C77.1746 27.5026 78.5177 28.4267 78.5177 30.1919C78.5177 31.9389 77.1746 32.854 75.8481 32.854ZM75.8481 27.603C74.1622 27.603 73.2796 28.9054 73.2796 30.1911C73.2796 31.8725 74.5714 32.752 75.8481 32.752C77.1248 32.752 78.4166 31.8725 78.4166 30.1911C78.4166 28.9054 77.534 27.603 75.8481 27.603ZM75.8481 31.9986C74.9572 31.9986 74.3819 31.2896 74.3819 30.1919C74.3819 29.0836 74.9572 28.3671 75.8481 28.3671C76.745 28.3671 77.3241 29.0836 77.3241 30.1919C77.3241 31.2889 76.745 31.9986 75.8481 31.9986ZM75.8481 28.4675C75.0191 28.4675 74.4831 29.144 74.4831 30.1911C74.4831 31.227 75.0191 31.8966 75.8481 31.8966C76.6831 31.8966 77.2229 31.227 77.2229 30.1911C77.2237 29.1447 76.6839 28.4675 75.8481 28.4675Z" fill="black"/>
<path d="M60.4993 37.1098H62.4305C64.7159 37.1098 66.0205 38.2476 66.0205 40.431C66.0205 42.6061 64.7159 43.8073 62.4917 43.8073H60.5V37.1098H60.4993ZM62.3497 42.9429C63.9473 42.9429 64.8072 42.0965 64.8072 40.431C64.8072 38.7565 63.948 37.9652 62.3497 37.9652H61.6725V42.9429H62.3497Z" fill="black"/>
<path d="M62.4917 43.8579H60.4495V37.0593H62.4313C64.7786 37.0593 66.0718 38.2567 66.0718 40.431C66.0711 42.6092 64.7665 43.8579 62.4917 43.8579ZM60.5499 43.7567H62.4917C64.7023 43.7567 65.9699 42.545 65.9699 40.431C65.9699 38.3216 64.7129 37.1604 62.4305 37.1604H60.5499V43.7567ZM62.3498 42.9935H61.622V37.9147H62.3498C64.0138 37.9147 64.8571 38.7618 64.8571 40.431C64.8578 42.1071 63.9903 42.9935 62.3498 42.9935ZM61.7231 42.8923H62.3498C63.9239 42.8923 64.7567 42.0414 64.7567 40.431C64.7567 38.8282 63.9473 38.0158 62.3498 38.0158H61.7231V42.8923Z" fill="black"/>
<path d="M67.4255 41.3136C67.4255 39.6851 68.6592 38.6749 69.9638 38.6749C71.4398 38.6749 72.2288 39.63 72.2288 41.0501C72.2288 41.2502 72.2084 41.4593 72.1782 41.5778H68.5678C68.6584 42.5329 69.3258 43.1067 70.2869 43.1067C70.7822 43.1067 71.2073 42.97 71.6119 42.7337L72.0166 43.3981C71.501 43.7077 70.8637 43.9259 70.1359 43.9259C68.629 43.9259 67.4255 42.961 67.4255 41.3136ZM71.2276 40.8591C71.2276 39.9946 70.7928 39.4941 69.9842 39.4941C69.2866 39.4941 68.6698 39.9765 68.558 40.8591H71.2276Z" fill="black"/>
<path d="M70.1352 43.9757C68.5097 43.9757 67.375 42.8809 67.375 41.3136C67.375 39.5666 68.7091 38.6243 69.9638 38.6243C71.4134 38.6243 72.2794 39.5311 72.2794 41.0501C72.2794 41.2547 72.259 41.4669 72.2273 41.5907L72.2175 41.6284H68.6245C68.7317 42.511 69.3644 43.0561 70.287 43.0561C70.746 43.0561 71.159 42.9398 71.5863 42.6899L71.6293 42.665L72.0861 43.4155L72.0423 43.4419C71.4587 43.7915 70.7996 43.9757 70.1352 43.9757ZM69.9638 38.7255C68.7581 38.7255 67.4762 39.633 67.4762 41.3136C67.4762 42.8455 68.5452 43.8745 70.1352 43.8745C70.7641 43.8745 71.3893 43.7039 71.9464 43.38L71.5939 42.8017C71.1658 43.044 70.749 43.1565 70.287 43.1565C69.2881 43.1565 68.6102 42.5533 68.5173 41.5824L68.512 41.5272H72.1374C72.1616 41.4087 72.1775 41.2237 72.1775 41.0501C72.1782 39.5945 71.35 38.7255 69.9638 38.7255ZM71.2783 40.9097H68.5007L68.5082 40.853C68.6147 40.0105 69.2074 39.4442 69.9842 39.4442C70.8064 39.4442 71.2783 39.9599 71.2783 40.8598V40.9097ZM68.6162 40.8085H71.1764C71.1597 39.9931 70.7377 39.5447 69.9835 39.5447C69.267 39.5447 68.7347 40.0384 68.6162 40.8085Z" fill="black"/>
<path d="M73.3 43.2335L73.8459 42.5601C74.3412 42.9149 74.8266 43.1331 75.4231 43.1331C76.0905 43.1331 76.4038 42.8417 76.4038 42.4597C76.4038 42.0044 75.7772 41.8043 75.1702 41.5952C74.4318 41.3408 73.5824 40.9859 73.5824 40.1396C73.5824 39.3023 74.3306 38.6749 75.5544 38.6749C76.3026 38.6749 76.9096 38.9482 77.3641 39.2661L76.8183 39.9123C76.434 39.6579 76.0399 39.476 75.5748 39.476C74.9678 39.476 74.6847 39.7485 74.6847 40.0951C74.6847 40.5231 75.2607 40.6862 75.8678 40.887C76.6461 41.1505 77.5061 41.4601 77.5061 42.4068C77.5061 43.2441 76.7677 43.9266 75.3929 43.9266C74.6243 43.9259 73.8353 43.6344 73.3 43.2335Z" fill="black"/>
<path d="M75.3928 43.9757C74.662 43.9757 73.8489 43.7069 73.2698 43.2743L73.2275 43.2426L73.8368 42.4914L73.8753 42.5193C74.4197 42.9089 74.8968 43.0833 75.423 43.0833C76.0059 43.0833 76.3532 42.8507 76.3532 42.4604C76.3532 42.0565 75.7741 41.8572 75.2139 41.6647L75.1535 41.6435C74.3691 41.3725 73.5318 41.0108 73.5318 40.1396C73.5318 39.2328 74.3449 38.6243 75.5544 38.6243C76.2052 38.6243 76.8243 38.8267 77.3936 39.2253L77.4388 39.257L76.8281 39.9795L76.7903 39.9546C76.3434 39.6587 75.9681 39.5265 75.5748 39.5265C75.0493 39.5265 74.7352 39.7387 74.7352 40.095C74.7352 40.4627 75.2207 40.6213 75.7832 40.8055L75.8836 40.8387C76.6295 41.0916 77.5566 41.4057 77.5566 42.4061C77.5566 43.4902 76.4702 43.9757 75.3928 43.9757ZM73.3725 43.2245C73.9319 43.6269 74.7005 43.8745 75.3928 43.8745C76.6265 43.8745 77.4555 43.2841 77.4555 42.4053C77.4555 41.4767 76.5661 41.1754 75.8519 40.9338L75.7522 40.9006C75.1777 40.7126 74.6348 40.5344 74.6348 40.0935C74.6348 39.7696 74.8817 39.4246 75.5755 39.4246C75.9795 39.4246 76.3615 39.5545 76.8099 39.8451L77.2909 39.2759C76.7518 38.9105 76.1682 38.7247 75.5552 38.7247C74.4061 38.7247 73.6337 39.2932 73.6337 40.1396C73.6337 40.9444 74.4355 41.2887 75.1875 41.5476L75.2479 41.5688C75.8413 41.7726 76.4551 41.984 76.4551 42.4604C76.4551 42.9134 76.0693 43.1844 75.4238 43.1844C74.8878 43.1844 74.4023 43.0131 73.8557 42.6295L73.3725 43.2245Z" fill="black"/>
<path d="M78.9314 37.2465C78.9314 36.8735 79.2447 36.6274 79.6698 36.6274C80.0948 36.6274 80.418 36.8728 80.418 37.2465C80.418 37.6104 80.0941 37.8656 79.6698 37.8656C79.2455 37.8656 78.9314 37.6104 78.9314 37.2465ZM79.0937 38.8025H80.2466V43.8073H79.0937V38.8025Z" fill="black"/>
<path d="M80.2965 43.8579H79.0424V38.7519H80.2965V43.8579ZM79.1443 43.7567H80.196V38.8531H79.1443V43.7567ZM79.6698 37.9154C79.213 37.9154 78.8809 37.6338 78.8809 37.2457C78.8809 36.8516 79.2055 36.5768 79.6698 36.5768C80.1326 36.5768 80.4686 36.8584 80.4686 37.2457C80.4686 37.6338 80.1326 37.9154 79.6698 37.9154ZM79.6698 36.678C79.2651 36.678 78.982 36.9113 78.982 37.2465C78.982 37.5757 79.2712 37.815 79.6698 37.815C80.0737 37.815 80.3674 37.5757 80.3674 37.2465C80.3674 36.912 80.0805 36.678 79.6698 36.678Z" fill="black"/>
<path d="M81.9446 44.7352C81.9446 44.3169 82.2375 43.9251 82.7539 43.6435V43.5982C82.4708 43.4434 82.2481 43.1799 82.2481 42.77C82.2481 42.3789 82.5614 42.0422 82.8649 41.8421V41.8059C82.4904 41.5416 82.1371 41.069 82.1371 40.4771C82.1371 39.3393 83.1382 38.6757 84.2911 38.6757C84.6044 38.6757 84.8875 38.73 85.0997 38.8033H87.0717V39.5862H86.0102C86.2223 39.7863 86.3741 40.123 86.3741 40.505C86.3741 41.5967 85.4538 42.2249 84.2911 42.2249C84.0382 42.2249 83.755 42.1705 83.5127 42.0701C83.3307 42.2158 83.2092 42.3615 83.2092 42.5978C83.2092 42.8983 83.4319 43.0893 84.1393 43.0893H85.1608C86.4752 43.0893 87.163 43.4532 87.163 44.3086C87.163 45.2735 86.0306 46.0557 84.2511 46.0557C82.9155 46.0549 81.9446 45.6087 81.9446 44.7352ZM86.0396 44.4717C86.0396 44.0535 85.6757 43.9259 84.9977 43.9259H84.1582C83.8955 43.9259 83.6425 43.8987 83.41 43.8534C83.0763 44.0716 82.9351 44.3268 82.9351 44.5812C82.9351 45.0727 83.5014 45.3641 84.4217 45.3641C85.3926 45.3634 86.0396 44.9353 86.0396 44.4717ZM85.342 40.4771C85.342 39.8036 84.8769 39.4126 84.2903 39.4126C83.7037 39.4126 83.2386 39.7946 83.2386 40.4771C83.2386 41.1415 83.7135 41.5507 84.2903 41.5507C84.8671 41.5507 85.342 41.1407 85.342 40.4771Z" fill="black"/>
<path d="M84.2504 46.1055C82.797 46.1055 81.894 45.5808 81.894 44.7352C81.894 44.3079 82.1764 43.913 82.6913 43.6201C82.4573 43.4819 82.1975 43.2252 82.1975 42.7692C82.1975 42.2943 82.6241 41.947 82.8023 41.8225C82.3531 41.491 82.0858 40.9905 82.0858 40.4763C82.0858 39.26 83.1949 38.6243 84.2904 38.6243C84.575 38.6243 84.8642 38.6696 85.108 38.7519H87.1223V39.636H86.1273C86.3152 39.8595 86.4247 40.1758 86.4247 40.5042C86.4247 41.5635 85.567 42.2747 84.2911 42.2747C84.0382 42.2747 83.7596 42.2211 83.521 42.1275C83.3587 42.2611 83.2598 42.3894 83.2598 42.5971C83.2598 42.8024 83.3595 43.038 84.1394 43.038H85.1609C86.5417 43.038 87.2137 43.4532 87.2137 44.3079C87.2129 45.349 85.9672 46.1055 84.2504 46.1055ZM84.2904 38.7255C82.8453 38.7255 82.187 39.633 82.187 40.4771C82.187 41.2086 82.7275 41.6473 82.8936 41.7643L82.9148 41.7794V41.8693L82.8921 41.8844C82.7525 41.9765 82.298 42.3124 82.298 42.7707C82.298 43.2018 82.5584 43.4351 82.7774 43.5544L82.8038 43.5687V43.6744L82.7774 43.6888C82.2723 43.9651 81.9945 44.3366 81.9945 44.7367C81.9945 45.5196 82.8589 46.0058 84.2496 46.0058C85.9076 46.0058 87.111 45.2924 87.111 44.3094C87.111 43.5121 86.4912 43.1407 85.1594 43.1407H84.1379C83.469 43.1407 83.1571 42.9685 83.1571 42.5986C83.1571 42.3268 83.3119 42.1652 83.4795 42.0316L83.5029 42.0127L83.5301 42.024C83.7626 42.1199 84.0397 42.175 84.2896 42.175C85.5051 42.175 86.322 41.5038 86.322 40.5058C86.322 40.1592 86.1922 39.8293 85.974 39.6239L85.8811 39.5364H87.0196V38.8546L85.0823 38.8516C84.8491 38.77 84.5674 38.7255 84.2904 38.7255ZM84.4225 45.4139C83.4599 45.4139 82.8853 45.1021 82.8853 44.5804C82.8853 44.2897 83.0575 44.0232 83.3836 43.8103L83.401 43.799L83.4214 43.8028C83.6652 43.8503 83.9136 43.8745 84.1598 43.8745H84.9993C85.5391 43.8745 86.091 43.9455 86.091 44.4709C86.0903 45.0613 85.2424 45.4139 84.4225 45.4139ZM83.4214 43.9062C83.1367 44.098 82.9858 44.3305 82.9858 44.5804C82.9858 45.0387 83.5225 45.3128 84.4217 45.3128C85.4025 45.3128 85.9891 44.8847 85.9891 44.4717C85.9891 44.1199 85.7022 43.9764 84.9978 43.9764H84.1582C83.9129 43.9757 83.6652 43.9523 83.4214 43.9062ZM84.2904 41.6012C83.6516 41.6012 83.1881 41.1286 83.1881 40.4771C83.1881 39.8104 83.6313 39.362 84.2904 39.362C84.9495 39.362 85.3927 39.8104 85.3927 40.4771C85.3927 41.1279 84.9291 41.6012 84.2904 41.6012ZM84.2904 39.4624C83.6917 39.4624 83.2893 39.8701 83.2893 40.4763C83.2893 41.0788 83.7007 41.4993 84.2904 41.4993C84.88 41.4993 85.2915 41.0788 85.2915 40.4763C85.2915 39.8701 84.8898 39.4624 84.2904 39.4624Z" fill="black"/>
<path d="M88.5469 38.8025H89.4974L89.5888 39.4941H89.619C90.1346 39.0479 90.7009 38.6749 91.4596 38.6749C92.6427 38.6749 93.1689 39.3846 93.1689 40.659V43.8073H92.0062V40.7859C92.0062 39.9214 91.7231 39.5756 91.0655 39.5756C90.5499 39.5756 90.1958 39.8119 89.7005 40.2581V43.8073H88.5476V38.8025H88.5469Z" fill="black"/>
<path d="M93.2188 43.8579H91.9549V40.7859C91.9549 39.9622 91.6975 39.6262 91.0648 39.6262C90.5741 39.6262 90.2343 39.8467 89.7504 40.2808V43.8579H88.4963V38.7519H89.542L89.6296 39.4186C90.0977 39.0199 90.6798 38.6251 91.4589 38.6251C92.6261 38.6251 93.218 39.3099 93.218 40.659V43.8579H93.2188ZM92.0561 43.7567H93.1176V40.659C93.1176 39.3582 92.5748 38.7255 91.4589 38.7255C90.6903 38.7255 90.1362 39.1128 89.6515 39.5318L89.6371 39.5439H89.5435L89.4521 38.8523H88.5967V43.756H89.6484V40.2355L89.6651 40.2204C90.1777 39.7591 90.5348 39.525 91.064 39.525C91.7586 39.525 92.0553 39.9018 92.0553 40.7859V43.7567H92.0561Z" fill="black"/>
<path d="M59.9739 54.0653L60.6617 53.3375C61.1977 53.82 61.9255 54.1295 62.6435 54.1295C63.5434 54.1295 64.0493 53.7475 64.0493 53.1835C64.0493 52.5742 63.5434 52.3825 62.8564 52.1099L61.8251 51.7098C61.1071 51.4365 60.3083 50.9269 60.3083 49.9537C60.3083 48.8982 61.3396 48.1062 62.7552 48.1062C63.625 48.1062 64.4441 48.4339 65.0104 48.9526L64.3936 49.626C63.9285 49.2531 63.4128 49.0258 62.7552 49.0258C61.9965 49.0258 61.5012 49.3535 61.5012 49.8903C61.5012 50.4633 62.0977 50.6822 62.7047 50.9004L63.7262 51.2915C64.6057 51.6282 65.2429 52.1197 65.2429 53.1027C65.2429 54.1763 64.2516 55.0498 62.6239 55.0498C61.6016 55.0476 60.6511 54.6837 59.9739 54.0653Z" fill="black"/>
<path d="M62.6231 55.0981C61.6106 55.0981 60.6329 54.735 59.9398 54.1023L59.9021 54.0676L60.6586 53.2665L60.6956 53.2998C61.2377 53.7875 61.9655 54.0781 62.6435 54.0781C63.4792 54.0781 63.9987 53.7346 63.9987 53.1827C63.9987 52.6165 63.5245 52.4285 62.8684 52.1688L62.8367 52.1567L61.8054 51.7566C60.7779 51.3655 60.2562 50.7592 60.2562 49.9529C60.2562 48.8529 61.3064 48.0549 62.7537 48.0549C63.6121 48.0549 64.4464 48.3682 65.0428 48.914L65.0798 48.948L64.3973 49.6939L64.3603 49.6645C63.859 49.2621 63.3486 49.0749 62.7537 49.0749C62.0115 49.0749 61.5502 49.3867 61.5502 49.8887C61.5502 50.4301 62.1187 50.6347 62.7205 50.8513L63.7427 51.2432C64.4637 51.5195 65.2919 51.98 65.2919 53.1012C65.2927 54.2767 64.1942 55.0981 62.6231 55.0981ZM60.0455 54.0623C60.7175 54.6572 61.6537 54.9977 62.6223 54.9977C64.1346 54.9977 65.1908 54.2178 65.1908 53.1012C65.1908 52.2745 64.7333 51.7301 63.7065 51.3375L62.685 50.9465C62.078 50.7283 61.4491 50.5018 61.4491 49.8895C61.4491 49.3338 61.9609 48.9744 62.7537 48.9744C63.3577 48.9744 63.8779 49.1594 64.386 49.5565L64.9363 48.9556C64.361 48.4475 63.5691 48.1568 62.7529 48.1568C61.3645 48.1568 60.3566 48.9125 60.3566 49.9537C60.3566 50.7132 60.8556 51.2877 61.8409 51.6629L62.9047 52.0759C63.5713 52.3409 64.0983 52.5493 64.0983 53.1842C64.0983 53.7988 63.5404 54.1808 62.6419 54.1808C61.9549 54.1808 61.2188 53.8932 60.6631 53.4092L60.0455 54.0623Z" fill="black"/>
<path d="M66.7981 53.2914V50.7615H65.9888V49.9793L66.8487 49.9249L66.9801 48.5418H67.9608V49.9249H69.4066V50.7622H67.9608V53.3012C67.9608 53.9015 68.1933 54.211 68.7694 54.211C68.9619 54.211 69.2043 54.1566 69.3658 54.0925L69.578 54.8656C69.2647 54.9562 68.8902 55.0475 68.4855 55.0475C67.233 55.0475 66.7981 54.3469 66.7981 53.2914Z" fill="black"/>
<path d="M68.4871 55.0981C67.3168 55.0981 66.7476 54.507 66.7476 53.2914V50.8121H65.9382V49.9317L66.8019 49.8766L66.9333 48.4905H68.0107V49.8736H69.4565V50.8121H68.0107V53.3005C68.0107 53.8947 68.2447 54.1597 68.7687 54.1597C68.9657 54.1597 69.2066 54.1 69.347 54.0449L69.3991 54.0245L69.6392 54.9003L69.5916 54.9139C69.2798 55.0052 68.9031 55.0981 68.4871 55.0981ZM66.0402 50.7109H66.8495V53.2914C66.8495 54.439 67.3855 54.9969 68.4878 54.9969C68.8706 54.9969 69.2209 54.9154 69.5176 54.8308L69.3334 54.1589C69.1786 54.2125 68.9597 54.2616 68.7709 54.2616C68.1843 54.2616 67.9118 53.9566 67.9118 53.3012V50.7116H69.3576V49.9755H67.911V48.5924H67.0269L66.8956 49.9725L66.0402 50.0269V50.7109Z" fill="black"/>
<path d="M70.9038 53.0733V49.925H72.0665V52.9464C72.0665 53.8109 72.3398 54.1476 72.9966 54.1476C73.5123 54.1476 73.8664 53.9294 74.3314 53.4017V49.9257H75.4941V54.9305H74.5436L74.4522 54.1756H74.422C73.9162 54.7033 73.3703 55.0491 72.6018 55.0491C71.4195 55.0476 70.9038 54.3469 70.9038 53.0733Z" fill="black"/>
<path d="M72.6026 55.0981C71.4422 55.0981 70.8533 54.4164 70.8533 53.0733V49.8744H72.1171V52.9464C72.1171 53.7746 72.364 54.097 72.9967 54.097C73.4753 54.097 73.8128 53.9098 74.2809 53.3821V49.8744H75.5448V54.9804H74.4991L74.4123 54.2578C73.8392 54.8384 73.279 55.0981 72.6026 55.0981ZM70.9544 49.9756V53.0733C70.9544 54.3681 71.4935 54.9977 72.6026 54.9977C73.2768 54.9977 73.8098 54.741 74.3859 54.1401L74.4009 54.1242H74.4976L74.5889 54.8792H75.4443V49.9756H74.3828V53.4198L74.37 53.4341C73.88 53.9906 73.5078 54.1974 72.9974 54.1974C72.3006 54.1974 72.0167 53.835 72.0167 52.9457V49.9756H70.9544Z" fill="black"/>
<path d="M77.2229 52.436C77.2229 50.8075 78.3652 49.7974 79.6094 49.7974C80.2466 49.7974 80.6513 50.0156 81.1058 50.3613L81.0552 49.5331V47.6766H82.2179V54.929H81.2674L81.1662 54.365H81.136C80.7215 54.747 80.1447 55.0475 79.5181 55.0475C78.1228 55.0475 77.2229 54.0925 77.2229 52.436ZM81.0552 53.5738V51.1261C80.6407 50.7894 80.2466 50.6709 79.8314 50.6709C79.053 50.6709 78.4256 51.3353 78.4256 52.4179C78.4256 53.5557 78.9209 54.1831 79.7906 54.1831C80.2564 54.1831 80.6505 53.9921 81.0552 53.5738Z" fill="black"/>
<path d="M79.5181 55.0981C78.0708 55.0981 77.1724 54.0781 77.1724 52.436C77.1724 50.689 78.4279 49.7468 79.6095 49.7468C80.2112 49.7468 80.6166 49.9401 81.0492 50.2557L81.0054 49.5362V47.626H82.2693V54.9796H81.2259L81.1292 54.4398C80.6559 54.8588 80.0723 55.0981 79.5181 55.0981ZM79.6095 49.848C78.477 49.848 77.2735 50.7555 77.2735 52.436C77.2735 54.0396 78.1131 54.997 79.5181 54.997C80.0632 54.997 80.6408 54.7531 81.1021 54.328L81.1164 54.3145H81.2085L81.3097 54.8784H82.1673V47.7272H81.1058V49.5331L81.1632 50.4686L81.0756 50.4021C80.6136 50.051 80.2255 49.848 79.6095 49.848ZM79.7914 54.2337C78.8915 54.2337 78.3758 53.5715 78.3758 52.4179C78.3758 51.3594 78.9745 50.6203 79.8322 50.6203C80.2965 50.6203 80.6959 50.7683 81.0877 51.0869L81.1066 51.102V53.5942L81.0922 53.6085C80.6793 54.0351 80.2663 54.2337 79.7914 54.2337ZM79.8322 50.7215C79.0342 50.7215 78.477 51.4191 78.477 52.4179C78.477 53.524 78.9436 54.1325 79.7914 54.1325C80.2376 54.1325 80.6128 53.9536 81.0047 53.5527V51.1496C80.6377 50.8581 80.2648 50.7215 79.8322 50.7215Z" fill="black"/>
<path d="M84.1589 48.3689C84.1589 47.996 84.4723 47.7498 84.8973 47.7498C85.3224 47.7498 85.6455 47.9952 85.6455 48.3689C85.6455 48.7328 85.3216 48.988 84.8973 48.988C84.473 48.988 84.1589 48.7328 84.1589 48.3689ZM84.3205 49.925H85.4734V54.9298H84.3205V49.925Z" fill="black"/>
<path d="M85.524 54.9804H84.27V49.8744H85.524V54.9804ZM84.3711 54.8792H85.4228V49.9756H84.3711V54.8792ZM84.8974 49.0379C84.4406 49.0379 84.1084 48.7563 84.1084 48.3682C84.1084 47.9741 84.4323 47.6993 84.8974 47.6993C85.3602 47.6993 85.6961 47.9809 85.6961 48.3682C85.6961 48.7563 85.3602 49.0379 84.8974 49.0379ZM84.8974 47.8004C84.4927 47.8004 84.2096 48.0337 84.2096 48.369C84.2096 48.6981 84.4987 48.9375 84.8974 48.9375C85.3013 48.9375 85.595 48.6981 85.595 48.369C85.595 48.0337 85.3081 47.8004 84.8974 47.8004Z" fill="black"/>
<path d="M87.1819 52.436C87.1819 50.7615 88.4253 49.7974 89.8009 49.7974C91.1765 49.7974 92.42 50.7622 92.42 52.436C92.42 54.0925 91.1765 55.0475 89.8009 55.0475C88.4253 55.0475 87.1819 54.0925 87.1819 52.436ZM91.2271 52.436C91.2271 51.3715 90.6812 50.6618 89.8017 50.6618C88.9319 50.6618 88.3861 51.3715 88.3861 52.436C88.3861 53.4915 88.9319 54.1921 89.8017 54.1921C90.6805 54.1921 91.2271 53.4915 91.2271 52.436Z" fill="black"/>
<path d="M89.801 55.0981C88.4745 55.0981 87.1313 54.1838 87.1313 52.4361C87.1313 51.632 87.4115 50.9457 87.9415 50.452C88.4292 49.9975 89.089 49.7468 89.801 49.7468C91.1275 49.7468 92.4706 50.6709 92.4706 52.4361C92.4706 54.1838 91.1275 55.0981 89.801 55.0981ZM89.801 49.848C88.1151 49.848 87.2325 51.1503 87.2325 52.4361C87.2325 54.1174 88.5243 54.997 89.801 54.997C91.0777 54.997 92.3694 54.1174 92.3694 52.4361C92.3694 51.1503 91.4876 49.848 89.801 49.848ZM89.801 54.2427C88.9101 54.2427 88.3348 53.5338 88.3348 52.4361C88.3348 51.3277 88.9101 50.6113 89.801 50.6113C90.6979 50.6113 91.277 51.3277 91.277 52.4361C91.2777 53.5338 90.6979 54.2427 89.801 54.2427ZM89.801 50.7124C88.972 50.7124 88.436 51.3889 88.436 52.4361C88.436 53.4719 88.972 54.1416 89.801 54.1416C90.636 54.1416 91.1758 53.4719 91.1758 52.4361C91.1766 51.3889 90.6367 50.7124 89.801 50.7124Z" fill="black"/>
<path d="M106 55.4363H102.865V11.0855C102.865 10.2482 102.187 9.56869 101.349 9.56869H59.4951V6.63632H103.472C104.868 6.63632 106 7.76805 106 9.16401V55.4363Z" fill="black"/>
</svg>
