<svg width="106" height="55" viewBox="0 0 106 55" fill="none" xmlns="http://www.w3.org/2000/svg">
<path d="M40.8019 35.7601H10.6154V45.7119C10.6154 46.9725 11.345 47.7021 12.6056 47.7021H35.4942V45.0482H14.9277C14.3307 45.0482 13.9322 44.6505 13.9322 44.0527V38.4139H38.4798C39.0768 38.4139 39.4753 38.8117 39.4753 39.4094V47.7021H42.7928V37.7503C42.7921 36.4896 42.0625 35.7601 40.8019 35.7601ZM6.63428 15.1928V25.8075H9.95179V16.852C9.95179 16.255 10.3495 15.8565 10.9473 15.8565H43.4557V22.1589C43.4557 22.7559 43.058 23.1544 42.4603 23.1544H13.9322V25.8083H44.7823C46.0429 25.8083 46.7725 25.0787 46.7725 23.8181V13.2026H8.62448C7.36384 13.2026 6.63428 13.933 6.63428 15.1928ZM0.132581 31.4478V55H3.45009V33.1062C3.45009 32.5092 3.84783 32.1107 4.44557 32.1107H49.9574V51.3507C49.9574 51.9476 49.5597 52.3461 48.962 52.3461H27.6652V55H51.284C52.5446 55 53.2742 54.2704 53.2742 53.0098V29.4569H2.12279C0.862148 29.4569 0.132581 30.1872 0.132581 31.4478ZM0 6.56836V9.55405H54.0704V6.56836H28.6606V0H24.6802V6.56836H0Z" fill="white"/>
<path d="M60.0231 25.7828H61.1871V28.9243H61.2171L64.026 25.7828H65.3203L63.0328 28.3468L65.7016 32.4276H64.4072L62.3204 29.1775L61.1871 30.4231V32.4276H60.0231V25.7828Z" fill="white"/>
<path d="M65.7945 32.4777H64.3803L62.3144 29.2599L61.238 30.4433V32.4785H59.9737V25.7326H61.238V28.8269L64.0043 25.7326H65.4327L63.0964 28.3513L65.7945 32.4777ZM64.435 32.3774H65.6087L62.9698 28.3423L65.208 25.833H64.0485L61.2395 28.9745H61.1369V25.833H60.0733V32.3774H61.1369V30.4036L62.3279 29.0951L64.435 32.3774Z" fill="white"/>
<path d="M66.6034 31.1093C66.6034 30.0441 67.6064 29.4936 69.9037 29.2674C69.8939 28.6899 69.6632 28.1843 68.8505 28.1843C68.2685 28.1843 67.727 28.4187 67.2551 28.6899L66.8236 27.9858C67.3951 27.6607 68.1681 27.3356 69.0505 27.3356C70.425 27.3356 71.0572 28.1213 71.0572 29.4389V32.4276H70.1142L70.0138 31.8591H69.9838C69.482 32.2471 68.8902 32.5452 68.2281 32.5452C67.276 32.5452 66.6034 31.9849 66.6034 31.1093ZM69.9044 31.146V29.9273C68.2693 30.1078 67.7172 30.4778 67.7172 31.0374C67.7172 31.525 68.0887 31.7235 68.5801 31.7235C69.0618 31.7235 69.4528 31.516 69.9044 31.146Z" fill="white"/>
<path d="M68.2289 32.5954C67.2266 32.5954 66.5533 31.9984 66.5533 31.11C66.5533 30.0217 67.5405 29.4561 69.8528 29.2232C69.8273 28.5588 69.4992 28.2352 68.8506 28.2352C68.3719 28.2352 67.8731 28.394 67.2806 28.7341L67.2379 28.758L66.754 27.9678L66.7989 27.9423C67.566 27.5064 68.3232 27.2854 69.0506 27.2854C70.3958 27.2854 71.1074 28.03 71.1074 29.4389V32.477H70.073L69.9764 31.928C69.3914 32.3707 68.8041 32.5954 68.2289 32.5954ZM68.8513 28.1341C69.5704 28.1341 69.9419 28.5153 69.9547 29.2666L69.9554 29.3131L69.9097 29.3176C67.6281 29.5415 66.6544 30.0778 66.6544 31.1093C66.6544 31.9377 67.2873 32.4942 68.2296 32.4942C68.7951 32.4942 69.3756 32.2673 69.9547 31.8186L69.9681 31.8081H70.0573L70.1576 32.3766H71.0086V29.4382C71.0086 28.0951 70.3322 27.385 69.0521 27.385C68.3562 27.385 67.6311 27.5933 66.8948 28.003L67.2738 28.6217C67.8633 28.2899 68.3659 28.1341 68.8513 28.1341ZM68.5802 31.7737C67.9997 31.7737 67.6671 31.5055 67.6671 31.0374C67.6671 30.3969 68.3345 30.0501 69.8985 29.8771L69.9539 29.8711V31.1699L69.9359 31.1849C69.4258 31.6029 69.0326 31.7737 68.5802 31.7737ZM69.8543 29.9827C68.0064 30.1954 67.7674 30.6568 67.7674 31.0374C67.7674 31.5909 68.2768 31.6733 68.5802 31.6733C69.0019 31.6733 69.3727 31.513 69.8543 31.122V29.9827Z" fill="white"/>
<path d="M72.6527 29.9542C72.6527 28.2929 73.8864 27.3363 75.2511 27.3363C76.6159 27.3363 77.8496 28.2936 77.8496 29.9542C77.8496 31.5976 76.6159 32.5452 75.2511 32.5452C73.8864 32.5452 72.6527 31.5969 72.6527 29.9542ZM76.6653 29.9542C76.6653 28.8981 76.1238 28.194 75.2511 28.194C74.3882 28.194 73.8467 28.8981 73.8467 29.9542C73.8467 31.0014 74.3882 31.6965 75.2511 31.6965C76.1238 31.6965 76.6653 31.0014 76.6653 29.9542Z" fill="white"/>
<path d="M75.2511 32.5954C73.9351 32.5954 72.6025 31.6883 72.6025 29.9543C72.6025 29.1565 72.8804 28.4756 73.4062 27.9858C73.8901 27.5348 74.5448 27.2862 75.2511 27.2862C76.5672 27.2862 77.8997 28.203 77.8997 29.9543C77.8997 31.6875 76.5672 32.5954 75.2511 32.5954ZM75.2511 27.3858C73.5785 27.3858 72.7029 28.6779 72.7029 29.9535C72.7029 31.6216 73.9845 32.4943 75.2511 32.4943C76.5178 32.4943 77.7994 31.6216 77.7994 29.9535C77.7994 28.6779 76.9237 27.3858 75.2511 27.3858ZM75.2511 31.7467C74.3673 31.7467 73.7965 31.0434 73.7965 29.9543C73.7965 28.8547 74.3673 28.1438 75.2511 28.1438C76.141 28.1438 76.7155 28.8547 76.7155 29.9543C76.7155 31.0426 76.141 31.7467 75.2511 31.7467ZM75.2511 28.2434C74.4287 28.2434 73.8969 28.9146 73.8969 29.9535C73.8969 30.9812 74.4287 31.6456 75.2511 31.6456C76.0796 31.6456 76.6151 30.9812 76.6151 29.9535C76.6159 28.9153 76.0803 28.2434 75.2511 28.2434Z" fill="white"/>
<path d="M60.0231 36.8177H61.9392C64.2065 36.8177 65.5009 37.9465 65.5009 40.1128C65.5009 42.2708 64.2065 43.4625 61.9998 43.4625H60.0239V36.8177H60.0231ZM61.859 42.6048C63.444 42.6048 64.2971 41.7652 64.2971 40.1128C64.2971 38.4514 63.4447 37.6664 61.859 37.6664H61.1871V42.6048H61.859Z" fill="white"/>
<path d="M61.9998 43.5127H59.9737V36.7675H61.9399C64.2687 36.7675 65.5518 37.9555 65.5518 40.1128C65.551 42.2738 64.2567 43.5127 61.9998 43.5127ZM60.0733 43.4123H61.9998C64.193 43.4123 65.4507 42.2101 65.4507 40.1128C65.4507 38.02 64.2035 36.8679 61.9392 36.8679H60.0733V43.4123ZM61.859 42.655H61.1369V37.6162H61.859C63.5099 37.6162 64.3466 38.4566 64.3466 40.1128C64.3473 41.7757 63.4867 42.655 61.859 42.655ZM61.2373 42.5547H61.859C63.4208 42.5547 64.247 41.7105 64.247 40.1128C64.247 38.5226 63.444 37.7166 61.859 37.7166H61.2373V42.5547Z" fill="white"/>
<path d="M66.8948 40.9884C66.8948 39.3727 68.1187 38.3705 69.4131 38.3705C70.8775 38.3705 71.6602 39.3181 71.6602 40.727C71.6602 40.9255 71.64 41.133 71.61 41.2506H68.0281C68.118 42.1981 68.7801 42.7674 69.7337 42.7674C70.225 42.7674 70.6468 42.6318 71.0483 42.3974L71.4497 43.0565C70.9381 43.3636 70.3059 43.5801 69.5839 43.5801C68.0888 43.5801 66.8948 42.6228 66.8948 40.9884ZM70.667 40.5375C70.667 39.6798 70.2355 39.1832 69.4333 39.1832C68.7412 39.1832 68.1292 39.6619 68.0184 40.5375H70.667Z" fill="white"/>
<path d="M69.5831 43.6295C67.9704 43.6295 66.8446 42.5434 66.8446 40.9884C66.8446 39.2551 68.1682 38.3203 69.4131 38.3203C70.8513 38.3203 71.7104 39.2199 71.7104 40.727C71.7104 40.93 71.6902 41.1405 71.6587 41.2633L71.649 41.3008H68.0843C68.1907 42.1764 68.8184 42.7172 69.7337 42.7172C70.1891 42.7172 70.5988 42.6018 71.0228 42.3539L71.0655 42.3292L71.5187 43.0737L71.4752 43.1C70.8962 43.4468 70.2423 43.6295 69.5831 43.6295ZM69.4131 38.4207C68.2169 38.4207 66.945 39.321 66.945 40.9884C66.945 42.5082 68.0057 43.5292 69.5831 43.5292C70.2071 43.5292 70.8273 43.3599 71.3801 43.0385L71.0303 42.4648C70.6056 42.7052 70.1921 42.8168 69.7337 42.8168C68.7427 42.8168 68.0701 42.2183 67.9779 41.2551L67.9727 41.2004H71.5696C71.5936 41.0828 71.6093 40.8993 71.6093 40.727C71.61 39.2828 70.7883 38.4207 69.4131 38.4207ZM70.7172 40.5877H67.9615L67.9689 40.5315C68.0746 39.6956 68.6626 39.1338 69.4333 39.1338C70.249 39.1338 70.7172 39.6454 70.7172 40.5382V40.5877ZM68.0761 40.4873H70.6161C70.5996 39.6783 70.1809 39.2334 69.4326 39.2334C68.7217 39.2334 68.1937 39.7233 68.0761 40.4873Z" fill="white"/>
<path d="M72.7231 42.8932L73.2647 42.2251C73.756 42.5771 74.2377 42.7936 74.8294 42.7936C75.4916 42.7936 75.8024 42.5045 75.8024 42.1255C75.8024 41.6738 75.1807 41.4753 74.5785 41.2678C73.8459 41.0154 73.0033 40.6633 73.0033 39.8237C73.0033 38.993 73.7456 38.3705 74.9598 38.3705C75.7021 38.3705 76.3043 38.6417 76.7552 38.957L76.2137 39.5982C75.8324 39.3458 75.4414 39.1652 74.98 39.1652C74.3778 39.1652 74.0969 39.4357 74.0969 39.7795C74.0969 40.2042 74.6684 40.366 75.2706 40.5652C76.0429 40.8266 76.896 41.1337 76.896 42.073C76.896 42.9037 76.1635 43.5809 74.7995 43.5809C74.0369 43.5801 73.2542 43.291 72.7231 42.8932Z" fill="white"/>
<path d="M74.7994 43.6295C74.0744 43.6295 73.2676 43.3629 72.6931 42.9337L72.6512 42.9022L73.2557 42.1569L73.2939 42.1846C73.8339 42.5711 74.3073 42.7442 74.8294 42.7442C75.4077 42.7442 75.7522 42.5135 75.7522 42.1262C75.7522 41.7255 75.1777 41.5277 74.6219 41.3367L74.562 41.3157C73.7837 41.0468 72.9531 40.688 72.9531 39.8236C72.9531 38.924 73.7598 38.3203 74.9597 38.3203C75.6054 38.3203 76.2196 38.5211 76.7844 38.9166L76.8293 38.948L76.2234 39.6648L76.1859 39.6401C75.7425 39.3465 75.3702 39.2154 74.98 39.2154C74.4586 39.2154 74.147 39.4259 74.147 39.7795C74.147 40.1442 74.6287 40.3015 75.1867 40.4843L75.2863 40.5173C76.0264 40.7682 76.9462 41.0798 76.9462 42.0723C76.9462 43.1479 75.8683 43.6295 74.7994 43.6295ZM72.795 42.8842C73.35 43.2835 74.1126 43.5292 74.7994 43.5292C76.0234 43.5292 76.8458 42.9434 76.8458 42.0715C76.8458 41.1502 75.9635 40.8513 75.2549 40.6116L75.156 40.5787C74.586 40.3922 74.0474 40.2154 74.0474 39.778C74.0474 39.4566 74.2923 39.1143 74.9807 39.1143C75.3814 39.1143 75.7605 39.2431 76.2054 39.5315L76.6825 38.9667C76.1477 38.6042 75.5687 38.4199 74.9605 38.4199C73.8204 38.4199 73.0542 38.984 73.0542 39.8236C73.0542 40.6221 73.8497 40.9637 74.5957 41.2206L74.6556 41.2416C75.2444 41.4438 75.8533 41.6536 75.8533 42.1262C75.8533 42.5756 75.4706 42.8445 74.8302 42.8445C74.2983 42.8445 73.8167 42.6745 73.2744 42.294L72.795 42.8842Z" fill="white"/>
<path d="M78.3102 36.9533C78.3102 36.5833 78.6211 36.3391 79.0428 36.3391C79.4645 36.3391 79.7851 36.5825 79.7851 36.9533C79.7851 37.3143 79.4638 37.5675 79.0428 37.5675C78.6218 37.5675 78.3102 37.3143 78.3102 36.9533ZM78.4713 38.4971H79.6151V43.4625H78.4713V38.4971Z" fill="white"/>
<path d="M79.6645 43.5127H78.4203V38.4469H79.6645V43.5127ZM78.5215 43.4123H79.5649V38.5472H78.5215V43.4123ZM79.0428 37.6169C78.5896 37.6169 78.26 37.3375 78.26 36.9525C78.26 36.5615 78.5821 36.2889 79.0428 36.2889C79.502 36.2889 79.8353 36.5683 79.8353 36.9525C79.8353 37.3375 79.502 37.6169 79.0428 37.6169ZM79.0428 36.3893C78.6413 36.3893 78.3604 36.6207 78.3604 36.9533C78.3604 37.2799 78.6473 37.5173 79.0428 37.5173C79.4435 37.5173 79.7349 37.2799 79.7349 36.9533C79.7349 36.6215 79.4503 36.3893 79.0428 36.3893Z" fill="white"/>
<path d="M81.2997 44.3831C81.2997 43.9681 81.5903 43.5794 82.1026 43.3V43.255C81.8217 43.1015 81.6008 42.8401 81.6008 42.4333C81.6008 42.0453 81.9116 41.7113 82.2127 41.5128V41.4768C81.8412 41.2146 81.4907 40.7457 81.4907 40.1585C81.4907 39.0297 82.4839 38.3713 83.6277 38.3713C83.9385 38.3713 84.2194 38.4252 84.4299 38.4979H86.3864V39.2746H85.3332C85.5437 39.4731 85.6943 39.8072 85.6943 40.1862C85.6943 41.2693 84.7812 41.8925 83.6277 41.8925C83.3767 41.8925 83.0959 41.8386 82.8554 41.739C82.6749 41.8835 82.5543 42.0281 82.5543 42.2626C82.5543 42.5607 82.7753 42.7502 83.4771 42.7502H84.4906C85.7947 42.7502 86.477 43.1112 86.477 43.9599C86.477 44.9172 85.3535 45.6932 83.588 45.6932C82.2629 45.6924 81.2997 45.2497 81.2997 44.3831ZM85.3625 44.1217C85.3625 43.7067 85.0014 43.5801 84.3288 43.5801H83.4958C83.2352 43.5801 82.9843 43.5532 82.7535 43.5082C82.4225 43.7247 82.2824 43.9779 82.2824 44.2303C82.2824 44.7179 82.8442 45.007 83.7573 45.007C84.7205 45.0063 85.3625 44.5816 85.3625 44.1217ZM84.6703 40.1585C84.6703 39.4903 84.2089 39.1023 83.6269 39.1023C83.0449 39.1023 82.5835 39.4814 82.5835 40.1585C82.5835 40.8177 83.0547 41.2236 83.6269 41.2236C84.1992 41.2236 84.6703 40.8169 84.6703 40.1585Z" fill="white"/>
<path d="M83.5873 45.7426C82.1453 45.7426 81.2495 45.222 81.2495 44.3831C81.2495 43.9591 81.5296 43.5674 82.0405 43.2767C81.8083 43.1397 81.5506 42.885 81.5506 42.4326C81.5506 41.9614 81.9738 41.6169 82.1506 41.4933C81.7049 41.1644 81.4397 40.6678 81.4397 40.1577C81.4397 38.951 82.5401 38.3203 83.6269 38.3203C83.9093 38.3203 84.1962 38.3653 84.4382 38.4469H86.4366V39.324H85.4494C85.6359 39.5457 85.7445 39.8596 85.7445 40.1854C85.7445 41.2363 84.8936 41.9419 83.6277 41.9419C83.3768 41.9419 83.1004 41.8888 82.8637 41.7959C82.7026 41.9285 82.6045 42.0558 82.6045 42.2618C82.6045 42.4655 82.7034 42.6992 83.4771 42.6992H84.4906C85.8606 42.6992 86.5272 43.1112 86.5272 43.9591C86.5265 44.992 85.2906 45.7426 83.5873 45.7426ZM83.6269 38.4207C82.1933 38.4207 81.5401 39.321 81.5401 40.1585C81.5401 40.8843 82.0764 41.3195 82.2412 41.4356L82.2622 41.4506V41.5397L82.2397 41.5547C82.1012 41.6461 81.6502 41.9794 81.6502 42.4341C81.6502 42.8618 81.9086 43.0932 82.1259 43.2116L82.1521 43.2258V43.3307L82.1259 43.3449C81.6248 43.619 81.3491 43.9876 81.3491 44.3846C81.3491 45.1613 82.2068 45.6437 83.5865 45.6437C85.2314 45.6437 86.4254 44.9359 86.4254 43.9606C86.4254 43.1696 85.8104 42.8011 84.4891 42.8011H83.4756C82.812 42.8011 82.5026 42.6303 82.5026 42.2633C82.5026 41.9936 82.6562 41.8333 82.8225 41.7007L82.8457 41.682L82.8727 41.6933C83.1034 41.7884 83.3783 41.8431 83.6262 41.8431C84.8322 41.8431 85.6426 41.1772 85.6426 40.1869C85.6426 39.8431 85.5138 39.5158 85.2973 39.312L85.2052 39.2252H86.3347V38.5488L84.4127 38.5458C84.1812 38.4649 83.9018 38.4207 83.6269 38.4207ZM83.758 45.0565C82.803 45.0565 82.233 44.7471 82.233 44.2295C82.233 43.9411 82.4038 43.6767 82.7273 43.4655L82.7446 43.4543L82.7648 43.458C83.0067 43.5052 83.2532 43.5292 83.4974 43.5292H84.3303C84.8659 43.5292 85.4134 43.5996 85.4134 44.1209C85.4127 44.7067 84.5715 45.0565 83.758 45.0565ZM82.7648 43.5606C82.4824 43.7509 82.3326 43.9816 82.3326 44.2295C82.3326 44.6842 82.8652 44.9561 83.7573 44.9561C84.7303 44.9561 85.3123 44.5314 85.3123 44.1217C85.3123 43.7726 85.0277 43.6303 84.3288 43.6303H83.4959C83.2524 43.6295 83.0067 43.6063 82.7648 43.5606ZM83.6269 41.2738C82.9933 41.2738 82.5333 40.8049 82.5333 40.1585C82.5333 39.4971 82.973 39.0521 83.6269 39.0521C84.2809 39.0521 84.7206 39.4971 84.7206 40.1585C84.7206 40.8041 84.2606 41.2738 83.6269 41.2738ZM83.6269 39.1518C83.033 39.1518 82.6337 39.5562 82.6337 40.1577C82.6337 40.7555 83.0419 41.1727 83.6269 41.1727C84.2119 41.1727 84.6202 40.7555 84.6202 40.1577C84.6202 39.5562 84.2217 39.1518 83.6269 39.1518Z" fill="white"/>
<path d="M87.85 38.4971H88.7931L88.8837 39.1832H88.9137C89.4253 38.7405 89.9871 38.3705 90.7399 38.3705C91.9136 38.3705 92.4357 39.0746 92.4357 40.339V43.4625H91.2822V40.4648C91.2822 39.6072 91.0013 39.2641 90.3488 39.2641C89.8372 39.2641 89.4859 39.4986 88.9946 39.9413V43.4625H87.8508V38.4971H87.85Z" fill="white"/>
<path d="M92.4851 43.5127H91.2312V40.4648C91.2312 39.6476 90.9758 39.3143 90.3481 39.3143C89.8612 39.3143 89.5242 39.533 89.044 39.9637V43.5127H87.7999V38.4469H88.8373L88.9242 39.1083C89.3886 38.7128 89.9661 38.3211 90.7391 38.3211C91.8971 38.3211 92.4844 39.0005 92.4844 40.339V43.5127H92.4851ZM91.3316 43.4123H92.3848V40.339C92.3848 39.0484 91.8462 38.4207 90.7391 38.4207C89.9766 38.4207 89.4268 38.805 88.9459 39.2207L88.9317 39.2327H88.8388L88.7481 38.5465H87.8995V43.4116H88.9429V39.9188L88.9594 39.9038C89.468 39.4461 89.8223 39.2139 90.3474 39.2139C91.0365 39.2139 91.3309 39.5877 91.3309 40.4648V43.4123H91.3316Z" fill="white"/>
<path d="M59.5017 53.6397L60.1841 52.9177C60.7159 53.3963 61.438 53.7034 62.1504 53.7034C63.0432 53.7034 63.5451 53.3244 63.5451 52.7649C63.5451 52.1604 63.0432 51.9701 62.3616 51.6997L61.3384 51.3027C60.6261 51.0316 59.8336 50.526 59.8336 49.5604C59.8336 48.5133 60.8568 47.7275 62.2612 47.7275C63.1241 47.7275 63.9368 48.0526 64.4986 48.5672L63.8866 49.2354C63.4252 48.8653 62.9136 48.6399 62.2612 48.6399C61.5084 48.6399 61.0171 48.965 61.0171 49.4975C61.0171 50.0661 61.6088 50.2833 62.211 50.4997L63.2245 50.8878C64.0971 51.2218 64.7293 51.7095 64.7293 52.6847C64.7293 53.7498 63.7458 54.6165 62.1309 54.6165C61.1167 54.6142 60.1736 54.2532 59.5017 53.6397Z" fill="white"/>
<path d="M62.1302 54.6644C61.1257 54.6644 60.1557 54.3041 59.4681 53.6764L59.4306 53.642L60.1811 52.8472L60.2178 52.8802C60.7557 53.3641 61.4777 53.6525 62.1504 53.6525C62.9796 53.6525 63.4949 53.3117 63.4949 52.7641C63.4949 52.2023 63.0245 52.0158 62.3736 51.7581L62.3421 51.7462L61.3189 51.3492C60.2995 50.9612 59.7819 50.3597 59.7819 49.5597C59.7819 48.4683 60.8238 47.6766 62.2597 47.6766C63.1114 47.6766 63.9391 47.9875 64.5308 48.529L64.5675 48.5627L63.8904 49.3028L63.8537 49.2736C63.3563 48.8743 62.85 48.6886 62.2597 48.6886C61.5234 48.6886 61.0658 48.9979 61.0658 49.496C61.0658 50.0331 61.6298 50.2361 62.2268 50.4511L63.241 50.8398C63.9563 51.114 64.778 51.5709 64.778 52.6832C64.7788 53.8495 63.6889 54.6644 62.1302 54.6644ZM59.5729 53.6367C60.2396 54.227 61.1684 54.5648 62.1294 54.5648C63.6297 54.5648 64.6777 53.791 64.6777 52.6832C64.6777 51.863 64.2237 51.3229 63.205 50.9334L62.1916 50.5454C61.5893 50.329 60.9654 50.1043 60.9654 49.4968C60.9654 48.9455 61.4732 48.5889 62.2597 48.5889C62.859 48.5889 63.3751 48.7725 63.8792 49.1665L64.4252 48.5702C63.8545 48.0661 63.0687 47.7777 62.259 47.7777C60.8815 47.7777 59.8815 48.5275 59.8815 49.5604C59.8815 50.314 60.3766 50.884 61.3541 51.2563L62.4095 51.666C63.071 51.9289 63.5938 52.1357 63.5938 52.7656C63.5938 53.3753 63.0402 53.7543 62.1489 53.7543C61.4673 53.7543 60.7369 53.469 60.1856 52.9888L59.5729 53.6367Z" fill="white"/>
<path d="M66.2723 52.872V50.3619H65.4694V49.5859L66.3225 49.532L66.4529 48.1597H67.4259V49.532H68.8603V50.3627H67.4259V52.8817C67.4259 53.4772 67.6566 53.7843 68.2281 53.7843C68.4191 53.7843 68.6595 53.7304 68.8198 53.6667L69.0303 54.4337C68.7195 54.5236 68.3479 54.6142 67.9464 54.6142C66.7038 54.6142 66.2723 53.9191 66.2723 52.872Z" fill="white"/>
<path d="M67.9479 54.6644C66.7869 54.6644 66.2221 54.0779 66.2221 52.872V50.4121H65.4192V49.5387L66.2761 49.484L66.4064 48.1088H67.4753V49.481H68.9097V50.4121H67.4753V52.8809C67.4753 53.4704 67.7075 53.7334 68.2273 53.7334C68.4228 53.7334 68.6618 53.6742 68.8011 53.6195L68.8528 53.5993L69.091 54.4682L69.0438 54.4817C68.7344 54.5723 68.3607 54.6644 67.9479 54.6644ZM65.5203 50.3117H66.3233V52.872C66.3233 54.0105 66.8551 54.564 67.9487 54.564C68.3284 54.564 68.676 54.4832 68.9704 54.3993L68.7876 53.7326C68.6341 53.7858 68.4168 53.8345 68.2296 53.8345C67.6476 53.8345 67.3772 53.5319 67.3772 52.8817V50.3125H68.8116V49.5822H67.3764V48.2099H66.4993L66.3689 49.5792L65.5203 49.6331V50.3117Z" fill="white"/>
<path d="M70.3456 52.6555V49.532H71.4992V52.5297C71.4992 53.3873 71.7703 53.7214 72.422 53.7214C72.9336 53.7214 73.2849 53.5049 73.7463 52.9813V49.5327H74.8998V54.4981H73.9568L73.8661 53.7491H73.8362C73.3343 54.2727 72.7928 54.6157 72.0302 54.6157C70.8572 54.6142 70.3456 53.9191 70.3456 52.6555Z" fill="white"/>
<path d="M72.031 54.6644C70.8797 54.6644 70.2955 53.988 70.2955 52.6555V49.4818H71.5494V52.5296C71.5494 53.3513 71.7943 53.6712 72.422 53.6712C72.8969 53.6712 73.2317 53.4854 73.6961 52.9618V49.4818H74.95V54.5476H73.9126L73.8265 53.8307C73.2579 54.4067 72.7022 54.6644 72.031 54.6644ZM70.3958 49.5822V52.6555C70.3958 53.9401 70.9307 54.5648 72.031 54.5648C72.6999 54.5648 73.2287 54.3101 73.8002 53.7139L73.8152 53.6981H73.9111L74.0017 54.4472H74.8504V49.5822H73.7972V52.9993L73.7845 53.0135C73.2984 53.5656 72.9291 53.7708 72.4228 53.7708C71.7314 53.7708 71.4497 53.4113 71.4497 52.5289V49.5822H70.3958Z" fill="white"/>
<path d="M76.6151 52.0233C76.6151 50.4076 77.7484 49.4054 78.9829 49.4054C79.6151 49.4054 80.0166 49.6219 80.4675 49.9649L80.4173 49.1432V47.3013H81.5708V54.4966H80.6278L80.5274 53.9371H80.4974C80.0862 54.3161 79.5139 54.6142 78.8922 54.6142C77.508 54.6142 76.6151 53.6667 76.6151 52.0233ZM80.4173 53.1521V50.7237C80.0061 50.3896 79.6151 50.272 79.2031 50.272C78.4308 50.272 77.8084 50.9312 77.8084 52.0053C77.8084 53.1341 78.2997 53.7566 79.1626 53.7566C79.6248 53.7566 80.0158 53.5671 80.4173 53.1521Z" fill="white"/>
<path d="M78.8922 54.6644C77.4563 54.6644 76.565 53.6525 76.565 52.0233C76.565 50.29 77.8106 49.3552 78.9829 49.3552C79.5799 49.3552 79.9821 49.547 80.4113 49.8601L80.3679 49.1462V47.2512H81.6218V54.5468H80.5866L80.4907 54.0113C80.0211 54.427 79.442 54.6644 78.8922 54.6644ZM78.9829 49.4556C77.8593 49.4556 76.6653 50.3559 76.6653 52.0233C76.6653 53.6143 77.4983 54.5641 78.8922 54.5641C79.4331 54.5641 80.0061 54.3221 80.4637 53.9004L80.478 53.8869H80.5694L80.6697 54.4465H81.5206V47.3515H80.4675V49.1432L80.5244 50.0713L80.4375 50.0054C79.9791 49.6571 79.5941 49.4556 78.9829 49.4556ZM79.1634 53.8068C78.2705 53.8068 77.7589 53.1499 77.7589 52.0053C77.7589 50.9552 78.3529 50.2219 79.2038 50.2219C79.6645 50.2219 80.0608 50.3687 80.4495 50.6848L80.4682 50.6998V53.1723L80.454 53.1866C80.0443 53.6098 79.6345 53.8068 79.1634 53.8068ZM79.2038 50.3222C78.4121 50.3222 77.8593 51.0144 77.8593 52.0053C77.8593 53.1027 78.3222 53.7064 79.1634 53.7064C79.6061 53.7064 79.9784 53.5289 80.3671 53.1311V50.7469C80.0031 50.4578 79.6331 50.3222 79.2038 50.3222Z" fill="white"/>
<path d="M83.4966 47.9882C83.4966 47.6182 83.8075 47.374 84.2292 47.374C84.6509 47.374 84.9715 47.6174 84.9715 47.9882C84.9715 48.3492 84.6501 48.6024 84.2292 48.6024C83.8082 48.6024 83.4966 48.3492 83.4966 47.9882ZM83.6569 49.532H84.8007V54.4974H83.6569V49.532Z" fill="white"/>
<path d="M84.8509 54.5476H83.6067V49.4818H84.8509V54.5476ZM83.7071 54.4472H84.7505V49.5822H83.7071V54.4472ZM84.2292 48.6518C83.776 48.6518 83.4464 48.3725 83.4464 47.9874C83.4464 47.5964 83.7677 47.3238 84.2292 47.3238C84.6883 47.3238 85.0216 47.6032 85.0216 47.9874C85.0216 48.3725 84.6883 48.6518 84.2292 48.6518ZM84.2292 47.4242C83.8277 47.4242 83.5468 47.6556 83.5468 47.9882C83.5468 48.3148 83.8337 48.5522 84.2292 48.5522C84.6299 48.5522 84.9213 48.3148 84.9213 47.9882C84.9213 47.6556 84.6366 47.4242 84.2292 47.4242Z" fill="white"/>
<path d="M86.4958 52.0233C86.4958 50.3619 87.7294 49.4054 89.0942 49.4054C90.4589 49.4054 91.6926 50.3627 91.6926 52.0233C91.6926 53.6667 90.4589 54.6142 89.0942 54.6142C87.7294 54.6142 86.4958 53.6667 86.4958 52.0233ZM90.5091 52.0233C90.5091 50.9671 89.9676 50.263 89.0949 50.263C88.232 50.263 87.6905 50.9671 87.6905 52.0233C87.6905 53.0705 88.232 53.7656 89.0949 53.7656C89.9668 53.7656 90.5091 53.0705 90.5091 52.0233Z" fill="white"/>
<path d="M89.0942 54.6644C87.7781 54.6644 86.4456 53.7573 86.4456 52.0233C86.4456 51.2256 86.7235 50.5447 87.2493 50.0548C87.7332 49.6039 88.3879 49.3552 89.0942 49.3552C90.4103 49.3552 91.7428 50.272 91.7428 52.0233C91.7428 53.7573 90.4103 54.6644 89.0942 54.6644ZM89.0942 49.4556C87.4216 49.4556 86.546 50.7477 86.546 52.0233C86.546 53.6914 87.8276 54.564 89.0942 54.564C90.3608 54.564 91.6424 53.6914 91.6424 52.0233C91.6424 50.7477 90.7676 49.4556 89.0942 49.4556ZM89.0942 53.8157C88.2103 53.8157 87.6396 53.1124 87.6396 52.0233C87.6396 50.9237 88.2103 50.2128 89.0942 50.2128C89.9841 50.2128 90.5586 50.9237 90.5586 52.0233C90.5593 53.1124 89.9841 53.8157 89.0942 53.8157ZM89.0942 50.3132C88.2718 50.3132 87.7399 50.9844 87.7399 52.0233C87.7399 53.051 88.2718 53.7154 89.0942 53.7154C89.9226 53.7154 90.4582 53.051 90.4582 52.0233C90.459 50.9844 89.9234 50.3132 89.0942 50.3132Z" fill="white"/>
<path d="M105.166 55H102.056V10.9982C102.056 10.1675 101.382 9.49336 100.551 9.49336H59.0269V6.58408H102.658C104.043 6.58408 105.166 7.70689 105.166 9.09187V55Z" fill="white"/>
</svg>
