<svg width="159" height="50" viewBox="0 0 159 50" fill="none" xmlns="http://www.w3.org/2000/svg">
<path d="M0 8.51785H45.6512V5.45588H24.9412V0H20.7658V5.45588H0V8.51785ZM11.4128 18.9286V14.7531C11.4128 14.4191 11.6355 14.1964 11.9695 14.1964H33.6817C34.0157 14.1964 34.2384 14.4191 34.2384 14.7531V18.9286C34.2384 19.2626 34.0157 19.4853 33.6817 19.4853H11.9695C11.6355 19.4853 11.4128 19.2626 11.4128 18.9286ZM8.90756 22.2689H36.7437C37.6344 22.2689 38.1355 21.7679 38.1355 20.8771V12.8046C38.1355 11.9139 37.6344 11.4128 36.7437 11.4128H8.90756C8.0168 11.4128 7.51575 11.9139 7.51575 12.8046V20.8771C7.51575 21.7679 8.0168 22.2689 8.90756 22.2689ZM15.1429 39.1933V34.6838C15.1429 34.3498 15.3655 34.1271 15.6996 34.1271H29.9517C30.2857 34.1271 30.5084 34.3498 30.5084 34.6838V39.1933C30.5084 39.5273 30.2857 39.75 29.9517 39.75H15.6996C15.3655 39.75 15.1429 39.5273 15.1429 39.1933ZM12.916 42.5336H32.7353C33.626 42.5336 34.1271 42.0326 34.1271 41.1418V32.7353C34.1271 31.8445 33.626 31.3435 32.7353 31.3435H12.916C12.0252 31.3435 11.5242 31.8445 11.5242 32.7353V41.1418C11.5242 42.0326 12.0252 42.5336 12.916 42.5336ZM26.667 45.5399L27.2794 48.9916C32.1786 48.9916 37.1334 48.9359 40.6407 48.7132C43.7027 48.4905 44.4821 46.876 44.4821 43.7584V27.3907C44.4821 25.9433 43.7027 25.1639 42.2552 25.1639H3.39601C1.94853 25.1639 1.16912 25.9433 1.16912 27.3907V48.7132H5.06617V29.0609C5.06617 28.5599 5.40021 28.2258 5.90126 28.2258H39.75C40.251 28.2258 40.5851 28.5599 40.5851 29.0609V43.8141C40.5851 45.0945 40.251 45.4286 38.9149 45.5399C35.5189 45.8183 31.9559 45.8183 26.667 45.5399Z" fill="white"/>
<path d="M87.6838 16.4233V12.4706H95.2552C95.5892 12.4706 95.8119 12.6933 95.8119 13.0273V15.8666C95.8119 16.2006 95.5892 16.4233 95.2552 16.4233H87.6838ZM75.9369 9.68698V6.90336H84.0651V9.68698H75.9369ZM75.9369 16.4233V12.4706H84.0651V16.4233H75.9369ZM75.1575 37.8015H90.5787C88.7416 39.4716 86.3477 40.8634 83.3414 42.0326C80.2237 40.8634 77.5514 39.416 75.1575 37.8015ZM62.854 9.68698V7.73845C62.854 7.18172 63.188 6.90336 63.6891 6.90336H72.3182V9.68698H62.854ZM62.854 12.4706H72.3182V16.4233H62.854V12.4706ZM95.979 34.1271L98.9853 32.1786C97.4264 29.6733 95.3666 27.001 92.917 24.9412L90.4674 26.667C92.6386 28.8382 94.6428 31.6775 95.979 34.1271ZM75.9926 29.562V25.0525H72.3739V30.8981C72.3739 32.3456 73.209 33.0693 74.7122 33.125L75.8813 33.1807C72.875 36.1313 68.6439 38.1912 62.6869 39.6386L64.8025 42.3666C67.7531 41.6428 70.2027 40.6964 72.4296 39.4716C74.2668 40.9748 76.271 42.2552 78.6092 43.4244C73.8771 44.5935 67.8645 45.2615 60.4044 45.4842L61.7405 48.7132C70.8708 48.1565 77.7185 46.9874 82.9517 45.2615C87.7951 46.9874 93.9191 48.1565 102.047 48.7689L103.161 45.4286C96.9811 45.2059 91.8592 44.4821 87.5168 43.313C90.5787 41.8099 92.917 39.917 94.6985 37.8015V35.0178H78.3308L80.001 33.2363C82.5063 33.292 84.9558 33.2363 87.8508 33.125C89.5766 33.0693 90.0777 32.0672 90.3561 30.7311C90.5787 29.562 90.6344 28.6712 90.6344 27.5021L87.2384 27.3351C87.2384 28.4485 87.1271 29.2279 87.0157 29.6733C86.9044 30.1744 86.7374 30.2857 86.2363 30.3414C82.7846 30.5084 80.168 30.5641 76.772 30.3414C76.3266 30.3414 75.9926 30.063 75.9926 29.562ZM63.4107 32.0672L66.25 34.3498C68.6439 31.7332 70.147 29.562 71.5388 26.2773L68.4212 25.1082C67.3634 27.5578 65.8046 29.8403 63.4107 32.0672ZM53.167 45.4842L56.0063 48.8246C61.5178 42.8676 62.6313 35.9643 62.7426 29.4506L62.7983 24.2174H79.4443L77.9411 26.166C79.834 27.1681 81.8939 28.5042 83.7867 29.8403L85.4569 27.6134C83.6197 26.333 81.6712 25.1082 79.7783 24.2174H98.7626C98.3729 25.7206 97.8161 27.1124 97.0367 28.5599L100.544 29.6733C101.379 27.8918 102.047 26.0546 102.548 24.2174V21.4338H62.854V19.2069H98.0388C98.9296 19.2069 99.4306 18.7059 99.4306 17.8151V11.0788C99.4306 10.188 98.9296 9.68698 98.0388 9.68698H87.6838V6.90336H101.212V3.78572H81.3372V0.389709H77.4401V3.78572H60.8498C59.625 3.78572 58.9012 4.45378 58.9012 5.73425C58.9012 14.7532 59.0683 19.6523 58.8456 29.2836C58.6785 35.5189 57.6764 40.7521 53.167 45.4842Z" fill="white"/>
<path d="M132.166 19.6523V14.6418H140.962V19.6523H132.166ZM132.166 28.0031V22.7143H140.962V28.0031H132.166ZM119.417 6.01259C119.417 5.67856 119.64 5.45587 119.974 5.45587H150.092C150.427 5.45587 150.649 5.67856 150.649 6.01259V11.0231C150.649 11.3571 150.427 11.5798 150.092 11.5798H119.417V6.01259ZM119.417 19.6523V14.6418H128.38V19.6523H119.417ZM119.306 28.0031L119.417 22.7143H128.38V28.0031H119.306ZM109.006 45.5956L111.846 48.9359C117.19 44.2594 118.916 38.3025 119.25 31.0651H125.207V44.6491C123.314 44.9832 121.254 45.3172 119.083 45.6512L120.085 49.1029C127.991 47.8225 133.613 46.375 139.57 43.8697L138.346 40.8634C135.339 42.0325 132.333 42.979 128.993 43.8141V31.0651H136.063C139.348 41.4201 145.36 46.5977 157.664 49.3256L159 45.5956C154.212 44.8162 150.315 43.3687 147.198 41.2531C150.204 39.0819 152.431 36.9107 154.769 33.5704L151.874 31.6775C149.981 34.4611 147.643 36.855 144.414 38.8592C142.354 36.7437 140.795 34.1271 139.737 31.0651H156.773V28.0031H144.748V22.7143H154.658V19.6523H144.748V14.6418H153.266C154.157 14.6418 154.658 14.1407 154.658 13.25V3.73003C154.658 2.83928 154.157 2.33823 153.266 2.33823H117.469C116.244 2.33823 115.52 3.00629 115.52 4.28675C115.52 13.1386 115.631 19.0399 115.409 29.2279C115.242 35.5189 114.295 41.5315 109.006 45.5956Z" fill="white"/>
</svg>
