<svg width="128" height="47" viewBox="0 0 128 47" fill="none" xmlns="http://www.w3.org/2000/svg">
<path d="M0 5.09906H27.3262V3.2662H14.9296V0H12.4305V3.2662H0V5.09906ZM6.83205 11.3308V8.83172C6.83205 8.63195 6.96489 8.49811 7.16566 8.49811H20.1615C20.3613 8.49811 20.4951 8.63095 20.4951 8.83172V11.3308C20.4951 11.5306 20.3623 11.6644 20.1615 11.6644H7.16466C6.96489 11.6644 6.83205 11.5306 6.83205 11.3308ZM5.33179 13.3305H21.9944C22.5278 13.3305 22.8274 13.0308 22.8274 12.4975V7.66508C22.8274 7.1317 22.5278 6.83205 21.9944 6.83205H5.33179C4.79841 6.83205 4.49876 7.1317 4.49876 7.66508V12.4975C4.49876 13.0308 4.79841 13.3305 5.33179 13.3305ZM9.06445 23.4617V20.7618C9.06445 20.5621 9.19729 20.4282 9.39806 20.4282H17.9291C18.1289 20.4282 18.2627 20.5611 18.2627 20.7618V23.4607C18.2627 23.6605 18.1299 23.7943 17.9291 23.7943H9.39806C9.19729 23.7943 9.06445 23.6615 9.06445 23.4617ZM7.731 25.4614H19.5942C20.1276 25.4614 20.4272 25.1617 20.4272 24.6283V19.5962C20.4272 19.0628 20.1276 18.7632 19.5942 18.7632H7.731C7.19762 18.7632 6.89797 19.0628 6.89797 19.5962V24.6273C6.89797 25.1607 7.19862 25.4614 7.731 25.4614ZM15.9624 27.2603L16.329 29.3269C19.2616 29.3269 22.2271 29.2939 24.3267 29.1601C26.1595 29.0272 26.626 28.0603 26.626 26.1945V16.3969C26.626 15.5309 26.1595 15.0635 25.2926 15.0635H2.03263C1.16664 15.0635 0.699186 15.5299 0.699186 16.3969V29.1601H3.03147V17.3967C3.03147 17.0971 3.23124 16.8973 3.53089 16.8973H23.7923C24.092 16.8973 24.2917 17.0971 24.2917 17.3967V26.2275C24.2917 26.9936 24.092 27.1943 23.2919 27.2603C21.2613 27.4271 19.1287 27.4271 15.9624 27.2603Z" fill="black"/>
<path d="M37.9566 13.2637V6.19891C37.9566 5.89925 38.1235 5.66553 38.4561 5.66553C41.1549 5.53268 43.8218 5.33191 46.4538 4.9993C46.7204 7.96485 47.0541 10.7316 47.5205 13.2637H37.9566ZM35.6244 4.63273V26.5602L33.0254 26.9597L33.6257 29.0263C39.4239 28.1264 43.6231 27.1935 47.989 25.5943L47.3227 23.6945C44.3902 24.7613 41.3907 25.4944 37.9586 26.1277V15.0965H47.8561C49.0887 20.8618 51.0884 25.2278 54.4215 27.8937C56.2873 29.3599 58.3209 29.2271 59.6204 27.9935C60.7202 26.9268 61.2865 25.4605 61.6201 22.6278L59.4536 22.1613C59.3537 24.2609 58.9542 25.5604 58.1202 26.2935C57.5199 26.8269 56.8207 26.8938 55.7539 26.0268C52.9212 23.6945 51.2552 19.9279 50.1884 15.0965H58.9192V13.2637H49.8218C49.3554 10.6647 49.0218 7.76508 48.789 4.66569C51.9214 4.13231 54.9539 3.3662 57.9204 2.23252L56.8207 0.432617C50.8886 2.86578 44.0575 3.49805 36.4594 3.76474C35.924 3.7997 35.6244 4.09935 35.6244 4.63273Z" fill="black"/>
<path d="M82.4123 15.9634H89.8107C88.8778 18.4625 87.5783 20.5291 85.8113 22.1951C84.2451 20.562 83.1454 18.4964 82.4123 15.9634ZM78.1472 14.1305V15.9634H80.1799C81.0798 19.2296 82.3464 21.6957 84.1123 23.6285C82.0797 25.0948 79.5806 26.2274 76.5471 27.1274L77.8466 29.1271C81.0788 28.0273 83.6788 26.7279 85.7784 25.1617C87.8779 26.8277 90.6107 28.0613 94.1426 29.161L95.1754 27.0285C92.0431 26.2954 89.4771 25.2286 87.4774 23.6964C89.5769 21.5968 91.0762 19.0977 92.11 15.9654V14.1325H78.1472V14.1305ZM81.0798 2.33326V3.3331C81.0798 4.93224 81.0129 6.56533 80.7133 7.59913C80.1469 9.26519 79.0802 10.0982 76.7139 10.9652L77.9804 12.9309C80.6793 11.7643 82.2465 10.4978 82.9127 8.09855C83.2123 6.96587 83.2793 5.33277 83.2793 3.66671C83.2793 3.46694 83.4121 3.3331 83.6129 3.3331H87.4784C87.6781 3.3331 87.812 3.46594 87.812 3.66671V10.6646C87.812 11.6314 88.3454 12.0979 89.3112 12.1638C90.5778 12.2637 91.8443 12.2637 93.1098 12.1638C94.2096 12.0969 94.6091 11.4976 94.709 10.5976C94.8088 9.431 94.8088 8.49809 94.8088 7.43133L92.8092 7.16464C92.8421 8.26436 92.8421 9.13035 92.7423 9.89746C92.7093 10.1971 92.5754 10.297 92.2758 10.331C91.7095 10.3979 91.0762 10.3979 90.5099 10.331C90.2102 10.298 90.0104 10.1312 90.0104 9.83153V2.33326C90.0104 1.79988 89.7108 1.50023 89.1774 1.50023H81.9129C81.3795 1.50023 81.0798 1.79988 81.0798 2.33326ZM65.9834 4.83235V6.66522H78.0134V4.83235H73.181V0.833008H70.8487V4.83235H65.9834ZM69.5163 25.6941V20.4951C69.5163 20.2954 69.6491 20.1615 69.8499 20.1615H73.9821C74.1819 20.1615 74.3157 20.2944 74.3157 20.4951V25.6941C74.3157 25.8938 74.1829 26.0277 73.9821 26.0277H69.8499C69.6491 26.0277 69.5163 25.8938 69.5163 25.6941ZM68.2498 27.8605H75.5812C76.1146 27.8605 76.4143 27.5609 76.4143 27.0275V19.1627C76.4143 18.6293 76.1146 18.3296 75.5812 18.3296H68.2498C67.7164 18.3296 67.4167 18.6293 67.4167 19.1627V27.0275C67.4167 27.5599 67.7164 27.8605 68.2498 27.8605ZM67.5496 13.8309V15.6637H76.3144V13.8309H67.5496ZM67.5496 9.33111V11.164H76.3144V9.33111H67.5496Z" fill="black"/>
<path d="M111.638 10.7315V12.6642H118.503V28.4269H120.902V12.6642H128V10.7315H120.902V1.33343H118.503V10.7315H111.638ZM99.3086 4.83235V6.66522H111.672V4.83235H106.673V0.833008H104.341V4.83235H99.3086ZM102.94 25.6941V20.4951C102.94 20.2954 103.073 20.1615 103.274 20.1615H107.74C107.94 20.1615 108.073 20.2944 108.073 20.4951V25.6941C108.073 25.8938 107.941 26.0277 107.74 26.0277H103.274C103.074 26.0277 102.94 25.8938 102.94 25.6941ZM101.641 27.8605H109.372C109.905 27.8605 110.205 27.5609 110.205 27.0275V19.1627C110.205 18.6293 109.905 18.3296 109.372 18.3296H101.641C101.107 18.3296 100.808 18.6293 100.808 19.1627V27.0275C100.808 27.5599 101.107 27.8605 101.641 27.8605ZM100.942 13.8309V15.6637H110.039V13.8309H100.942ZM100.942 9.33111V11.164H110.039V9.33111H100.942Z" fill="black"/>
<path d="M1.20068 34.2822H2.48019V38.8399H2.52115L6.73224 34.2822H8.16358L5.01225 37.7382L8.659 43.3617H7.22767L4.21418 38.6302L2.48019 40.488V43.3617H1.20068V34.2822Z" fill="black"/>
<path d="M8.90675 43.4946H7.15578L4.19523 38.847L2.61507 40.54V43.4946H1.06787V34.1484H2.61507V38.5433L6.67534 34.1484H8.46826L5.18208 37.7512L8.90675 43.4946ZM7.30261 43.2269H8.41432L4.84547 37.7233L7.86196 34.4151H6.79221L2.58111 38.9728H2.34738V34.4161H1.33556V43.2269H2.34738V40.4341L4.23518 38.4115L7.30261 43.2269Z" fill="black"/>
<path d="M10.2021 41.6144C10.2021 40.1531 11.6195 39.422 14.7988 39.1003C14.7988 38.2333 14.4822 37.4033 13.2576 37.4033C12.3906 37.4033 11.6065 37.7629 11.0142 38.1215L10.5188 37.3414C11.207 36.9448 12.2667 36.4624 13.4644 36.4624C15.2812 36.4624 16.0513 37.5651 16.0513 39.2242V43.3614H15.0195L14.9097 42.5563H14.8687C14.1535 43.0887 13.3135 43.5222 12.3916 43.5222C11.1381 43.5222 10.2021 42.828 10.2021 41.6144ZM14.7988 41.7263V39.8435C12.2797 40.1162 11.4267 40.6735 11.4267 41.5405C11.4267 42.3086 12.0051 42.6182 12.7482 42.6182C13.4773 42.6172 14.0696 42.3076 14.7988 41.7263Z" fill="black"/>
<path d="M12.3897 43.6551C11.0013 43.6551 10.0674 42.835 10.0674 41.6145C10.0674 40.1122 11.4438 39.3211 14.662 38.9795C14.6271 38.0087 14.1666 37.5372 13.2567 37.5372C12.5685 37.5372 11.8583 37.7659 11.0832 38.2364L10.9713 38.3043L10.3311 37.2955L10.4519 37.2256C11.4857 36.6303 12.4986 36.3286 13.4634 36.3286C15.2184 36.3286 16.1843 37.3574 16.1843 39.2242V43.4953H14.9018L14.8029 42.7681C13.9599 43.3644 13.1688 43.6551 12.3897 43.6551ZM13.2577 37.2695C14.3534 37.2695 14.9327 37.9028 14.9327 39.1004V39.2212L14.8119 39.2332C11.6745 39.5509 10.3361 40.263 10.3361 41.6145C10.3361 42.6922 11.1421 43.3874 12.3907 43.3874C13.1548 43.3874 13.9389 43.0797 14.7879 42.4475L14.8238 42.4205H15.0266L15.1365 43.2256H15.9186V39.2222C15.9186 38.0236 15.4931 36.5943 13.4654 36.5943C12.5855 36.5943 11.6585 36.861 10.7086 37.3874L11.0592 37.9387C11.8323 37.4893 12.5535 37.2695 13.2577 37.2695ZM12.7483 42.7511C11.8233 42.7511 11.293 42.3096 11.293 41.5395C11.293 40.5217 12.3367 39.9744 14.7839 39.7097L14.9317 39.6937V41.7893L14.8818 41.8292C14.1896 42.3836 13.5613 42.7511 12.7483 42.7511ZM14.665 39.9923C12.4916 40.2431 11.5606 40.7085 11.5606 41.5395C11.5606 42.3606 12.3048 42.4834 12.7483 42.4834C13.3725 42.4834 13.9139 42.2517 14.665 41.6604V39.9923Z" fill="black"/>
<path d="M18.5566 40.0043C18.5566 37.7629 20.1947 36.4624 22.0246 36.4624C23.8545 36.4624 25.4926 37.7629 25.4926 40.0043C25.4926 42.2337 23.8545 43.5222 22.0246 43.5222C20.1937 43.5222 18.5566 42.2337 18.5566 40.0043ZM24.1991 40.0043C24.1991 38.4561 23.3181 37.4033 22.0246 37.4033C20.7311 37.4033 19.8641 38.4561 19.8641 40.0043C19.8641 41.5525 20.7311 42.5803 22.0246 42.5803C23.3181 42.5803 24.1991 41.5525 24.1991 40.0043Z" fill="black"/>
<path d="M22.0247 43.6551C21.0618 43.6551 20.1698 43.3145 19.5126 42.6962C18.7994 42.025 18.4229 41.0941 18.4229 40.0043C18.4229 38.9086 18.7994 37.9717 19.5126 37.2955C20.1698 36.6722 21.0628 36.3286 22.0257 36.3286C23.8156 36.3286 25.6275 37.5911 25.6275 40.0043C25.6275 41.0951 25.2509 42.026 24.5377 42.6962C23.8795 43.3145 22.9875 43.6551 22.0247 43.6551ZM22.0247 36.5963C19.8352 36.5963 18.6905 38.3113 18.6905 40.0043C18.6905 41.6854 19.8362 43.3884 22.0247 43.3884C24.2141 43.3884 25.3588 41.6864 25.3588 40.0043C25.3588 38.3103 24.2131 36.5963 22.0247 36.5963ZM22.0247 42.7142C20.6523 42.7142 19.7303 41.6254 19.7303 40.0043C19.7303 38.3682 20.6523 37.2695 22.0247 37.2695C23.3841 37.2695 24.333 38.3942 24.333 40.0043C24.333 41.6254 23.4051 42.7142 22.0247 42.7142ZM22.0247 37.5372C20.8121 37.5372 19.998 38.5291 19.998 40.0043C19.998 41.4656 20.8121 42.4465 22.0247 42.4465C23.2452 42.4465 24.0653 41.4646 24.0653 40.0043C24.0653 38.5281 23.2452 37.5372 22.0247 37.5372Z" fill="black"/>
<path d="M32.0298 34.2822H34.5618C37.6582 34.2822 39.3233 35.9043 39.3233 38.791C39.3233 41.6646 37.6582 43.3617 34.6168 43.3617H32.0298V34.2822ZM34.452 42.4198C36.8332 42.4198 38.0028 41.0823 38.0028 38.791C38.0028 36.4877 36.8332 35.2112 34.452 35.2112H33.3093V42.4198H34.452Z" fill="black"/>
<path d="M34.6168 43.4946H31.896V34.1484H34.5619C37.7192 34.1484 39.4572 35.7975 39.4572 38.791C39.4572 41.7806 37.6933 43.4946 34.6168 43.4946ZM32.1637 43.2269H34.6168C36.0841 43.2269 37.2278 42.8333 38.0169 42.0572C38.795 41.2921 39.1895 40.1924 39.1895 38.79C39.1895 35.9693 37.5464 34.4151 34.5619 34.4151H32.1637V43.2269ZM34.452 42.5536H33.1755V35.0774H34.452C36.8622 35.0774 38.1367 36.3619 38.1367 38.791C38.1367 41.2172 36.8283 42.5536 34.452 42.5536ZM33.4432 42.286H34.452C36.6874 42.286 37.869 41.0774 37.869 38.791C37.869 36.5047 36.7194 35.345 34.452 35.345H33.4432V42.286Z" fill="black"/>
<path d="M41.4985 40.0043C41.4985 37.8248 43.1366 36.4624 44.8706 36.4624C46.7694 36.4624 47.8432 37.701 47.8432 39.6207C47.8432 39.8684 47.8152 40.1042 47.7882 40.265H42.7511C42.834 41.7013 43.8108 42.6182 45.2282 42.6182C45.9573 42.6182 46.5497 42.4205 47.1 42.0859L47.5545 42.829C46.8943 43.2125 46.0962 43.5222 45.0774 43.5222C43.0947 43.5222 41.4985 42.2217 41.4985 40.0043ZM46.7414 39.4589C46.7414 38.0965 46.0532 37.3654 44.8836 37.3654C43.8238 37.3654 42.8879 38.1335 42.7371 39.4589H46.7414Z" fill="black"/>
<path d="M45.0764 43.6551C42.891 43.6551 41.3647 42.1539 41.3647 40.0034C41.3647 37.6161 43.1706 36.3276 44.8707 36.3276C46.7864 36.3276 47.9771 37.5892 47.9771 39.6198C47.9771 39.9095 47.9411 40.1612 47.9201 40.286L47.9011 40.3969H42.896C43.0278 41.6694 43.9298 42.4825 45.2282 42.4825C45.8815 42.4825 46.4538 42.3197 47.0301 41.9691L47.144 41.9001L47.7393 42.874L47.6215 42.9429C46.7854 43.4294 45.9774 43.6551 45.0764 43.6551ZM44.8707 36.5963C43.3015 36.5963 41.6324 37.7909 41.6324 40.0044C41.6324 42.028 43.0168 43.3884 45.0764 43.3884C45.8855 43.3884 46.6166 43.1946 47.3678 42.7801L47.0541 42.2667C46.4728 42.5963 45.8885 42.7512 45.2282 42.7512C43.729 42.7512 42.7042 41.7783 42.6173 40.272L42.6093 40.1302H47.6734C47.6914 40.0024 47.7094 39.8206 47.7094 39.6198C47.7094 37.726 46.6476 36.5963 44.8707 36.5963ZM46.8753 39.5928H42.5863L42.6033 39.444C42.7541 38.1206 43.6711 37.2326 44.8836 37.2326C46.1492 37.2326 46.8753 38.0446 46.8753 39.46V39.5928ZM42.891 39.3251H46.6056C46.5637 38.1465 45.9554 37.4993 44.8836 37.4993C43.8598 37.5003 43.0748 38.2274 42.891 39.3251Z" fill="black"/>
<path d="M49.5366 42.5933L50.1559 41.8501C50.8031 42.3206 51.4774 42.6432 52.3713 42.6432C53.3622 42.6432 53.8436 42.1728 53.8436 41.5904C53.8436 40.9092 52.9626 40.5996 52.1376 40.3149C51.0918 39.9683 49.9082 39.5099 49.9082 38.3702C49.9082 37.3054 50.8581 36.4624 52.4822 36.4624C53.4041 36.4624 54.2162 36.809 54.8075 37.2175L54.2022 37.9487C53.6788 37.6021 53.1564 37.3544 52.4822 37.3544C51.5463 37.3544 51.1198 37.7998 51.1198 38.3202C51.1198 38.9645 51.9318 39.1992 52.7709 39.4849C53.8586 39.8565 55.0552 40.253 55.0552 41.5285C55.0552 42.6182 54.0923 43.5222 52.3304 43.5222C51.2706 43.5222 50.2518 43.1256 49.5366 42.5933Z" fill="black"/>
<path d="M52.3303 43.6551C51.3195 43.6551 50.2727 43.3065 49.4566 42.7002L49.3428 42.6153L50.1329 41.6674L50.2337 41.7413C50.9729 42.2787 51.6121 42.5084 52.3712 42.5084C53.1973 42.5084 53.7097 42.1559 53.7097 41.5895C53.7097 40.9982 52.8507 40.7015 52.0936 40.4398C51.2266 40.1522 49.7733 39.6707 49.7733 38.3693C49.7733 37.1487 50.861 36.3276 52.4811 36.3276C53.3022 36.3276 54.1552 36.6043 54.8833 37.1067L55.0032 37.1896L54.2281 38.1255L54.1282 38.0586C53.6797 37.761 53.1703 37.4863 52.4821 37.4863C51.724 37.4863 51.2535 37.8049 51.2535 38.3183C51.2535 38.8307 51.9118 39.0515 52.6739 39.3082L52.8467 39.3661C53.9454 39.7417 55.19 40.1662 55.19 41.5256C55.189 42.5863 54.305 43.6551 52.3303 43.6551ZM49.7313 42.5684C50.4765 43.0838 51.4373 43.3884 52.3303 43.3884C53.8805 43.3884 54.9213 42.6413 54.9213 41.5286C54.9213 40.3609 53.8226 39.9854 52.7588 39.6228L52.587 39.5649C51.763 39.2872 50.9849 39.0255 50.9849 38.3213C50.9849 37.5093 51.7909 37.2216 52.4811 37.2216C53.1873 37.2216 53.7317 37.4903 54.1741 37.773L54.6086 37.2486C54.1801 36.9749 53.419 36.5973 52.4811 36.5973C51.0218 36.5973 50.041 37.3105 50.041 38.3713C50.041 39.3941 51.0967 39.8306 52.1785 40.1891C53.0225 40.4808 53.9764 40.8094 53.9764 41.5915C53.9764 42.4675 53.1114 42.7781 52.3702 42.7781C51.3994 42.7781 50.6932 42.3946 50.1778 42.033L49.7313 42.5684Z" fill="black"/>
<path d="M57.2705 34.5178C57.2705 34.0593 57.6421 33.7866 58.1375 33.7866C58.6329 33.7866 59.0045 34.0593 59.0045 34.5178C59.0045 34.9383 58.6329 35.2489 58.1375 35.2489C57.6421 35.2479 57.2705 34.9383 57.2705 34.5178ZM57.5042 36.6353H58.7568V43.3605H57.5042V36.6353Z" fill="black"/>
<path d="M58.8907 43.4944H57.3704V36.5015H58.8907V43.4944ZM57.6381 43.2267H58.623V36.7692H57.6381V43.2267ZM58.1375 35.3818C57.5672 35.3818 57.1367 35.0103 57.1367 34.5169C57.1367 33.9995 57.5392 33.6519 58.1375 33.6519C58.7359 33.6519 59.1384 33.9995 59.1384 34.5169C59.1384 35.0103 58.7089 35.3818 58.1375 35.3818ZM58.1375 33.9205C57.6921 33.9205 57.4044 34.1553 57.4044 34.5179C57.4044 34.8634 57.713 35.1152 58.1375 35.1152C58.5621 35.1152 58.8707 34.8644 58.8707 34.5179C58.8707 34.1553 58.583 33.9205 58.1375 33.9205Z" fill="black"/>
<path d="M61.3994 44.6489C61.3994 44.0785 61.8119 43.5342 62.5141 43.1256V43.0757C62.1156 42.865 61.8259 42.5064 61.8259 41.973C61.8259 41.4156 62.2804 40.9702 62.6659 40.7224V40.6735C62.1705 40.3139 61.6891 39.6707 61.6891 38.8656C61.6891 37.3913 62.9826 36.4624 64.4968 36.4624C64.9093 36.4624 65.2809 36.5493 65.5426 36.6362H68.1436V37.5032H66.6163C66.9739 37.8128 67.2216 38.3083 67.2216 38.8906C67.2216 40.3269 66.01 41.2319 64.4968 41.2319C64.1252 41.2319 63.7127 41.145 63.3821 40.9961C63.1064 41.2069 62.9007 41.4296 62.9007 41.8012C62.9007 42.2347 63.2033 42.5323 64.2081 42.5323H65.6664C67.4004 42.5323 68.2674 43.0278 68.2674 44.1305C68.2674 45.381 66.8081 46.4588 64.4968 46.4588C62.6649 46.4568 61.3994 45.8135 61.3994 44.6489ZM67.0558 44.3023C67.0558 43.683 66.5195 43.4722 65.5276 43.4722H64.2341C63.9584 43.4722 63.6008 43.4353 63.2702 43.3604C62.7339 43.707 62.4991 44.1035 62.4991 44.5C62.4991 45.2182 63.3112 45.6887 64.6736 45.6887C66.1059 45.6897 67.0558 45.0085 67.0558 44.3023ZM66.079 38.8646C66.079 37.8857 65.3768 37.2914 64.4958 37.2914C63.6148 37.2914 62.8997 37.8738 62.8997 38.8646C62.8997 39.8435 63.6288 40.4627 64.4958 40.4627C65.3488 40.4627 66.079 39.8435 66.079 38.8646Z" fill="black"/>
<path d="M64.4959 46.5907C62.5032 46.5907 61.2656 45.8465 61.2656 44.6489C61.2656 44.0766 61.6302 43.5322 62.2964 43.1017C61.9049 42.838 61.6921 42.4435 61.6921 41.974C61.6921 41.3578 62.1696 40.9133 62.4722 40.6935C61.8959 40.2261 61.5553 39.5519 61.5553 38.8657C61.5553 37.3954 62.7918 36.3286 64.4969 36.3286C64.9354 36.3286 65.3159 36.4215 65.5646 36.5024H68.2785V37.6371H66.931C67.2047 37.9787 67.3565 38.4202 67.3565 38.8906C67.3565 40.325 66.1539 41.3657 64.4979 41.3657C64.1313 41.3657 63.7377 41.2878 63.4031 41.151C63.1744 41.3358 63.0356 41.5176 63.0356 41.8022C63.0356 41.981 63.0356 42.3995 64.2092 42.3995H65.6675C67.5074 42.3995 68.4023 42.9659 68.4023 44.1315C68.4003 45.5559 66.7582 46.5907 64.4959 46.5907ZM64.4959 36.5963C62.7409 36.5963 61.822 37.738 61.822 38.8657C61.822 39.8225 62.5272 40.4089 62.7439 40.5657L62.7988 40.6056V40.7964L62.7369 40.8364C62.5541 40.9532 61.9588 41.3827 61.9588 41.975C61.9588 42.5194 62.2944 42.8101 62.5751 42.9589L62.646 42.9968V43.2036L62.5791 43.2426C61.9129 43.6301 61.5313 44.1435 61.5313 44.6509C61.5313 45.6837 62.667 46.325 64.4939 46.325C66.5675 46.325 68.1306 45.3811 68.1306 44.1305C68.1306 43.5023 67.8749 42.6662 65.6635 42.6662H64.2052C63.8486 42.6662 62.7639 42.6662 62.7639 41.8012C62.7639 41.3598 63.0206 41.1021 63.2983 40.8903L63.3612 40.8414L63.4341 40.8743C63.7457 41.0142 64.1413 41.0981 64.4939 41.0981C66.0191 41.0981 67.0849 40.1901 67.0849 38.8906C67.0849 38.3812 66.8811 37.9118 66.5255 37.6041L66.2538 37.3694H68.0068V36.7701H65.5177L65.4967 36.7631C65.271 36.6862 64.9104 36.5963 64.4959 36.5963ZM64.6747 45.8236C63.2513 45.8236 62.3663 45.3171 62.3663 44.5011C62.3663 44.1755 62.5112 43.693 63.1984 43.2496L63.2453 43.2186L63.3003 43.2306C63.6009 43.2985 63.9505 43.3385 64.2342 43.3385H65.5277C66.3018 43.3385 67.1887 43.4483 67.1887 44.3023C67.1897 45.0495 66.2488 45.8236 64.6747 45.8236ZM63.2973 43.5033C62.8628 43.7969 62.634 44.1405 62.634 44.5001C62.634 45.1513 63.4161 45.5549 64.6747 45.5549C66.063 45.5549 66.922 44.9046 66.922 44.3013C66.922 43.8069 66.5185 43.6051 65.5277 43.6051H64.2342C63.9495 43.6061 63.6039 43.5682 63.2973 43.5033ZM64.4959 40.5966C63.493 40.5966 62.7659 39.8685 62.7659 38.8647C62.7659 37.8598 63.4771 37.1576 64.4959 37.1576C65.5067 37.1576 66.2129 37.8598 66.2129 38.8647C66.2129 39.8515 65.4747 40.5966 64.4959 40.5966ZM64.4959 37.4253C63.485 37.4253 63.0336 38.1485 63.0336 38.8647C63.0336 39.7127 63.6489 40.329 64.4959 40.329C65.216 40.329 65.9452 39.8265 65.9452 38.8647C65.9452 38.0176 65.3489 37.4253 64.4959 37.4253Z" fill="black"/>
<path d="M70.4141 36.6352H71.4459L71.5558 37.6011H71.5967C72.3119 36.9698 73.083 36.4614 74.1018 36.4614C75.671 36.4614 76.3861 37.3784 76.3861 39.0994V43.3604H75.1336V39.2482C75.1336 37.9847 74.7071 37.4523 73.7162 37.4523C72.9451 37.4523 72.4227 37.7989 71.6656 38.4801V43.3604H70.4131V36.6352H70.4141Z" fill="black"/>
<path d="M76.521 43.4943H75.0008V39.2482C75.0008 38.0676 74.6292 37.5862 73.7173 37.5862C73.0071 37.5862 72.5087 37.9078 71.8005 38.5401V43.4943H70.2803V36.5014H71.5658L71.6647 37.3664C72.2949 36.833 73.075 36.3276 74.1028 36.3276C75.707 36.3276 76.521 37.2606 76.521 39.0994V43.4943ZM75.2685 43.2266H76.2533V39.1004C76.2533 37.4154 75.5501 36.5963 74.1028 36.5963C73.078 36.5963 72.3059 37.1557 71.6866 37.702L71.6487 37.736H71.4369L71.3271 36.7701H70.548V43.2276H71.5328V38.4212L71.5768 38.3812C72.3599 37.6771 72.9052 37.3185 73.7173 37.3185C74.79 37.3185 75.2685 37.9138 75.2685 39.2482V43.2266Z" fill="black"/>
<path d="M82.6631 42.172L83.4202 41.3919C84.1494 42.0731 85.1682 42.5186 86.214 42.5186C87.5354 42.5186 88.3335 41.9243 88.3335 41.0323C88.3335 40.1034 87.6043 39.8057 86.6544 39.4222L85.1961 38.8529C84.2602 38.4933 83.1455 37.85 83.1455 36.5246C83.1455 35.1252 84.494 34.1094 86.3248 34.1094C87.5224 34.1094 88.5822 34.5678 89.2974 35.2361L88.6231 35.9672C88.0039 35.4468 87.2607 35.1122 86.3248 35.1122C85.1831 35.1122 84.439 35.6326 84.439 36.4497C84.439 37.3286 85.32 37.6632 86.1041 37.9609L87.5494 38.5182C88.719 38.9767 89.628 39.596 89.628 40.9454C89.628 42.3817 88.3065 43.5214 86.201 43.5214C84.7686 43.5224 83.5441 43.002 82.6631 42.172Z" fill="black"/>
<path d="M86.1998 43.6553C84.8084 43.6553 83.5199 43.1629 82.5711 42.269L82.4722 42.1761L83.4151 41.2042L83.511 41.2941C84.2531 41.9873 85.2379 42.3848 86.2128 42.3848C87.4374 42.3848 88.1985 41.8664 88.1985 41.0324C88.1985 40.1914 87.5293 39.9207 86.6034 39.5461L85.1461 38.9768C83.7087 38.4254 83.0105 37.6224 83.0105 36.5236C83.0105 35.0464 84.4039 33.9746 86.3237 33.9746C87.4803 33.9746 88.597 34.3981 89.3881 35.1373L89.485 35.2281L88.634 36.1501L88.5361 36.0682C87.8769 35.5148 87.1527 35.2451 86.3237 35.2451C85.2599 35.2451 84.5717 35.7176 84.5717 36.4487C84.5717 37.2368 85.3748 37.5405 86.1509 37.8351L87.5962 38.3925C88.666 38.812 89.7597 39.4432 89.7597 40.9445C89.7607 42.5416 88.2964 43.6553 86.1998 43.6553ZM82.8547 42.1661C83.7437 42.9552 84.9253 43.3877 86.1998 43.3877C88.1386 43.3877 89.493 42.3838 89.493 40.9455C89.493 39.608 88.5351 39.0477 87.5003 38.6422L86.056 38.0848C85.2759 37.7892 84.305 37.4216 84.305 36.4487C84.305 35.5548 85.0981 34.9774 86.3247 34.9774C87.1777 34.9774 87.9268 35.2411 88.61 35.7825L89.1074 35.2441C88.3723 34.6059 87.3665 34.2423 86.3247 34.2423C84.5597 34.2423 83.2792 35.2022 83.2792 36.5236C83.2792 37.4995 83.9215 38.2197 85.2439 38.7271L86.7032 39.2974C87.6501 39.68 88.4672 40.0106 88.4672 41.0324C88.4672 42.0162 87.5832 42.6525 86.2138 42.6525C85.214 42.6525 84.2051 42.262 83.4261 41.5778L82.8547 42.1661Z" fill="black"/>
<path d="M92.0361 41.2798V37.5522H90.9214V36.6972L92.091 36.6352L92.2428 34.7524H93.2886V36.6352H95.3113V37.5522H93.2886V41.3048C93.2886 42.1348 93.5773 42.6053 94.4443 42.6053C94.706 42.6053 95.0496 42.5184 95.2973 42.4315L95.545 43.2735C95.1185 43.3974 94.6231 43.5212 94.1686 43.5212C92.5725 43.5222 92.0361 42.6303 92.0361 41.2798Z" fill="black"/>
<path d="M94.1687 43.6551C92.6435 43.6551 91.9013 42.878 91.9013 41.2799V37.6861H90.7866V36.5704L91.9662 36.5084L92.1181 34.6196H93.4216V36.5024H95.4442V37.6861H93.4216V41.3048C93.4216 42.1339 93.7172 42.4715 94.4434 42.4715C94.6901 42.4715 95.0237 42.3856 95.2524 42.3057L95.3853 42.2597L95.7109 43.3654L95.582 43.4034C95.1765 43.5203 94.6501 43.6551 94.1687 43.6551ZM91.0543 37.4184H92.169V41.2799C92.169 42.7182 92.8043 43.3874 94.1687 43.3874C94.5682 43.3874 95.0117 43.2845 95.3783 43.1817L95.2075 42.6013C95.0217 42.6583 94.7121 42.7382 94.4434 42.7382C93.2877 42.7382 93.1539 41.9191 93.1539 41.3039V37.4174H95.1765V36.7681H93.1539V34.8853H92.3648L92.214 36.7621L91.0543 36.8241V37.4184Z" fill="black"/>
<path d="M97.5957 40.8963V36.6353H98.8482V40.7595C98.8482 42.01 99.2608 42.5434 100.252 42.5434C101.022 42.5434 101.559 42.2088 102.274 41.4037V36.6353H103.527V43.3604H102.481L102.384 42.3077H102.343C101.641 43.0388 100.898 43.5212 99.8661 43.5212C98.2979 43.5222 97.5957 42.6053 97.5957 40.8963Z" fill="black"/>
<path d="M99.8671 43.6552C98.2719 43.6552 97.4629 42.7262 97.4629 40.8954V36.5005H98.9831V40.7585C98.9831 41.9452 99.3387 42.4086 100.253 42.4086C100.943 42.4086 101.441 42.1309 102.142 41.3518V36.5005H103.663V43.4933H102.361L102.276 42.5664C101.724 43.1058 100.965 43.6552 99.8671 43.6552ZM97.7296 36.7692V40.8964C97.7296 42.5964 98.4088 43.3885 99.8661 43.3885C100.745 43.3885 101.457 43.0379 102.247 42.2158L102.286 42.1749H102.507L102.604 43.2277H103.394V36.7702H102.409V41.4557L102.375 41.4937C101.608 42.3567 101.033 42.6783 100.252 42.6783C99.1879 42.6783 98.7144 42.087 98.7144 40.7605V36.7702H97.7296V36.7692Z" fill="black"/>
<path d="M106.197 40.0044C106.197 37.8249 107.724 36.4625 109.432 36.4625C110.312 36.4625 110.877 36.7602 111.537 37.2556L111.468 36.0909V33.502H112.721V43.3605H111.702L111.578 42.5674H111.55C110.959 43.0878 110.174 43.5213 109.28 43.5213C107.408 43.5223 106.197 42.2458 106.197 40.0044ZM111.468 41.6515V38.1216C110.835 37.6142 110.271 37.4154 109.651 37.4154C108.44 37.4154 107.491 38.4562 107.491 39.9914C107.491 41.6135 108.234 42.5804 109.555 42.5804C110.244 42.5804 110.849 42.2707 111.468 41.6515Z" fill="black"/>
<path d="M109.28 43.6552C107.296 43.6552 106.063 42.2558 106.063 40.0034C106.063 38.9477 106.424 37.9958 107.078 37.3216C107.701 36.6803 108.537 36.3277 109.432 36.3277C110.238 36.3277 110.801 36.5734 111.387 36.98L111.335 36.098V33.3682H112.856V43.4944H111.589L111.481 42.8032C110.963 43.2187 110.202 43.6552 109.28 43.6552ZM109.432 36.5964C107.418 36.5964 106.331 38.3524 106.331 40.0044C106.331 42.123 107.434 43.3885 109.28 43.3885C110.219 43.3885 110.985 42.8881 111.462 42.4686L111.5 42.4356H111.693L111.817 43.2287H112.587V33.6379H111.602V36.093L111.688 37.5373L111.457 37.3645C110.81 36.8771 110.272 36.5964 109.432 36.5964ZM109.555 42.7143C108.179 42.7143 107.357 41.6965 107.357 39.9915C107.357 38.4213 108.322 37.2816 109.651 37.2816C110.332 37.2816 110.918 37.5083 111.552 38.0168L111.602 38.0567V41.7075L111.563 41.7464C110.903 42.4066 110.265 42.7143 109.555 42.7143ZM109.651 37.5493C108.477 37.5493 107.625 38.5761 107.625 39.9915C107.625 41.5516 108.328 42.4466 109.555 42.4466C110.176 42.4466 110.742 42.1759 111.334 41.5956V38.1866C110.77 37.7461 110.249 37.5493 109.651 37.5493Z" fill="black"/>
<path d="M115.721 34.5178C115.721 34.0593 116.093 33.7866 116.588 33.7866C117.084 33.7866 117.455 34.0593 117.455 34.5178C117.455 34.9383 117.084 35.2489 116.588 35.2489C116.093 35.2479 115.721 34.9383 115.721 34.5178ZM115.955 36.6353H117.207V43.3605H115.955V36.6353Z" fill="black"/>
<path d="M117.341 43.4944H115.821V36.5015H117.341V43.4944ZM116.089 43.2267H117.074V36.7692H116.089V43.2267ZM116.588 35.3818C116.018 35.3818 115.587 35.0103 115.587 34.5169C115.587 33.9995 115.99 33.6519 116.588 33.6519C117.187 33.6519 117.589 33.9995 117.589 34.5169C117.589 35.0103 117.159 35.3818 116.588 35.3818ZM116.588 33.9205C116.143 33.9205 115.855 34.1553 115.855 34.5179C115.855 34.8634 116.164 35.1152 116.588 35.1152C117.013 35.1152 117.321 34.8644 117.321 34.5179C117.321 34.1553 117.034 33.9205 116.588 33.9205Z" fill="black"/>
<path d="M119.864 40.0043C119.864 37.7629 121.502 36.4624 123.332 36.4624C125.163 36.4624 126.8 37.7629 126.8 40.0043C126.8 42.2337 125.162 43.5222 123.332 43.5222C121.502 43.5222 119.864 42.2337 119.864 40.0043ZM125.507 40.0043C125.507 38.4561 124.626 37.4033 123.333 37.4033C122.039 37.4033 121.172 38.4561 121.172 40.0043C121.172 41.5525 122.039 42.5803 123.333 42.5803C124.626 42.5803 125.507 41.5525 125.507 40.0043Z" fill="black"/>
<path d="M123.333 43.6551C122.37 43.6551 121.478 43.3145 120.821 42.6962C120.108 42.025 119.731 41.0941 119.731 40.0043C119.731 38.9086 120.108 37.9717 120.821 37.2955C121.478 36.6722 122.371 36.3286 123.334 36.3286C125.124 36.3286 126.936 37.5911 126.936 40.0043C126.936 41.0951 126.559 42.026 125.846 42.6962C125.188 43.3145 124.296 43.6551 123.333 43.6551ZM123.333 36.5963C121.143 36.5963 119.999 38.3113 119.999 40.0043C119.999 41.6854 121.144 43.3884 123.333 43.3884C125.522 43.3884 126.667 41.6864 126.667 40.0043C126.667 38.3103 125.521 36.5963 123.333 36.5963ZM123.333 42.7142C121.96 42.7142 121.038 41.6254 121.038 40.0043C121.038 38.3682 121.96 37.2695 123.333 37.2695C124.692 37.2695 125.641 38.3942 125.641 40.0043C125.641 41.6254 124.713 42.7142 123.333 42.7142ZM123.333 37.5372C122.12 37.5372 121.306 38.5291 121.306 40.0043C121.306 41.4656 122.121 42.4465 123.333 42.4465C124.553 42.4465 125.373 41.4646 125.373 40.0043C125.373 38.5281 124.553 37.5372 123.333 37.5372Z" fill="black"/>
</svg>
