<svg width="128" height="47" viewBox="0 0 128 47" fill="none" xmlns="http://www.w3.org/2000/svg">
<path d="M0 5.09906H27.3262V3.2662H14.9296V0H12.4305V3.2662H0V5.09906ZM6.83205 11.3308V8.83172C6.83205 8.63195 6.96489 8.49811 7.16566 8.49811H20.1615C20.3613 8.49811 20.4951 8.63095 20.4951 8.83172V11.3308C20.4951 11.5306 20.3623 11.6644 20.1615 11.6644H7.16466C6.96489 11.6644 6.83205 11.5306 6.83205 11.3308ZM5.33179 13.3305H21.9944C22.5278 13.3305 22.8274 13.0308 22.8274 12.4975V7.66508C22.8274 7.1317 22.5278 6.83205 21.9944 6.83205H5.33179C4.79841 6.83205 4.49876 7.1317 4.49876 7.66508V12.4975C4.49876 13.0308 4.79841 13.3305 5.33179 13.3305ZM9.06445 23.4617V20.7618C9.06445 20.5621 9.19729 20.4282 9.39806 20.4282H17.9291C18.1289 20.4282 18.2627 20.5611 18.2627 20.7618V23.4607C18.2627 23.6605 18.1299 23.7943 17.9291 23.7943H9.39806C9.19729 23.7943 9.06445 23.6615 9.06445 23.4617ZM7.731 25.4614H19.5942C20.1276 25.4614 20.4272 25.1617 20.4272 24.6283V19.5962C20.4272 19.0628 20.1276 18.7632 19.5942 18.7632H7.731C7.19762 18.7632 6.89797 19.0628 6.89797 19.5962V24.6273C6.89797 25.1607 7.19862 25.4614 7.731 25.4614ZM15.9624 27.2603L16.329 29.3269C19.2616 29.3269 22.2271 29.2939 24.3267 29.1601C26.1595 29.0272 26.626 28.0603 26.626 26.1945V16.3969C26.626 15.5309 26.1595 15.0635 25.2926 15.0635H2.03263C1.16664 15.0635 0.699186 15.5299 0.699186 16.3969V29.1601H3.03147V17.3967C3.03147 17.0971 3.23124 16.8973 3.53089 16.8973H23.7923C24.092 16.8973 24.2917 17.0971 24.2917 17.3967V26.2275C24.2917 26.9936 24.092 27.1943 23.2919 27.2603C21.2613 27.4271 19.1287 27.4271 15.9624 27.2603Z" fill="white"/>
<path d="M37.9568 13.2636V6.19878C37.9568 5.89913 38.1236 5.66541 38.4563 5.66541C41.1551 5.53256 43.822 5.33179 46.4539 4.99918C46.7206 7.96473 47.0542 10.7315 47.5207 13.2636H37.9568ZM35.6245 4.63261V26.5601L33.0256 26.9596L33.6259 29.0262C39.4241 28.1263 43.6232 27.1933 47.9892 25.5942L47.3229 23.6944C44.3903 24.7612 41.3908 25.4943 37.9588 26.1276V15.0964H47.8563C49.0889 20.8617 51.0885 25.2276 54.4217 27.8935C56.2875 29.3598 58.3211 29.227 59.6206 27.9934C60.7203 26.9267 61.2867 25.4604 61.6203 22.6277L59.4538 22.1612C59.3539 24.2608 58.9544 25.5602 58.1204 26.2934C57.5201 26.8268 56.8209 26.8937 55.7541 26.0267C52.9214 23.6944 51.2553 19.9278 50.1886 15.0964H58.9194V13.2636H49.822C49.3556 10.6646 49.022 7.76496 48.7892 4.66557C51.9216 4.13219 54.954 3.36608 57.9206 2.2324L56.8209 0.432495C50.8888 2.86566 44.0577 3.49793 36.4596 3.76462C35.9242 3.79958 35.6245 4.09923 35.6245 4.63261Z" fill="white"/>
<path d="M82.4121 15.9634H89.8105C88.8775 18.4625 87.578 20.5291 85.8111 22.1952C84.2449 20.5621 83.1452 18.4965 82.4121 15.9634ZM78.147 14.1306V15.9634H80.1797C81.0796 19.2296 82.3461 21.6958 84.1121 23.6285C82.0794 25.0948 79.5804 26.2275 76.5469 27.1274L77.8464 29.1271C81.0786 28.0274 83.6786 26.7279 85.7781 25.1617C87.8777 26.8278 90.6105 28.0613 94.1424 29.1611L95.1752 27.0285C92.0429 26.2954 89.4768 25.2286 87.4772 23.6964C89.5767 21.5969 91.076 19.0978 92.1098 15.9654V14.1326H78.147V14.1306ZM81.0796 2.33329V3.33313C81.0796 4.93227 81.0127 6.56536 80.713 7.59916C80.1467 9.26522 79.0799 10.0983 76.7137 10.9652L77.9802 12.931C80.6791 11.7643 82.2463 10.4978 82.9125 8.09858C83.2121 6.9659 83.2791 5.3328 83.2791 3.66674C83.2791 3.46697 83.4119 3.33313 83.6127 3.33313H87.4782C87.6779 3.33313 87.8118 3.46597 87.8118 3.66674V10.6646C87.8118 11.6315 88.3452 12.0979 89.311 12.1638C90.5776 12.2637 91.8441 12.2637 93.1096 12.1638C94.2093 12.0969 94.6089 11.4976 94.7087 10.5977C94.8086 9.43103 94.8086 8.49812 94.8086 7.43136L92.809 7.16467C92.8419 8.26439 92.8419 9.13038 92.742 9.89749C92.7091 10.1971 92.5752 10.297 92.2756 10.331C91.7092 10.3979 91.076 10.3979 90.5096 10.331C90.21 10.298 90.0102 10.1312 90.0102 9.83156V2.33329C90.0102 1.79991 89.7106 1.50026 89.1772 1.50026H81.9126C81.3793 1.50026 81.0796 1.79991 81.0796 2.33329ZM65.9832 4.83238V6.66525H78.0132V4.83238H73.1808V0.833038H70.8485V4.83238H65.9832ZM69.5161 25.6941V20.4952C69.5161 20.2954 69.6489 20.1615 69.8497 20.1615H73.9819C74.1816 20.1615 74.3155 20.2944 74.3155 20.4952V25.6941C74.3155 25.8939 74.1826 26.0277 73.9819 26.0277H69.8497C69.6489 26.0277 69.5161 25.8939 69.5161 25.6941ZM68.2495 27.8606H75.581C76.1144 27.8606 76.414 27.5609 76.414 27.0275V19.1627C76.414 18.6293 76.1144 18.3297 75.581 18.3297H68.2495C67.7162 18.3297 67.4165 18.6293 67.4165 19.1627V27.0275C67.4165 27.5599 67.7162 27.8606 68.2495 27.8606ZM67.5494 13.8309V15.6638H76.3142V13.8309H67.5494ZM67.5494 9.33114V11.164H76.3142V9.33114H67.5494Z" fill="white"/>
<path d="M111.638 10.7315V12.6643H118.503V28.4269H120.902V12.6643H128V10.7315H120.902V1.33346H118.503V10.7315H111.638ZM99.3084 4.83238V6.66525H111.672V4.83238H106.673V0.833038H104.341V4.83238H99.3084ZM102.94 25.6941V20.4952C102.94 20.2954 103.073 20.1615 103.274 20.1615H107.74C107.939 20.1615 108.073 20.2944 108.073 20.4952V25.6941C108.073 25.8939 107.94 26.0277 107.74 26.0277H103.274C103.074 26.0277 102.94 25.8939 102.94 25.6941ZM101.641 27.8606H109.372C109.905 27.8606 110.205 27.5609 110.205 27.0275V19.1627C110.205 18.6293 109.905 18.3297 109.372 18.3297H101.641C101.107 18.3297 100.808 18.6293 100.808 19.1627V27.0275C100.808 27.5599 101.107 27.8606 101.641 27.8606ZM100.941 13.8309V15.6638H110.039V13.8309H100.941ZM100.941 9.33114V11.164H110.039V9.33114H100.941Z" fill="white"/>
<path d="M1.20062 34.2821H2.48013V38.8398H2.52109L6.73218 34.2821H8.16352L5.01219 37.7381L8.65894 43.3615H7.22761L4.21412 38.63L2.48013 40.4879V43.3615H1.20062V34.2821Z" fill="white"/>
<path d="M8.90662 43.4944H7.15566L4.19511 38.8468L2.61495 40.5398V43.4944H1.06775V34.1483H2.61495V38.5431L6.67522 34.1483H8.46813L5.18196 37.7511L8.90662 43.4944ZM7.30249 43.2267H8.4142L4.84535 37.7231L7.86184 34.4149H6.79209L2.58099 38.9726H2.34726V34.4159H1.33544V43.2267H2.34726V40.4339L4.23506 38.4113L7.30249 43.2267Z" fill="white"/>
<path d="M10.2021 41.6146C10.2021 40.1533 11.6194 39.4221 14.7987 39.1005C14.7987 38.2335 14.4821 37.4035 13.2575 37.4035C12.3905 37.4035 11.6065 37.763 11.0141 38.1216L10.5187 37.3415C11.2069 36.945 12.2667 36.4626 13.4643 36.4626C15.2812 36.4626 16.0513 37.5653 16.0513 39.2243V43.3615H15.0195L14.9096 42.5565H14.8687C14.1535 43.0888 13.3135 43.5223 12.3915 43.5223C11.138 43.5223 10.2021 42.8281 10.2021 41.6146ZM14.7987 41.7264V39.8436C12.2797 40.1163 11.4267 40.6737 11.4267 41.5406C11.4267 42.3088 12.005 42.6184 12.7481 42.6184C13.4773 42.6174 14.0696 42.3078 14.7987 41.7264Z" fill="white"/>
<path d="M12.3896 43.6552C11.0012 43.6552 10.0673 42.8352 10.0673 41.6146C10.0673 40.1123 11.4437 39.3212 14.6619 38.9796C14.627 38.0088 14.1665 37.5373 13.2565 37.5373C12.5684 37.5373 11.8582 37.7661 11.0831 38.2365L10.9712 38.3044L10.331 37.2956L10.4518 37.2257C11.4856 36.6304 12.4984 36.3287 13.4633 36.3287C15.2183 36.3287 16.1841 37.3575 16.1841 39.2244V43.4954H14.9016L14.8028 42.7682C13.9597 43.3645 13.1687 43.6552 12.3896 43.6552ZM13.2575 37.2696C14.3533 37.2696 14.9326 37.9029 14.9326 39.1005V39.2214L14.8117 39.2333C11.6744 39.551 10.3359 40.2632 10.3359 41.6146C10.3359 42.6923 11.142 43.3875 12.3906 43.3875C13.1547 43.3875 13.9388 43.0799 14.7878 42.4476L14.8237 42.4206H15.0265L15.1364 43.2257H15.9184V39.2224C15.9184 38.0238 15.4929 36.5944 13.4653 36.5944C12.5853 36.5944 11.6584 36.8611 10.7085 37.3875L11.0591 37.9389C11.8322 37.4894 12.5534 37.2696 13.2575 37.2696ZM12.7481 42.7513C11.8232 42.7513 11.2928 42.3098 11.2928 41.5397C11.2928 40.5219 12.3366 39.9745 14.7838 39.7098L14.9316 39.6938V41.7894L14.8817 41.8293C14.1895 42.3837 13.5612 42.7513 12.7481 42.7513ZM14.6649 39.9925C12.4914 40.2432 11.5605 40.7086 11.5605 41.5397C11.5605 42.3607 12.3047 42.4836 12.7481 42.4836C13.3724 42.4836 13.9138 42.2518 14.6649 41.6605V39.9925Z" fill="white"/>
<path d="M18.5564 40.0044C18.5564 37.763 20.1945 36.4626 22.0243 36.4626C23.8542 36.4626 25.4923 37.763 25.4923 40.0044C25.4923 42.2338 23.8542 43.5223 22.0243 43.5223C20.1935 43.5223 18.5564 42.2338 18.5564 40.0044ZM24.1988 40.0044C24.1988 38.4562 23.3178 37.4035 22.0243 37.4035C20.7308 37.4035 19.8638 38.4562 19.8638 40.0044C19.8638 41.5526 20.7308 42.5804 22.0243 42.5804C23.3178 42.5804 24.1988 41.5526 24.1988 40.0044Z" fill="white"/>
<path d="M22.0244 43.6552C21.0615 43.6552 20.1695 43.3146 19.5123 42.6963C18.7991 42.0251 18.4225 41.0942 18.4225 40.0045C18.4225 38.9087 18.7991 37.9718 19.5123 37.2956C20.1695 36.6723 21.0625 36.3287 22.0254 36.3287C23.8153 36.3287 25.6272 37.5913 25.6272 40.0045C25.6272 41.0952 25.2506 42.0261 24.5374 42.6963C23.8792 43.3146 22.9872 43.6552 22.0244 43.6552ZM22.0244 36.5964C19.8349 36.5964 18.6902 38.3114 18.6902 40.0045C18.6902 41.6855 19.8359 43.3885 22.0244 43.3885C24.2138 43.3885 25.3585 41.6865 25.3585 40.0045C25.3585 38.3104 24.2128 36.5964 22.0244 36.5964ZM22.0244 42.7143C20.652 42.7143 19.73 41.6256 19.73 40.0045C19.73 38.3684 20.652 37.2696 22.0244 37.2696C23.3838 37.2696 24.3327 38.3943 24.3327 40.0045C24.3327 41.6256 23.4047 42.7143 22.0244 42.7143ZM22.0244 37.5373C20.8118 37.5373 19.9977 38.5292 19.9977 40.0045C19.9977 41.4658 20.8118 42.4466 22.0244 42.4466C23.2449 42.4466 24.065 41.4648 24.065 40.0045C24.065 38.5282 23.2449 37.5373 22.0244 37.5373Z" fill="white"/>
<path d="M32.0298 34.2821H34.5618C37.6582 34.2821 39.3233 35.9042 39.3233 38.7909C39.3233 41.6645 37.6582 43.3615 34.6167 43.3615H32.0298V34.2821ZM34.4519 42.4196C36.8332 42.4196 38.0028 41.0822 38.0028 38.7909C38.0028 36.4875 36.8332 35.211 34.4519 35.211H33.3093V42.4196H34.4519Z" fill="white"/>
<path d="M34.6167 43.4944H31.8959V34.1483H34.5618C37.7191 34.1483 39.4571 35.7973 39.4571 38.7908C39.4571 41.7804 37.6931 43.4944 34.6167 43.4944ZM32.1636 43.2267H34.6167C36.084 43.2267 37.2277 42.8331 38.0167 42.057C38.7948 41.2919 39.1894 40.1922 39.1894 38.7898C39.1894 35.9691 37.5463 34.4149 34.5618 34.4149H32.1636V43.2267ZM34.4519 42.5535H33.1754V35.0772H34.4519C36.8621 35.0772 38.1366 36.3617 38.1366 38.7908C38.1366 41.217 36.8281 42.5535 34.4519 42.5535ZM33.4431 42.2858H34.4519C36.6873 42.2858 37.8689 41.0772 37.8689 38.7908C37.8689 36.5045 36.7193 35.3449 34.4519 35.3449H33.4431V42.2858Z" fill="white"/>
<path d="M41.4987 40.0044C41.4987 37.825 43.1368 36.4626 44.8708 36.4626C46.7696 36.4626 47.8433 37.7011 47.8433 39.6209C47.8433 39.8686 47.8153 40.1043 47.7884 40.2651H42.7512C42.8341 41.7015 43.811 42.6184 45.2283 42.6184C45.9575 42.6184 46.5498 42.4206 47.1002 42.086L47.5546 42.8291C46.8944 43.2127 46.0963 43.5223 45.0775 43.5223C43.0948 43.5223 41.4987 42.2219 41.4987 40.0044ZM46.7416 39.4591C46.7416 38.0967 46.0534 37.3655 44.8837 37.3655C43.824 37.3655 42.8881 38.1336 42.7372 39.4591H46.7416Z" fill="white"/>
<path d="M45.0765 43.6552C42.8911 43.6552 41.3649 42.154 41.3649 40.0035C41.3649 37.6163 43.1708 36.3278 44.8708 36.3278C46.7866 36.3278 47.9772 37.5893 47.9772 39.6199C47.9772 39.9096 47.9412 40.1613 47.9202 40.2862L47.9013 40.397H42.8961C43.0279 41.6695 43.9299 42.4826 45.2284 42.4826C45.8816 42.4826 46.4539 42.3198 47.0303 41.9692L47.1441 41.9003L47.7394 42.8741L47.6216 42.9431C46.7856 43.4295 45.9775 43.6552 45.0765 43.6552ZM44.8708 36.5964C43.3016 36.5964 41.6326 37.7911 41.6326 40.0045C41.6326 42.0281 43.0169 43.3885 45.0765 43.3885C45.8856 43.3885 46.6168 43.1948 47.3679 42.7802L47.0542 42.2668C46.4729 42.5965 45.8886 42.7513 45.2284 42.7513C43.7291 42.7513 42.7043 41.7784 42.6174 40.2722L42.6094 40.1303H47.6735C47.6915 40.0025 47.7095 39.8207 47.7095 39.6199C47.7095 37.7261 46.6477 36.5964 44.8708 36.5964ZM46.8755 39.593H42.5864L42.6034 39.4441C42.7543 38.1207 43.6712 37.2327 44.8838 37.2327C46.1493 37.2327 46.8755 38.0448 46.8755 39.4601V39.593ZM42.8911 39.3253H46.6058C46.5638 38.1466 45.9555 37.4994 44.8838 37.4994C43.86 37.5004 43.0749 38.2275 42.8911 39.3253Z" fill="white"/>
<path d="M49.5363 42.5934L50.1556 41.8503C50.8029 42.3207 51.4771 42.6434 52.371 42.6434C53.3619 42.6434 53.8433 42.1729 53.8433 41.5906C53.8433 40.9094 52.9624 40.5997 52.1373 40.3151C51.0915 39.9685 49.9079 39.51 49.9079 38.3703C49.9079 37.3056 50.8578 36.4626 52.4819 36.4626C53.4038 36.4626 54.2159 36.8092 54.8072 37.2177L54.2019 37.9488C53.6785 37.6022 53.1561 37.3545 52.4819 37.3545C51.546 37.3545 51.1195 37.8 51.1195 38.3204C51.1195 38.9646 51.9316 39.1994 52.7706 39.485C53.8583 39.8566 55.0549 40.2531 55.0549 41.5287C55.0549 42.6184 54.092 43.5223 52.3301 43.5223C51.2703 43.5223 50.2515 43.1258 49.5363 42.5934Z" fill="white"/>
<path d="M52.3301 43.6552C51.3193 43.6552 50.2725 43.3066 49.4564 42.7003L49.3426 42.6154L50.1326 41.6675L50.2335 41.7415C50.9727 42.2788 51.6119 42.5086 52.371 42.5086C53.1971 42.5086 53.7095 42.156 53.7095 41.5896C53.7095 40.9983 52.8505 40.7017 52.0934 40.44C51.2264 40.1523 49.7731 39.6709 49.7731 38.3694C49.7731 37.1488 50.8608 36.3278 52.4809 36.3278C53.3019 36.3278 54.155 36.6044 54.8831 37.1069L55.003 37.1898L54.2279 38.1257L54.128 38.0587C53.6795 37.7611 53.1701 37.4864 52.4819 37.4864C51.7238 37.4864 51.2533 37.805 51.2533 38.3184C51.2533 38.8308 51.9116 39.0516 52.6737 39.3083L52.8465 39.3662C53.9452 39.7418 55.1898 40.1663 55.1898 41.5257C55.1888 42.5865 54.3048 43.6552 52.3301 43.6552ZM49.7311 42.5685C50.4762 43.0839 51.4371 43.3885 52.3301 43.3885C53.8803 43.3885 54.9211 42.6414 54.9211 41.5287C54.9211 40.3611 53.8223 39.9855 52.7586 39.6229L52.5868 39.565C51.7627 39.2873 50.9846 39.0256 50.9846 38.3214C50.9846 37.5094 51.7907 37.2217 52.4809 37.2217C53.1871 37.2217 53.7315 37.4904 54.1739 37.7731L54.6084 37.2487C54.1799 36.975 53.4188 36.5974 52.4809 36.5974C51.0216 36.5974 50.0407 37.3106 50.0407 38.3714C50.0407 39.3942 51.0965 39.8307 52.1783 40.1893C53.0223 40.4809 53.9762 40.8095 53.9762 41.5916C53.9762 42.4676 53.1112 42.7782 52.37 42.7782C51.3992 42.7782 50.693 42.3947 50.1776 42.0331L49.7311 42.5685Z" fill="white"/>
<path d="M57.2704 34.5178C57.2704 34.0594 57.6419 33.7867 58.1373 33.7867C58.6328 33.7867 59.0043 34.0594 59.0043 34.5178C59.0043 34.9383 58.6328 35.249 58.1373 35.249C57.6419 35.248 57.2704 34.9383 57.2704 34.5178ZM57.5041 36.6354H58.7566V43.3605H57.5041V36.6354Z" fill="white"/>
<path d="M58.8905 43.4944H57.3702V36.5015H58.8905V43.4944ZM57.6379 43.2267H58.6228V36.7692H57.6379V43.2267ZM58.1373 35.3818C57.567 35.3818 57.1365 35.0103 57.1365 34.5169C57.1365 33.9995 57.539 33.6519 58.1373 33.6519C58.7356 33.6519 59.1382 33.9995 59.1382 34.5169C59.1382 35.0103 58.7087 35.3818 58.1373 35.3818ZM58.1373 33.9205C57.6919 33.9205 57.4042 34.1553 57.4042 34.5179C57.4042 34.8634 57.7128 35.1152 58.1373 35.1152C58.5618 35.1152 58.8705 34.8644 58.8705 34.5179C58.8705 34.1553 58.5828 33.9205 58.1373 33.9205Z" fill="white"/>
<path d="M61.3995 44.649C61.3995 44.0787 61.8121 43.5343 62.5142 43.1258V43.0759C62.1157 42.8651 61.826 42.5065 61.826 41.9731C61.826 41.4158 62.2805 40.9703 62.6661 40.7226V40.6737C62.1706 40.3141 61.6892 39.6708 61.6892 38.8658C61.6892 37.3915 62.9827 36.4626 64.4969 36.4626C64.9094 36.4626 65.281 36.5495 65.5427 36.6364H68.1437V37.5033H66.6165C66.974 37.813 67.2218 38.3084 67.2218 38.8907C67.2218 40.3271 66.0102 41.232 64.4969 41.232C64.1254 41.232 63.7128 41.1451 63.3822 40.9963C63.1065 41.207 62.9008 41.4298 62.9008 41.8013C62.9008 42.2348 63.2034 42.5325 64.2083 42.5325H65.6666C67.4005 42.5325 68.2675 43.0279 68.2675 44.1306C68.2675 45.3812 66.8082 46.4589 64.4969 46.4589C62.6651 46.4569 61.3995 45.8137 61.3995 44.649ZM67.056 44.3024C67.056 43.6831 66.5196 43.4724 65.5277 43.4724H64.2342C63.9586 43.4724 63.601 43.4354 63.2704 43.3605C62.734 43.7071 62.4993 44.1037 62.4993 44.5002C62.4993 45.2184 63.3113 45.6888 64.6737 45.6888C66.1061 45.6898 67.056 45.0086 67.056 44.3024ZM66.0791 38.8648C66.0791 37.8859 65.3769 37.2916 64.4959 37.2916C63.615 37.2916 62.8998 37.8739 62.8998 38.8648C62.8998 39.8436 63.6289 40.4629 64.4959 40.4629C65.3489 40.4629 66.0791 39.8436 66.0791 38.8648Z" fill="white"/>
<path d="M64.496 46.5908C62.5033 46.5908 61.2657 45.8467 61.2657 44.649C61.2657 44.0767 61.6303 43.5323 62.2965 43.1019C61.905 42.8382 61.6922 42.4436 61.6922 41.9742C61.6922 41.3579 62.1697 40.9134 62.4723 40.6936C61.896 40.2262 61.5554 39.552 61.5554 38.8658C61.5554 37.3955 62.7919 36.3287 64.497 36.3287C64.9354 36.3287 65.316 36.4216 65.5647 36.5025H68.2786V37.6372H66.9311C67.2048 37.9788 67.3566 38.4203 67.3566 38.8907C67.3566 40.3251 66.154 41.3659 64.498 41.3659C64.1314 41.3659 63.7378 41.288 63.4032 41.1511C63.1745 41.3359 63.0357 41.5177 63.0357 41.8024C63.0357 41.9812 63.0357 42.3997 64.2093 42.3997H65.6676C67.5075 42.3997 68.4024 42.966 68.4024 44.1317C68.4004 45.556 66.7583 46.5908 64.496 46.5908ZM64.496 36.5964C62.741 36.5964 61.8221 37.7381 61.8221 38.8658C61.8221 39.8227 62.5272 40.409 62.744 40.5658L62.7989 40.6058V40.7965L62.737 40.8365C62.5542 40.9534 61.9589 41.3828 61.9589 41.9752C61.9589 42.5195 62.2945 42.8102 62.5752 42.959L62.6461 42.997V43.2037L62.5792 43.2427C61.913 43.6302 61.5314 44.1436 61.5314 44.651C61.5314 45.6838 62.6671 46.3251 64.494 46.3251C66.5675 46.3251 68.1307 45.3812 68.1307 44.1307C68.1307 43.5024 67.875 42.6664 65.6636 42.6664H64.2053C63.8487 42.6664 62.764 42.6664 62.764 41.8014C62.764 41.3599 63.0207 41.1022 63.2983 40.8904L63.3613 40.8415L63.4342 40.8744C63.7458 41.0143 64.1414 41.0982 64.494 41.0982C66.0192 41.0982 67.0849 40.1902 67.0849 38.8907C67.0849 38.3813 66.8812 37.9119 66.5256 37.6042L66.2539 37.3695H68.0069V36.7702H65.5178L65.4968 36.7632C65.2711 36.6863 64.9105 36.5964 64.496 36.5964ZM64.6747 45.8237C63.2514 45.8237 62.3664 45.3173 62.3664 44.5012C62.3664 44.1756 62.5113 43.6932 63.1985 43.2497L63.2454 43.2187L63.3003 43.2307C63.601 43.2986 63.9506 43.3386 64.2343 43.3386H65.5278C66.3019 43.3386 67.1888 43.4484 67.1888 44.3024C67.1898 45.0496 66.2489 45.8237 64.6747 45.8237ZM63.2974 43.5034C62.8629 43.797 62.6341 44.1406 62.6341 44.5002C62.6341 45.1515 63.4162 45.555 64.6747 45.555C66.0631 45.555 66.9221 44.9047 66.9221 44.3014C66.9221 43.807 66.5186 43.6053 65.5278 43.6053H64.2343C63.9496 43.6063 63.604 43.5683 63.2974 43.5034ZM64.496 40.5968C63.4931 40.5968 62.766 39.8686 62.766 38.8648C62.766 37.8599 63.4771 37.1578 64.496 37.1578C65.5068 37.1578 66.213 37.8599 66.213 38.8648C66.213 39.8516 65.4748 40.5968 64.496 40.5968ZM64.496 37.4255C63.4851 37.4255 63.0337 38.1486 63.0337 38.8648C63.0337 39.7128 63.6489 40.3291 64.496 40.3291C65.2161 40.3291 65.9453 39.8267 65.9453 38.8648C65.9453 38.0178 65.349 37.4255 64.496 37.4255Z" fill="white"/>
<path d="M70.414 36.6354H71.4458L71.5557 37.6013H71.5966C72.3118 36.97 73.0829 36.4616 74.1017 36.4616C75.6709 36.4616 76.3861 37.3785 76.3861 39.0995V43.3605H75.1335V39.2483C75.1335 37.9848 74.707 37.4524 73.7162 37.4524C72.9451 37.4524 72.4227 37.799 71.6656 38.4802V43.3605H70.413V36.6354H70.414Z" fill="white"/>
<path d="M76.5209 43.4944H75.0007V39.2484C75.0007 38.0677 74.6291 37.5863 73.7172 37.5863C73.007 37.5863 72.5086 37.9079 71.8004 38.5402V43.4944H70.2802V36.5016H71.5657L71.6645 37.3665C72.2948 36.8332 73.0749 36.3278 74.1027 36.3278C75.7068 36.3278 76.5209 37.2607 76.5209 39.0995V43.4944ZM75.2683 43.2267H76.2532V39.1005C76.2532 37.4155 75.55 36.5964 74.1027 36.5964C73.0779 36.5964 72.3058 37.1558 71.6865 37.7022L71.6486 37.7361H71.4368L71.3269 36.7702H70.5478V43.2277H71.5327V38.4213L71.5766 38.3814C72.3597 37.6772 72.9051 37.3186 73.7172 37.3186C74.7899 37.3186 75.2683 37.9139 75.2683 39.2484V43.2267Z" fill="white"/>
<path d="M82.6628 42.1719L83.42 41.3918C84.1491 42.073 85.1679 42.5185 86.2137 42.5185C87.5352 42.5185 88.3332 41.9242 88.3332 41.0323C88.3332 40.1033 87.6041 39.8057 86.6542 39.4221L85.1959 38.8528C84.26 38.4932 83.1453 37.85 83.1453 36.5245C83.1453 35.1251 84.4937 34.1093 86.3246 34.1093C87.5222 34.1093 88.582 34.5678 89.2971 35.236L88.6229 35.9672C88.0036 35.4468 87.2605 35.1121 86.3246 35.1121C85.1829 35.1121 84.4388 35.6325 84.4388 36.4496C84.4388 37.3286 85.3197 37.6632 86.1038 37.9608L87.5492 38.5182C88.7188 38.9766 89.6277 39.5959 89.6277 40.9454C89.6277 42.3817 88.3063 43.5214 86.2007 43.5214C84.7684 43.5224 83.5438 43.002 82.6628 42.1719Z" fill="white"/>
<path d="M86.1997 43.6552C84.8083 43.6552 83.5198 43.1628 82.5709 42.2688L82.472 42.1759L83.4149 41.204L83.5108 41.2939C84.253 41.9871 85.2378 42.3847 86.2127 42.3847C87.4373 42.3847 88.1984 41.8663 88.1984 41.0322C88.1984 40.1912 87.5292 39.9205 86.6032 39.546L85.1459 38.9766C83.7086 38.4253 83.0104 37.6222 83.0104 36.5235C83.0104 35.0462 84.4038 33.9745 86.3236 33.9745C87.4802 33.9745 88.5969 34.398 89.388 35.1371L89.4849 35.228L88.6339 36.1499L88.536 36.068C87.8768 35.5147 87.1526 35.245 86.3236 35.245C85.2598 35.245 84.5716 35.7174 84.5716 36.4486C84.5716 37.2367 85.3747 37.5403 86.1508 37.835L87.5961 38.3923C88.6658 38.8118 89.7596 39.4431 89.7596 40.9443C89.7606 42.5415 88.2963 43.6552 86.1997 43.6552ZM82.8546 42.1659C83.7436 42.955 84.9252 43.3875 86.1997 43.3875C88.1385 43.3875 89.4929 42.3837 89.4929 40.9453C89.4929 39.6079 88.535 39.0475 87.5002 38.642L86.0559 38.0847C85.2758 37.789 84.3049 37.4214 84.3049 36.4486C84.3049 35.5546 85.098 34.9773 86.3246 34.9773C87.1776 34.9773 87.9267 35.241 88.6099 35.7823L89.1073 35.244C88.3722 34.6057 87.3663 34.2421 86.3246 34.2421C84.5596 34.2421 83.2791 35.202 83.2791 36.5235C83.2791 37.4993 83.9214 38.2195 85.2438 38.7269L86.7031 39.2973C87.65 39.6798 88.4671 40.0104 88.4671 41.0322C88.4671 42.0161 87.5831 42.6524 86.2137 42.6524C85.2139 42.6524 84.205 42.2618 83.4259 41.5776L82.8546 42.1659Z" fill="white"/>
<path d="M92.0359 41.28V37.5523H90.9212V36.6973L92.0909 36.6354L92.2427 34.7526H93.2885V36.6354H95.3111V37.5523H93.2885V41.3049C93.2885 42.135 93.5771 42.6054 94.4441 42.6054C94.7058 42.6054 95.0494 42.5185 95.2971 42.4316L95.5449 43.2736C95.1184 43.3975 94.6229 43.5214 94.1685 43.5214C92.5723 43.5224 92.0359 42.6304 92.0359 41.28Z" fill="white"/>
<path d="M94.1684 43.6552C92.6432 43.6552 91.9011 42.8781 91.9011 41.28V37.6862H90.7864V36.5705L91.966 36.5085L92.1178 34.6197H93.4213V36.5025H95.444V37.6862H93.4213V41.3049C93.4213 42.134 93.717 42.4716 94.4431 42.4716C94.6898 42.4716 95.0234 42.3857 95.2522 42.3058L95.385 42.2598L95.7106 43.3655L95.5818 43.4035C95.1763 43.5204 94.6499 43.6552 94.1684 43.6552ZM91.0541 37.4185H92.1688V41.28C92.1688 42.7183 92.804 43.3875 94.1684 43.3875C94.568 43.3875 95.0115 43.2846 95.378 43.1818L95.2072 42.6014C95.0215 42.6584 94.7118 42.7383 94.4431 42.7383C93.2875 42.7383 93.1536 41.9192 93.1536 41.3039V37.4175H95.1763V36.7682H93.1536V34.8854H92.3645L92.2137 36.7622L91.0541 36.8242V37.4185Z" fill="white"/>
<path d="M97.5954 40.8964V36.6354H98.8479V40.7596C98.8479 42.0101 99.2605 42.5435 100.251 42.5435C101.021 42.5435 101.559 42.2089 102.274 41.4038V36.6354H103.526V43.3605H102.481L102.384 42.3078H102.343C101.641 43.0389 100.898 43.5214 99.8658 43.5214C98.2976 43.5224 97.5954 42.6054 97.5954 40.8964Z" fill="white"/>
<path d="M99.8667 43.6552C98.2716 43.6552 97.4625 42.7263 97.4625 40.8954V36.5005H98.9828V40.7586C98.9828 41.9452 99.3383 42.4087 100.252 42.4087C100.942 42.4087 101.441 42.131 102.142 41.3519V36.5005H103.662V43.4934H102.361L102.276 42.5665C101.724 43.1059 100.964 43.6552 99.8667 43.6552ZM97.7292 36.7692V40.8964C97.7292 42.5965 98.4084 43.3885 99.8657 43.3885C100.745 43.3885 101.457 43.0379 102.247 42.2159L102.286 42.1749H102.507L102.604 43.2277H103.394V36.7702H102.409V41.4558L102.375 41.4937C101.608 42.3567 101.032 42.6784 100.251 42.6784C99.1875 42.6784 98.7141 42.087 98.7141 40.7606V36.7702H97.7292V36.7692Z" fill="white"/>
<path d="M106.197 40.0044C106.197 37.825 107.725 36.4626 109.432 36.4626C110.313 36.4626 110.877 36.7602 111.537 37.2556L111.468 36.091V33.502H112.721V43.3605H111.702L111.578 42.5675H111.55C110.959 43.0879 110.174 43.5214 109.28 43.5214C107.408 43.5224 106.197 42.2458 106.197 40.0044ZM111.468 41.6515V38.1216C110.835 37.6142 110.271 37.4155 109.651 37.4155C108.44 37.4155 107.491 38.4563 107.491 39.9915C107.491 41.6136 108.234 42.5804 109.555 42.5804C110.244 42.5804 110.849 42.2708 111.468 41.6515Z" fill="white"/>
<path d="M109.28 43.6552C107.296 43.6552 106.064 42.2558 106.064 40.0034C106.064 38.9477 106.424 37.9958 107.078 37.3216C107.701 36.6803 108.537 36.3277 109.432 36.3277C110.238 36.3277 110.801 36.5734 111.387 36.98L111.335 36.098V33.3682H112.856V43.4944H111.589L111.481 42.8032C110.963 43.2187 110.202 43.6552 109.28 43.6552ZM109.432 36.5964C107.418 36.5964 106.331 38.3524 106.331 40.0044C106.331 42.123 107.434 43.3885 109.28 43.3885C110.219 43.3885 110.985 42.8881 111.462 42.4686L111.5 42.4356H111.693L111.817 43.2287H112.587V33.6379H111.602V36.093L111.688 37.5373L111.457 37.3645C110.81 36.8771 110.272 36.5964 109.432 36.5964ZM109.555 42.7143C108.179 42.7143 107.357 41.6965 107.357 39.9915C107.357 38.4213 108.322 37.2816 109.651 37.2816C110.332 37.2816 110.918 37.5083 111.552 38.0168L111.602 38.0567V41.7075L111.563 41.7464C110.903 42.4066 110.265 42.7143 109.555 42.7143ZM109.651 37.5493C108.477 37.5493 107.625 38.5761 107.625 39.9915C107.625 41.5516 108.328 42.4466 109.555 42.4466C110.176 42.4466 110.742 42.1759 111.334 41.5956V38.1866C110.77 37.7461 110.249 37.5493 109.651 37.5493Z" fill="white"/>
<path d="M115.721 34.5178C115.721 34.0594 116.093 33.7867 116.588 33.7867C117.084 33.7867 117.455 34.0594 117.455 34.5178C117.455 34.9383 117.084 35.249 116.588 35.249C116.093 35.248 115.721 34.9383 115.721 34.5178ZM115.955 36.6354H117.208V43.3605H115.955V36.6354Z" fill="white"/>
<path d="M117.341 43.4944H115.821V36.5015H117.341V43.4944ZM116.089 43.2267H117.074V36.7692H116.089V43.2267ZM116.588 35.3818C116.018 35.3818 115.587 35.0103 115.587 34.5169C115.587 33.9995 115.99 33.6519 116.588 33.6519C117.187 33.6519 117.589 33.9995 117.589 34.5169C117.589 35.0103 117.159 35.3818 116.588 35.3818ZM116.588 33.9205C116.143 33.9205 115.855 34.1553 115.855 34.5179C115.855 34.8634 116.164 35.1152 116.588 35.1152C117.013 35.1152 117.321 34.8644 117.321 34.5179C117.321 34.1553 117.034 33.9205 116.588 33.9205Z" fill="white"/>
<path d="M119.864 40.0044C119.864 37.763 121.502 36.4626 123.331 36.4626C125.162 36.4626 126.799 37.763 126.799 40.0044C126.799 42.2338 125.161 43.5223 123.331 43.5223C121.502 43.5223 119.864 42.2338 119.864 40.0044ZM125.507 40.0044C125.507 38.4562 124.626 37.4035 123.332 37.4035C122.039 37.4035 121.172 38.4562 121.172 40.0044C121.172 41.5526 122.039 42.5804 123.332 42.5804C124.626 42.5804 125.507 41.5526 125.507 40.0044Z" fill="white"/>
<path d="M123.332 43.6552C122.37 43.6552 121.478 43.3146 120.82 42.6963C120.107 42.0251 119.731 41.0942 119.731 40.0045C119.731 38.9087 120.107 37.9718 120.82 37.2956C121.478 36.6723 122.371 36.3287 123.333 36.3287C125.123 36.3287 126.935 37.5913 126.935 40.0045C126.935 41.0952 126.559 42.0261 125.846 42.6963C125.187 43.3146 124.295 43.6552 123.332 43.6552ZM123.332 36.5964C121.143 36.5964 119.998 38.3114 119.998 40.0045C119.998 41.6855 121.144 43.3885 123.332 43.3885C125.522 43.3885 126.667 41.6865 126.667 40.0045C126.667 38.3104 125.521 36.5964 123.332 36.5964ZM123.332 42.7143C121.96 42.7143 121.038 41.6256 121.038 40.0045C121.038 38.3684 121.96 37.2696 123.332 37.2696C124.692 37.2696 125.641 38.3943 125.641 40.0045C125.641 41.6256 124.713 42.7143 123.332 42.7143ZM123.332 37.5373C122.12 37.5373 121.306 38.5292 121.306 40.0045C121.306 41.4658 122.121 42.4466 123.332 42.4466C124.553 42.4466 125.373 41.4648 125.373 40.0045C125.373 38.5282 124.553 37.5373 123.332 37.5373Z" fill="white"/>
</svg>
