<?xml version="1.0" encoding="utf-8"?>
<!-- Generator: Adobe Illustrator 25.2.3, SVG Export Plug-In . SVG Version: 6.00 Build 0)  -->
<svg version="1.1" id="圖層_1" xmlns="http://www.w3.org/2000/svg" xmlns:xlink="http://www.w3.org/1999/xlink" x="0px" y="0px"
	 viewBox="0 0 817 375" style="enable-background:new 0 0 817 375;" xml:space="preserve">
<style type="text/css">
	.st0{fill:#C1272D;}
	.st1{fill:#754C24;}
	.st2{fill:#FFFFFF;stroke:#F4D369;stroke-width:10.3456;stroke-miterlimit:10;}
	.st3{fill:#FFFFFF;}
	.st4{fill:none;stroke:#754C24;stroke-width:3.4485;stroke-miterlimit:10;}
	.st5{fill:#FBB03B;}
</style>
<g>
	<g>
		<g>
			<g>
				<path class="st0" d="M271.23,119.47c4.29-0.55,6.12-2.29,6.3-4.84c0.09-1.64,0.18-9.59,0.18-18.81
					c10.41,0.09,20.18,0.45,25.94,1.27c2.65,0.36,4.93-1.1,6.12-6.58c0.46-2.28-0.73-3.84-3.02-3.93
					c-7.76-0.55-18.08-0.82-28.95-0.9l0-9.32c8.22,0.18,15.71,0.54,19.73,1.09c2.56,0.36,4.02-0.55,5.75-6.12
					c0.46-1.46-0.18-3.29-2.74-3.47c-6.12-0.45-14.34-0.73-22.74-0.81l0-4.38c0-2.65,2.56-2.1,2.1-4.29
					c-0.37-2.19-4.57-6.67-9.87-6.66c-4.29,0-7.49,4.93-7.49,6.58c0,2.28,2.28,1.83,2.28,4.75c0,0.46,0,1.83-0.09,3.93l-7.85,0
					c0.91-2.47,1.46-4.93,1.64-7.31c0.18-2.92-2.1-4.84-6.58-4.84c-2.37,0-3.29,1.1-3.74,3.02c-1.64,6.58-7.12,13.52-14.7,15.99
					c-1.37,0.46-1.64,1.55-1.37,2.83c0.55,2.74,2.92,6.03,5.76,6.94c0.91,0.27,2.1,0.27,3.47,0c3.84-0.91,7.3-3.56,10.23-7.13
					c3.74-0.09,8.22-0.19,12.97-0.19c-0.09,2.92-0.09,6.12-0.18,9.41c-11.32,0.1-22.19,0.46-30.41,1.02
					c-2.92,0.18-4.93,7.86-3.65,10.41c0.82,1.55,2.83,1.64,4.38,1c1.73-0.73,3.29-1.1,5.94-1.37c5.21-0.37,14.06-0.64,23.65-0.83
					c-0.09,9.95,0.01,18.72,0.46,20.37C265.56,119.11,267.76,119.93,271.23,119.47z"/>
			</g>
			<g>
				<path class="st0" d="M248.14,182.49c0.91,2.92,2.74,5.3,4.2,6.21c0.82,0.55,2.01,1.1,3.74,0.82c4.75-0.82,10.87-4.48,15.07-9.69
					c4.84,4.2,10.5,7.03,13.7,7.12c3.01,0.09,5.11-2.47,6.39-6.3c0.36-1.28,0.18-1.92-0.91-2.19c-3.84-0.91-10.41-2.92-15.16-6.02
					c0.36-1.28,0.64-2.56,0.73-3.84c0.18-2.65-1.01-4.57-6.21-4.56c-1.74,0-2.83,0.73-3.01,2.38c-0.82,6.58-8.49,12.06-17.16,13.61
					C248.05,180.29,247.69,181.21,248.14,182.49z M247.77,160.75l0-8.95c4.11-0.18,9.77-0.28,15.98-0.46l-0.46,0.82
					c-2.56,4.2-7.49,6.58-14.88,8.32L247.77,160.75z M298.74,198.81c3.56-0.91,6.21-2.83,6.21-6.21c0-4.38-0.19-28.86-0.2-41.64
					c0-1.1,1.64-2.01,1.37-3.38c-0.64-3.2-4.93-7.12-9.23-7.12c-2.65,0-3.1,2.1-5.2,2.1l-15.16,0.01c0.09-1.74,0.09-3.56,0-5.48
					c-0.09-2.56-1.83-4.47-7.95-3.92c-1.92,0.18-2.92,1.46-2.83,3.47c0.09,2.01,0.18,4.02,0,5.94l-29.04,0.01
					c-2.65,0-4.02,8.86-0.82,9.95l0.09,0c0.01,18.27-0.17,34.52-1.54,42.74c-0.91,5.21,11.42,5.75,12.15,0.63
					c0.91-6.39,1.09-16.44,1.18-31.69c1.01,2.19,2.47,3.74,3.84,4.66c1.28,0.82,2.74,1,4.38,0.55c5.39-1.37,10.87-5.12,14.7-9.87
					c5.66,5.11,11.14,7.58,15.35,7.76c3.01,0.09,5.2-2.29,6.3-6.3c0.27-1,0-1.46-1.01-1.64c-4.84-0.91-11.6-3.28-16.53-7.12
					c0.18-0.37,0.27-0.73,0.36-1.1c6.39,0,12.51-0.1,17.63-0.1l0.01,36.16c0,1.37-0.18,1.83-1.37,1.92
					c-3.2,0.28-7.67-0.27-9.77-0.91c-0.82-0.27-1.46,0.09-1.46,1.01c0,2.83,0.64,7.31,2.38,8.68
					C284.86,199.73,293.08,200.28,298.74,198.81z"/>
			</g>
			<g>
				<path class="st0" d="M295.3,260.82l-0.01-23.38c1.37,0,2.56,0.09,3.47,0.09l0.01,23.47
					C297.76,260.91,296.57,260.91,295.3,260.82z M285.52,241.91l0-4.47l3.38,0c0,1.1,0.09,2.65,0.09,4.47L285.52,241.91z
					 M285.52,250.32l0-3.93l3.47,0c0,1.28,0,2.65,0,3.93L285.52,250.32z M285.52,260.73l0-5.94l3.47,0c0,2.28,0,4.38-0.09,5.94
					L285.52,260.73z M276.03,260.91c0.27-4.2,0.45-10.87,0.45-23.2c0.82-0.09,1.74-0.09,2.65-0.09c0.09,4.75,0.1,17.35,0.01,23.2
					C278.04,260.82,276.94,260.91,276.03,260.91z M254.55,228.04c4.47,0,8.4,0.09,9.5,0.45c2.01,0.55,3.01-1.19,3.65-3.93
					c0.09,0.18,0.09,0.37,0.18,0.55c0.55,1.28,2.28,1.37,3.47,1c0.82-0.27,1.92-0.64,3.01-0.73c2.37-0.18,5.3-0.37,8.49-0.46
					c-0.46,1.92-1.09,3.93-2.01,6.12l-11.69,0c-1.46,0-2.28,2.19-2.28,4.11c-1.55-0.46-2.92-1.28-3.93-2.28
					c0.27-0.91,0.36-1.83,0.36-2.74c0-1.28-1.92-1.73-3.84-1.55c-0.91,0.09-1.19,0.37-1.28,1.01c-0.18,2.1-2.1,5.48-3.56,6.03
					c0,0,0,0-0.09,0L254.55,228.04z M246.07,258.09l0.27-0.55l8.95,0c-0.64,2.01-1.73,3.74-3.1,5.39
					C249.82,261.38,247.72,259.74,246.07,258.09z M301.51,280.17c6.3-1.1,8.03-5.48,8.76-10.23c0.18-0.91-0.82-1.83-2.01-1.28
					c-5.94,2.65-28.4,2.84-41.46,0.2c-2.47-0.46-4.75-1.19-6.85-2.01c2.19-3.11,3.56-6.39,3.92-9.5c0.09-1.28,1.46-1.46,1.37-2.47
					c-0.09-1.37-3.65-4.2-6.49-4.2c-1.55,0-2.01,1.19-2.83,1.19l-7.58,0c0.09-0.27,0.09-0.55,0.18-0.82
					c0.27-1.46-1.46-2.37-3.2-2.65c1.83-1.01,3.65-2.28,5.02-3.93c3.29,2.83,9.04,5.75,12.42,5.75c2.37,0,3.65-1.55,4.75-4.75
					c0.27-0.82,0.18-1.46-1.01-1.64c-2.83-0.46-8.86-2.37-11.87-4.56c0-0.55,0-1.1-0.09-1.64c0.82,0.91,2.1,2.01,3.93,1.46
					c0.91-0.27,1.73-0.91,2.37-1.83c0.91,0.82,1.92,1.55,2.83,1.64c0.91,0.09,2.01-0.09,3.29-2.19c0.18,0.46,0.37,0.91,0.73,1.1
					c0.09,0.09,0.18,0.09,0.37,0.18c0.01,17.17-1.18,23.93-1.91,27.4c-0.73,3.47,7.95,5.48,8.95,1.37c0-0.09,0-0.18,0.09-0.18
					c6.3-0.46,17.72-0.37,23.38-0.01c0.37,1.74,2.01,2.56,3.93,2.56c2.37,0,4.02-0.28,4.84-2.56c0.55-1.55,0.55-2.92,0.55-5.75
					l-0.01-22.74c0-0.64,0.09-1.37,0.64-1.83c2.28-1.64-3.56-6.67-6.4-6.66c-1.83,0-2.28,1.46-3.74,1.46l-8.95,0
					c0.82-1.92,1.64-4.2,2.1-6.12c5.48,0.09,10.59,0.27,13.24,0.73c4.02,0.64,4.93-2.19,5.48-5.12c0.27-1.74-0.73-2.65-2.38-2.65
					l-37.26,0.01c-1.46,0-2.65,1.92-3.01,4.02l-1.37-1.19l-11.6,0c0.27-1.37,1.55-1.55,1.55-2.65c0-1.19-3.75-3.83-6.76-3.83
					c-2.19,0-4.47,2.83-4.47,3.75c0,0.91,1.01,1.28,1.19,2.74l-12.51,0c-2.19,0-3.47,5.94-2.46,7.67c0.73,1.28,2.28,1.55,3.74,0.82
					c0.91-0.46,1.92-0.73,3.2-0.91c0.64-0.09,4.02-0.18,8.13-0.28l0,7.03c-1.19-0.46-2.47-1.28-3.56-2.1
					c0.18-0.46,0.27-0.91,0.36-1.37c0.36-1.83-1.1-2.56-3.93-2.56c-1,0-1.64,0.55-1.83,1.19c-0.82,2.74-2.28,6.03-5.93,7.67
					c-0.37,0.18-0.55,0.46-0.46,1c0.27,1.74,2.1,3.93,4.84,3.38c2.01-0.37,3.74-2.19,5.02-4.57c1,0.82,2.1,1.37,3.01,1.37
					c0.91,0.09,1.83-0.64,2.47-1.74l0,1.55c-2.74,2.92-9.59,5.48-14.88,5.49c-0.64,0-1.1,0.37-1,1c0.37,2.19,1.92,4.66,3.47,5.66
					c0.55,0.37,1.37,0.55,2.28,0.46c1.28-0.09,3.1-0.55,5.11-1.28c-1.09,2.92-3.92,7.03-8.76,9.32c-0.82,0.37-1.19,0.91-0.82,1.92
					c0.64,1.73,2.38,3.47,4.48,4.2c0.82,0.27,1.37,0.18,2.19-0.09c0.82-0.27,1.64-0.73,2.47-1.28c1.28,1.28,2.83,2.65,4.48,4.02
					c-4.02,2.1-8.77,3.29-13.24,3.29c-1.1,0-1.64,0.46-1.28,1.55c1.1,3.29,2.65,5.3,3.84,6.39c0.82,0.73,2.01,1,3.56,0.82
					c5.48-0.64,10.87-3.2,15.34-6.76c3.2,1.55,6.58,2.92,10.14,3.83C274.85,280.18,295.85,281.18,301.51,280.17z"/>
			</g>
		</g>
		<g>
			<g>
				<path class="st0" d="M168.52,81.7c0-1.55,0-3.2,0-4.84l5.94,0l0,4.84L168.52,81.7z M168.43,94.49c0-1.55,0-3.2,0.09-4.93l5.94,0
					l0,4.93L168.43,94.49z M168.15,69.01c0.55-1.19,1.1-2.37,1.55-3.65l6.12,0c-0.36,1.28-0.64,2.47-0.91,3.65L168.15,69.01z
					 M167.98,107.09l0.27-4.84c2.01-0.09,4.11-0.09,6.21-0.09l0,4.93L167.98,107.09z M148.43,78.06c0.46,2.37,3.11,6.85,6.94,6.02
					c1.1-0.18,2.1-1.1,2.65-1.83c-0.18,19.27-0.81,26.21-2.64,31.23c-1.19,3.29,3.11,5.02,7.03,4.75c2.28-0.18,3.56-1.37,4.2-3.11
					c7.21-0.19,17.08,0.09,23.47,0.9c2.56,0.27,4.57-2.74,5.11-5.39c0.55-2.47-0.55-3.56-2.28-3.56l-9.68,0l0-4.93
					c3.11,0.09,5.57,0.18,6.76,0.27c2.1,0.18,3.65-2.47,4.29-5.39c0.36-1.92-0.64-2.56-1.74-2.56l-9.32,0l0-4.93
					c2.83,0.09,5.21,0.18,6.76,0.27c2.1,0.18,2.83-1.92,3.65-5.21c0.55-2.1-0.64-2.92-2.19-2.92l-8.22,0l0-4.66
					c2.37,0.09,4.57,0.18,6.21,0.36c3.11,0.27,4.02-2.47,4.75-5.48c0.46-2.19-0.64-2.92-2.38-2.92l-8.04,0
					c0.46-1.83,0.82-3.56,1.09-4.38c0.27-1.1,1.37-1.1,1.37-2.01c0-2.1-3.84-4.93-6.39-4.93c-1.55,0-2.28,1.37-3.38,1.37l-5.39,0
					c0.09-1.37,0.09-2.65-0.09-3.93c-0.37-2.56-3.93-3.74-7.03-3.01c-1.19,0.27-1.92,1.1-2.01,2.28c0.09,4.38-6.02,17.72-12.5,21.37
					C148.52,76.32,148.24,76.96,148.43,78.06z M142.85,72.49c-1.1,1.74,3.38,2.92,5.21,1.73c1.92-1.28,3.2-3.11,4.2-4.57
					c0.46-0.73,0.91-1.19,1.46-1.37c1.37-0.55,1.37-1.19,1.1-1.92c-1.01-1.92-4.02-4.29-7.22-3.92c-1.37,0.18-2.19,1.01-2.19,2.28
					C145.41,67.28,143.95,70.93,142.85,72.49z M124.88,118.07c5.11-1.19,9.22-4.02,12.14-7.86c3.29,4.47,8.13,7.12,11.69,7.12
					c3.38,0,5.66-3.2,6.39-5.39c0.36-1.1,0.09-1.64-0.91-1.83c-2.47-0.36-8.59-2.19-11.51-5.48c3.93,0.09,7.49,0.27,9.59,0.54
					c2.1,0.27,3.38-2.56,3.74-6.58c0.09-0.91-0.46-1.37-1.55-1.37l-12.05,0c0.18-0.91,0.27-1.92,0.36-2.83c2.1,0,4.11,0,5.94,0.09
					c0.09,0.18,0.27,0.37,0.37,0.46c0.64,0.73,1.28,1.1,2.1,1.1c1.74,0,4.11-1.37,5.02-2.28s0.82-1.74,0-2.28
					c-2.01-1.46-3.47-4.02-4.48-6.3c-0.37-0.73-0.73-1.1-1.55-1.19c-1.64-0.18-3.2,0.18-4.29,0.82c-0.46,0.27-0.73,0.64-0.64,1.46
					c0.09,0.37,0.09,0.82,0.18,1.19c-2.28,0.09-4.75,0.09-7.21,0.19c3.38-1.74,7.94-4.93,9.49-8.95c0.73-1.74-1.55-3.74-4.75-3.93
					c-1.46-0.09-1.92,0.27-2.28,0.91c-0.82,1.46-2.28,3.38-4.29,5.39c-1.19-0.46-2.47-0.82-3.93-1.19c2.1-1.37,4.38-3.29,5.11-4.84
					c0.18-0.46,0.18-0.82,0-1.28c1.55,0.18,3.38-0.37,3.74-1.55c0.46-1.92,0.18-4.57-0.92-6.67c-0.37-0.64-1.01-1.19-1.83-1.55
					c7.21-1.1,14.06-2.74,16.35-4.66c1-0.91,1.28-1.28,1.28-2.28c0-2.65-2.19-4.66-4.29-4.66c-0.37,0-0.73,0.09-1.1,0.37
					c-5.39,3.38-21.82,5.49-32.42,4.4c-0.64-0.09-0.91,0.27-0.91,1.1c0,2.19,1.28,5.48,2.47,6.3c0.55,0.37,1.1,0.64,2.01,0.73
					c-1.46,1.01-2.56,2.83-1.46,3.29c0.55,0.27,1,0.55,1.46,1.1c0.82,0.91,1.92,2.37,2.47,4.38c0.55,1.73,5.3,1,5.75-1.19
					c0.46-1.83-0.46-4.38-1.74-6.12c-0.46-0.64-1.1-1.19-1.83-1.55c1.92-0.09,4.2-0.18,6.48-0.46c-1,0.82-1.46,1.92-0.55,2.47
					c0.46,0.18,0.73,0.46,1.19,1.1c0.82,1.19,1.19,2.01,1.74,3.74c-0.73-0.18-1.55-0.36-2.47-0.36c-0.73,0-1.28,0.18-1.73,0.82
					c-1.37,2.1-4.2,4.75-7.12,6.12l-0.55,0c-1.1,0-1.55,0.18-1.83,1.37c-0.46,1.92,0.64,4.57,2.1,4.66c2.28,0.18,4.48,0.55,6.67,1
					c-1.64,1.01-3.29,1.83-5.11,2.47l-5.11,0.28c-1.74,0.09-2.83,4.66-2.01,6.58c0.46,1.19,2.1,1.46,3.38,0.82
					c1-0.55,1.83-0.73,3.65-0.82c2.28-0.18,5.11-0.28,8.13-0.46c-0.09,1-0.27,1.92-0.46,2.74l-14.89,0.01c-2.01,0-3.1,6.3-2.1,8.04
					c0.64,1,2.28,1.1,3.56,0.55c1-0.46,3.01-1.01,4.38-1.1c0.64-0.09,2.56-0.09,5.21-0.09c-2.37,2.38-5.75,4.11-10.59,5.03
					c-1.19,0.18-1.73,0.82-1.46,1.83c0.64,2.47,2.19,5.02,4.02,6.12C122.14,118.16,123.33,118.43,124.88,118.07z"/>
			</g>
			<g>
				<path class="st0" d="M133.49,182.53c0.91,2.92,2.74,5.3,4.2,6.21c0.82,0.55,2.01,1.1,3.74,0.82c4.75-0.82,10.87-4.48,15.07-9.69
					c4.84,4.2,10.5,7.03,13.7,7.12c3.01,0.09,5.11-2.47,6.39-6.3c0.36-1.28,0.18-1.92-0.91-2.19c-3.84-0.91-10.41-2.92-15.16-6.02
					c0.36-1.28,0.64-2.56,0.73-3.84c0.18-2.65-1.01-4.57-6.21-4.56c-1.74,0-2.83,0.73-3.01,2.38c-0.82,6.58-8.49,12.06-17.16,13.61
					C133.39,180.34,133.03,181.25,133.49,182.53z M133.11,160.79l0-8.95c4.11-0.18,9.77-0.28,15.98-0.46l-0.46,0.82
					c-2.56,4.2-7.49,6.58-14.88,8.32L133.11,160.79z M184.09,198.86c3.56-0.91,6.21-2.83,6.21-6.21c0-4.38-0.19-28.86-0.2-41.64
					c0-1.1,1.64-2.01,1.37-3.38c-0.64-3.2-4.93-7.12-9.23-7.12c-2.65,0-3.1,2.1-5.2,2.1l-15.16,0.01c0.09-1.74,0.09-3.56,0-5.48
					c-0.09-2.56-1.83-4.47-7.95-3.92c-1.92,0.18-2.92,1.46-2.83,3.47c0.09,2.01,0.18,4.02,0,5.94l-29.04,0.01
					c-2.65,0-4.02,8.86-0.82,9.95l0.09,0c0.01,18.27-0.17,34.52-1.54,42.74c-0.91,5.21,11.42,5.75,12.15,0.63
					c0.91-6.39,1.09-16.44,1.18-31.69c1.01,2.19,2.47,3.74,3.84,4.66c1.28,0.82,2.74,1,4.38,0.55c5.39-1.37,10.87-5.12,14.7-9.87
					c5.66,5.11,11.14,7.58,15.35,7.76c3.01,0.09,5.2-2.29,6.3-6.3c0.27-1,0-1.46-1.01-1.64c-4.84-0.91-11.6-3.28-16.53-7.12
					c0.18-0.37,0.27-0.73,0.36-1.1c6.39,0,12.51-0.1,17.63-0.1l0.01,36.16c0,1.37-0.18,1.83-1.37,1.92
					c-3.2,0.28-7.67-0.27-9.77-0.91c-0.82-0.27-1.46,0.09-1.46,1.01c0,2.83,0.64,7.31,2.38,8.68
					C170.21,199.77,178.42,200.32,184.09,198.86z"/>
			</g>
			<g>
				<path class="st0" d="M171.59,244.42l10.14,0c-0.73,4.66-2.65,9.04-5.11,12.88C173.97,253.37,172.05,248.99,171.59,244.42z
					 M160.82,270.91c1.73-5.48,2.64-14.25,3-25.57c0.64,6.3,3.48,12.97,7.13,18.81C167.76,267.25,164.2,269.63,160.82,270.91z
					 M130.95,246.26l0-2.56l9.95,0l0,2.56C137.98,246.17,133.97,246.17,130.95,246.26z M130.96,254.21l0-2.74
					c3.01-0.18,7.03-0.19,9.95-0.09l0,2.92C137.99,254.12,134.15,254.12,130.96,254.21z M118.36,279.24c0.91,1,2.37,1,4.11,0.27
					c5.3-2.01,13.61-4.75,18.72-5.58c0.27,0.55,0.64,1,0.91,1.37c0.73,0.91,1.19,1.37,2.19,1.55c1,0.18,2.47-0.09,3.74-0.55
					c1.19,1.64,2.83,3.2,4.93,3.19c2.74,0,4.47-1.83,5.93-4.39c1.19,1.92,2.38,3.38,3.47,4.11c1.19,0.82,2.01,0.73,3.74,0.18
					c2.65-0.82,6.67-3.38,10.68-7.31c4.02,4.66,8.04,7.76,10.78,8.31c3.74,0.73,6.67-3.75,7.58-5.48c0.55-1.1,0.09-1.83-0.82-2.19
					c-3.11-1.28-7.4-4.11-11.42-7.94c3.92-5.57,7.03-12.61,7.76-20.55c0.18-1.92,1.83-1.92,1.83-3.38c0-2.56-4.39-5.66-7.22-5.66
					c-1.55,0-2.83,1.83-4.11,1.83l-17.17,0.01c0.09-2.47,0.09-5.11,0.09-7.76c12.79,0,21.37,0.17,25.94,0.72
					c2.19,0.27,4.11-1.92,5.39-5.57c0.82-2.37-0.37-3.93-2.74-3.93l-28.4,0.01c-1.74,0-2.19-2.01-4.93-2.01
					c-2.92,0-7.76,4.75-7.49,6.76c0.27,1.83,2.01,1.64,2.01,4.11c0.01,13.88-1.27,33.97-4.46,39.55c-0.18,0.37-0.46,0.64-0.73,0.91
					c-1.46-2.19-2.47-4.66-2.83-6.21c-0.18-0.73-0.55-1.1-1.55-1.28c-1.46-0.27-3.38-0.18-4.93,0.46c-0.82,0.37-1.19,0.82-1.19,1.74
					c0,0.73,0.09,1.55,0.37,2.47c-2.28,0.18-4.84,0.46-7.58,0.82l0-7.67c3.11-0.09,6.94-0.09,9.86,0c0.37,0.82,1.28,1.28,3.2,1.28
					c3.29,0,4.29-1.01,4.75-2.56c0.36-1.37,0.55-2.1,0.55-4.93l0-11.6c3.38-1.65-2.56-6.48-5.66-6.48c-1.55,0-2.1,1.37-3.29,1.37
					l-0.55,0c-0.27-1-0.27-1.74-0.27-2.28c0-1.46-1.65-3.74-4.2-3.65c-2.19,0-3.47,1.65-4.11,2.56c-0.27,0.37-0.91,1.64,0.37,2.1
					c0.55,0.18,0.91,0.64,1.28,1.28l-8.13,0c3.38-1.55,7.76-5.12,11.05-9.32c4.11,4.66,8.95,7.21,11.42,7.67
					c2.74,0.55,4.47-2.74,5.2-4.84c0.36-0.91,0.27-1.37-0.37-1.55c-4.02-1.37-9.5-4.11-12.7-7.39c0.55-1.46,0.82-2.83,0.91-4.2
					c0.09-2.47-2.1-3.2-5.94-3.19c-1.83,0-2.56,1.1-2.74,2.1c-1,5.11-7.39,11.05-15.89,13.52c-0.91,0.27-1.19,1.1-0.64,2.47
					c0.55,1.28,2.28,4.11,4.2,5.2c0.64,0.37,1.1,0.46,1.74,0.46c-1.37,1.83-1,5.66,0.92,6.03c0.09,0,0.18,0,0.27,0.09
					c0,8.31-0.18,19.27-0.63,25.02l-2.47,0.55C116.62,270.38,116.81,277.59,118.36,279.24z"/>
			</g>
		</g>
		<g>
			<g>
				<path class="st0" d="M53.95,56.9c0,2.1,1.74,1.64,1.74,4.29c0,10.96-0.35,49.32-0.25,53.52c0.09,2.74,1.74,4.11,5.57,3.74
					c4.47-0.46,5.57-2.83,5.57-8.04c0-1.55,0-5.48,0.09-10.32c2.92,0.09,5.57,0.36,7.85,0.73c3.29,0.55,4.66-2.47,5.66-5.66
					c0.64-2.1-0.37-3.2-2.83-3.2l-10.69,0l0-5.66c2.83,0.09,5.48,0.27,7.76,0.55c2.74,0.27,3.65-1.83,4.56-5.12
					c0.55-1.92-0.18-3.2-2.28-3.2l-9.95,0l0-6.03c2.65,0.09,5.3,0.18,7.95,0.45c2.56,0.27,4.02-2.38,4.66-5.12
					c0.55-2.19-0.82-3.01-2.47-3.01l-10.05,0l0-3.47c0-2.74,2.28-2.56,2.28-4.29c0-1.64-5.3-5.2-9.04-5.2
					C57.33,51.88,53.95,55.44,53.95,56.9z M40.36,117c7.3-2.93,10.68-11.69,11.04-19.55c0.54-11.78,0.54-21.1,0.53-36.26
					c0-2.19,1.92-2.92,1.55-4.29c-0.37-1.55-4.39-4.56-8.22-4.56c-3.01,0-5.93,3.47-5.93,4.75c0,1.92,2.01,1.19,2.01,4.38l0,3.29
					l-8.77,0c-2.65,0-3.65,6.49-3.01,8.49c0.46,1.37,2.38,1.64,3.93,0.64c1-0.64,2.1-0.82,3.29-0.82l4.57,0l0,5.3l-9.59,0
					c-1.64,0-2.65,2.28-3.01,4.57c-0.46-0.37-1.1-0.55-2.01-0.64c-1-0.09-2.19-0.18-3.47-0.18l0-6.12c1,0.09,1.83,0.09,2.47,0.18
					c1.83,0.18,3.01-3.11,3.29-5.75c0.27-2.19-0.37-3.2-2.56-3.38c-0.82-0.09-1.92-0.09-3.2-0.18l0-5.94c0-2.37,2.65-2.56,2.28-4.2
					c-0.37-1.37-4.57-4.84-9.04-4.84c-4.02,0-6.85,4.11-6.66,5.3c0.18,1.83,2.19,1.19,2.19,3.83l0,5.84c-3.47,0-6.48,0.19-7.49,0.37
					c-2.47,0.46-3.83,7.31-2.46,9.5c0.46,0.82,2.01,0.91,2.83,0.55c0.82-0.37,1.55-0.55,3.1-0.82c0.73-0.09,2.19-0.27,4.11-0.37
					c0,2.19,0,4.29-0.09,6.3c-3.93,0.28-7.31,0.73-8.58,1.28c-2.56,1.1-3.38,7.67-2.74,9.5c0.55,1.64,2.56,1.64,3.74,0.64
					C5.38,93,6.02,92.81,7.2,92.54c1-0.27,2.74-0.55,4.84-0.73c-0.09,6.48-0.27,11.14-0.36,12.24c-0.18,1.37-0.46,1.92-1.73,2.1
					c-2.19,0.27-4.38,0.09-7.58-0.64C1.45,105.33,1,105.69,1,107.06c0,3.11,0.64,7.67,2.29,8.86c1.28,0.91,3.75,2.1,7.4,2.1
					c7.4,0,12.6-2.84,12.6-8.95l-0.01-17.63l2.28,0.27c1.64,0.27,2.92-2.28,3.47-4.75c0.82,1,2.47,1.1,4.29,0.27
					c0.82-0.37,2.19-0.64,3.84-0.73c0.91,0,2.37-0.09,4.11-0.09c0,1.74-0.09,3.38-0.09,4.66c-3.74,0.09-7.95,0.37-11.69,0.83
					c-2.56,0.27-3.74,7.12-2.74,9.32c0.64,1.37,2.83,1.73,4.11,0.64c1.1-0.91,2.65-1.55,4.29-1.83c1.28-0.27,2.92-0.55,4.93-0.73
					c-1.55,5.02-4.56,7.49-7.94,8.86c-1.1,0.46-1.28,1.37-0.73,2.74c0.91,2.47,3.29,5.48,5.66,6.3
					C38.17,117.55,39.18,117.46,40.36,117z"/>
			</g>
			<g>
				<path class="st0" d="M44.3,154.71l0-4.11c3.2,0,7.49,0,10.69,0.09l0,4.02L44.3,154.71z M26.59,172.89
					c0-0.91,0.09-1.83,0.09-2.74c6.39-0.19,17.9-0.19,27.49-0.1l0,3.01C47.78,172.6,34.26,172.61,26.59,172.89z M26.59,154.71
					c0.36-2.92,0.45-6.85,0.45-12.33c6.39-0.46,18.72-0.55,27.95-0.28l0,2.74l-10.59,0c-1.1,0-2.38-1.64-4.93-1.64
					c-2.47,0-7.58,4.3-5.66,5.57c1.1,0.73,1.1,2.1,1.1,2.56l0,3.38L26.59,154.71z M25.87,181.47c0.18-1,0.27-1.92,0.36-2.92
					c7.4-0.28,21.46-0.37,27.95-0.01l0,2.92C47.6,181.01,33.35,181.01,25.87,181.47z M0.93,161.02c0.27,0.64,0.82,1.1,1.55,1.28
					c-0.18,1.83-0.46,3.47-1.28,4.48c-0.55,0.73-0.27,1.74,0.37,2.37c0.91,1,2.92,1.73,5.57,1.73c2.01,0,4.11-0.73,5.02-2.47
					c0.64-1.28,0.82-3.65,0.91-6.94c6.76-0.37,20.91-0.56,54.98-0.66c-0.09,3.29-0.45,5.75-1.09,7.49c-0.36,1,0.18,1.92,1.1,2.37
					c1.64,0.82,7.22,1.28,9.59-0.19c1.64-1.01,1.82-4.57,1.82-9.32c0-1.1,1-1.37,1-2.37c0-1.74-4.75-5.66-7.95-5.66
					c-2.28,0-3.65,1.55-4.66,1.55l-1.92,0l0-13.42c0-0.73,0.18-1.46,0.64-1.74c2.92-1.46-3.75-6.48-7.31-6.48
					c-2.65,0-3.01,1.92-4.47,1.92l-37.08,0.01c-2.74,0-3.1,5.94-1.37,7.85c0,5.66-0.09,9.22-0.82,11.87l-11.87,0
					C1.2,154.72,0.29,159.11,0.93,161.02z M12.26,198.92c2.01,0.73,4.02,0.82,6.3-0.37c3.2-1.65,5.11-6.03,6.39-11.51
					c6.94-0.37,22.37-0.46,29.22-0.1l0,0.73c0,2.56-0.73,2.83-2.46,2.92c-1.74,0-4.84-0.18-6.94-0.64
					c-1.28-0.27-1.74,0.46-1.73,1.55c0,2.83,1.46,6.85,2.83,7.85c1.46,1.1,5.11,1.55,8.4,1.28c3.01-0.18,7.12-0.82,9.77-3.2
					c2.46-2.19,2.37-4.38,2.19-7.58c-0.28-4.75-0.46-14.16-0.56-21.46c0-0.46,0.46-1.19,0.82-1.37c2.74-1.83-3.29-5.93-7.86-5.93
					c-2.74,0-3.93,2.28-5.11,2.29L16,163.39c-2.37,0-3.65,6.76-0.73,7.49l0.18,0c-0.55,7.4-2.37,17.17-7.39,19.73
					c-0.82,0.46-1.1,1.1-0.82,2.19C7.79,194.99,9.8,198.01,12.26,198.92z"/>
			</g>
			<g>
				<path class="st0" d="M57.21,239.08c0-1.1,0-2.19,0.09-3.38l9.04,0.27l0,3.38L57.21,239.08z M56.85,248.03
					c0.09-1.1,0.18-2.28,0.18-3.47l9.32,0.27l0,3.47L56.85,248.03z M38.22,239.27l0-3.29c2.47-0.09,5.66-0.18,9.04-0.28l0,3.29
					C43.88,239.08,40.68,239.08,38.22,239.27z M37.95,248.12c0-1,0.09-2.19,0.18-3.47c2.37-0.09,5.48-0.09,8.86-0.19
					c0,1.19-0.09,2.37-0.18,3.47C43.52,247.94,40.41,248.03,37.95,248.12z M23.34,271.51c0.64,3.65,2.01,6.21,3.66,7.58
					c0.82,0.64,1.83,0.91,3.11,0.91c6.21-0.18,13.06-1.65,18.35-7.04c9.41,4.2,19.64,7.39,23.93,7.39c4.2,0,6.57-3.75,7.39-6.76
					c0.55-2.01,0.27-2.92-1.74-3.1c-6.12-0.55-15.53-3.1-24.02-6.2c1.09-2.92,1.82-6.39,2.37-10.59c3.84,0.09,7.31,0.18,9.95,0.36
					c0.27,1.55,1.83,2.28,4.29,2.28c2.56,0,4.93-0.46,5.39-3.02c0.36-1.83,0.36-2.74,0.36-5.66l0-10.87c0-0.55,0.09-1.55,0.64-2.28
					c1.37-1.92-3.66-6.03-6.67-6.02c-1.92,0-2.83,1.28-4.02,1.28l-9.04,0l0-3.47c8.13,0,15.53,0.18,17.26,0.45
					c2.65,0.46,3.74-0.73,5.02-4.75c1.09-3.29-0.64-3.93-3.38-3.93l-46.85,0.02c-3.29,0-4.93,6.12-4.11,8.4
					c0.55,1.55,2.92,1.55,4.29,0.91c1.37-0.64,2.47-0.82,4.38-0.91c1.55-0.09,6.94-0.19,13.42-0.19l0,3.47l-17.35,0.01
					c-2.83,0-3.38,6.21-1.28,6.94c0,6.58-0.09,12.15-1.09,14.8c-1.19,3.38,7.49,5.39,9.32,2.37c2.37-0.09,5.66-0.18,9.22-0.19
					c-0.46,2.56-1,4.66-1.73,6.21c-0.09,0.09-0.18,0.27-0.18,0.37c-3.01-1.37-5.57-2.65-7.4-3.92c-1.55-1-2.56-1.09-3.84-0.55
					c-1.73,0.73-3.29,2.01-3.74,3.29c-0.36,1.1,0.37,1.92,1.37,3.01c1.55,1.73,4.2,3.65,7.31,5.57c-3.01,1.74-7.12,2.38-13.33,2.2
					C23.43,269.86,23.16,270.6,23.34,271.51z M16.04,279.82c3.47-0.37,6.03-1.19,6.03-4.48l-0.02-42.01
					c1.73-4.02,2.92-8.68,2.92-13.33c0-2.92-1.65-4.38-6.39-4.38c-2.92,0-3.74,1.65-3.83,2.92c-0.82,8.68-8.39,19.64-13.51,22.2
					c-1.19,0.55-1.28,1.37-1.09,2.47c0.46,2.19,2.56,5.57,5.76,6.3c1.55,0.36,2.74,0,3.74-0.46l1.28-0.73
					c-0.09,11.6-0.27,24.2-0.26,28.31C10.65,279.18,12.93,280.19,16.04,279.82z"/>
			</g>
			<g>
				<path class="st0" d="M45.93,343.27l0-3.11c4.93,0.09,9.77,0.18,14.34,0.36l0,3.11C57.07,343.45,51.77,343.36,45.93,343.27z
					 M45.93,351.67l0-3.2c5.84,0.09,11.14,0.18,14.34,0.36l0,3.29C57.16,351.85,51.86,351.76,45.93,351.67z M26.28,325.11l0-3.74
					c10.41-0.55,19.63-0.56,28.13-0.19l0,3.93C47.2,324.92,34.41,324.83,26.28,325.11z M20.81,343.65l0-3.01
					c4.47-0.18,9.32-0.37,14.34-0.46l0,3.11C29.3,343.28,24.01,343.46,20.81,343.65z M20.45,352.14c0.09-1,0.09-2.1,0.18-3.29
					c3.2-0.18,8.58-0.37,14.52-0.37l0,3.2C29.12,351.77,23.65,351.96,20.45,352.14z M15.78,329.77c-0.91,3.47,9.13,4.38,9.95,1.18
					l0-0.09c8.22-0.19,21.74-0.1,29.13,0.08c0.46,1.1,1.37,1.55,2.83,1.55c4.2,0,7.12-0.64,7.12-5.94l0-5.02
					c0-0.64,0.09-1.37,0.64-1.92c1.92-2.01-3.84-6.12-7.67-6.12c-1.55,0-2.56,1.74-3.84,1.74l-36.16,0.01
					c-2.65,0-3.38,5.94-1.09,6.39C16.69,325.11,16.42,327.3,15.78,329.77z M1.26,312.6c0.27,0.73,0.82,1.1,1.64,1.28
					c-0.18,1.74-0.46,3.2-1.09,4.2c-0.46,0.73-0.09,1.74,0.55,2.37c0.91,1,2.56,1.73,5.21,1.73c2.01,0,4.11-0.73,5.02-2.47
					c0.73-1.37,0.91-3.47,0.91-6.94c6.67-0.28,39.18-0.38,53.97-0.11c-0.09,2.28-0.18,4.29-0.64,5.48c-0.36,1,0.46,1.92,1.37,2.37
					c1.64,0.82,6.85,1.37,9.13-0.09c1.64-1.01,1.73-5.48,1.73-8.04c0-1.1,1.28-1.55,1.09-3.11c-0.18-1.19-4.57-5.66-8.22-5.66
					c-2.28,0-3.2,1.65-4.57,1.65l-4.57,0c0.73-1.1,1.73-2.1,3.1-2.56c2.65-1.01,0.27-5.39-4.29-6.21c-3.93-0.73-5.84,1.19-7.58,3.11
					c-0.91,1.1-2.1,3.01-3.1,5.66l-4.57,0c0.09-1.92,0.18-3.29,0.55-3.65c1-1.1,1.55-2.47,1.19-3.56c-0.55-1.46-4.39-4.11-8.86-4.11
					c-3.84,0-6.39,3.29-6.39,4.39c0,1.83,1.83,1.83,1.83,4.02l0,2.92l-6.3,0c-0.55-2.83-1.55-5.39-3.56-7.21
					c-1-1-3.75-2.56-7.58-1.82c-2.01,0.37-4.93,3.11-3.47,4.57c1.37,1.37,2.28,2.65,2.92,4.47l-12.69,0
					C1.53,305.3,0.62,310.5,1.26,312.6z M64.93,361.8c3.65,0,6.3-0.37,7.12-2.93c0.36-1.1,0.46-2.1,0.46-4.2l-0.01-13.7
					c0-0.64,0.27-1.28,0.91-1.64c2.92-1.64-4.2-7.76-8.13-7.76c-2.19,0-3.56,2.1-4.93,2.1l-50.32,0.02c-3.2,0-3.83,7.03-1.28,7.67
					c0.09,0,0.18,0.09,0.27,0.09c-0.18,5.75-0.82,11.69-1.73,14.89c-1.55,5.3,10.96,6.85,12.33,2c7.31-0.64,32.33-0.47,40.55-0.11
					C60.36,360.25,61.91,361.81,64.93,361.8z"/>
			</g>
		</g>
	</g>
	<g>
		<g>
			<g>
				<path class="st1" d="M525.94,284.42c0.11-1.59,0.11-3.42,0.11-5.12c3.99-0.23,8.77-0.23,13.44-0.11v5.35
					C535.28,284.42,530.27,284.42,525.94,284.42z M514.67,260.4c0.23,1.14,1.82,1.71,3.87,0.8c1.14-0.57,3.42-0.8,8.43-0.91
					c14.23-0.34,50.9-0.34,60.46,0.8c3.76,0.46,5.12-2.16,5.92-5.35c0.34-1.37-0.11-2.28-1.82-2.28h-30.52v-2.05
					c9.45,0,17.54,0.23,19.36,0.46c2.28,0.23,3.3-1.82,3.99-4.67c0.34-1.37-0.23-1.82-1.71-1.82h-56.14c-2.62,0-3.3,4.21-2.73,5.58
					c0.46,1.14,1.59,1.14,3.42,0.91c3.64-0.46,11.96-0.57,20.95-0.57v2.16h-30.17C515.58,253.45,514.1,257.78,514.67,260.4z
					 M513.3,290.46c-2.51,5.01,9.56,7.29,11.39,2.62c0.23-0.57,0.34-1.14,0.57-1.82h14.12c0.23,2.16,1.94,2.73,4.1,2.73
					c4.33,0,7.17-0.68,7.63-3.07c0.23-1.37,0.23-4.44,0.23-5.35v-7.29c0-0.68,0.34-1.14,1.02-1.71c2.16-2.05-4.67-6.15-7.97-6.15
					c-1.71,0-3.76,1.71-5.24,1.71h-23.23c-3.64,0-4.1,7.63-1.59,8.2c0.11,0,0.23,0,0.34,0.11
					C514.56,284.42,514.33,288.52,513.3,290.46z M507.84,227.04c0.8,1.48,2.62,1.82,5.12,0.57c0.91-0.46,2.62-0.68,3.87-0.8
					c2.05-0.11,15.49-0.23,30.63-0.23v2.05h-22.89c-3.19,0-3.76,4.78-3.42,5.92c0.46,1.71,1.94,1.59,3.42,1.25
					c1.37-0.34,3.87-0.68,7.06-0.8c15.14-0.34,46,0.11,51.58,0.91c2.73,0.34,3.99-2.85,4.44-4.9c0.34-1.48-0.23-2.39-2.28-2.39
					h-23.8v-2.05c16.05,0.11,30.97,0.23,34.05,0.57c2.39,0.23,4.55-2.73,5.69-6.15c0.57-1.82-0.34-2.85-2.51-2.85h-36.21
					c0.68-1.14,1.59-1.71,1.59-2.39c0-2.51-4.44-5.01-11.5-5.01c-4.21,0-7.17,3.07-7.17,4.78c0,1.25,0.68,1.71,1.25,2.62h-34.96
					C508.41,218.15,506.59,224.64,507.84,227.04z M504.76,270.99c0.68,1.82,3.64,2.28,6.26,1.14c2.85-1.25,5.12-1.71,10.59-1.94
					c14.01-0.8,39.85-0.57,58.07-0.11v2.39H556.8c-2.85,0-4.55,4.21-3.53,6.83c0.57,1.37,2.05,1.25,3.07,0.91
					c3.3-1.02,13.78-1.14,23.34-0.68v3.76c0,2.28-0.91,2.62-2.62,2.73c-1.37,0-3.3-0.23-5.12-0.46c0-0.46-0.34-0.91-0.91-1.48
					c-2.96-2.85-6.38-4.33-10.82-4.1c-2.73,0.11-4.9,3.19-5.47,4.44c-0.57,1.48,0,2.39,0.91,2.28c0.68-0.11,1.71,0.11,2.73,0.46
					c2.16,0.8,4.21,2.05,6.26,4.1c1.25,1.25,2.16,0.91,3.64-0.34l0.46-0.34c0.57,1.94,1.48,3.64,2.28,4.33
					c1.48,1.14,5.24,1.59,8.65,1.37c3.07-0.23,6.95-0.68,9.45-3.3c2.51-2.5,2.62-5.69,2.62-9.56v-3.07
					c1.48,0.11,2.62,0.34,3.53,0.46c3.87,0.57,5.69-3.19,6.38-5.81c0.34-1.59-0.46-2.51-1.94-2.51h-7.97v-2.05
					c3.19,0.11,5.58,0.34,7.06,0.46c3.3,0.34,4.78-3.07,5.24-6.03c0.34-2.05-0.34-2.96-1.94-2.96h-93.94
					C505.33,261.88,503.51,267.69,504.76,270.99z M597.33,251.17c2.05-1.02,2.62-2.73,3.3-6.72c0.23-1.37,1.48-1.82,1.48-3.07
					c0-2.05-4.78-6.38-8.65-6.38c-2.73,0-3.53,1.59-5.24,1.59h-76.74c-2.96,0-4.78,5.35-3.99,7.74c0.68,2.16,3.42,2.39,5.47,1.48
					c2.85-1.25,6.03-1.48,9.79-1.59c11.5-0.34,41.33-0.57,64.56-0.57c-0.11,2.16-0.8,3.53-1.59,5.01c-0.46,1.14,0.23,2.39,1.37,2.85
					C589.36,252.31,594.6,252.66,597.33,251.17z"/>
			</g>
			<g>
				<path class="st1" d="M650.94,257.1h19.81c0.11,1.25,0,2.62-0.34,4.1h-18.45C651.74,259.83,651.4,258.46,650.94,257.1z
					 M639.78,250.49c0-1.02,0.11-2.16,0.11-3.42c10.93-0.23,29.26-0.34,42.7-0.34v3.76C671.44,250.26,651.06,250.26,639.78,250.49z
					 M638.08,284.31c0.11-1.59,0.11-3.3,0.11-5.01c11.84-0.34,31.65-0.34,46.23,0.11v5.01
					C673.49,284.08,650.49,283.97,638.08,284.31z M621.68,291.14c-1.71,4.78,14.23,6.03,15.37,2.16l0.34-1.59
					c11.96-0.34,35.75-0.23,46.91,0c-0.23,2.85,1.48,4.33,6.26,4.33c4.67,0,7.74-0.68,8.88-2.85c0.57-0.91,0.68-1.94,0.68-3.64
					v-11.39c0-1.02,1.25-1.25,0.8-2.39c-0.57-1.48-5.12-5.35-11.16-5.35c-3.64,0-3.42,1.82-6.03,1.82H625.1
					c-3.64,0-4.67,6.83-1.82,7.97C623.16,284.99,622.59,288.18,621.68,291.14z M611.2,265.52c-0.68,2.16-0.46,4.21,0.57,5.58
					c0.91,1.14,2.96,1.48,5.01,0.57c1.14-0.57,2.73-0.91,5.24-1.14c15.71-1.02,73.56-0.68,80.39,0.46c4.9,0.8,6.72-2.51,7.63-6.03
					c0.8-2.73-0.8-3.76-3.07-3.76H681.8c0.46-1.02,0.91-2.16,1.14-3.19c0.8,0.8,2.28,1.02,4.44,1.02c5.81,0,8.65-1.02,8.65-6.49
					v-6.26c0-1.48,0.91-1.37,0.46-2.62c-0.91-2.73-5.47-5.12-9.34-5.12c-2.51,0-2.73,1.37-5.92,1.37c-9.56,0-35.53-0.11-52.15-0.11
					c-3.3,0-3.64,6.03-1.94,7.4c0.11,0.11,0.11,0.11,0.23,0.11c-0.11,3.42-0.57,5.58-1.59,7.97c-1.48,3.64,10.13,5.47,12.53,2.05
					h0.46c0.68,1.37,1.25,2.62,1.71,3.87h-25.39C613.37,261.19,612,263.02,611.2,265.52z M695.12,239.11
					c3.19,0.57,4.44-2.16,5.24-5.01c0.68-2.28-1.14-3.76-3.87-3.76c-9.22-0.23-18.56-0.46-27.78-0.46v-2.16
					c16.05,0,30.86,0.23,33.82,0.68c4.21,0.68,5.81-1.48,6.72-4.9c0.8-2.85-0.34-4.67-3.3-4.67h-37.01
					c0.46-1.14,1.37-1.59,1.37-2.96c0-2.16-4.44-5.12-11.16-5.12c-4.33,0-7.29,3.53-7.29,5.01c0,1.71,0.8,1.82,1.25,3.07h-36.32
					c-1.94,0-3.42,2.16-3.99,4.55c-0.46,1.82-0.46,3.64,0.11,4.67c0.8,1.59,3.07,2.28,5.47,1.25c1.25-0.57,3.19-1.02,6.03-1.25
					c2.51-0.23,14.8-0.34,29.04-0.34v2.16c-9.56,0-19.24,0.23-28.81,0.46c-2.28,0.11-3.76,5.47-2.62,7.97
					c0.46,1.14,2.05,1.59,3.42,1.02c1.14-0.46,2.96-0.68,5.24-0.8C645.7,237.74,688.52,237.85,695.12,239.11z"/>
			</g>
			<g>
				<path class="st1" d="M717.3,239.11c3.76,2.85,6.49,8.31,7.86,11.84c0.91,2.51,6.26,1.25,6.95-2.85
					c0.57-3.3-1.82-11.73-3.76-14.23c-1.94-2.51-4.33-3.64-7.29-2.39C717.64,232.96,714.91,237.28,717.3,239.11z M762.96,295.35
					c7.4-1.82,14.23-7.86,16.74-20.95c1.82,0,3.64-0.11,5.47-0.11c-0.23,5.01-0.68,8.65-1.02,11.39c-0.68,5.47,0.34,8.65,5.24,9.45
					c5.24,0.8,13.55,0.68,19.58-0.11c5.81-0.8,7.29-2.73,7.17-6.03c-0.11-4.44,0-6.26,0.68-8.2c0.46-1.37-0.46-2.16-1.82-1.14
					c-3.53,2.73-8.88,4.78-16.51,4.67c-1.48,0-2.16-0.68-2.05-2.39c0.23-2.39,0.34-5.01,0.46-7.52c7.17,0.23,12.87,0.57,14.46,0.91
					c2.73,0.57,4.67-1.94,5.47-6.95c0.23-1.59-0.68-2.73-2.16-2.73h-57.62c-1.82,0-2.96,2.39-3.42,4.9
					c-1.94-3.87-6.03-7.74-10.7-10.59l1.02-9.11c6.15-1.94,10.93-7.06,13.44-10.36c0,0.57,0.11,1.14,0.34,1.48
					c0.68,1.25,1.82,1.37,3.53,0.91c1.14-0.34,2.96-0.57,5.24-0.68c-1.02,0.68-1.82,1.59-1.94,2.28c-0.23,1.02,0.68,1.37,1.02,2.51
					h-8.43c-2.39,0-3.3,5.24-2.39,7.17c0.46,1.02,1.71,0.91,2.96,0.57c1.59-0.46,4.67-0.68,7.97-0.8v2.62
					c-4.55,0.11-8.77,0.23-10.36,0.23c-2.73,0-4.1,6.26-3.19,7.97c0.68,1.25,2.51,1.14,3.87,0.34c0.91-0.57,1.94-0.91,3.3-1.02
					c3.64-0.23,15.03-0.57,18.79-0.23c2.16,0.23,3.07-2.28,3.76-5.81c0.23-0.91-0.46-1.71-1.59-1.71c-0.91,0-2.62,0-4.55,0v-2.51
					c2.16,0.11,3.87,0.23,4.67,0.34c1.71,0.23,2.51-2.5,2.85-5.24c0.11-1.25-0.46-1.94-1.59-1.94h-5.81
					c0.11-0.8,1.59-1.25,1.14-2.51c-0.34-0.91-1.71-1.94-3.42-2.62c6.6-0.11,14.35,0,21.18,0.23c-1.37,0.8-2.28,1.94-2.28,2.5
					c0,1.37,1.02,1.14,1.37,2.51h-6.26c-2.62,0-3.19,5.01-2.73,6.6c0.34,1.02,1.82,1.25,3.42,0.68c0.91-0.34,3.07-0.46,5.69-0.57
					v2.73h-7.86c-2.05,0-3.64,4.9-3.07,6.95c0.46,1.25,1.59,1.37,2.96,1.02c5.35-1.25,20.04-0.91,26.3-0.11
					c2.96,0.34,4.21-3.3,4.55-6.15c0.11-0.91-0.23-1.71-1.14-1.71h-11.73v-2.73c3.19,0.11,5.92,0.34,7.06,0.46
					c2.39,0.34,3.3-2.05,3.64-5.01c0.11-1.37-0.46-2.16-1.37-2.16h-9.34c0.34-0.8,1.94-1.71,1.59-2.62
					c-0.23-0.68-1.25-1.48-2.51-2.05c2.85,0.11,5.01,0.23,6.49,0.34c3.3,0.23,4.44-2.73,5.24-6.49c0.34-1.71-0.23-2.39-1.48-2.39
					h-22.2v-3.53c6.95,0.11,13.21,0.34,15.37,0.8c2.96,0.68,4.1-2.28,4.78-6.49c0.23-1.71-0.68-2.39-2.05-2.39h-18.1v-0.34
					c0-1.82,2.39-2.62,2.39-4.1c0-1.48-5.12-4.9-9.68-4.9c-3.64,0-7.17,3.42-7.17,5.01c0,1.82,2.16,1.82,2.28,4.33h-15.94
					c-3.07,0-4.1,6.6-3.19,8.65c0.57,1.25,2.28,1.48,4.21,0.8c1.14-0.46,2.62-0.91,4.21-1.02c0.91-0.11,5.24-0.23,10.7-0.23v3.42
					h-18.67c-0.57,0-1.02,0.34-1.48,0.8c-1.59-2.51-4.67-4.44-7.63-4.33c-2.28,0.11-3.76,1.37-3.76,3.3c0,2.28-1.25,5.69-2.73,8.54
					c0.34-6.49,0.46-12.41,0.46-17.08c0-2.62,2.73-2.73,2.05-4.9c-0.57-1.94-3.99-5.47-9-5.47c-3.87,0-6.49,3.99-6.49,5.35
					c0,2.16,1.94,1.82,1.94,5.81c0,24.59-3.19,49.3-14.57,55.91c-1.37,0.8-1.82,1.82-1.71,3.07c0.34,3.19,2.39,8.31,5.58,10.02
					c1.14,0.68,2.96,0.91,4.21,0.57c6.83-1.94,11.16-11.96,13.89-24.37c1.14,3.19,2.16,6.6,3.3,10.7c0.46,1.71,1.48,2.39,3.19,1.94
					c2.51-0.68,6.26-3.99,7.17-7.63c1.02,0.68,2.85,0.46,4.55-0.11c1.14-0.57,3.99-0.91,7.74-1.14
					c-2.16,6.83-6.83,10.25-14.23,10.25c-1.25,0-1.94,0.46-1.71,1.59c0.68,3.07,1.94,6.72,4.44,8.2
					C757.27,295.92,760.12,296.04,762.96,295.35z"/>
			</g>
		</g>
		<g>
			<path class="st2" d="M659.6,157.03"/>
			<g>
				<path class="st1" d="M720.72,121.04l-7.26-4.37c-8.48-21.06-29.09-35.94-53.19-35.94c-24.33,0-45.1,15.16-53.43,36.54
					l-6.27,3.77c-3.72,2.24-5.99,6.26-5.99,10.59v13.62c0,4.34,2.27,8.36,5.99,10.59l6.66,4c8.58,20.85,29.09,35.54,53.03,35.54
					c23.72,0,44.07-14.4,52.79-34.94l7.66-4.61c3.72-2.24,5.99-6.26,5.99-10.59v-13.62C726.71,127.29,724.44,123.27,720.72,121.04z"
					/>
				<circle class="st3" cx="661.03" cy="138.06" r="49.75"/>
			</g>
			<g>
				
					<rect x="625.39" y="131.62" transform="matrix(0.8635 -0.5043 0.5043 0.8635 8.5481 337.0739)" class="st1" width="3.45" height="42.24"/>
				
					<rect x="629.86" y="129.01" transform="matrix(0.8635 -0.5043 0.5043 0.8635 10.473 338.9705)" class="st1" width="3.45" height="42.24"/>
				
					<rect x="634.32" y="126.4" transform="matrix(0.8635 -0.5043 0.5043 0.8635 12.3978 340.8671)" class="st1" width="3.45" height="42.24"/>
			</g>
			<path class="st1" d="M629.9,114.32c-3.9-0.62-8.17,1.11-9.44,4.11c-1.27,3-0.13,6.11,4.6,6.32c7.15,0.33,9.77,3.94,13.39,1.31
				C641.7,123.69,637.7,115.55,629.9,114.32z"/>
			<path class="st1" d="M646.97,120.46c-3.46,0.86-6.39,3.8-6.39,6.74c0,2.94,2.04,5.12,6.05,3.63c6.05-2.25,9.5-0.17,11.58-3.63
				C660.07,124.08,653.88,118.73,646.97,120.46z"/>
			<path class="st1" d="M658.14,137.66c-2.35-6.98-12.83-5.8-13.82,0.4c-1.09,6.86,7.92,26.22,10.19,30.53
				c3.25,6.15,9.39,17.32,14.16,15.14c1.75-0.8-0.54-9.51-2.84-18.21C664.42,160.19,661.28,146.98,658.14,137.66z"/>
			<path class="st1" d="M642.79,102.29"/>
			<path class="st4" d="M643.09,100.15c0.88-2.97,3.99-4.66,6.96-3.79c2.97,0.88,4.66,3.99,3.79,6.96"/>
			<path class="st4" d="M645.75,109.64c2-2.36,5.54-2.65,7.9-0.65s2.65,5.54,0.65,7.9"/>
			<path class="st4" d="M629.57,111.41c-0.54-3.05,1.49-5.96,4.54-6.5c3.05-0.54,5.96,1.49,6.5,4.54"/>
			<path class="st1" d="M647.96,172.12c-1.72,0-4.31,0-4.31,3.45s5.56,4.78,7.76,2.59C654,175.57,653.41,172.12,647.96,172.12z"/>
			<path class="st1" d="M662.62,92.8c-1.72,0-4.31,0-4.31,3.45s5.56,4.78,7.76,2.59C668.65,96.25,668.07,92.8,662.62,92.8z"/>
			<path class="st1" d="M667.79,101.42c-6.9,4.31-2.59,12.93-6.9,23.28c-2.97,7.12,5.17,23.28,19.83,24.14
				c17.3,1.02,26.01-4.72,24.14-21.55C703.14,111.77,681.39,92.92,667.79,101.42z"/>
			<path class="st1" d="M679.05,174.34c0,0,11.21,2.59,15.52-6.03c3.45-6.9-0.91-14.29-5.17-15.52
				C686.76,158.32,679.05,174.34,679.05,174.34z"/>
			<path class="st1" d="M671.05,171.13c0,0,9.7-2.36,9.69-10.72c-0.01-6.69-6.27-10.73-10.05-10.02
				C670.8,155.71,671.05,171.13,671.05,171.13z"/>
			<path class="st3" d="M666.93,124.7c-1.93,1.44-1.72,5.17,0,8.62c2.59,5.17,5.98,10.35,12.93,10.35c2.59,0,4.31-5.17,3.49-10.78
				c-0.53-3.61-2.5-7.02-5.22-8.19C672.53,122.3,669.42,122.84,666.93,124.7z"/>
			<path class="st3" d="M669.51,106.6c-2.59,1.72-0.98,5.99-2.5,9.92c-0.7,1.79,0.34,3.01,2.5,3.01c5.17,0,8.75,2.38,9.41-0.12
				c0.51-1.92-1.29-7.92-4.24-11.09C673.2,106.72,670.61,105.87,669.51,106.6z"/>
			<g>
				<g>
					<path class="st3" d="M660.74,103.76c1.66,0,1.67-2.59,0-2.59C659.08,101.18,659.07,103.76,660.74,103.76L660.74,103.76z"/>
				</g>
			</g>
			<path class="st3" d="M678.14,103.15c-2.05-0.19-1.82,1.53-1.22,2.18c5.07,5.45,9.83,14.12,10.7,21.96
				c0.79,7.11,1.58,11.33-0.95,16.63c-0.38,0.79,0.21,1.7,1.08,1.73c3.43,0.12,7.2-2.31,11.07-7.15c3.45-4.31,1.72-13.79-0.86-18.97
				C695.07,113.73,687.62,104.01,678.14,103.15z"/>
		</g>
	</g>
	<g>
		<g>
			<g>
				<path d="M430.16,155.11c0-1.08,0-2.05,0.1-3.03l5.67,0.29v3.03L430.16,155.11z M430.06,164.3v-3.32c2.35,0,4.4,0.1,5.87,0.2
					v3.32C434.36,164.49,432.31,164.4,430.06,164.3z M429.47,192.95h5.67c-0.39,1.08-0.98,2.25-2.35,3.72
					C431.33,195.39,430.16,194.12,429.47,192.95z M416.96,155.01v-3.03h4.99v3.03H416.96z M416.96,164.2v-3.32h4.99v3.32H416.96z
					 M403.07,155.4v-2.84c1.66-0.2,3.52-0.29,5.57-0.39v2.93L403.07,155.4z M402.78,164.4c0.1-0.98,0.1-2.05,0.2-3.23
					c1.47-0.1,3.42-0.1,5.67-0.2v3.32C406.49,164.3,404.54,164.4,402.78,164.4z M383.42,203.02c0.29,2.15,2.35,5.96,5.77,7.04
					c1.47,0.49,3.72,0.1,5.28-0.98c4.01-2.64,6.36-8.8,7.53-15.74c1.27-0.1,3.13-0.1,5.28-0.1v8.7c-1.27,0.2-2.35,0.39-3.32,0.49
					c-0.59,0.1-1.08,0.49-1.17,1.27c-0.2,1.56,0.59,4.4,2.35,6.45c0.98,1.08,2.35,1.17,3.72,0.78c3.23-0.78,9.68-2.35,13.3-4.11
					c2.44-1.17,2.05-7.14-0.2-6.75l-5.38,0.78v-7.82h3.72c2.05,6.45,10.85,17.01,21.32,17.89c4.5,0.39,7.04-3.42,8.12-6.65
					c0.29-0.98,0.1-1.96-0.88-2.05c-4.3-0.2-7.82-1.08-10.66-2.35c0.68-0.49,1.27-0.98,1.86-1.37c0.49-0.39,0.98-0.59,1.66-0.59
					c0.98,0,1.27-0.39,1.27-1.27c-0.1-1.27-0.78-2.64-1.86-3.72c2.25,0,3.72,0.1,4.2,0.2c1.96,0.39,3.03-1.27,3.81-3.52
					c0.39-1.17-0.49-2.64-2.25-2.64h-44.1c0.1-0.49,0.1-0.98,0.1-1.47c10.56-0.2,33.05-0.1,36.76,0.1c2.05,0.1,3.23-1.37,3.91-3.03
					c0.59-1.37-0.49-2.54-1.96-2.54h-38.43c0.1-0.49,0.1-0.98,0.1-1.47c14.96,0,36.28,0,40.87,0.49c2.05,0.2,3.23-1.47,4.01-3.81
					c0.49-1.37-0.59-2.74-2.25-2.74h-2.05c0.98-0.39,1.47-0.98,1.66-2.25c0.2-1.76,0.2-3.72,0.2-6.36v-12.12
					c0-0.39,0.2-0.88,0.68-1.37c2.05-2.05-3.72-6.55-6.84-6.55c-2.05,0-2.54,1.66-3.72,1.66h-5.18c0.59-0.98,1.76-1.08,1.76-2.15
					c0-1.27-4.6-4.01-7.14-4.01c-2.44,0-5.18,2.74-5.18,3.81c0,0.98,0.98,1.37,1.56,2.35h-4.3c0.59-0.68,1.56-1.37,1.56-2.15
					c0-1.56-4.5-3.91-6.94-3.91c-2.54,0-4.89,2.84-4.89,3.91c0,0.88,0.78,1.27,1.27,2.15h-13.79c-3.32,0-3.81,6.94-1.17,7.63h0.1
					c-0.2,7.82-0.68,12.71-1.76,15.64c-0.68,1.76,0.59,3.23,2.44,3.91c-1.56,1.37-2.84,3.03-2.84,3.72c0,1.86,1.86,1.37,1.86,3.72
					c0,7.14-3.42,19.26-8.9,21.02C383.52,201.45,383.32,201.94,383.42,203.02z M368.75,153.74c0.39,1.27,1.27,1.76,2.44,1.47
					c1.27-0.29,3.42-0.2,5.08,0.39c3.52,1.08,7.43,2.54,8.8,3.13c1.17,0.49,1.96,0.2,2.74-1.08c1.17-1.56,1.66-3.62,1.66-4.99
					c0-1.08-0.2-2.44-1.37-3.52c-2.64-2.15-8.21-4.5-11.34-4.99c-4.2-0.78-6.26,0.98-7.43,3.72
					C368.26,150.8,368.36,152.66,368.75,153.74z M367.58,171.73c0.39,1.27,1.47,1.37,2.54,0.98c1.96-0.78,9.48,0.98,14.57,2.54
					c1.27,0.49,2.15,0.2,2.74-1.08c0.88-1.86,1.08-4.2,0.98-5.67c-0.1-1.08-0.39-2.35-1.86-3.32c-2.93-1.86-8.51-3.91-12.22-4.2
					C367.77,160.48,366.31,167.62,367.58,171.73z M364.55,201.26c0.78,3.32,4.11,7.72,6.65,8.6c1.08,0.39,2.44,0.2,3.52-0.39
					c6.75-3.91,12.61-17.89,13.69-23.27c0.29-1.47,0.39-2.44-0.29-3.52c-0.68-1.08-2.54-2.64-4.4-3.42
					c-0.88-0.39-2.05-0.1-2.44,0.98c-1.76,4.3-10.07,15.25-15.45,18.19C364.35,199.2,364.16,199.6,364.55,201.26z M401.9,170.95
					c0.1-0.2,0.1-0.49,0.2-0.78c7.63-0.2,25.52-0.39,33.54,0c-0.1,1.17,0.39,1.96,1.37,2.35h-33.44c-0.88,0-1.47-0.29-2.05-0.78
					C401.7,171.53,401.8,171.24,401.9,170.95z"/>
			</g>
			<g>
				<path d="M398.28,266.02c5.67-0.1,12.12-0.1,17.89,0c0.29,3.81-0.39,8.7-1.47,12.52h-15.06
					C400.14,275.41,399.45,269.83,398.28,266.02z M388.7,258.1c0.2-3.13,0.29-6.55,0.29-9.29c9.29-0.39,25.32-0.29,37.25,0.1v9.19
					C417.05,257.81,397.99,257.81,388.7,258.1z M367.77,236c0.68,1.76,2.93,1.86,4.5,1.47c1.27-0.29,2.35-0.49,4.2-0.68
					c9.78-1.08,57-1.08,64.34,0.29c4.4,0.88,5.67-3.13,6.65-7.43c0.59-2.54-0.59-3.62-2.64-3.62H371.2
					C368.65,226.03,366.31,232.29,367.77,236z M441.89,290.86c5.28,0.88,7.24-5.28,8.21-8.8c0.59-2.05-0.2-3.52-2.25-3.52h-22.29
					c1.17-2.44,2.54-6.65,3.23-10.27c0.59,0.2,1.37,0.29,2.35,0.29c4.5,0,8.12-1.27,8.12-8.6v-11.24c0-0.98,0-2.15,0.88-3.03
					c2.15-2.25-4.6-7.92-9-7.92c-2.64,0-4.01,2.35-5.57,2.35h-47.81c-3.42,0-4.01,8.9-1.27,9.39c0.1,0,0.2,0,0.29,0.1
					c0,5.77-0.1,9.88-1.47,13.2c-1.66,3.91,6.84,6.06,10.46,4.69c1.66,2.35,2.84,7.53,3.03,11.05h-19.16
					c-3.52,0-6.26,7.53-4.69,11.05c0.78,1.76,2.84,1.86,4.4,1.27c1.27-0.49,4.2-0.68,7.43-0.88
					C393.88,288.8,431.62,289.29,441.89,290.86z"/>
			</g>
			<g>
				<path d="M426.25,309.76h8.41c-1.17,1.56-3.42,2.84-6.16,4.01v-0.1C428.4,312.2,427.32,310.74,426.25,309.76z M417.45,312.79
					c0.98-0.39,1.96-0.78,2.74-1.17c1.66,0.78,2.64,2.54,3.03,3.81c0,0.1,0,0.1,0.1,0.2c-1.37,0.39-2.74,0.68-4.11,0.98
					C419.11,315.24,418.33,313.77,417.45,312.79z M365.33,332.54c0.59,1.37,2.54,1.66,3.81,0.98c1.47-0.78,2.05-0.98,3.72-0.98h0.1
					c-0.78,2.84-2.35,4.6-4.4,6.26c-0.88,0.68-0.59,1.76-0.1,2.44c1.37,1.66,3.81,3.32,6.75,3.52c1.17,0.1,2.44-0.1,3.32-0.98
					c1.96-1.86,3.91-5.08,4.4-11.15c1.56,0,3.13,0,4.6,0.1v7.82c0,1.96,2.25,2.64,5.18,2.54c4.2-0.2,5.67-1.66,5.67-3.62v-27.67
					c0-1.96,2.05-2.74,1.66-4.4c-0.39-1.56-4.3-4.5-8.6-4.5c-2.93,0-5.48,3.62-5.48,4.5c0,1.76,1.56,1.47,1.56,3.52v3.62h-6.84
					v-2.93c0-1.96,2.05-2.15,1.56-4.11c-0.29-1.17-3.42-4.01-7.43-4.01c-2.84,0-5.18,2.64-5.18,4.01c0,1.86,1.66,1.76,1.66,4.2v2.84
					c-2.25,0-3.52,4.5-2.64,6.65c0.59,1.37,1.96,1.47,3.42,0.88c1.08-0.49,9.19-0.49,15.45-0.29v3.52h-19.75
					C365.72,325.31,364.55,330.78,365.33,332.54z M442.38,371.65c2.44-1.08,4.5-2.93,6.36-7.14c0.59-1.37,0.29-2.15-1.66-2.54
					c-3.52-0.59-10.27-2.35-17.21-4.79c3.03-1.56,6.26-3.42,8.02-4.5c0.78-0.49,1.56-0.29,2.44,0c0.98,0.29,2.05-0.1,2.05-1.47
					c0-2.64-2.05-6.36-5.48-7.92l1.08-0.78c1.76-1.47,1.86-4.2,1.86-7.04v-2.05c2.93,0.1,5.08,0.29,5.67,0.39
					c1.76,0.39,2.74-1.17,3.72-4.3c0.59-2.05-0.2-3.23-2.44-3.23h-6.94v-3.52c0-1.08,1.08-1.17,1.08-2.15
					c0-0.88-1.56-2.05-3.72-2.74c3.62-2.15,6.45-4.79,7.72-8.02c0.29-0.78,1.37-0.88,1.27-1.66c-0.2-1.37-4.11-4.3-6.84-4.3
					c-1.76,0-2.64,1.37-3.52,1.37h-9.39c-0.1-2.15-4.4-2.93-6.36-2.54c-0.78,0.2-1.08,0.49-1.56,1.08
					c-1.56,1.86-7.82,4.79-16.33,4.79c-1.08,0-1.37,0.59-1.17,1.37c0.39,2.05,2.05,4.89,4.2,5.08c1.56,0.1,3.72-0.1,6.16-0.59
					c1.08,0.68,1.86,1.86,2.25,3.13c-4.2,0.49-8.31,0.59-11.34,0.2c-0.88-0.1-1.27,0.2-1.17,0.88c0.29,2.25,1.27,4.2,2.15,5.18
					c0.68,0.68,1.08,0.98,2.54,1.17c4.01,0.59,14.37-0.39,23.56-3.52c0.2,0.29,0.49,0.59,0.49,1.08v3.62c-8.9,0-17.89-0.1-27.08-0.1
					c-2.35,0-3.52,5.08-2.84,7.33c0.49,1.47,2.15,1.66,3.62,0.78c0.78-0.49,1.76-0.88,3.03-0.98c0.68-0.1,1.96-0.1,3.62-0.2
					c-1.17,0.98-1.86,2.54-1.96,3.32c-0.1,0.88,0.2,1.37,1.08,1.56c1.76,0.39,4.99,1.96,6.75,3.42c0.88,0.68,1.37,0.68,2.15,0.2
					c0.98-0.59,2.25-2.74,2.74-4.01c0.39-0.98,0.2-1.47-0.78-2.15c-1.37-0.98-2.93-1.76-4.4-2.35c4.2,0,9.29,0,14.08,0.1v1.17
					c0,1.66-0.59,1.96-1.76,1.96c-1.47,0-3.72-0.2-5.28-0.49c-0.88-0.2-1.17,0.1-1.17,0.98c0,1.96,0.68,6.16,2.05,7.04
					c1.27,0.78,4.11,0.98,6.75,0.98h0.2c-1.66,3.52-5.87,6.75-9.29,9c-2.93-1.37-5.77-2.84-8.12-4.5v-1.86
					c0-1.86,2.05-1.56,1.86-3.13c-0.29-2.05-4.99-4.5-8.8-4.5c-3.03,0-6.06,3.32-5.77,4.69s1.66,1.17,1.66,2.93v14.96
					c0,0.98,0,1.47-1.27,1.66c-2.44,0.39-7.82-0.29-9.58-0.88c-0.1,0-0.2-0.1-0.29-0.1c3.32-2.93,5.96-6.26,7.14-9.78
					c0.29-1.08,2.05-2.15,1.86-3.03c-0.39-2.25-4.79-5.28-7.04-5.28c-1.37,0-2.84,1.17-4.01,1.17c-3.72,0-12.81,0.1-18.68,0.1
					c-2.44,0-3.72,5.77-3.23,7.92c0.29,1.27,2.54,1.96,3.81,0.68c1.08-1.08,5.96-1.56,15.64-1.27c-4.2,5.38-12.42,8.31-20.83,8.6
					c-1.17,0-1.56,0.68-1.17,1.86c0.68,2.25,2.54,5.77,4.99,7.24c0.88,0.59,1.76,0.59,2.93,0.59c4.6-0.1,11.34-3.13,16.92-7.43
					c0.1,1.96,1.27,7.04,2.44,8.02c1.76,1.37,5.57,1.56,9,1.56c5.57,0,12.42-2.54,12.42-8.6v-6.45
					c7.14,6.75,18.87,11.83,23.76,12.91C439.64,372.44,441.3,372.14,442.38,371.65z"/>
			</g>
		</g>
		<g>
			<g>
				<path class="st5" d="M407.33,14.13c24.13,0,43.76,19.63,43.76,43.76s-19.63,43.76-43.76,43.76c-24.13,0-43.76-19.63-43.76-43.76
					S383.21,14.13,407.33,14.13 M407.33,1c-31.42,0-56.88,25.47-56.88,56.88c0,31.42,25.47,56.88,56.88,56.88
					s56.88-25.47,56.88-56.88C464.21,26.47,438.75,1,407.33,1L407.33,1z"/>
			</g>
			<g>
				<path class="st5" d="M422.92,28.55c-16.79-1.86-15.91,16.64-24.25,19.58c-7.59,2.68-20.41,10.26-19.68,22.31
					c0.54,8.81,7.85,16.25,17.81,16.85c9.09,0.55,20.44-3.78,29.84-16.79C438.77,53.73,439.83,30.43,422.92,28.55z"/>
				<path class="st3" d="M411.89,47.71c0.76-2.46-2.39-2.86-3.62-1.02c-1.86,2.8-4.4,5.09-8.39,6.53c-1.75,0.63-1.86,3.68,0.72,3.7
					c2.54,0.03,5.5-1.08,7.41-3.2C409.42,52.15,411.06,50.39,411.89,47.71z"/>
			</g>
		</g>
	</g>
</g>
</svg>
