<?xml version="1.0" encoding="utf-8"?>
<!-- Generator: Adobe Illustrator 25.2.3, SVG Export Plug-In . SVG Version: 6.00 Build 0)  -->
<svg version="1.1" id="圖層_1" xmlns="http://www.w3.org/2000/svg" xmlns:xlink="http://www.w3.org/1999/xlink" x="0px" y="0px"
	 viewBox="0 0 830 232" style="enable-background:new 0 0 830 232;" xml:space="preserve">
<g>
	<path d="M87.45,55.18c2.53,4.7,4.58,9.39,3.97,11.92c-0.36,1.57-2.05,1.08-3.85,0.12C87.45,63.25,87.45,59.15,87.45,55.18z
		 M69.5,72.64c1.69-3.13,3.49-7.47,5.06-11.8c-0.12,3.97-0.12,7.95-0.12,12.04c0,1.2-0.96,1.2-1.93,0.6
		C72.03,73.13,70.83,72.76,69.5,72.64z M51.8,59.88v-6.62c1.57,2.77,3.01,5.3,3.01,5.54C54.81,59.88,53.48,60.12,51.8,59.88z
		 M33.97,70.36c2.05-2.41,3.97-5.54,5.78-9.03l-0.24,10c0,0.96-0.72,1.57-1.69,1.2C36.74,72.04,35.78,70.96,33.97,70.36z
		 M26.87,59.39c1.45-9.15,1.81-20.84,1.81-36.62H41.2c-2.41,1.08-4.1,3.37-4.1,4.46c0,1.45,3.13,3.01,3.13,6.02v0.84h-8.19
		c-3.25,0-2.89,9.39-2.05,11.44c0.72,2.17,3.01,1.45,4.34,0.6c0.72-0.48,2.53-0.84,3.37-0.96c0.12,0,0.36,0,0.6,0
		C37.1,51.32,31.92,56.14,26.87,59.39z M9.28,83.72c4.1,0.96,7.59-1.32,10-4.46c2.05-2.65,3.61-5.66,4.82-9.15
		c2.17,2.53,4.58,4.46,6.02,3.61c0.72-0.36,1.45-0.96,2.17-1.57c2.05,2.17,3.97,5.3,4.58,7.59c0,6.26,5.9,7.23,10.6,4.58
		c3.73-2.17,4.94-4.82,4.58-13.01c-0.12-2.77-0.24-5.66-0.24-8.79c1.2,0.96,2.53,1.57,3.85,1.57c2.29,0,5.42-1.08,6.87-3.01
		c1.69-1.69,2.89-4.34,1.45-6.14c-2.17-2.77-4.58-4.46-9.27-10.48h3.85c1.69,0,2.53-2.17,4.1-9.52c0.12-0.6,0.12-0.84-0.96-0.84
		h-9.03c0.12-1.2,0.24-2.05,0.36-2.29c1.2-1.93,2.77-3.01,2.77-4.22c0-1.45-3.25-3.61-6.99-4.82h27.7
		c-2.17,1.32-3.61,3.73-3.61,4.82c0,1.32,2.17,1.32,2.17,4.58v2.29h-9.64c-0.72,0-1.45,0.48-1.81,2.17
		c-0.6,2.77-0.36,9.88,2.89,9.03c0.84-0.24,2.89-0.48,5.54-0.6c-1.45,8.31-6.5,16.86-16.26,21.92c-0.6,0.36-0.72,0.72-0.48,1.08
		c2.41,4.1,6.62,9.76,10.36,9.15c0.6-0.12,1.45-0.84,2.29-2.05c1.81,1.32,3.61,3.37,4.46,5.78c-0.96,6.02,5.66,7.95,11.32,4.46
		c3.73-2.29,4.46-4.58,4.1-10.84l-0.24-4.22c2.65,2.29,5.42,6.5,9.39,5.9c6.14-0.84,10.84-8.07,7.59-14.09
		C100.58,54.7,94.92,50,90.46,44.46c1.69,0,2.89,0,3.49,0.12c4.7,0.72,6.38-4.94,6.38-9.27c0-0.6,0-0.84-0.84-0.84H88.17
		c0.12-1.2,0.24-2.05,0.36-2.29c0.84-1.93,2.89-2.53,2.89-4.34c0-1.2-3.85-3.73-7.47-5.06h1.69c3.85,0,5.54,0.72,9.39,0.72
		c3.85,0,6.99-3.01,8.67-8.79c0.84-2.89,0.48-3.49-0.6-3.49H68.18v-0.72c-0.12-2.17,3.85-2.89,3.13-5.18
		c-0.48-1.93-8.79-5.06-15.54-5.06c-3.37,0-8.91,2.17-8.55,4.58c0.48,2.65,4.1,3.25,5.3,6.38h-22.4c-3.37,0-5.66-3.25-9.39-3.25
		c-3.25,0-10.84,7.71-10.84,10c0,3.01,3.73,2.29,3.73,5.9c0,28.79-3.49,38.18-9.15,45.41c-1.45,1.69-3.49,2.17-4.22,3.13
		c-0.48,0.72,0.12,2.53,1.45,2.29C5.79,74.09,3.5,82.4,9.28,83.72z"/>
	<path d="M194.89,22.78c0-1.69,0-3.25,0-4.58h15.3c0,1.08-0.84,3.73-2.65,5.3c-1.57-0.48-3.25-0.72-5.42-0.72H194.89z M184.05,29.4
		h15.54c-0.96,1.57-3.37,3.25-6.62,4.7C189.47,33.02,186.34,31.45,184.05,29.4z M169.96,22.66c0.12-1.45,0.24-3.01,0.24-4.46h13.37
		v4.46H169.96z M165.14,40.24c1.69-3.13,3.01-6.99,3.85-10.96h2.89c2.17,3.01,5.66,5.9,9.64,8.67
		C176.22,39.28,170.44,40.12,165.14,40.24z M162.85,65.18c0.84-0.96,1.57-2.05,2.29-3.01c6.38,0,13.13,0,19.63,0.12
		c-1.08,1.69-2.41,3.25-3.97,4.58C174.66,66.14,168.39,65.42,162.85,65.18z M131.17,7.84c-1.81,3.97,0.12,6.75,2.41,7.95
		c3.97,1.93,14.09,2.65,19.99-1.57c0.84-0.6,0.6-1.08-0.36-1.2c-6.02-0.48-11.44-5.3-12.53-7.59c-0.6-1.45,0.72-2.77-0.6-3.49
		C138.04,1.1,132.62,4.35,131.17,7.84z M124.43,34.34c-0.6,3.13,1.57,10.48,3.97,12.41c1.81,1.45,4.34,1.93,6.87,0.72
		c3.49-1.69,12.04-9.88,17.95-15.66c0.84-0.84,0.48-2.05-0.72-1.57c-4.58,1.93-10.48,4.1-17.22,5.78c-0.72,0.12-0.96-0.24-0.36-0.36
		c9.03-1.81,18.19-9.76,18.19-13.73c0-4.46-8.07-4.46-17.1-1.81c-3.37,0.96-6.5,0.24-5.3-1.57c0.48-0.84-0.24-1.08-1.08-0.6
		c-1.2,0.84-4.22,2.89-4.22,6.62c0,2.77,1.93,4.46,4.58,4.58c4.94,0.24,7.35-2.41,9.39-2.29c3.73,0.12-8.91,8.79-14.21,6.62
		C125.03,33.5,124.55,33.74,124.43,34.34z M123.34,62.04c0.84,3.37,5.42,3.13,6.75,2.41c1.2-0.6,4.82-2.41,6.38-2.41h12.65
		c-2.53,1.93-5.3,3.49-8.07,4.34c2.53,3.01,8.55,6.87,11.2,6.26c0.72-0.24,1.57-0.48,2.29-0.84c4.46,0,9.03,0.6,13.73,1.45
		c-10,2.65-22.89,2.41-37.34,1.32c-1.2-0.12-2.05,0.6-1.32,1.08c1.32,1.08,2.89,3.37,5.66,7.47c0.84,1.32,2.05,2.89,4.22,2.89
		c10.84,0,31.08-0.96,45.41-8.43c9.03,2.89,16.74,6.38,21.2,8.91c2.89,1.69,10.6-5.3,12.41-9.27c0.48-0.84,0.84-1.81-0.6-2.41
		c-4.7-1.93-12.89-3.85-22.16-5.54c1.69-2.05,3.01-4.34,4.1-6.87c7.59,0.12,13.73,0.24,16.26,0.48c5.06,0.36,8.07-5.42,8.91-9.15
		c0.12-0.6,0.24-0.84-0.12-0.84h-23.13l0.12-1.45c0-1.57-4.46-2.89-7.47-2.89c-2.89,0-5.3,0.36-5.66,2.65
		c-0.12,0.6-0.24,1.08-0.36,1.69h-17.71c0.12-0.36,0.12-0.72,0-1.2c-0.48-1.81-3.97-4.22-8.55-4.22c-2.65,0-5.42,0.6-6.5,2.17
		c-0.72,1.08,1.32,1.57,0.96,2.65l-0.24,0.6h-28.43C123.34,52.89,122.26,58.31,123.34,62.04z M153.58,47.95
		c4.22,0.96,7.83-1.69,10.6-6.02c1.57,1.32,3.25,3.49,4.46,5.42c0.6,0.96,1.57,2.05,3.85,1.69c5.78-0.96,12.77-2.77,19.39-5.18
		c6.5,3.13,12.77,5.18,16.38,5.18c4.82,0,12.04-7.47,15.42-11.08c0.6-0.72,0.24-1.57-0.96-1.08c-1.57,0.6-9.03,0.96-17.34-0.12
		c2.77-1.93,4.82-4.1,5.9-6.38c0.96-1.93,0.72-3.61-0.48-4.94c4.58-0.24,9.03-2.77,10.96-6.5c1.45-2.77,3.13-2.05,3.13-3.49
		c0-1.57-6.02-7.23-8.55-7.23c-2.29,0-3.49,1.81-4.94,1.81h-15.9c0.84-1.57,2.89-2.29,2.65-3.61c-0.36-1.69-6.62-5.18-10.12-5.18
		c-2.29,0-6.75,3.73-6.75,5.18c0,1.81,1.81,1.69,2.17,3.61H170.8c-3.01,0-3.97-2.29-6.62-2.29c-3.37,0-9.52,5.42-9.52,6.99
		c0,2.17,2.65,2.41,2.65,5.06c0,9.15-2.41,14.09-8.19,18.79c-1.2,0.96-2.53,1.32-3.01,2.05c-0.48,0.6,0.12,1.81,1.08,1.81
		C149.48,42.41,150.08,47.11,153.58,47.95z"/>
	<path d="M274.15,43.25v-4.1l5.06,0.12v4.22C277.76,43.37,276.07,43.25,274.15,43.25z M274.15,54.7v-4.1c1.93,0,3.73,0,5.06,0.12
		v4.22C277.76,54.82,275.95,54.7,274.15,54.7z M260.54,43.62v-4.1c1.45-0.12,3.25-0.24,5.42-0.24v3.97
		C263.91,43.25,261.98,43.37,260.54,43.62z M260.42,54.94l0.12-4.1c1.32-0.12,3.25-0.12,5.42-0.24v4.1
		C263.91,54.7,261.98,54.82,260.42,54.94z M259.93,30.13c2.41-1.81,4.82-4.34,6.87-7.47h5.42c-0.96,3.25-2.77,5.54-4.94,7.47H259.93
		z M244.27,27.72c0.72,1.69,2.65,4.34,5.18,5.42c0.36,0.12,0.72,0.24,1.2,0.36c-0.24,0.96-0.36,1.93-0.24,2.89
		c0,15.66-0.36,19.51-2.65,22.89c-1.93,2.89,6.87,6.87,10.72,4.22c0.24-0.24,0.48-0.36,0.72-0.72c4.7-0.36,15.06-0.48,20.72-0.12
		c0.72,1.45,2.29,2.29,5.42,2.29c4.22,0,4.34-0.96,4.34-12.17V39.88c0-1.08,0-3.01,1.32-3.25c0.24-0.12,0.48-0.24,0.72-0.36
		c-1.2,2.29-1.32,5.42-0.36,7.59c0.72,1.81,2.65,1.57,4.1,1.2c3.61-0.84,9.52-1.2,15.78-1.32c-2.41,1.32-4.1,3.85-4.1,5.06
		c0,2.65,1.81,3.01,2.53,5.42H295.1c-3.61,0-5.06,8.43-3.73,10.96c0.84,1.57,3.61,1.32,6.26,0.48c1.08-0.36,2.41-0.48,4.1-0.84
		c0.84-0.12,4.1-0.24,8.19-0.36v6.62V73H294.5c-5.18,0-6.99,7.23-5.18,11.2c0.72,1.93,2.65,1.69,4.34,1.32
		c9.15-2.05,32.76-1.69,43.48,0.12c5.78,0.96,8.19-5.66,9.52-10.96c0.12-0.96-0.36-1.69-1.2-1.69h-23.01
		c0.12-1.32,0.12-2.65,0.12-4.34v-4.1c6.99,0.12,13.37,0.36,15.42,0.84c3.13,0.72,6.14-2.77,6.14-10.24c0-0.6,0-0.96-0.48-0.96
		h-20.84l0.24-1.45c0.84-1.81,2.89-2.53,2.89-4.34c0-1.32-3.49-3.37-6.99-4.58c6.02,0.12,11.92,0.6,16.02,1.32
		c5.42,0.84,7.95-5.9,9.27-10.96c0.24-0.84,0.24-0.96-0.48-0.96h-21.2c0-0.36,0-0.84,0-1.32v-4.46c5.78,0.12,11.2,0.24,12.89,0.6
		c2.89,0.48,5.3-2.89,5.3-10c0-0.6,0-0.72-0.36-0.72h-17.59c0.12-1.69,0.24-2.41,0.6-3.25c0.84-1.81,2.89-2.41,2.89-4.1
		c0-1.93-7.83-5.66-11.56-5.66c-3.73,0-7.83,4.22-7.83,5.9c0,2.53,3.49,2.53,3.49,5.78v1.32h-13.37c-3.37,0-4.82,8.07-3.49,10.6
		c0.84,1.45,3.37,1.69,5.42,0.6c1.08-0.6,4.22-1.32,5.9-1.32h5.54v6.02h-14.09c-1.81,0-3.13,0.84-3.97,2.17
		c0-0.6-0.24-1.32-1.08-2.41c-0.48-0.72-4.1-4.82-6.75-4.82c-1.93,0-1.81,1.93-4.58,1.93h-2.89c2.53-2.05,5.54-4.94,6.99-7.47
		c0.72-1.2,4.1-1.32,4.1-3.37c0-1.81-5.06-7.71-7.23-7.71c-1.93,0-3.37,2.41-5.3,2.41h-4.46c0.6-1.45,1.08-3.01,1.45-4.58
		c0.72-3.13-0.12-5.42-5.9-5.42s-6.26,1.81-5.66,2.53c2.05,2.41-7.23,16.98-15.54,18.31C244.03,25.31,243.67,25.91,244.27,27.72z
		 M242.35,76.02c-1.81,8.07,2.89,12.77,8.43,10.72c3.01-1.2,6.02-4.94,3.85-10.72c-1.45-3.37-0.96-7.71,3.61-10.6
		c0.48-0.36,0.24-0.96-0.24-0.96C253.79,64.69,243.91,69.15,242.35,76.02z M282.1,66.14c-1.93,0.6-2.65,2.77-3.85,1.93
		c-1.93-1.81-4.46-2.05-6.26-1.69c-2.29,0.48-3.25,3.01-4.58,3.01c-0.72,0-1.45-0.96-2.53-1.57c-1.08-0.72-3.61-1.57-6.02-1.81
		c-0.48,0-0.96,0.36-0.6,0.72c5.3,5.3,1.93,11.8,6.02,14.21c2.65,1.69,8.79-1.2,6.75-6.14l-1.08-2.53
		c-0.24-0.72-0.72-3.37,0.96-4.34c1.08-0.6,1.93,0.72,2.41,1.32c2.65,3.37,1.32,7.71,4.46,9.03c2.65,1.08,6.75-1.93,4.94-6.26
		c-0.12-0.36-0.72-1.2-0.96-1.81c-0.6-1.57-0.36-3.25,0.84-3.25c1.32,0,2.53,1.93,2.89,3.61c0.12,1.69,0.48,3.25,1.57,3.97
		c1.32,0.72,3.61,0.6,5.06-2.89c1.32-3.97-2.77-5.06-4.58-5.42C286.07,65.9,283.42,65.66,282.1,66.14z"/>
	<path d="M424.35,40.72v-3.97c6.14,0,12.29,0.12,17.71,0.36v3.97C437.35,40.97,431.09,40.85,424.35,40.72z M424.35,53.73v-4.7
		c6.75,0,13.13,0,17.71,0.12v4.82C437.11,53.85,430.97,53.73,424.35,53.73z M396.52,27.36c2.17-2.05,4.22-4.34,5.9-6.75h13.85
		c-1.57,3.01-2.41,4.94-3.37,6.75H396.52z M393.51,41.09v-4.22c3.37,0,9.88-0.12,17.71-0.12v3.97
		C404.47,40.72,398.21,40.85,393.51,41.09z M393.39,53.85c0.12-1.32,0.12-2.89,0.12-4.7l17.71-0.12v4.7
		C404.71,53.73,398.45,53.73,393.39,53.85z M390.38,66.86c8.31,7.47,6.99,17.46,12.53,19.39c4.22,1.45,8.79-0.12,9.88-6.38
		c0.48-2.65-0.84-4.7-1.08-6.14c-0.36-1.93,1.2-5.18,4.58-5.78c1.45-0.24,1.81,0.24,2.89,1.81c4.58,7.11,5.18,14.82,9.27,16.74
		c3.73,1.81,11.32,0,11.32-7.35c0-2.65-0.96-3.49-1.2-5.42c-0.12-0.96,2.29-4.82,4.34-4.82c1.2,0,1.81,0.84,2.41,1.57
		c3.61,4.1,4.1,10.48,6.87,13.73c4.1,4.82,12.41,3.85,13.37-3.61c0.96-7.35-3.49-10-8.43-12.04c-3.73-1.57-9.39-3.73-15.66-1.2
		c-2.65,1.08-4.82,3.37-7.83,3.37c-0.84,0-2.53-0.72-3.37-1.2c-4.58-2.65-9.88-3.97-14.09-3.37c-2.77,0.36-5.54,2.77-8.07,3.37
		c-0.96,0.24-1.93,0.24-2.77-0.24c-3.13-1.81-9.27-3.49-14.21-3.61C390.38,65.66,389.78,66.26,390.38,66.86z M377.37,37.95
		c0.72-0.12,1.57-0.36,2.41-0.6c0,13.85-0.24,16.02-3.13,20.96c-1.08,1.81,0.48,3.73,3.01,5.18c-5.54,1.57-11.56,4.82-14.09,10.24
		c-2.77,6.14,0.72,15.3,8.67,13.97c3.49-0.48,7.11-2.89,8.67-9.64c0.72-3.13,0.24-9.15,4.22-12.77c1.81-0.12,3.25-0.72,4.22-2.05
		c12.53-0.24,37.46-0.36,50.95-0.12c0.6,1.69,2.17,2.53,6.62,2.53c5.78,0,7.35-1.08,7.35-13.61V37.83c0-1.2,0-3.25,1.57-3.49
		c5.06-1.32-5.06-9.88-8.67-9.88c-3.25,0-3.25,2.89-6.5,2.89h-15.9c1.45-1.69,2.89-3.49,4.34-5.78c0.72-1.32,5.3-1.45,5.3-3.73
		c0-2.05-7.47-8.79-10-8.79c-2.17,0-3.85,2.77-6.02,2.77H407c0.36-0.96,0.6-1.81,0.84-2.77c0.6-2.65-0.6-5.06-7.23-6.26
		c-5.06-0.96-6.87,0.72-6.38,3.01c0.84,3.85-14.33,20.84-28.55,20.84c-1.81,0-2.05,1.32-1.45,3.37c0.96,1.93,4.82,6.02,7.59,7.47
		C373.15,38.2,375.08,38.32,377.37,37.95z"/>
	<path d="M541.78,67.71c0.36-3.49,0.48-6.99,0.48-9.88c11.2-0.48,18.31-0.72,24.09-0.24c1.32,0.12,1.45,0.48,1.57,1.81
		c0.12,3.01,0.12,5.66,0.12,8.07C560.09,67.34,549.25,67.46,541.78,67.71z M523.96,20.25c0.48,2.29,2.65,4.22,4.58,2.65
		c3.61-2.77,5.3-3.01,8.79-3.25l6.14-0.48c-2.65,8.91-8.67,15.66-17.34,15.3c-0.72,0-1.57,1.45-0.24,1.81
		c5.66,1.32,3.73,8.19,10.24,8.43c10.48,0.48,18.43-13.01,20.36-26.14c5.3-0.24,10.48-0.36,13.97-0.24c0.6,0,0.84,0,0.84,0.72
		c-0.48,6.87-2.41,12.53-5.06,13.49c-1.93,0.72-7.35,0.72-11.44,0c-0.72-0.12-0.96,0.84-0.48,1.08c3.97,2.05,5.06,3.25,5.78,6.14
		c1.45,5.42,9.27,5.9,14.94,3.01c6.5-3.37,8.31-13.13,9.27-22.89c0.12-1.2,0.96-1.93,2.53-2.77c6.02-3.37-7.47-11.2-10.96-11.2
		c-1.93,0-1.69,2.17-4.94,2.05c-5.42-0.24-33.85,0.24-40.71,0.6c-1.93,0.12-3.01,0.96-3.61,1.93
		C524.44,13.74,523.35,17.36,523.96,20.25z M522.99,78.43c2.05,4.7,8.19,6.87,12.04,5.42c2.17-0.72,3.73-3.13,4.82-6.38
		c7.23-0.12,19.15-0.12,28.06,0l-0.12,3.85c0,3.85,4.82,4.34,8.07,4.22c2.53-0.12,5.54-0.48,6.62-4.82
		c0.72-3.37,0.12-9.39,0.12-22.64c0-1.32,0.72-1.45,2.41-1.93c1.81-0.48,2.65-1.81,0.36-4.7c-0.6-0.96-5.78-6.99-9.52-6.99
		c-2.41,0-1.32,3.25-6.87,2.77c-2.65-0.24-24.57-0.84-42.52,1.08c-1.2,0-1.32,0.48-1.93,1.45c-0.72,0.84-2.77,5.54-1.08,8.55
		c0.48,0.96,1.45,1.81,3.01,1.57c0.6-0.24,1.32-0.6,2.17-0.96c-0.24,8.55-1.57,16.62-4.58,17.46
		C522.39,76.86,522.51,77.22,522.99,78.43z M493.84,34.58c0.96-0.24,3.73-0.36,7.11-0.6l0.24,8.67c-6.38,0.24-12.04,0.36-13.85,0.36
		c-3.49,0-4.58,11.68-3.13,13.97c0.96,2.05,2.77,1.32,3.49,0.6c1.08-0.72,2.53-1.69,5.54-2.29c1.08-0.24,4.22-0.6,7.95-1.08
		c-0.12,10.24-0.6,13.25-0.96,14.21c-0.36,1.2-0.96,1.08-2.17,0.84c-2.65-0.48-6.02-2.17-9.15-3.25c-1.45-0.48-2.29,0.48-1.32,1.32
		c4.34,3.97,6.75,6.75,7.95,10.12c-0.72,7.23,8.55,9.39,14.69,5.66c3.49-2.17,6.38-5.9,6.14-11.68c-0.12-2.29-0.48-9.39-0.72-19.03
		l3.25-0.24c1.2,0,2.41-0.84,2.89-2.77c0.48-1.2,1.32-4.22,1.93-6.38c0.12-0.36,0.24-0.96-0.12-0.96l-8.07,0.12
		c0-2.77,0-5.78,0-8.79l3.85-0.12c1.81,0,2.41-1.08,2.77-2.53c0.36-1.32,1.32-5.54,1.57-7.35c0.12-0.96,0.12-1.08-0.12-1.08
		c-1.2,0-4.22,0-7.95,0.12l0.24-7.83c0.12-2.77,3.49-2.77,3.13-4.94c-0.48-1.81-9.15-6.14-13.13-6.14c-2.89,0-7.83,4.34-7.59,5.9
		c0.24,2.41,1.45,1.32,2.05,5.06c0.12,2.89,0.24,5.66,0.24,8.31l-11.44,0.24c-3.37,0-3.13,10.48-2.17,12.77
		c0.72,1.32,2.53,0.96,3.49,0.36C491.19,35.55,491.56,35.18,493.84,34.58z"/>
	<path d="M687.16,25.55c0.12-1.2,0.12-2.41,0.12-3.61l7.95,0.24v3.61C693.18,25.67,690.29,25.55,687.16,25.55z M686.08,35.91
		c0.24-1.2,0.48-2.41,0.6-3.73c3.37,0,6.38,0.12,8.55,0.24v3.97C692.58,36.15,689.45,36.03,686.08,35.91z M665.96,25.91v-4.1
		c2.41-0.12,5.78-0.24,9.52-0.12c0,1.32,0,2.53-0.12,3.73C671.74,25.55,668.37,25.67,665.96,25.91z M665.6,36.27
		c0-1.08,0.12-2.41,0.12-3.85c2.29-0.12,5.54-0.24,9.03-0.24c-0.12,1.32-0.36,2.53-0.72,3.73C671.02,36.03,668.13,36.03,665.6,36.27
		z M651.99,41.45c-1.81,2.65,6.5,6.62,10.84,3.73c0.36-0.24,0.6-0.48,0.96-0.84l6.38-0.12c-3.01,3.73-7.35,6.02-13.49,7.95
		c-2.29,0.72-1.93,4.22,2.17,3.37c5.78-1.08,10.36-2.41,13.97-4.1c-0.12,0.24-0.24,0.6-0.24,0.84c0,2.05,2.05,1.2,2.05,4.46v1.57
		h-18.31c-3.73,0-4.94,8.91-3.73,11.44c0.72,2.05,3.85,2.17,6.38,0.96c2.29-1.08,8.55-1.69,15.66-1.81c0,3.73,0,7.47,0,9.64
		c-0.12,4.94,1.2,9.39,6.02,9.39c5.18,0,7.35-3.13,7.35-12.04v-6.99c6.38,0.12,11.92,0.48,13.97,0.96
		c3.25,0.72,5.66-3.25,7.47-10.36c0.24-0.96,0.12-1.2-0.36-1.2h-20.72c0.12-0.6,0.24-1.08,0.48-1.57c0.96-1.93,3.25-2.53,3.01-4.1
		c-0.36-2.05-7.95-5.66-11.92-5.78c0.96-0.84,1.81-1.81,2.53-2.77c4.82,0,9.52,0,13.01,0.12c0.48,1.93,1.93,3.25,5.54,3.25
		c6.14,0,6.26-0.96,6.26-11.56V23.02c0-1.08,0-3.25,1.2-3.49c1.08-0.36,1.93-1.32,0.12-3.61c-0.24-0.72-3.85-4.58-6.26-4.58
		c-1.93,0-1.81,1.93-4.58,1.93h-16.02c3.73-1.2,5.06-2.17,8.31-2.05c3.25,0.12,2.77-1.93,2.17-2.77c-1.45-1.93-4.7-5.66-8.79-7.59
		c-2.89-1.32-7.71-0.36-7.71,2.29c-0.12,1.69-0.96,5.54-9.39,10.12h-10.12c-3.97,0-4.58,7.59-2.05,9.4
		C654.16,34.46,653.92,38.44,651.99,41.45z M641.99,86.13c2.53-0.48,4.94-0.96,6.02-4.58c0.72-3.01,0.12-2.89,0.12-22.89l0.48,0.12
		c1.57,0.36,2.29-0.36,2.89-1.81c0.48-0.96,2.41-5.3,3.25-7.95c0.12-0.36,0.12-0.48-0.36-0.6c-4.7-1.2-18.07-1.08-27.94-0.72
		c0.24-1.93,0.36-3.85,0.48-5.9c7.71-0.24,17.95-0.12,20.6,0.24c1.45,0.12,2.17-0.6,3.13-2.17c0.6-1.32,2.77-5.66,2.77-7.83
		c0-0.48-0.36-0.96-0.96-0.96l-3.13-0.12c0.12-13.61,0.36-13.61,0.84-15.06c0.72-2.05,2.77-2.53,2.77-4.22
		c0-2.05-7.47-5.66-11.44-5.66c-3.61,0-7.47,4.22-7.47,5.9c0,2.41,3.49,2.41,3.49,5.78v13.13c-3.49,0-7.11,0.12-10.48,0.24
		c0.12-14.09-0.12-15.78,2.29-17.46c3.13-2.05-4.94-8.79-9.88-8.79c-4.1,0-8.31,5.3-8.31,7.35c0,2.29,3.13,2.17,3.13,6.14
		c0,24.69-0.6,43.24-12.65,49.38c-0.72,0.36-0.84,1.81,0,2.17c5.18,1.81-1.2,11.56,7.95,11.56c5.78,0,12.04-8.91,15.18-23.01
		c3.37,0,7.35-0.12,11.08-0.12c-0.12,6.99-0.72,19.87-0.12,25.17C636.33,86.61,639.71,86.61,641.99,86.13z"/>
	<path d="M809.78,57.95c0-5.06,0-16.5,0-20.6l2.41,0.12c0.72,0,1.2,0.6,1.2,1.2v19.39C812.31,57.95,811.1,57.95,809.78,57.95z
		 M796.53,41.45v-4.22c1.69,0,3.49,0,5.3,0l0.12,4.22C800.14,41.45,798.22,41.45,796.53,41.45z M796.53,49.52v-3.25
		c1.69-0.12,3.61-0.12,5.42-0.12v3.37C800.14,49.52,798.22,49.52,796.53,49.52z M796.53,57.71c0-0.96,0-2.17,0-3.37l5.3-0.12
		c0,1.32,0,2.53,0,3.49H796.53z M784.61,57.83c0.48-4.34,0.72-10.84,0.72-20.48c0.96,0,2.05,0,3.25,0c0.12,3.85,0.12,15.3,0,20.36
		L784.61,57.83z M771.84,62.29c-1.45,2.53,5.3,7.59,10,4.46c0.36-0.24,0.72-0.6,1.08-1.2c8.07-0.24,23.49-0.36,30.59,0
		c0.24,1.69,1.2,2.89,4.58,2.89c5.66,0,6.75-0.84,6.75-10.6V38.56c0-0.96,0.12-2.77,1.32-3.01c4.1-0.96-3.73-8.43-6.5-8.43
		c-1.81,0-2.29,1.93-4.82,1.93h-14.45c1.69-2.05,3.13-4.58,4.22-7.35c5.54,0.12,10.84,0.48,14.45,0.84
		c4.34,0.48,6.75-5.78,8.07-10.72c0.24-0.84,0.24-0.96-0.48-0.96H777.5c-2.41,0-4.82,7.11-3.25,10.96c0.72,1.69,2.53,1.81,4.58,1.32
		c3.01-0.72,7.59-1.08,12.77-1.32c-0.72,2.77-2.17,5.18-3.85,7.23h-12.89c-2.29,0-3.97,7.83-0.96,8.91l0.72,0.12
		C774.61,51.81,774.01,58.43,771.84,62.29z M750.64,61.08c1.08-1.2,1.93-2.41,2.65-3.73H761c0,1.45-1.57,3.85-4.46,6.14
		C754.49,62.77,752.45,61.92,750.64,61.08z M725.1,72.64c2.41,1.32,5.18,6.5,6.75,9.76c0.84,1.57,2.29,2.77,5.06,2.41
		c8.31-1.08,16.5-5.54,22.64-10.96c19.63,7.71,46.01,13.13,53.12,13.13c5.42,0,12.65-10,15.18-14.21c0.48-0.72,0.24-1.69-1.08-1.57
		c-3.73,0.36-35.53,1.45-60.34-4.7c3.61-4.94,4.94-9.64,3.01-12.53c-1.32-1.93-6.14-1.93-14.69-1.81l0.12-1.32
		c0-1.69-4.34-3.13-8.31-3.13c-0.84,0-1.57,0.36-0.84,1.08c1.69,1.93-6.87,10.72-18.55,7.95c-0.72-0.12-1.2,0.48-0.24,1.2
		c3.01,2.29,2.05,9.76,8.31,10.24c2.65,0.24,5.78-0.6,8.79-2.05c1.2,0.84,2.65,1.69,4.1,2.53c-6.02,2.53-13.73,4.22-22.52,2.77
		C725.1,71.32,724.38,72.04,725.1,72.64z M753.29,47.71c3.25,0,5.42-0.84,5.9-6.75c1.69,1.69,3.13,3.61,4.58,6.02
		c2.29,4.1,5.42,2.65,6.75,1.32c7.47-7.47-0.72-11.2-11.2-11.44v-2.65c0.6,0.24,1.2,0.48,1.93,0.48c2.05,0,3.85-1.45,5.18-3.37
		c0.24,0.36,0.6,0.84,0.72,1.32c0.48,2.17,1.57,2.77,2.65,2.41c0.72-0.12,2.29-1.69,2.53-3.73c0.12-1.57-1.93-2.41-4.58-2.89
		c0.36-0.96,0.6-2.05,0.6-3.01c0-1.45-1.81-2.65-4.94-2.41c-0.36,0-0.84,0.24-0.36,0.84c0.6,0.96-1.08,3.85-3.73,4.94v-6.5
		c3.37,0.12,6.14,0.24,7.35,0.6c3.49,0.96,6.02-2.77,7.23-9.64c0.12-0.72,0-0.96-0.48-0.96h-13.85l0.12-1.32
		c0.6-1.69,2.65-2.17,2.65-3.85s-6.99-4.94-10.48-4.94c-3.37,0-6.38,3.85-6.38,5.18c0,2.41,1.57,2.77,2.17,4.94h-14.45
		c-3.13,0-4.46,7.95-3.49,10.36c0.84,1.45,3.01,1.81,5.9,0.6c1.08-0.48,2.17-0.84,3.73-0.96c0.96-0.12,4.34-0.12,8.55-0.24v6.38
		c-0.72-0.12-1.45-0.24-2.17-0.36c0.24-0.96,0.36-1.93,0.36-2.89c0-1.93-4.1-2.77-6.5-2.53c-0.48,0.12-1.2,0.36-0.6,1.08
		c1.2,1.81-4.46,8.55-8.43,7.59c-0.48-0.12-1.2,0.24-0.24,1.08c1.69,1.57,2.41,5.42,6.38,5.42c2.53,0,6.14-2.89,8.07-6.99
		c0.6,0.6,0.96,1.08,1.2,1.57c0.72,1.2,1.2,1.93,1.81,2.05c-1.93,3.13-12.89,8.19-22.89,6.02c-0.72-0.12-1.33,0.6-0.36,1.32
		c3.13,2.41,2.53,9.39,8.91,9.76c5.18,0.36,10.72-3.73,14.82-8.07C748.83,46.63,750.28,47.71,753.29,47.71z"/>
	<path d="M49.27,216.33c0.12-1.93,0.12-4.1,0.12-6.26c8.43-0.72,22.76-0.6,34.69-0.12v6.38C74.92,215.85,58.78,215.85,49.27,216.33z
		 M32.41,168.75c0.12-2.29,0.24-4.34,0.48-5.9c0.84-0.12,1.69-0.24,2.29-0.36c3.85-0.84,30.96-1.32,49.87-0.72v6.87
		C69.99,168.15,42.89,168.03,32.41,168.75z M31.8,184.89l0.24-6.5c4.82-0.24,15.06-0.36,25.9-0.48c-1.32,1.2-2.17,2.53-2.17,3.25
		c0,1.93,1.93,2.41,3.01,3.97L31.8,184.89z M13.62,228.01c7.23,0,15.06-11.92,17.46-33.12l0.12,0.24c1.08,2.41,3.49,2.77,5.54,2.29
		c4.7-1.08,13.25-1.57,22.64-1.69v3.85c0,0.24,0,0.6,0,0.84H36.86c-4.7,0-5.54,9.39-1.93,10.6l0.36,0.12
		c-0.24,7.23-0.84,9.27-2.29,12.65c-2.17,4.82,11.08,9.03,13.85,4.22c0.36-0.72,0.72-1.45,0.96-2.17
		c8.67-0.12,26.86-0.36,36.38-0.12c0.36,2.65,1.81,4.7,6.5,4.7c4.22,0,8.31-2.89,8.31-12.65v-8.19c0-0.96,0.36-1.93,1.32-2.41
		c4.34-2.05-4.7-9.15-8.19-9.15c-2.17,0-3.25,2.41-6.38,2.41H73.36c0-0.24,0-0.36,0-0.6v-4.1c9.52,0.24,18.07,0.6,22.4,1.08
		c4.58,0.6,7.11-5.18,8.55-10.36c0.24-0.96,0.24-1.08-0.6-1.08l-29.63-0.24c0.96-1.81,3.01-2.41,3.01-4.22
		c0-0.72-1.69-1.93-3.97-3.01l12.04,0.12c0.24,2.53,1.45,3.97,6.14,3.97c6.5,0,8.07-3.01,8.07-11.08v-8.19
		c0-0.96,0.12-2.89,1.32-3.37c5.06-2.17-4.58-10.12-9.03-10.12c-2.05,0-2.89,2.41-5.66,2.41l-53.36,0.12
		c-2.41-2.05-5.9-3.85-8.55-3.85c-4.34,0-9.88,5.78-9.88,8.07c0,2.53,3.37,2.41,3.37,6.62c0,26.5-2.77,47.82-16.26,50.71
		c-1.69,0.36-1.57,2.89,0.24,2.77C7.23,215.73,3.62,228.01,13.62,228.01z"/>
	<path d="M202.96,187.54c0.12-2.05,0.12-3.85,0.12-5.78l5.66,0.12v8.07h-3.37C203.8,189.95,202.84,189.59,202.96,187.54z
		 M189.95,171.76v-8.07c0.96,0,2.05,0,3.01,0v8.07H189.95z M176.34,210.91c0.72,1.57,2.41,0.84,3.37,0.72
		c6.14-0.84,13.49-0.6,20.6,0.24c3.97,0.48,5.9-4.34,6.87-7.83c0.24-0.72,0.24-0.84-0.48-0.84h-28.06
		C175.62,203.2,175.02,208.14,176.34,210.91z M172.25,192.36v-10.24c1.81-0.12,4.1-0.24,6.62-0.24
		C177.79,187.18,175.86,191.64,172.25,192.36z M172.01,214.88c0.12-4.46,0.24-10.72,0.24-19.27c2.17,2.53,3.49,6.02,7.83,5.06
		c6.02-1.32,8.43-9.88,9.39-18.91c1.08-0.12,2.17-0.12,3.37,0c-0.12,4.1-0.24,8.31-0.6,12.29c-0.24,2.65,1.57,5.06,5.3,5.06h11.2
		v15.78C199.59,214.28,181.52,214.16,172.01,214.88z M155.14,223.19c-3.25,3.61,6.5,11.2,13.13,5.42c0.84-0.72,1.57-1.57,2.05-2.65
		c7.11-0.48,28.67-0.72,38.54-0.24c0.24,2.77,1.32,4.82,5.9,4.82c6.62,0,7.95-1.08,7.95-12.29V182.6c0-1.08,0-3.85,1.2-4.1
		c4.34-1.32-4.34-9.52-7.35-9.52c-2.77,0-3.25,2.77-6.14,2.77h-7.23l-0.12-7.95c5.9,0.12,10.72,0.24,12.29,0.6
		c4.58,0.84,7.71-2.17,10.36-10.24c0.36-1.2,0.36-1.81-0.6-1.81h-63.11c-3.97,0-5.42,8.91-3.97,11.8c0.96,1.81,3.37,2.29,6.99,0.6
		c1.2-0.48,2.65-0.84,4.46-0.96c0.96-0.12,5.06-0.12,10.36-0.12c0,1.93,0.12,4.94,0,8.07h-18.31c-4.46,0-6.02,10.12-2.53,11.2h0.12
		C159,213.44,158.15,219.94,155.14,223.19z M127.68,158.15c-2.53,5.78,0.24,9.64,3.25,11.44c5.54,3.37,17.59,3.97,25.9-2.17
		c1.08-0.96,0.72-1.69-0.6-1.81c-8.19-0.72-13.97-7.59-15.54-10.96c-0.6-2.17,1.08-4.22-0.6-5.3
		C137.08,148.28,129.73,152.97,127.68,158.15z M138.04,229.58c6.87-5.18,13.85-19.63,20.11-27.34c0.24-0.24-0.72-1.57-1.93-1.08
		c-6.02,2.65-16.14,7.23-21.08,9.03c-1.08,0.36-2.17,0-1.45-0.36c13.25-6.38,25.05-21.92,22.28-28.67
		c-2.29-5.54-7.59-5.9-18.91-2.41c-4.1,1.2-7.35,0.84-5.9-1.57c0.72-1.08-0.36-1.45-1.32-0.84c-1.57,1.08-5.42,3.85-5.42,8.79
		c0,3.61,2.53,5.9,5.9,6.14c6.02,0.24,9.27-3.97,11.92-3.85c3.49,0.12-10.84,23.01-18.19,20.6c-0.48-0.12-0.96,0.12-1.08,0.72
		c-0.96,4.7,3.13,15.78,5.78,19.15C130.45,230.06,134.79,232.11,138.04,229.58z"/>
	<path d="M312.81,206.57v-3.85c8.43-0.12,16.02,0.36,19.15,0.96c0.6,1.32,1.32,2.29,2.17,2.89H312.81z M274.03,167.31
		c0-2.65,0.12-4.7,0.24-6.38l1.81-0.24c3.85-0.84,31.32-1.2,50.47-0.48v6.62C311.97,166.46,285.23,166.7,274.03,167.31z
		 M332.8,179.35c6.5,0,8.07-3.01,8.07-11.08v-7.11c0-0.96,0.12-2.05,1.32-2.53c5.06-2.17-5.18-10.24-9.03-10.24
		c-2.05,0-3.85,2.53-6.62,2.53l-53.36,0.12c-2.41-1.93-5.78-3.49-8.19-3.49c-4.34,0-9.88,5.78-9.88,8.07c0,2.53,3.37,2.41,3.37,6.62
		c0,26.5-2.77,49.38-16.26,52.27c-1.69,0.36-1.57,2.89,0.24,2.77c5.66-0.36,1.32,12.77,11.32,12.77c8.07,0,15.54-12.77,18.67-32.28
		c2.65,2.53,2.05,7.47,8.31,7.95c1.45,0.12,2.89-0.12,4.46-0.72c3.97-1.08,9.52-1.69,15.42-2.05v3.61h-17.71
		c-3.97,0-5.3,5.06-3.97,8.19c0.6,1.45,2.29,1.69,4.34,1.08c2.41-0.72,9.39-0.96,17.34-0.96v3.61h-28.79
		c-4.94,0-6.62,6.87-4.94,10.6c0.72,1.81,2.53,1.57,4.1,1.32c8.67-2.05,55.89-1.69,66.01,0c5.42,0.96,7.71-5.3,8.91-10.24
		c0.24-0.96,0.36-1.69-0.36-1.69h-32.76V215c7.35,0.12,13.85,0.48,16.38,0.84c4.34,0.6,5.9-4.34,7.35-8.07v-0.12
		c1.45,0.24,2.89-0.12,3.73-0.6c11.2-6.75-2.17-14.94-15.9-16.98c-1.32-0.24-1.69,0.6-1.08,1.32l3.01,3.01
		c-9.15,0-20.72,0.36-30.71,1.2c1.2-1.93,2.17-3.97,2.77-6.02c10.72-0.24,25.9-0.12,30.59,0.6c6.14,1.08,8.91,0.24,11.56-7.71
		c0.48-1.2,0.48-1.81-0.48-1.81h-60.22c-3.85,0-5.3,5.78-3.73,8.67c0.84,1.93,3.13,3.01,6.99,1.69c0.84-0.24,2.05-0.48,3.49-0.72
		c-2.41,3.97-6.99,7.47-13.85,6.02c0.48-4.1,0.96-8.43,1.08-13.01c0.12-2.29,0.12-4.46,0.12-6.5c10.36-0.36,38.06-0.84,52.88-0.6
		C327.26,178.27,328.59,179.35,332.8,179.35z"/>
	<path d="M441.57,169.71c0.12-1.2,0.12-2.53,0.24-3.85c3.25,0,6.62,0.12,9.76,0.24v3.97C449.04,169.96,445.42,169.84,441.57,169.71z
		 M440.61,180.07c0.24-1.2,0.36-2.53,0.6-3.85c3.97,0,7.71,0.12,10.36,0.24v3.97C448.68,180.19,444.82,180.07,440.61,180.07z
		 M418.32,170.2c0-1.2,0.12-2.41,0.12-3.73c2.77-0.24,6.38-0.36,10.36-0.48c-0.12,1.32-0.12,2.65-0.24,3.85
		C424.59,169.84,420.85,169.96,418.32,170.2z M417.84,180.31c0.12-1.08,0.12-2.29,0.24-3.73c2.41-0.24,5.9-0.24,9.76-0.36
		c-0.24,1.32-0.48,2.65-0.84,3.85C423.62,180.07,420.49,180.19,417.84,180.31z M377.85,193.68c0.96-7.35,1.08-15.66,0.84-20.48
		c2.29-0.12,5.06-0.12,8.07,0c1.08,0,1.32,0.96,1.32,2.05c0,5.3-0.12,10.36-0.12,18.55L377.85,193.68z M363.76,200.31
		c-4.34,6.26,8.19,12.41,11.92,3.01c3.85,0,8.19,0.12,12.17,0.12v1.81c0,3.73,3.37,4.22,6.26,4.1c2.41-0.12,5.78-3.01,5.9-7.23
		c0.36-10.96,0.24-15.54,0.24-27.94c0-1.93,0.72-2.89,2.17-3.37c5.18-1.45-4.7-10.6-8.19-10.6c-3.01,0-3.37,2.77-7.35,2.65
		c-3.49-0.12-9.64-0.12-19.75,0.24c-3.49,0.12-5.78,11.08-0.36,11.68C366.89,184.41,366.53,196.21,363.76,200.31z M437.96,231.26
		c2.29-0.48,4.7-1.32,5.66-4.94c0.84-3.37,0.72-8.19,0.6-13.37c6.75,0.24,12.41,0.6,14.33,0.96c3.25,0.72,5.78-3.25,7.47-10.36
		c0.24-0.84,0.12-1.08-0.36-1.08h-21.68c0.12-1.08,0.36-1.69,0.72-2.29c0.96-1.93,3.25-2.53,3.01-4.1
		c-0.36-2.05-7.71-5.66-11.68-5.9c0.72-0.84,1.32-1.69,1.81-2.53c5.42,0,10.6,0,14.09,0.24c0.6,2.05,1.93,3.61,5.06,3.61
		c6.14,0,7.47-0.96,7.47-11.56V164.9c0-0.84,0.24-1.57,0.84-1.93c3.73-1.93-3.61-8.43-6.75-8.43c-1.93,0-3.61,2.17-5.66,2.17h-17.22
		c3.85-1.32,5.3-2.29,8.55-2.17c3.37,0.12,2.77-1.93,2.17-2.77c-1.45-1.93-4.7-5.66-8.79-7.71c-3.01-1.32-7.83-0.36-7.83,2.41
		c-0.12,1.69-0.96,5.54-9.52,10.24h-13.01c-3.97,0-4.7,9.76-1.45,10.84c0.12,0,0.12,0,0.24,0c-0.24,10.96-1.08,14.21-2.89,17.22
		c-2.65,4.58,7.59,7.95,11.44,4.46c0.36-0.36,0.72-0.72,1.08-1.2l7.23-0.24c-3.49,3.97-9.15,6.26-18.07,8.07
		c-2.29,0.48-2.05,4.7,2.17,4.22c9.76-0.96,16.62-2.53,21.56-4.82c-0.12,0.36-0.24,0.72-0.24,0.96c0,2.05,2.05,0.72,2.05,3.97v2.29
		h-23.49c-3.61,0-4.82,8.79-3.61,11.32c0.72,1.93,3.85,2.05,6.38,0.96c2.65-1.2,11.2-1.81,20.6-1.93c-0.12,6.38,0,13.13,0.48,15.3
		C431.45,231.38,433.86,232.11,437.96,231.26z"/>
	<path d="M564.31,187.54c0.12-2.05,0.12-3.85,0.12-5.78l5.66,0.12v8.07h-3.37C565.15,189.95,564.19,189.59,564.31,187.54z
		 M551.3,171.76v-8.07c0.96,0,2.05,0,3.01,0v8.07H551.3z M537.69,210.91c0.72,1.57,2.41,0.84,3.37,0.72
		c6.14-0.84,13.49-0.6,20.6,0.24c3.97,0.48,5.9-4.34,6.87-7.83c0.24-0.72,0.24-0.84-0.48-0.84h-28.06
		C536.96,203.2,536.36,208.14,537.69,210.91z M533.59,192.36v-10.24c1.81-0.12,4.1-0.24,6.62-0.24
		C539.13,187.18,537.21,191.64,533.59,192.36z M533.35,214.88c0.12-4.46,0.24-10.72,0.24-19.27c2.17,2.53,3.49,6.02,7.83,5.06
		c6.02-1.32,8.43-9.88,9.39-18.91c1.08-0.12,2.17-0.12,3.37,0c-0.12,4.1-0.24,8.31-0.6,12.29c-0.24,2.65,1.57,5.06,5.3,5.06h11.2
		v15.78C560.93,214.28,542.87,214.16,533.35,214.88z M516.49,223.19c-3.25,3.61,6.5,11.2,13.13,5.42c0.84-0.72,1.57-1.57,2.05-2.65
		c7.11-0.48,28.67-0.72,38.54-0.24c0.24,2.77,1.32,4.82,5.9,4.82c6.62,0,7.95-1.08,7.95-12.29V182.6c0-1.08,0-3.85,1.2-4.1
		c4.34-1.32-4.34-9.52-7.35-9.52c-2.77,0-3.25,2.77-6.14,2.77h-7.23l-0.12-7.95c5.9,0.12,10.72,0.24,12.29,0.6
		c4.58,0.84,7.71-2.17,10.36-10.24c0.36-1.2,0.36-1.81-0.6-1.81h-63.11c-3.97,0-5.42,8.91-3.97,11.8c0.96,1.81,3.37,2.29,6.99,0.6
		c1.2-0.48,2.65-0.84,4.46-0.96c0.96-0.12,5.06-0.12,10.36-0.12c0,1.93,0.12,4.94,0,8.07h-18.31c-4.46,0-6.02,10.12-2.53,11.2h0.12
		C520.34,213.44,519.5,219.94,516.49,223.19z M489.03,158.15c-2.53,5.78,0.24,9.64,3.25,11.44c5.54,3.37,17.59,3.97,25.9-2.17
		c1.08-0.96,0.72-1.69-0.6-1.81c-8.19-0.72-13.97-7.59-15.54-10.96c-0.6-2.17,1.08-4.22-0.6-5.3
		C498.42,148.28,491.07,152.97,489.03,158.15z M499.38,229.58c6.87-5.18,13.85-19.63,20.11-27.34c0.24-0.24-0.72-1.57-1.93-1.08
		c-6.02,2.65-16.14,7.23-21.08,9.03c-1.08,0.36-2.17,0-1.45-0.36c13.25-6.38,25.05-21.92,22.28-28.67
		c-2.29-5.54-7.59-5.9-18.91-2.41c-4.1,1.2-7.35,0.84-5.9-1.57c0.72-1.08-0.36-1.45-1.32-0.84c-1.57,1.08-5.42,3.85-5.42,8.79
		c0,3.61,2.53,5.9,5.9,6.14c6.02,0.24,9.27-3.97,11.92-3.85c3.49,0.12-10.84,23.01-18.19,20.6c-0.48-0.12-0.96,0.12-1.08,0.72
		c-0.96,4.7,3.13,15.78,5.78,19.15C491.8,230.06,496.13,232.11,499.38,229.58z"/>
	<path d="M628.38,202.12c-0.24-12.77,0-29.39,0.36-36.62c13.13-0.72,38.18-0.72,54.56,0c-3.97,3.25-19.75,6.62-30.71,4.58
		c-2.41-1.2-5.3-2.17-7.71-2.17c-3.37,0-6.62,3.85-6.62,5.78c0,2.65,2.05,2.65,2.05,6.02c0,16.26-5.06,21.2-11.44,22.16
		C628.74,201.87,628.5,202,628.38,202.12z M613.57,229.1c10.84-2.53,70.46-2.05,83.11-0.12c6.5,1.32,9.15-6.38,10.84-11.32
		c0.36-1.08,0.48-1.93-0.36-1.93h-78.17v-0.84c-0.24-2.65-0.36-6.38-0.48-10.6c0.24,0.24,0.48,0.24,0.96,0.24
		c3.97-0.48,2.65,10,11.32,9.27c7.11-0.6,10.6-9.27,11.92-17.71c0.6,0,1.32,0,1.69-0.12c2.53-0.6,9.15-0.84,16.38-0.84
		c-0.12,6.26-0.36,13.61,0.12,17.1c0.48,3.01,3.85,3.01,6.02,2.65c3.01-0.6,6.62-0.96,7.71-4.34c0.6-2.29,0.24-2.65,0.12-15.18
		c4.58,0.24,8.31,0.48,10.24,0.72c4.34,0.6,6.02-5.78,7.35-9.39c0.36-1.08,0.24-1.32-0.36-1.32h-47.94c-0.24,0-0.48,0-0.6,0.12
		c0.12-2.77,0.48-4.46,0.84-5.66c20.96,1.81,38.06,0,40.71-8.07c0.6-1.93,0.24-3.97-0.72-5.66l2.65,0.36
		c5.66,1.08,8.07-5.66,9.39-10.72c0.24-1.08,0.36-1.81-0.36-1.81h-77.09c-3.25-1.81-8.07-3.37-11.08-3.37
		c-3.97,0-7.95,5.42-7.95,7.47c0,3.61,3.13,2.89,3.13,8.19c0,16.86-0.24,35.53-2.05,50.11c-2.89,1.81-4.22,7.23-2.29,11.2
		C609.47,229.58,611.64,229.34,613.57,229.1z"/>
	<path d="M786.05,162.37c0.12-1.08,0.12-2.05,0.12-3.01c5.66,0,11.2,0.12,16.14,0.24v2.65L786.05,162.37z M785.93,173.45
		c0-0.72,0-1.45,0-2.17c5.78,0,11.32,0.12,16.38,0.24v1.93H785.93z M756.66,212.71v-2.53c11.2-0.36,29.51-0.24,43.6,0.12v2.53
		C790.63,212.35,768.47,212.23,756.66,212.71z M756.42,220.91c0.12-0.84,0.12-1.69,0.12-2.41c11.56-0.36,34.21-0.12,43.72,0.24v2.29
		C790.63,220.54,768.22,220.42,756.42,220.91z M821.94,172.24c4.22,0.48,6.5-4.46,7.83-9.27c0.24-0.6,0.24-0.72-0.48-0.72h-11.32
		v-2.17c0-0.36,0-2.41,0.96-2.89c5.54-2.65-6.14-8.43-8.67-8.43c-2.41,0-3.25,2.41-5.66,2.41h-18.19l0.12-1.32
		c1.2-1.69,3.25-2.17,3.25-3.73c0-1.57-9.76-5.06-13.73-5.06c-4.1,0-9.4,3.73-9.4,5.18c0,2.29,2.41,2.41,2.77,4.94h-27.34
		c-3.73,0-2.89,8.31,0,9.27c2.29,0.72,3.61,0.24,5.3-0.12c2.17-0.48,11.08-0.72,22.04-0.84v2.89l-41.92,0.12
		c-2.53,0-3.97,5.42-3.01,9.15c1.08,4.1,4.58,4.34,8.31,2.65c4.34-1.93,19.63-2.77,36.62-3.01l-0.12,2.17h-25.66
		c-2.89,0-4.34,5.78-2.77,8.19c0.84,1.57,3.49,2.05,6.02,0.84c0.96-0.48,3.97-0.72,5.9-0.72h16.5v1.81h-20.96
		c-2.41,0-2.77,5.06-0.72,7.11c0.72,0.6,2.65,0.96,4.22,0.24c1.2-0.48,8.55-0.72,17.46-0.72v2.05L730.28,192
		c-2.41,0-3.49,6.02-2.77,9.88c0.6,3.01,4.58,4.22,8.31,1.57c3.97-2.89,45.65-2.65,69.38-1.93c-0.84,0.6-1.81,1.08-3.01,1.08h-60.22
		c-4.34,0-5.06,7.95-1.81,8.67l0.36,0.12c0,7.95-0.6,11.08-2.05,14.33c-2.53,5.54,13.37,8.19,15.9,3.85
		c0.24-0.48,0.48-0.96,0.72-1.57c10.96-0.36,35.53-0.12,45.41,0.24c0.36,2.53,1.93,3.49,6.62,3.49c5.78,0,10-1.81,10-11.44v-10
		c0-0.72,0.36-1.32,1.2-1.81c2.65-1.2-0.84-4.46-4.58-6.62c2.53,0.12,4.58,0.24,5.9,0.36c4.58,0.48,6.62-4.46,8.07-8.79
		c0.24-0.84,0.24-0.96-0.6-0.96l-41.31-0.24v-1.81c10.24,0.12,19.03,0.48,20.11,0.6c2.17,0.36,3.25-2.05,4.46-6.99
		c0.12-0.36,0-0.48-0.24-0.48h-24.33l0.12-1.69c11.2,0.12,21.68,0.36,24.09,0.96c2.41,0.48,5.18-0.96,6.75-4.1
		c0.36-0.6,0.6-1.45,0.84-2.53c0-0.24,0.12-0.72,0.12-1.08c0.12-0.84,0.24-1.93,0.24-3.13L821.94,172.24z"/>
</g>
</svg>
