<?xml version="1.0" encoding="utf-8"?>
<!-- Generator: Adobe Illustrator 25.2.3, SVG Export Plug-In . SVG Version: 6.00 Build 0)  -->
<svg version="1.1" id="圖層_1" xmlns="http://www.w3.org/2000/svg" xmlns:xlink="http://www.w3.org/1999/xlink" x="0px" y="0px"
	 viewBox="0 0 780 175" style="enable-background:new 0 0 780 175;" xml:space="preserve">
<style type="text/css">
	.st0{fill:#42210B;}
	.st1{fill:none;stroke:#000000;stroke-width:0.801;stroke-miterlimit:10;}
</style>
<g>
	<g>
		<g>
			<path class="st0" d="M575.15,160.28c0.07,0.24,0.13,0.59,0.19,1.07c0.08,0.72,0.12,1.27,0.12,1.67c0,0.13-0.01,0.26-0.04,0.41
				l-0.1,0.03l-0.75-0.05l-0.12-0.02c-0.31-0.92-0.61-1.54-0.92-1.86c-0.53-0.56-1.15-0.83-1.86-0.83c-0.68,0-1.22,0.18-1.62,0.54
				c-0.4,0.36-0.6,0.8-0.6,1.33c0,0.44,0.2,0.87,0.59,1.28c0.39,0.41,1.22,0.8,2.48,1.18c0.42,0.12,0.94,0.32,1.54,0.6
				c0.6,0.28,1.06,0.58,1.37,0.91c0.42,0.43,0.7,0.85,0.86,1.24s0.23,0.9,0.23,1.49c0,0.65-0.12,1.3-0.36,1.93
				c-0.13,0.33-0.34,0.65-0.64,0.95c-0.21,0.21-0.53,0.45-0.97,0.74s-0.89,0.48-1.36,0.61s-1.07,0.19-1.81,0.19
				c-0.49,0-1.07-0.07-1.74-0.21l-1.25-0.36c-0.35-0.1-0.57-0.18-0.66-0.26c-0.03-0.03-0.07-0.09-0.09-0.2v-0.11
				c0-0.08-0.02-0.55-0.05-1.43c-0.01-0.45-0.02-0.77-0.02-0.96v-0.4l0.97-0.02c0.33,0.77,0.55,1.24,0.65,1.4
				c0.21,0.36,0.45,0.64,0.71,0.86c0.26,0.22,0.57,0.39,0.93,0.52c0.36,0.13,0.75,0.19,1.17,0.19c0.37,0,0.79-0.08,1.24-0.24
				c0.45-0.16,0.81-0.42,1.09-0.79c0.27-0.36,0.41-0.76,0.41-1.17c0-0.51-0.24-0.99-0.72-1.43c-0.29-0.27-1.08-0.63-2.35-1.09
				c-1.28-0.45-2.16-0.86-2.66-1.21c-0.49-0.35-0.88-0.83-1.17-1.42c-0.28-0.59-0.43-1.17-0.43-1.71c0-1.1,0.4-2.04,1.19-2.81
				c0.79-0.77,1.96-1.16,3.5-1.16c0.33,0,0.83,0.06,1.48,0.18C573.97,159.91,574.5,160.06,575.15,160.28z"/>
			<path class="st0" d="M579.7,173.47l-0.02-0.68l1.18-0.16c0.17-0.05,0.29-0.12,0.36-0.21c0.07-0.09,0.1-0.3,0.1-0.63v-0.11
				c0-0.08,0.01-0.23,0.02-0.45c0.01-0.22,0.02-0.41,0.02-0.58c0-0.13-0.01-0.39-0.03-0.76l0.02-0.52l-0.02-0.49l0.03-1.7
				c0-0.22-0.02-0.44-0.06-0.67c-0.08-0.1-0.22-0.19-0.42-0.27c-0.2-0.08-0.56-0.13-1.06-0.17v-0.58c0.72-0.04,1.34-0.19,1.89-0.45
				c0.37-0.17,0.77-0.46,1.2-0.89h0.7c0.03,0.86,0.04,1.98,0.04,3.35l-0.07,4.25c0,0.29,0.01,0.56,0.04,0.79
				c0.22,0.08,0.57,0.15,1.05,0.23c0.19,0.03,0.34,0.06,0.45,0.1l-0.02,0.57c-0.19,0.01-0.33,0.01-0.42,0.01
				c-0.1,0-0.26-0.01-0.48-0.02c-0.71-0.03-1.65-0.05-2.84-0.05c-0.34,0-0.67,0.01-0.99,0.04
				C580.04,173.46,579.82,173.47,579.7,173.47z M581.16,161.04c0-0.38,0.12-0.68,0.36-0.92c0.24-0.24,0.56-0.36,0.94-0.36
				c0.41,0,0.75,0.13,1.02,0.38c0.27,0.25,0.41,0.54,0.41,0.86c0,0.24-0.05,0.47-0.16,0.71s-0.28,0.43-0.51,0.57
				c-0.23,0.14-0.47,0.21-0.71,0.21c-0.33,0-0.64-0.14-0.92-0.43C581.3,161.78,581.16,161.44,581.16,161.04z"/>
			<path class="st0" d="M587.93,172.95c0.18-0.08,0.35-0.14,0.5-0.17c0.38-0.06,0.6-0.11,0.67-0.16c0.1-0.06,0.17-0.14,0.21-0.23
				c0.04-0.14,0.06-0.44,0.06-0.92v-0.91l0.01-0.74l-0.03-1.09v-0.66c0-0.44-0.03-0.8-0.1-1.07c-0.03-0.1-0.11-0.21-0.26-0.31
				c-0.19-0.14-0.52-0.28-0.99-0.41l-0.01-0.5c0.09-0.03,0.17-0.05,0.24-0.06s0.35-0.08,0.84-0.2c0.38-0.14,0.63-0.24,0.74-0.29
				c0.03-0.02,0.09-0.05,0.17-0.09c0.08-0.07,0.18-0.14,0.28-0.21c0.21-0.15,0.46-0.4,0.75-0.76l0.56-0.04l-0.02,1.18
				c-0.01,0.12-0.02,0.21-0.02,0.28c0,0.06,0.01,0.22,0.02,0.48c0.58-0.5,1.1-0.85,1.57-1.04c0.62-0.26,1.2-0.39,1.76-0.39
				c0.65,0,1.22,0.16,1.72,0.49s0.82,0.7,0.97,1.12c0.15,0.42,0.23,1.28,0.23,2.57l-0.04,3.4c0,0.16,0.03,0.29,0.08,0.4
				c0.07,0.05,0.26,0.1,0.57,0.15l0.51,0.1c0.06,0.09,0.09,0.2,0.09,0.33c0,0.08,0,0.2-0.01,0.34l-2.04-0.15l-0.6,0.02h-0.48
				l-1.38,0.09h-0.35c-0.01-0.09-0.01-0.15-0.01-0.2c0-0.12,0.01-0.25,0.02-0.39c0.1-0.02,0.34-0.06,0.73-0.1
				c0.1-0.01,0.22-0.04,0.34-0.07c0.14-0.06,0.22-0.11,0.24-0.17c0.06-0.12,0.08-0.34,0.08-0.68c0-0.58,0-1.03-0.01-1.35l0.01-1.21
				c0-1.47-0.09-2.38-0.28-2.74c-0.26-0.52-0.66-0.78-1.19-0.78c-0.39,0-0.79,0.1-1.21,0.3c-0.42,0.2-0.84,0.5-1.29,0.9l-0.02,0.18
				l0.02,0.66l-0.02,0.7l0.04,1.67l-0.02,0.26c0,1.13,0.05,1.77,0.14,1.92c0.09,0.15,0.44,0.31,1.04,0.49
				c0.02,0.12,0.03,0.2,0.03,0.26c0,0.08-0.02,0.21-0.07,0.39c-0.22,0.01-0.4,0.01-0.54,0.01c-0.15,0-0.38-0.02-0.69-0.07
				l-1.12-0.02c-0.56,0-1.36,0.02-2.41,0.07c-0.03-0.07-0.04-0.14-0.04-0.22C587.92,173.22,587.92,173.11,587.93,172.95z"/>
			<path class="st0" d="M610.33,170.75c0.11,0.06,0.19,0.1,0.25,0.13c0.16,0.07,0.29,0.16,0.39,0.26c-0.19,0.69-0.64,1.3-1.36,1.8
				c-0.72,0.51-1.64,0.76-2.74,0.76c-0.69,0-1.38-0.15-2.06-0.44c-0.68-0.29-1.22-0.68-1.63-1.16c-0.31-0.37-0.55-0.82-0.7-1.35
				c-0.16-0.53-0.23-0.99-0.23-1.36c0-0.45,0.1-0.96,0.29-1.54s0.52-1.11,0.98-1.62s1.04-0.91,1.73-1.21s1.48-0.45,2.36-0.45
				c1.2,0,2.04,0.19,2.51,0.56c0.47,0.38,0.71,0.75,0.71,1.13c0,0.37-0.1,0.66-0.29,0.87c-0.19,0.21-0.45,0.32-0.79,0.32
				c-0.28,0-0.55-0.09-0.79-0.28c-0.24-0.19-0.44-0.5-0.6-0.95c-0.12-0.32-0.28-0.55-0.48-0.7c-0.19-0.14-0.43-0.21-0.7-0.21
				c-0.65,0-1.24,0.28-1.75,0.84c-0.51,0.56-0.77,1.32-0.77,2.29c0,1.16,0.31,2.08,0.94,2.77c0.63,0.68,1.34,1.03,2.14,1.03
				c0.4,0,0.73-0.05,1.01-0.14c0.17-0.06,0.41-0.2,0.71-0.41c0.08-0.06,0.22-0.2,0.43-0.45C610.11,171,610.26,170.83,610.33,170.75z
				"/>
			<path class="st0" d="M614.45,167.94c0.18-0.59,0.34-0.98,0.48-1.18c0.39-0.57,0.8-1.01,1.24-1.34c0.44-0.32,0.84-0.53,1.19-0.64
				c0.46-0.13,0.83-0.2,1.11-0.2c0.65,0,1.18,0.05,1.58,0.15s0.74,0.24,1.01,0.43c0.39,0.27,0.7,0.55,0.94,0.82
				c0.24,0.28,0.43,0.6,0.58,0.98c0.15,0.38,0.23,0.83,0.24,1.36l-1.16-0.02c-0.32,0-1.02-0.03-2.1-0.09
				c-0.4-0.03-0.68-0.05-0.83-0.05c-0.05,0-0.42,0.01-1.13,0.02h-0.9c-0.01,0.1-0.02,0.18-0.02,0.25c0,0.37,0.05,0.76,0.14,1.16
				c0.09,0.41,0.23,0.77,0.41,1.08c0.18,0.31,0.4,0.58,0.67,0.8s0.54,0.38,0.83,0.48l0.6,0.2c0.53,0,0.89-0.02,1.07-0.05
				c0.33-0.07,0.63-0.16,0.88-0.27c0.25-0.11,0.56-0.29,0.92-0.55c0.25,0.18,0.46,0.34,0.63,0.49c-0.61,0.67-1.24,1.16-1.9,1.46
				c-0.66,0.3-1.39,0.45-2.2,0.45c-0.55,0-1-0.05-1.34-0.15c-0.47-0.13-0.89-0.32-1.26-0.57c-0.38-0.26-0.7-0.58-0.97-0.96
				c-0.27-0.38-0.47-0.78-0.6-1.18c-0.17-0.53-0.26-0.95-0.26-1.27C614.3,168.97,614.35,168.43,614.45,167.94z M620.5,167.5
				c-0.01-0.39-0.08-0.76-0.23-1.12c-0.15-0.36-0.37-0.63-0.68-0.83s-0.61-0.3-0.93-0.3c-0.47,0-0.89,0.2-1.26,0.61
				s-0.59,0.97-0.64,1.67l2.38,0.02c0.15,0,0.37-0.01,0.65-0.03c0.2-0.02,0.34-0.03,0.43-0.03
				C620.28,167.49,620.38,167.49,620.5,167.5z"/>
			<path class="st0" d="M642.24,173.49h-1.08c-0.26,0-0.46,0-0.6-0.01c-0.23-0.01-0.37-0.01-0.42-0.01l-0.71,0.03l-0.19-0.02
				c-0.17-0.02-0.37-0.03-0.61-0.03c-0.23,0-0.62,0.01-1.18,0.03c-0.26,0.01-0.42,0.01-0.48,0.01l-1.05-0.02l-1.69,0.02h-0.67v-0.71
				c0.99-1.25,1.73-2.12,2.22-2.62c0.5-0.5,1.2-1.32,2.12-2.47c0.64-0.79,1.08-1.5,1.32-2.12c0.24-0.63,0.36-1.17,0.36-1.62
				c0-0.51-0.07-0.97-0.22-1.38c-0.15-0.41-0.41-0.73-0.79-0.97c-0.38-0.24-0.79-0.35-1.23-0.35c-0.45,0-0.86,0.11-1.22,0.33
				c-0.36,0.22-0.63,0.5-0.79,0.84c-0.26,0.49-0.41,1.01-0.47,1.54h-0.76c-0.02-0.3-0.03-0.55-0.03-0.75c0-0.68,0.26-1.32,0.78-1.94
				c0.81-0.96,1.94-1.44,3.41-1.44c1.22,0,2.18,0.35,2.89,1.04c0.7,0.69,1.05,1.56,1.05,2.61c0,0.42-0.07,0.81-0.2,1.18
				c-0.19,0.5-0.41,0.93-0.68,1.3s-1,1.15-2.2,2.35c-0.87,0.87-1.96,1.9-3.26,3.08l1.15,0.02l1.89-0.04l1.1,0.02
				c0.58,0,0.97-0.06,1.16-0.19c0.19-0.13,0.37-0.42,0.52-0.89c0.03-0.11,0.1-0.28,0.19-0.5l0.7-0.04l0.14,0.04
				c0.03,0.06,0.05,0.11,0.05,0.16c0,0.11-0.02,0.25-0.05,0.42s-0.07,0.44-0.12,0.82S642.42,172.35,642.24,173.49z"/>
			<path class="st0" d="M645.88,166.76c0-0.76,0.05-1.36,0.14-1.79c0.21-1.03,0.41-1.79,0.6-2.25c0.31-0.72,0.66-1.31,1.08-1.76
				c0.41-0.45,0.89-0.79,1.43-1.02c0.32-0.14,0.74-0.21,1.27-0.21c0.65,0,1.27,0.23,1.89,0.68c0.61,0.45,1.16,1.2,1.64,2.24
				c0.48,1.04,0.72,2.34,0.72,3.92c0,1.16-0.13,2.25-0.4,3.27c-0.17,0.62-0.4,1.19-0.71,1.71c-0.31,0.53-0.56,0.89-0.77,1.09
				c-0.35,0.34-0.73,0.61-1.15,0.81c-0.42,0.2-0.75,0.3-1.01,0.3c-0.76,0-1.33-0.07-1.73-0.22s-0.78-0.42-1.14-0.81
				c-0.36-0.39-0.69-0.89-0.98-1.49c-0.29-0.61-0.49-1.19-0.62-1.75C645.97,168.7,645.88,167.79,645.88,166.76z M648.58,168.13
				c0,1.53,0.05,2.56,0.15,3.1s0.28,0.94,0.56,1.21c0.27,0.27,0.56,0.4,0.87,0.4c0.31,0,0.58-0.08,0.8-0.25
				c0.22-0.17,0.41-0.43,0.57-0.79s0.27-0.92,0.33-1.69c0.1-1.26,0.16-2.16,0.16-2.7l-0.03-1.38v-1.47c0-0.69-0.05-1.34-0.15-1.94
				s-0.23-1.03-0.39-1.29c-0.16-0.26-0.36-0.44-0.58-0.54c-0.23-0.1-0.44-0.15-0.65-0.15c-0.26,0-0.53,0.13-0.83,0.38
				c-0.3,0.25-0.51,0.72-0.65,1.39c-0.13,0.67-0.2,1.82-0.2,3.45l0.02,0.74C648.57,167.33,648.58,167.84,648.58,168.13z"/>
			<path class="st0" d="M666.51,173.49h-1.08c-0.26,0-0.46,0-0.6-0.01c-0.23-0.01-0.37-0.01-0.42-0.01l-0.71,0.03l-0.19-0.02
				c-0.17-0.02-0.37-0.03-0.61-0.03c-0.23,0-0.62,0.01-1.18,0.03c-0.26,0.01-0.42,0.01-0.48,0.01l-1.05-0.02l-1.69,0.02h-0.67v-0.71
				c0.99-1.25,1.73-2.12,2.22-2.62c0.5-0.5,1.2-1.32,2.12-2.47c0.64-0.79,1.08-1.5,1.32-2.12c0.24-0.63,0.36-1.17,0.36-1.62
				c0-0.51-0.07-0.97-0.22-1.38c-0.15-0.41-0.41-0.73-0.79-0.97c-0.38-0.24-0.79-0.35-1.23-0.35c-0.45,0-0.86,0.11-1.22,0.33
				c-0.36,0.22-0.63,0.5-0.79,0.84c-0.26,0.49-0.41,1.01-0.47,1.54h-0.76c-0.02-0.3-0.03-0.55-0.03-0.75c0-0.68,0.26-1.32,0.78-1.94
				c0.81-0.96,1.94-1.44,3.41-1.44c1.22,0,2.18,0.35,2.89,1.04c0.7,0.69,1.05,1.56,1.05,2.61c0,0.42-0.07,0.81-0.2,1.18
				c-0.19,0.5-0.41,0.93-0.68,1.3s-1,1.15-2.2,2.35c-0.87,0.87-1.96,1.9-3.26,3.08l1.15,0.02l1.89-0.04l1.1,0.02
				c0.58,0,0.97-0.06,1.16-0.19c0.19-0.13,0.37-0.42,0.52-0.89c0.03-0.11,0.1-0.28,0.19-0.5l0.7-0.04l0.14,0.04
				c0.03,0.06,0.05,0.11,0.05,0.16c0,0.11-0.02,0.25-0.05,0.42s-0.07,0.44-0.12,0.82C666.8,171.59,666.69,172.35,666.51,173.49z"/>
			<path class="st0" d="M670.15,166.76c0-0.76,0.05-1.36,0.14-1.79c0.21-1.03,0.41-1.79,0.6-2.25c0.31-0.72,0.66-1.31,1.08-1.76
				c0.41-0.45,0.89-0.79,1.43-1.02c0.32-0.14,0.74-0.21,1.27-0.21c0.65,0,1.27,0.23,1.89,0.68c0.61,0.45,1.16,1.2,1.64,2.24
				c0.48,1.04,0.72,2.34,0.72,3.92c0,1.16-0.13,2.25-0.4,3.27c-0.17,0.62-0.4,1.19-0.71,1.71c-0.31,0.53-0.56,0.89-0.77,1.09
				c-0.35,0.34-0.73,0.61-1.15,0.81c-0.42,0.2-0.75,0.3-1.01,0.3c-0.76,0-1.33-0.07-1.73-0.22c-0.4-0.15-0.78-0.42-1.14-0.81
				c-0.36-0.39-0.69-0.89-0.98-1.49c-0.29-0.61-0.49-1.19-0.62-1.75C670.24,168.7,670.15,167.79,670.15,166.76z M672.85,168.13
				c0,1.53,0.05,2.56,0.15,3.1s0.28,0.94,0.56,1.21s0.56,0.4,0.87,0.4c0.31,0,0.58-0.08,0.8-0.25s0.41-0.43,0.57-0.79
				c0.16-0.36,0.27-0.92,0.33-1.69c0.1-1.26,0.16-2.16,0.16-2.7l-0.03-1.38v-1.47c0-0.69-0.05-1.34-0.15-1.94s-0.23-1.03-0.39-1.29
				c-0.16-0.26-0.36-0.44-0.58-0.54c-0.23-0.1-0.44-0.15-0.65-0.15c-0.26,0-0.53,0.13-0.83,0.38c-0.3,0.25-0.51,0.72-0.65,1.39
				c-0.13,0.67-0.2,1.82-0.2,3.45l0.02,0.74C672.84,167.33,672.85,167.84,672.85,168.13z"/>
		</g>
		<g>
			<path class="st0" d="M482.39,126.35v-24.5h26.25v24.5H482.39z M511.65,141.12c2.92,0,5.06-0.68,4.96-2.92l-0.39-34.8
				c1.94-0.49,2.53-0.97,2.53-1.85c0-1.56-4.28-7-7.29-7c-1.46,0-2.92,2.24-3.6,4.08h-8.75V78.9h28.97c0.97,0,1.17-0.29,1.17-0.97
				c0-1.94-4.37-7-6.9-7c-1.85,0-3.6,3.01-3.99,4.76h-19.25V59.56c2.14-0.39,3.11-0.97,3.11-1.65c0-0.97-3.89-2.53-8.65-2.82
				c-2.43-0.19-3.11,0.29-2.92,1.26c0.39,2.04,0.68,4.47,0.68,7.49V75.7h-24.11c-1.85,0-3.5-0.39-4.96-0.97l-0.68,0.49
				c0.58,0.88,1.65,2.62,2.24,3.4c0.49,0.68,0.68,0.78,1.46,0.68c1.56-0.29,3.4-0.39,6.51-0.39h19.54v19.74h-7.29
				c-0.68-1.46-3.6-2.92-7.29-3.21c-2.33-0.19-2.72,0.39-2.53,1.36c0.29,1.65,0.49,3.5,0.49,6.03v33.05v4.37
				c0,0.97,0.78,1.26,2.33,1.26c3.31,0,5.35-0.68,5.35-2.53v-9.43h26.25v9.92C508.64,140.83,509.71,141.12,511.65,141.12z"/>
			<path class="st0" d="M567.17,76.57h-1.46V60.43c2.43-0.39,3.21-0.97,3.21-1.56c0-1.26-3.31-2.82-8.36-3.01
				c-2.43-0.1-3.01,0.29-2.82,1.26c0.29,1.85,0.58,3.99,0.58,6.9v12.54h-4.86c0.68-3.4,1.26-6.81,1.56-10.01
				c1.36-0.29,2.43-0.97,2.24-1.56c-0.29-0.78-3.89-1.56-7.58-1.75c-1.75-0.1-2.14,0.19-2.04,1.36c0.29,9.24-0.58,21.1-2.82,30.72
				l1.94,0.68c2.62-4.86,4.57-10.5,6.03-16.24h5.54v17.69c-4.67,1.94-9.62,3.89-14.19,5.44c-1.07,0.39-1.17,0.68-0.78,1.56
				c1.36,3.21,4.67,8.17,6.12,7.49c0.49-0.29,0.87-1.17,0.58-3.11c2.62-1.56,5.44-3.31,8.26-5.06v24.5c0,4.47-0.19,8.75-0.19,11.57
				c0,1.56,0.88,1.75,3.01,1.75c3.69,0,4.57-0.88,4.57-2.92V99.03c4.08-2.72,7.49-5.25,9.43-7.1l-0.97-1.94
				c-1.85,1.07-4.86,2.63-8.46,4.28V79.78h7c-1.07,3.21-2.53,6.22-4.18,8.85l1.65,1.46c4.18-3.11,7.58-8.07,10.21-13.9h2.04
				c-2.24,14.49-6.22,28-14.87,40.05l1.56,1.56c10.5-8.46,17.5-22.94,20.42-41.61h3.01c-0.97,9.24-2.82,19.06-5.06,26.64
				c-2.53,8.65-7.58,19.74-17.6,29.26l1.17,1.65c10.01-5.44,18.08-15.65,22.17-26.83c3.01-8.07,5.06-18.67,6.42-30.72h2.82
				c-0.19,15.85-1.85,38.79-5.06,53.28c-0.39,1.65-1.07,2.14-2.53,1.94c-3.89-0.58-11.28-1.85-14.29-2.33l-0.68,1.75
				c1.56,0.68,6.32,2.43,8.85,3.5c1.65,0.68,1.85,1.75,1.85,4.37c0,1.26,0.39,1.85,2.33,2.04c6.51,0.78,10.11-2.53,11.57-8.75
				c3.01-13.71,4.96-34.9,4.96-53.96c1.36-0.29,2.53-0.88,2.53-1.75c0-2.43-5.15-7.49-7.87-7.49c-1.36,0-3.01,2.72-3.4,4.18h-19.06
				c1.56-3.99,2.82-8.36,3.69-12.74c1.94-0.19,2.53-0.68,2.43-1.17c-0.1-1.07-4.47-2.33-8.65-2.72c-1.65-0.19-2.14,0.1-2.24,1.36
				c-0.19,5.25-1.07,11.76-2.92,18.08c-0.97-1.94-2.43-3.89-3.69-3.89C569.01,71.9,567.56,74.92,567.17,76.57z"/>
			<path class="st0" d="M629,73.85c2.33,0,3.79-0.1,7-0.1h20.32v13.42h-9.53c-0.78-1.17-3.5-2.43-7.87-2.72
				c-2.14-0.19-2.62,0.39-2.43,1.26c0.39,1.75,0.58,3.99,0.58,6.81v25.96c0,2.62-0.1,5.64-0.1,8.17c0,0.97,0.87,1.26,2.43,1.26
				c3.89,0,5.83-0.68,5.83-2.53V90.67h11.08v36.94c0,3.11-0.1,9.33-0.19,12.25c-0.1,1.56,1.07,1.85,3.4,1.85
				c3.89,0,5.06-0.78,5.06-3.01l-0.1-10.21V90.67h12.44v26.35c0,0.87-0.19,1.17-1.46,0.97c-3.11-0.49-5.44-0.97-8.75-1.56
				l-0.58,1.65c2.14,0.97,3.79,1.75,5.35,2.53c0.97,0.49,1.36,1.56,1.56,3.89c0.1,1.17,0.39,1.56,2.04,1.75
				c4.76,0.49,10.01-2.14,10.01-6.9V92.13c1.65-0.49,2.62-1.07,2.62-1.85c0-2.24-5.74-7-8.17-7c-1.46,0-3.11,2.04-3.79,3.89h-11.28
				V73.75h29.26c0.78,0,1.07-0.29,1.07-0.78c0-1.94-3.99-7.39-7.29-7.39c-1.75,0-3.4,2.82-3.89,4.57h-19.15V59.95
				c2.82-0.39,3.6-0.97,3.6-1.56c0-1.26-4.47-2.92-9.72-3.11c-2.33-0.1-3.11,0.39-2.82,1.26c0.58,3.6,0.78,6.61,0.78,13.12v0.49
				h-25.08c-2.33,0-3.6-0.29-4.86-0.68l-0.49,0.58c0.49,0.88,1.46,2.43,1.94,3.11C628.22,73.65,628.51,73.85,629,73.85z"/>
			<path class="st0" d="M729.13,78.22v-5.83h11.67v5.83H729.13z M729.13,87.26v-5.83h11.67v5.83H729.13z M729.13,96.31v-5.83h11.67
				v5.83H729.13z M707.65,136.94l1.26,1.65c10.79-3.21,24.89-12.74,30.53-19.15v11.76c0,2.82-0.1,6.51-0.1,9.14
				c0,1.26,0.68,1.65,3.01,1.65c3.6,0,4.96-1.07,4.96-2.33c0-2.14-0.1-18.67-0.1-28.49h2.33c1.56,7.58,10.11,21.58,18.47,25.67
				c2.62,1.26,3.4,0.87,3.99-0.19c1.26-2.33,2.82-4.76,6.12-4.96l0.49-1.26c-11.86-2.72-22.75-12.93-26.35-19.25h23.62
				c0.78,0,1.17-0.29,1.17-0.87c0-2.04-4.28-7.1-7-7.1c-2.14,0-3.69,2.92-4.18,4.76h-18.67v-3.11c2.43-0.39,3.11-1.07,3.11-1.56
				c0-0.97-3.4-2.53-8.46-2.72c-2.92-0.1-3.31,0.58-3.11,1.46c0.39,1.65,0.68,3.69,0.68,5.93h-23.72c-2.82,0-4.47-0.39-6.03-0.97
				l-0.49,0.58c0.58,0.97,1.85,2.92,2.33,3.6c0.39,0.58,0.68,0.68,1.26,0.58c1.75-0.29,3.6-0.58,6.61-0.58h17.4
				C731.18,119.93,719.9,130.33,707.65,136.94z M708.62,84.25l1.26,1.36c3.31-1.56,7.49-4.67,11.67-8.36v16.14
				c0,3.21-0.1,6.61-0.19,9.92c0,1.26,0.88,1.56,2.82,1.56c3.89,0,4.96-1.26,4.96-2.43v-2.92h40.73c0.87,0,1.26-0.29,1.26-0.78
				c0-2.14-3.69-6.81-6.32-6.81c-1.75,0-3.11,2.43-3.79,4.37h-12.83v-5.83h18.37c0.88,0,1.26-0.29,1.26-0.78
				c0-2.14-3.69-6.81-6.32-6.81c-1.75,0-3.11,2.43-3.79,4.37h-9.53v-5.83h18.37c0.88,0,1.26-0.29,1.26-0.78
				c0-2.14-3.69-6.71-6.32-6.71c-1.75,0-3.11,2.33-3.79,4.28h-9.53v-5.83h22.36c0.88,0,1.26-0.29,1.26-0.78c0-2.24-3.79-7-6.51-7
				c-1.85,0-3.31,2.53-3.99,4.57h-14.58c2.33-2.14,5.15-4.96,7.1-7.58c1.65,0.1,2.72-0.19,2.72-0.78c0-0.97-3.21-2.82-7-4.08
				c-2.14-0.68-2.53-0.49-2.82,0.58c-0.97,3.6-2.92,8.46-4.47,11.86h-12.64c2.33-2.62,4.37-5.25,5.74-7.49
				c2.14,0.29,3.21,0,3.21-0.68c0-1.17-4.28-3.89-7.68-5.06c-1.94-0.68-2.43-0.39-2.92,0.78C724.47,65,717.37,76.18,708.62,84.25z"
				/>
		</g>
		<g>
			<path class="st0" d="M533.88,25.64c-0.09-0.28-0.18-0.57-0.28-0.85c0.38-0.12,0.61-0.18,0.69-0.2c0.92-0.2,2.11-0.52,3.57-0.97
				c0.22-0.07,0.66-0.22,1.32-0.47c0.47-0.18,0.82-0.32,1.05-0.43c0.27-0.08,0.53-0.16,0.8-0.24c0.16,0.48,0.25,0.75,0.26,0.81
				c-0.7,0.3-1.11,0.49-1.23,0.55c-0.3,0.17-0.5,0.35-0.61,0.53c-0.06,0.1-0.07,0.2-0.04,0.3c0.02,0.07,0.05,0.14,0.09,0.21
				c0.21,0.25,0.41,0.51,0.62,0.76c0.46,0.6,1.15,1.4,2.08,2.39c0.66,0.74,1.32,1.48,1.98,2.22c0.38,0.43,0.73,0.84,1.05,1.24
				c0.07-0.53,0.14-1.07,0.21-1.6c0.11-1.22,0.22-2.45,0.34-3.67c0.04-0.26,0.07-0.52,0.11-0.79c0.01-0.11,0.02-0.26,0.02-0.46
				c0.02-0.65,0.05-1.14,0.1-1.49c0.04-0.34,0.04-0.61-0.02-0.81c-0.04-0.13-0.14-0.22-0.3-0.27c-0.25-0.09-0.62-0.08-1.12,0.01
				c-0.11,0-0.25,0.02-0.42,0.05c-0.17,0.03-0.33,0.05-0.47,0.06c-0.08-0.12-0.13-0.21-0.15-0.28c-0.03-0.09-0.05-0.25-0.09-0.47
				c0.13-0.04,0.52-0.12,1.15-0.24c0.64-0.12,1.25-0.26,1.85-0.43c0.61-0.17,1.12-0.33,1.54-0.5c0.42-0.17,0.77-0.29,1.04-0.37
				c0.03,0.11,0.06,0.21,0.08,0.32c0.02,0.08,0.05,0.2,0.08,0.37c-0.86,0.57-1.36,0.93-1.49,1.09c-0.08,0.09-0.15,0.23-0.21,0.41
				c-0.16,0.52-0.33,1.55-0.52,3.07c-0.16,1.24-0.31,2.47-0.45,3.71c-0.04,0.36-0.08,0.74-0.13,1.14c-0.05,0.4-0.1,0.84-0.15,1.31
				c-0.01,0.11-0.06,0.56-0.15,1.34c-0.02,0.07-0.04,0.14-0.05,0.21c-0.04,1.03-0.08,1.75-0.13,2.15c-0.27,0.09-0.44,0.15-0.51,0.17
				c-0.13,0.04-0.32,0.08-0.55,0.14c-0.14-0.18-0.27-0.36-0.41-0.54c-0.14-0.18-0.65-0.82-1.54-1.9c-1.09-1.21-2.18-2.42-3.29-3.62
				c-0.68-0.78-1.37-1.56-2.06-2.34c-1.01-1.04-1.56-1.59-1.65-1.65c-0.18-0.13-0.35-0.2-0.53-0.23c-0.18-0.02-0.51,0.02-1,0.14
				C534.21,25.57,534.05,25.61,533.88,25.64z"/>
			<path class="st0" d="M554.13,32.98c-0.06-0.22-0.13-0.43-0.19-0.65c0.38-0.15,0.77-0.3,1.15-0.45c0.16-0.09,0.27-0.19,0.31-0.3
				c0.04-0.11,0.03-0.32-0.05-0.64c-0.01-0.04-0.02-0.07-0.03-0.11c-0.02-0.08-0.05-0.23-0.09-0.44c-0.04-0.22-0.08-0.4-0.12-0.57
				c-0.03-0.13-0.11-0.37-0.22-0.73c-0.04-0.17-0.07-0.34-0.11-0.51c-0.05-0.16-0.09-0.31-0.13-0.47c-0.13-0.55-0.25-1.1-0.38-1.66
				c-0.05-0.21-0.13-0.42-0.23-0.63c-0.1-0.08-0.27-0.13-0.5-0.15c-0.23-0.02-0.61,0.02-1.14,0.12c-0.05-0.19-0.1-0.38-0.14-0.57
				c0.73-0.23,1.35-0.54,1.85-0.93c0.34-0.26,0.69-0.65,1.04-1.17c0.24-0.06,0.49-0.12,0.73-0.18c0.23,0.83,0.51,1.91,0.83,3.25
				c0.31,1.38,0.61,2.77,0.92,4.15c0.07,0.28,0.14,0.54,0.23,0.76c0.24,0.02,0.61,0.01,1.12-0.03c0.2-0.02,0.36-0.02,0.48-0.01
				c0.04,0.19,0.07,0.38,0.11,0.56c-0.19,0.05-0.33,0.09-0.42,0.11c-0.11,0.02-0.27,0.06-0.49,0.09c-0.72,0.14-1.69,0.35-2.88,0.65
				c-0.34,0.09-0.67,0.18-0.99,0.29C554.47,32.88,554.25,32.95,554.13,32.98z M552.59,20.55c-0.09-0.36-0.04-0.69,0.16-0.99
				c0.2-0.3,0.5-0.5,0.91-0.59c0.43-0.11,0.83-0.07,1.17,0.11c0.35,0.18,0.56,0.42,0.63,0.73c0.05,0.23,0.05,0.47-0.01,0.73
				c-0.06,0.26-0.19,0.48-0.41,0.68c-0.21,0.2-0.45,0.33-0.7,0.39c-0.35,0.09-0.71,0.03-1.07-0.18
				C552.91,21.23,552.68,20.93,552.59,20.55z"/>
			<path class="st0" d="M561.91,30.57c0.17-0.12,0.32-0.21,0.47-0.28c0.37-0.15,0.59-0.25,0.64-0.3c0.09-0.09,0.15-0.17,0.16-0.27
				c0.01-0.15-0.03-0.45-0.13-0.91c-0.06-0.3-0.13-0.59-0.19-0.89c-0.05-0.24-0.1-0.48-0.15-0.73c-0.09-0.35-0.18-0.71-0.27-1.06
				c-0.05-0.21-0.09-0.43-0.14-0.64c-0.09-0.43-0.21-0.77-0.34-1.03c-0.05-0.1-0.16-0.18-0.34-0.25c-0.23-0.09-0.61-0.15-1.12-0.17
				c-0.04-0.16-0.08-0.32-0.12-0.49c0.09-0.05,0.17-0.09,0.24-0.11c0.07-0.03,0.35-0.16,0.83-0.39c0.37-0.22,0.61-0.37,0.71-0.45
				c0.03-0.03,0.08-0.07,0.15-0.13c0.07-0.09,0.15-0.18,0.25-0.27c0.19-0.19,0.4-0.49,0.63-0.91c0.19-0.06,0.39-0.11,0.58-0.17
				c0.07,0.39,0.15,0.77,0.22,1.16c0.01,0.12,0.02,0.21,0.04,0.28c0.01,0.05,0.05,0.21,0.12,0.46c0.5-0.62,0.98-1.07,1.43-1.36
				c0.6-0.38,1.19-0.63,1.77-0.75c0.69-0.13,1.32-0.09,1.9,0.13c0.58,0.22,0.99,0.52,1.22,0.91c0.24,0.39,0.47,1.21,0.71,2.48
				c0.19,1.12,0.38,2.24,0.58,3.35c0.03,0.16,0.08,0.28,0.16,0.37c0.08,0.03,0.28,0.04,0.61,0.04c0.18,0,0.36,0,0.54,0
				c0.08,0.07,0.13,0.18,0.15,0.31c0.01,0.08,0.03,0.19,0.05,0.34c-0.7,0.08-1.41,0.16-2.11,0.24c-0.2,0.05-0.41,0.09-0.61,0.14
				c-0.16,0.03-0.33,0.06-0.49,0.09c-0.46,0.12-0.92,0.24-1.38,0.37c-0.12,0.02-0.24,0.05-0.36,0.07c-0.03-0.08-0.04-0.15-0.05-0.2
				c-0.02-0.12-0.04-0.25-0.06-0.39c0.1-0.04,0.34-0.12,0.72-0.25c0.1-0.03,0.22-0.08,0.34-0.14c0.13-0.08,0.2-0.15,0.21-0.21
				c0.03-0.13,0.02-0.35-0.04-0.68c-0.11-0.57-0.2-1.01-0.27-1.32c-0.07-0.4-0.15-0.79-0.22-1.19c-0.28-1.44-0.55-2.32-0.82-2.64
				c-0.37-0.46-0.84-0.63-1.39-0.52c-0.41,0.08-0.81,0.26-1.2,0.55c-0.4,0.28-0.78,0.67-1.16,1.16c0.01,0.06,0.01,0.12,0.01,0.18
				c0.05,0.21,0.1,0.43,0.16,0.64c0.04,0.23,0.08,0.46,0.12,0.69c0.13,0.54,0.26,1.08,0.39,1.62c0.01,0.09,0.02,0.17,0.03,0.26
				c0.23,1.11,0.41,1.72,0.53,1.85c0.12,0.12,0.51,0.21,1.16,0.26c0.04,0.11,0.07,0.19,0.08,0.25c0.02,0.08,0.02,0.21,0,0.39
				c-0.22,0.05-0.4,0.09-0.55,0.12c-0.15,0.03-0.39,0.06-0.72,0.08c-0.38,0.07-0.76,0.14-1.14,0.22c-0.57,0.12-1.38,0.32-2.43,0.61
				c-0.04-0.06-0.07-0.13-0.09-0.2C561.96,30.84,561.94,30.73,561.91,30.57z"/>
			<path class="st0" d="M574.63,20.55c0.8-0.49,1.37-0.93,1.71-1.32c0.33-0.39,0.66-0.99,0.99-1.8c0.21-0.03,0.41-0.07,0.62-0.1
				c0.09,0.17,0.16,0.35,0.19,0.55c0.05,0.36,0.09,0.64,0.12,0.84c0.02,0.2,0.04,0.41,0.06,0.61c0.01,0.03,0.02,0.11,0.05,0.23
				c0.09-0.01,0.17-0.02,0.25-0.03c0.04-0.01,0.38-0.07,1.03-0.2c0.05-0.01,0.33-0.06,0.82-0.14c0.07,0.18,0.12,0.34,0.14,0.48
				c0.02,0.16,0.02,0.34,0,0.56c-0.23,0.08-0.42,0.12-0.54,0.14c-0.06,0.01-0.18,0.01-0.36,0.01c-0.19,0.03-0.38,0.06-0.57,0.09
				c-0.07,0.01-0.13,0.01-0.2,0.02c-0.17,0.04-0.35,0.07-0.52,0.11c0.2,1.31,0.39,2.62,0.59,3.94c0.11,0.76,0.2,1.24,0.27,1.42
				c0.07,0.18,0.18,0.35,0.34,0.5c0.18,0.05,0.36,0.06,0.56,0.03c0.19-0.03,0.33-0.07,0.42-0.12c0.09-0.05,0.23-0.17,0.43-0.37
				c0.04-0.04,0.1-0.1,0.18-0.17c0.19,0.11,0.35,0.21,0.48,0.33c0.02,0.04,0.04,0.08,0.06,0.12c-0.2,0.41-0.5,0.76-0.92,1.05
				c-0.42,0.28-0.88,0.47-1.4,0.55c-0.66,0.1-1.23-0.01-1.71-0.35c-0.48-0.34-0.79-0.93-0.93-1.78c-0.09-0.6-0.17-1.21-0.25-1.81
				c-0.16-0.97-0.32-1.95-0.48-2.93c-0.11,0.01-0.23,0.02-0.34,0.04c-0.26,0.05-0.52,0.1-0.78,0.15c-0.05-0.01-0.1-0.02-0.15-0.03
				c-0.05-0.05-0.09-0.11-0.09-0.16C574.68,20.97,574.66,20.81,574.63,20.55z"/>
			<path class="st0" d="M593.6,23.97c0.09,0.04,0.18,0.09,0.26,0.13c0.07,0.04,0.11,0.1,0.14,0.16c0.01,0.02,0.01,0.03,0.02,0.05
				c-0.11,0.63-0.29,1.08-0.55,1.34c-0.26,0.26-0.59,0.41-1,0.46c-0.42,0.04-0.8-0.03-1.12-0.22c-0.33-0.19-0.65-0.55-0.97-1.09
				c-0.25,0.56-0.64,1-1.16,1.34c-0.53,0.33-1.19,0.55-2,0.65c-0.74,0.09-1.31,0.02-1.7-0.24c-0.39-0.25-0.62-0.62-0.68-1.11
				c-0.03-0.23-0.01-0.46,0.06-0.71c0.07-0.25,0.21-0.5,0.41-0.76c0.2-0.26,0.55-0.56,1.03-0.91c0.08-0.05,0.34-0.2,0.78-0.46
				c0.86-0.46,1.72-0.91,2.59-1.36c-0.01-0.26-0.03-0.53-0.06-0.8c-0.11-0.93-0.3-1.55-0.58-1.86c-0.17-0.19-0.44-0.26-0.81-0.22
				c-0.37,0.04-0.7,0.15-0.99,0.32c-0.29,0.17-0.5,0.37-0.61,0.59c-0.08,0.16-0.13,0.46-0.16,0.89c-0.01,0.31-0.04,0.49-0.08,0.55
				c-0.09,0.15-0.28,0.29-0.55,0.43c-0.27,0.14-0.46,0.25-0.55,0.31c-0.37,0.23-0.67,0.36-0.9,0.39c-0.11-0.07-0.18-0.18-0.2-0.33
				c-0.05-0.39-0.01-0.74,0.13-1.05c0.21-0.43,0.55-0.87,1.04-1.32c0.48-0.44,0.95-0.77,1.39-0.98c0.61-0.27,1.37-0.46,2.29-0.57
				c0.59-0.07,1.11-0.02,1.55,0.13c0.45,0.16,0.77,0.43,0.98,0.81c0.21,0.38,0.37,1.09,0.48,2.14c0.05,0.57,0.11,1.14,0.16,1.71
				c0.05,0.42,0.1,0.83,0.15,1.25c0.01,0.11,0.02,0.21,0.03,0.32c0.03,0.29,0.09,0.48,0.19,0.58c0.09,0.1,0.2,0.14,0.33,0.13
				c0.08-0.01,0.14-0.04,0.19-0.08c0.09-0.17,0.18-0.35,0.27-0.52C593.48,24.03,593.54,24,593.6,23.97z M589.79,21.95
				c-0.4,0.18-0.84,0.45-1.32,0.82c-0.48,0.37-0.8,0.72-0.96,1.06c-0.12,0.25-0.15,0.53-0.11,0.86c0.04,0.3,0.16,0.53,0.37,0.7
				c0.21,0.17,0.43,0.24,0.68,0.21c0.4-0.05,0.73-0.2,0.98-0.45c0.34-0.34,0.54-0.6,0.59-0.79c0.04-0.18,0.02-0.68-0.07-1.51
				C589.9,22.55,589.85,22.25,589.79,21.95z"/>
			<path class="st0" d="M599.77,26.78c-0.98-0.16-1.65-0.38-1.99-0.67c-0.35-0.29-0.54-0.62-0.58-1.01
				c-0.03-0.31,0.04-0.56,0.2-0.74c0.16-0.18,0.9-0.72,2.25-1.6c-0.75-0.35-1.27-0.71-1.57-1.06c-0.39-0.47-0.61-0.94-0.65-1.43
				c-0.04-0.44,0.02-0.91,0.17-1.42c0.35-0.74,0.87-1.32,1.56-1.72c0.69-0.41,1.61-0.65,2.75-0.73c0.46-0.03,0.86-0.03,1.19,0
				c0.16,0.02,0.42,0.08,0.79,0.18c0.14,0.04,0.29,0.08,0.43,0.12c0.39,0.2,0.73,0.41,1.03,0.63c0.63-0.15,1.13-0.3,1.52-0.45
				c0.27-0.09,0.5-0.14,0.7-0.15c0.15-0.01,0.27,0.05,0.36,0.16c0.09,0.11,0.15,0.39,0.17,0.83c0.02,0.38-0.02,0.65-0.13,0.8
				c-0.1,0.15-0.21,0.23-0.33,0.24c-0.05,0-0.17-0.04-0.39-0.13c-0.51-0.19-0.91-0.28-1.22-0.28c0.2,0.47,0.31,0.92,0.34,1.35
				c0.03,0.51-0.1,1-0.39,1.48c-0.28,0.48-0.68,0.87-1.2,1.17c-0.73,0.43-1.45,0.67-2.2,0.71c-0.48,0.03-0.8,0.05-0.98,0.04
				c-0.25-0.01-0.61-0.05-1.08-0.11c-0.59,0.37-1,0.68-1.22,0.93c-0.11,0.12-0.17,0.26-0.15,0.41c0.01,0.14,0.09,0.26,0.22,0.36
				c0.13,0.1,0.35,0.16,0.65,0.18c0.06,0,0.14,0.01,0.24,0.02c0.38,0,0.89-0.03,1.52-0.07c0.08-0.01,0.33-0.03,0.76-0.08
				c0.12-0.01,0.23-0.03,0.31-0.03c1.72-0.12,2.93,0.08,3.65,0.57c0.71,0.49,1.08,1.12,1.12,1.88c0.02,0.41-0.08,0.82-0.3,1.22
				c-0.22,0.4-0.52,0.74-0.91,1.01c-0.39,0.27-0.95,0.52-1.7,0.76c-0.74,0.24-1.55,0.39-2.41,0.45c-0.93,0.07-1.78,0.04-2.53-0.08
				c-0.76-0.12-1.36-0.36-1.82-0.74c-0.35-0.28-0.54-0.59-0.57-0.93c-0.03-0.34,0.08-0.65,0.33-0.94
				C597.96,27.63,598.64,27.24,599.77,26.78z M603.27,29.83c1.04-0.19,1.83-0.51,2.38-0.98c0.35-0.31,0.52-0.6,0.5-0.87
				c-0.01-0.15-0.05-0.3-0.14-0.44c-0.09-0.14-0.23-0.28-0.45-0.41c-0.21-0.13-0.45-0.21-0.71-0.26c-0.37-0.05-0.85-0.05-1.45-0.01
				c-0.44,0.02-0.88,0.05-1.31,0.07c-1.15,0.08-1.92,0.28-2.29,0.59c-0.37,0.31-0.54,0.69-0.5,1.15c0.02,0.24,0.15,0.47,0.39,0.69
				c0.24,0.22,0.62,0.38,1.14,0.48c0.52,0.1,1.08,0.13,1.67,0.09C602.68,29.91,602.94,29.88,603.27,29.83z M602.15,22.4
				c0.49-0.03,0.88-0.26,1.2-0.68c0.32-0.42,0.45-1.05,0.4-1.89c-0.07-1.11-0.27-1.84-0.61-2.21c-0.34-0.36-0.79-0.52-1.36-0.48
				c-0.07,0-0.27,0.04-0.58,0.09c-0.35,0.09-0.66,0.35-0.91,0.78c-0.26,0.43-0.36,0.99-0.31,1.67c0.01,0.19,0.07,0.56,0.16,1.11
				c0.04,0.24,0.11,0.43,0.21,0.6c0.14,0.26,0.3,0.46,0.45,0.6c0.16,0.14,0.36,0.25,0.61,0.32
				C601.66,22.39,601.91,22.42,602.15,22.4z"/>
			<path class="st0" d="M610.96,19.19c0.17-0.6,0.32-1,0.46-1.2c0.39-0.58,0.82-1.04,1.28-1.38c0.46-0.33,0.88-0.56,1.25-0.67
				c0.49-0.14,0.88-0.22,1.18-0.23c0.7-0.01,1.26,0.03,1.69,0.12c0.43,0.09,0.79,0.23,1.08,0.42c0.42,0.27,0.75,0.54,1,0.81
				c0.25,0.28,0.46,0.6,0.62,0.97c0.16,0.37,0.25,0.83,0.27,1.36c-0.41,0-0.81-0.01-1.22-0.01c-0.34,0-1.08-0.02-2.22-0.06
				c-0.42-0.03-0.72-0.04-0.88-0.04c-0.05,0-0.45,0.01-1.18,0.05c-0.31,0.01-0.63,0.02-0.94,0.02c-0.01,0.1-0.02,0.18-0.02,0.25
				c0.01,0.37,0.07,0.76,0.17,1.16c0.11,0.41,0.26,0.76,0.45,1.06c0.2,0.3,0.44,0.57,0.72,0.78c0.28,0.22,0.57,0.37,0.87,0.46
				c0.21,0.06,0.42,0.12,0.63,0.19c0.56-0.01,0.93-0.03,1.11-0.07c0.35-0.07,0.65-0.17,0.91-0.28c0.26-0.11,0.58-0.3,0.95-0.56
				c0.26,0.18,0.48,0.34,0.65,0.49c-0.63,0.68-1.29,1.17-1.96,1.48c-0.68,0.31-1.43,0.47-2.27,0.49c-0.57,0.01-1.03-0.03-1.39-0.11
				c-0.48-0.11-0.92-0.29-1.32-0.54c-0.4-0.25-0.74-0.55-1.04-0.93c-0.29-0.37-0.52-0.76-0.67-1.16c-0.2-0.52-0.31-0.94-0.32-1.26
				C610.84,20.23,610.87,19.68,610.96,19.19z M617.33,18.59c-0.01-0.39-0.1-0.76-0.26-1.12c-0.16-0.35-0.4-0.63-0.73-0.82
				c-0.33-0.19-0.66-0.29-0.99-0.28c-0.5,0.01-0.94,0.22-1.33,0.65c-0.39,0.42-0.6,0.98-0.63,1.68c0.84-0.02,1.67-0.03,2.51-0.04
				c0.16,0,0.39-0.02,0.68-0.04c0.21-0.02,0.36-0.03,0.45-0.04C617.1,18.59,617.2,18.59,617.33,18.59z"/>
			<path class="st0" d="M630.05,24.68c0.02-0.24,0.04-0.47,0.06-0.71c0.9-0.08,1.48-0.24,1.74-0.47c0.17-0.16,0.31-0.59,0.42-1.29
				c0.1-1.23,0.2-2.47,0.3-3.7c0.11-1.25,0.22-2.51,0.32-3.76c0.02-0.23,0.04-0.37,0.04-0.42c0.04-0.98,0-1.55-0.11-1.7
				c-0.12-0.16-0.59-0.33-1.43-0.5c-0.21-0.05-0.37-0.09-0.49-0.12c-0.01-0.17-0.01-0.32-0.01-0.44c0-0.11,0.01-0.22,0.01-0.32
				c0.28-0.01,0.61-0.01,0.98,0c1.1,0.08,2.2,0.16,3.3,0.25c0.08,0.01,0.18,0.02,0.31,0.04c0.17,0.02,0.35,0.03,0.52,0.05
				c0.12,0.15,0.24,0.34,0.36,0.57c0.25,0.52,0.57,1.29,0.97,2.29c0.04,0.1,0.07,0.19,0.11,0.29c0.51,1.21,1.01,2.42,1.5,3.63
				c0.04,0.09,0.09,0.21,0.16,0.37c0.11,0.25,0.21,0.5,0.3,0.73c0.1,0.23,0.21,0.49,0.32,0.77c0.11,0.28,0.22,0.53,0.31,0.75
				c0.11-0.16,0.22-0.34,0.33-0.53c0.34-0.62,0.66-1.18,0.98-1.69c0.55-0.91,1.32-2.3,2.32-4.17c0.16-0.3,0.42-0.75,0.78-1.35
				c0.36-0.6,0.56-0.92,0.6-0.95c0.07-0.05,0.21-0.07,0.41-0.05c0.08,0.01,0.19,0.01,0.35,0.02c0.39,0.01,0.86,0.04,1.41,0.08
				c0.79,0.07,1.42,0.11,1.9,0.12c0.48,0.01,0.75,0.02,0.81,0.02c0.07,0.01,0.17,0.02,0.27,0.05c0,0.1-0.01,0.17-0.01,0.23
				c-0.02,0.1-0.04,0.21-0.05,0.31c-0.01,0.06-0.02,0.16-0.04,0.28c-0.71,0.02-1.3,0.11-1.76,0.26c-0.32,0.11-0.49,0.27-0.51,0.47
				c-0.01,0.05-0.01,0.1-0.01,0.16c-0.04,1.06-0.08,2.13-0.11,3.19c-0.01,0.29-0.09,1.74-0.24,4.34c-0.04,0.58-0.06,1.32-0.07,2.22
				c0,0.11,0,0.2,0,0.26c-0.01,0.17,0.02,0.28,0.08,0.33c0.06,0.05,0.69,0.32,1.87,0.8c0,0.11-0.01,0.19-0.02,0.25
				c-0.01,0.15-0.04,0.29-0.06,0.43c-0.19-0.02-0.68-0.11-1.45-0.27c-0.77-0.16-1.5-0.27-2.18-0.33c-1.04-0.1-2.05-0.14-3.04-0.14
				c-0.13,0-0.26,0-0.38,0c0.03-0.24,0.05-0.48,0.08-0.72c0.3-0.09,0.7-0.15,1.2-0.18c0.35-0.03,0.58-0.1,0.68-0.22
				c0.1-0.12,0.19-0.49,0.24-1.09c0.02-0.23,0.03-0.43,0.04-0.6c0.03-0.73,0.09-1.74,0.2-3.04c0.04-1.23,0.09-2.45,0.13-3.68
				c0.02-0.52,0.02-0.88,0.01-1.09c-1.09,1.9-2.17,3.81-3.23,5.72c-0.08,0.13-0.19,0.33-0.34,0.58c-0.19,0.33-0.32,0.55-0.39,0.67
				c-0.65,1.24-1.1,2.19-1.37,2.86c-0.07,0.17-0.17,0.39-0.3,0.66c-0.28-0.02-0.55-0.04-0.82-0.06c-0.16-0.54-0.32-1.09-0.48-1.63
				c-0.15-0.43-0.4-1.08-0.78-1.95c-0.22-0.51-0.39-0.92-0.51-1.23c-0.06-0.13-0.1-0.23-0.13-0.29c-0.04-0.09-0.08-0.18-0.12-0.27
				c-0.01-0.04-0.01-0.08-0.03-0.11c-0.48-1.14-0.97-2.29-1.47-3.43c-0.3-0.69-0.61-1.39-0.92-2.08c-0.11,1.64-0.21,3.28-0.31,4.92
				c-0.07,1.06-0.15,2.13-0.22,3.19c-0.03,0.53,0.06,0.91,0.26,1.14c0.19,0.23,0.63,0.45,1.29,0.64c0.17,0.05,0.34,0.1,0.51,0.15
				c-0.01,0.25-0.03,0.51-0.04,0.76c-0.41-0.03-0.86-0.08-1.33-0.16c-0.48-0.08-1.11-0.13-1.9-0.16
				C632,24.66,631.3,24.66,630.05,24.68z"/>
			<path class="st0" d="M661.71,25.64c0.07,0.06,0.15,0.13,0.22,0.19c0.06,0.06,0.09,0.12,0.09,0.19c0,0.02,0,0.04,0,0.05
				c-0.27,0.58-0.55,0.97-0.87,1.16c-0.31,0.19-0.68,0.25-1.09,0.19c-0.42-0.06-0.76-0.23-1.04-0.49c-0.27-0.27-0.49-0.7-0.66-1.3
				c-0.38,0.48-0.87,0.81-1.46,1c-0.59,0.19-1.29,0.23-2.1,0.13c-0.74-0.09-1.27-0.31-1.58-0.65c-0.31-0.34-0.44-0.76-0.39-1.25
				c0.03-0.23,0.11-0.45,0.24-0.67c0.13-0.22,0.33-0.44,0.59-0.64c0.26-0.2,0.67-0.41,1.23-0.62c0.09-0.03,0.37-0.11,0.87-0.25
				c0.95-0.23,1.89-0.45,2.85-0.67c0.06-0.26,0.11-0.52,0.14-0.79c0.13-0.93,0.09-1.58-0.1-1.95c-0.12-0.23-0.36-0.36-0.73-0.41
				c-0.37-0.05-0.71-0.03-1.04,0.06c-0.33,0.09-0.57,0.23-0.74,0.42c-0.12,0.14-0.25,0.41-0.37,0.82c-0.09,0.3-0.16,0.47-0.21,0.51
				c-0.13,0.12-0.34,0.21-0.64,0.28c-0.3,0.07-0.51,0.12-0.61,0.16c-0.42,0.13-0.74,0.18-0.97,0.16c-0.09-0.1-0.13-0.22-0.11-0.37
				c0.04-0.39,0.17-0.72,0.38-0.98c0.31-0.37,0.75-0.71,1.33-1.02c0.58-0.31,1.11-0.51,1.59-0.6c0.66-0.11,1.44-0.11,2.36,0.02
				c0.59,0.08,1.08,0.25,1.47,0.52c0.39,0.26,0.64,0.61,0.75,1.03c0.11,0.42,0.08,1.15-0.07,2.19c-0.09,0.57-0.18,1.13-0.27,1.7
				c-0.05,0.42-0.11,0.83-0.16,1.25c-0.02,0.11-0.03,0.21-0.05,0.32c-0.04,0.29-0.03,0.49,0.03,0.61c0.06,0.12,0.16,0.19,0.29,0.21
				c0.08,0.01,0.15,0,0.21-0.03c0.13-0.15,0.26-0.29,0.4-0.44C661.57,25.67,661.64,25.66,661.71,25.64z M658.51,22.74
				c-0.43,0.07-0.93,0.23-1.48,0.47c-0.56,0.24-0.96,0.5-1.2,0.78c-0.17,0.21-0.28,0.48-0.32,0.81c-0.04,0.29,0.02,0.55,0.19,0.77
				c0.16,0.22,0.36,0.34,0.61,0.37c0.4,0.05,0.76-0.01,1.06-0.19c0.42-0.24,0.67-0.45,0.76-0.62c0.09-0.17,0.19-0.66,0.3-1.48
				C658.47,23.35,658.5,23.04,658.51,22.74z"/>
			<path class="st0" d="M664.26,27.49c0.1-0.06,0.24-0.1,0.39-0.11c0.38-0.02,0.74-0.1,1.1-0.24c0.09-0.15,0.22-0.7,0.38-1.65
				c0.29-1.73,0.45-2.91,0.47-3.53c0-0.11-0.04-0.22-0.13-0.32c-0.17-0.12-0.4-0.24-0.7-0.36c-0.14-0.06-0.22-0.15-0.23-0.27
				c0.01-0.13,0.02-0.26,0.03-0.39c0.55,0.02,1.07-0.07,1.56-0.28c0.48-0.2,0.86-0.43,1.13-0.68c0.14-0.14,0.27-0.24,0.37-0.31
				c0.26,0.04,0.52,0.08,0.77,0.11c0.01,0.16,0.01,0.3-0.01,0.4c-0.01,0.08-0.04,0.17-0.06,0.27c-0.05,0.24-0.09,0.43-0.12,0.59
				c-0.01,0.08-0.06,0.36-0.14,0.85c0.38-0.43,0.66-0.71,0.83-0.85c0.08-0.06,0.3-0.2,0.67-0.4c0.28-0.12,0.58-0.16,0.89-0.1
				c0.39,0.07,0.7,0.26,0.94,0.56c0.24,0.3,0.33,0.61,0.27,0.93c-0.06,0.32-0.22,0.59-0.49,0.8c-0.27,0.22-0.57,0.29-0.93,0.22
				c-0.31-0.06-0.62-0.24-0.91-0.55c-0.18-0.19-0.33-0.29-0.45-0.31c-0.03,0-0.05,0-0.08,0c-0.16,0.02-0.32,0.13-0.48,0.31
				c-0.26,0.31-0.43,0.64-0.49,1.01c-0.01,0.09-0.02,0.19-0.03,0.28c-0.06,0.51-0.25,1.7-0.56,3.56c-0.01,0.17,0.03,0.36,0.11,0.55
				c0.11,0.12,0.23,0.21,0.35,0.27c0.12,0.06,0.34,0.14,0.67,0.23c0.32,0.09,0.51,0.17,0.57,0.24c0.06,0.07,0.08,0.17,0.05,0.3
				c-0.02,0.08-0.05,0.17-0.12,0.29c-0.33-0.06-0.67-0.12-1-0.18c-0.67-0.15-1.34-0.3-2.02-0.45c-0.51-0.09-0.98-0.15-1.41-0.18
				c-0.06-0.01-0.12-0.02-0.18-0.03c-0.05-0.01-0.42-0.05-1.12-0.13c0-0.12,0-0.2,0.01-0.26C664.2,27.68,664.22,27.6,664.26,27.49z"
				/>
			<path class="st0" d="M673.66,29.11c0.14-0.04,0.27-0.05,0.41-0.05c0.13,0,0.23,0.01,0.29,0c0.42,0.04,0.66,0.06,0.73,0.04
				c0.08-0.13,0.16-0.35,0.23-0.65c0.31-1.43,0.63-2.86,0.95-4.3c0.04-0.19,0.08-0.39,0.12-0.58c0.03-0.15,0.07-0.29,0.1-0.44
				c0.2-0.97,0.4-1.95,0.6-2.92c0.14-0.69,0.22-1.2,0.23-1.51c0.01-0.08,0.01-0.19-0.01-0.35c-0.12-0.15-0.25-0.26-0.38-0.33
				c-0.13-0.07-0.42-0.18-0.86-0.32c0.01-0.09,0.02-0.16,0.03-0.21c0.01-0.07,0.04-0.18,0.09-0.32c0.31-0.03,1.16-0.08,2.57-0.13
				c0.39-0.02,0.74-0.05,1.05-0.11c0.15,0.04,0.3,0.08,0.45,0.12c-0.31,1.51-0.63,3.01-0.94,4.52c-0.01,0.03-0.06,0.25-0.17,0.64
				c-0.04,0.14-0.1,0.42-0.19,0.84c-0.12,0.51-0.23,1.01-0.35,1.52c-0.1,0.49-0.21,0.97-0.31,1.46c0.4-0.13,1.25-0.42,2.53-0.88
				c0.44-0.16,0.95-0.36,1.52-0.62c0.24-0.1,0.41-0.19,0.53-0.26c-0.11-0.08-0.21-0.14-0.31-0.19c-0.26-0.13-0.57-0.3-0.92-0.54
				c0.01-0.09,0.03-0.17,0.04-0.21c0.01-0.07,0.05-0.17,0.1-0.3c0.27,0.06,0.54,0.11,0.81,0.17c0.06,0.02,0.25,0.07,0.55,0.15
				c0.3,0.09,0.61,0.17,0.92,0.24c0.25,0.06,0.61,0.13,1.08,0.21c0.47,0.08,0.75,0.13,0.86,0.16c0.12,0.03,0.29,0.08,0.52,0.15
				c-0.01,0.08-0.02,0.13-0.03,0.16c-0.02,0.07-0.05,0.16-0.11,0.27c-0.31,0.02-0.61,0.03-0.92,0.05c-0.5,0.02-0.89,0.06-1.16,0.14
				c-0.67,0.18-1.83,0.55-3.45,1.13c0.13,0.21,0.28,0.42,0.42,0.63c0.07,0.1,0.15,0.21,0.22,0.31c0.21,0.31,0.42,0.62,0.62,0.93
				c0.45,0.69,0.9,1.38,1.35,2.07c0.26,0.4,0.51,0.79,0.77,1.19c0.13,0.13,0.38,0.35,0.77,0.64c-0.04,0.19-0.07,0.31-0.07,0.34
				c-0.01,0.06-0.04,0.14-0.07,0.24c-0.08-0.02-0.3-0.09-0.67-0.22c-0.21-0.08-0.4-0.14-0.56-0.18c-1.46-0.35-2.71-0.62-3.75-0.81
				c0.02-0.1,0.03-0.18,0.03-0.24c0.01-0.05,0.02-0.11,0.02-0.16c0.01-0.05,0.04-0.12,0.1-0.22c0.19-0.02,0.43-0.01,0.74,0.04
				c0.12,0.02,0.25,0.04,0.4,0.05c-0.06-0.21-0.16-0.41-0.28-0.6c-0.71-1.15-1.43-2.29-2.16-3.43c-0.22,0.06-0.43,0.12-0.65,0.18
				c-0.15,0.71-0.3,1.42-0.45,2.13c-0.01,0.06-0.03,0.17-0.05,0.34c-0.02,0.13-0.05,0.25-0.07,0.38c0.12,0.12,0.22,0.21,0.29,0.25
				c0.11,0.07,0.33,0.15,0.66,0.26c0.09,0.03,0.17,0.06,0.25,0.09c-0.02,0.09-0.04,0.18-0.06,0.26c-0.01,0.06-0.01,0.13-0.02,0.19
				c-0.01,0.04-0.03,0.09-0.07,0.16c-0.03,0.01-0.05,0.01-0.08,0.02c-0.64-0.17-1.15-0.3-1.53-0.41c-0.2-0.06-0.36-0.1-0.48-0.13
				c-0.06-0.01-0.22-0.04-0.47-0.09c-0.2-0.04-0.4-0.08-0.6-0.13c-0.31-0.04-0.62-0.08-0.93-0.11c-0.09-0.02-0.18-0.04-0.27-0.06
				c-0.21-0.03-0.42-0.07-0.63-0.1c-0.01-0.12,0-0.23,0.02-0.33C673.61,29.32,673.63,29.23,673.66,29.11z"/>
			<path class="st0" d="M688.32,27.37c0.33-0.53,0.59-0.86,0.78-1.02c0.54-0.45,1.09-0.77,1.62-0.96c0.54-0.19,1.01-0.29,1.4-0.29
				c0.51,0,0.91,0.04,1.21,0.12c0.68,0.18,1.21,0.38,1.6,0.59c0.39,0.21,0.7,0.45,0.93,0.71c0.33,0.37,0.58,0.73,0.75,1.06
				c0.17,0.34,0.28,0.71,0.33,1.11c0.05,0.4,0.01,0.86-0.13,1.38c-0.39-0.12-0.78-0.24-1.18-0.36c-0.33-0.09-1.04-0.32-2.13-0.69
				c-0.4-0.15-0.68-0.24-0.84-0.28c-0.05-0.01-0.44-0.11-1.16-0.29c-0.31-0.08-0.61-0.16-0.92-0.24c-0.04,0.09-0.07,0.17-0.08,0.24
				c-0.09,0.36-0.14,0.74-0.16,1.16c-0.01,0.42,0.04,0.8,0.14,1.15c0.1,0.35,0.26,0.66,0.48,0.95c0.21,0.29,0.45,0.52,0.71,0.69
				c0.19,0.12,0.37,0.24,0.56,0.36c0.54,0.15,0.9,0.23,1.1,0.25c0.35,0.03,0.68,0.02,0.96-0.01c0.29-0.03,0.65-0.12,1.08-0.26
				c0.2,0.25,0.37,0.46,0.5,0.65c-0.8,0.47-1.57,0.76-2.31,0.87c-0.74,0.11-1.52,0.05-2.33-0.17c-0.55-0.15-0.99-0.32-1.31-0.5
				c-0.44-0.24-0.81-0.54-1.13-0.89c-0.31-0.35-0.56-0.74-0.74-1.18c-0.18-0.44-0.29-0.87-0.32-1.3c-0.05-0.56-0.03-0.99,0.05-1.3
				C687.92,28.33,688.1,27.82,688.32,27.37z M694.66,28.59c0.1-0.38,0.12-0.76,0.06-1.14c-0.06-0.39-0.22-0.72-0.48-0.99
				c-0.26-0.28-0.56-0.46-0.88-0.55c-0.48-0.13-0.97-0.05-1.46,0.24c-0.49,0.29-0.86,0.77-1.08,1.44c0.81,0.22,1.63,0.44,2.44,0.67
				c0.16,0.04,0.38,0.09,0.67,0.15c0.21,0.04,0.36,0.07,0.45,0.09C694.44,28.52,694.53,28.55,694.66,28.59z"/>
			<path class="st0" d="M700.72,28.34c0.94-0.08,1.65-0.22,2.13-0.42c0.47-0.2,1.04-0.59,1.69-1.17c0.2,0.06,0.4,0.13,0.6,0.19
				c0.01,0.19-0.01,0.38-0.08,0.58c-0.11,0.34-0.2,0.61-0.26,0.8c-0.07,0.19-0.14,0.38-0.22,0.58c-0.01,0.03-0.03,0.11-0.06,0.23
				c0.08,0.03,0.16,0.06,0.24,0.09c0.03,0.01,0.38,0.1,1.02,0.28c0.05,0.02,0.32,0.09,0.81,0.24c-0.02,0.19-0.04,0.35-0.09,0.49
				c-0.05,0.15-0.13,0.32-0.25,0.51c-0.25-0.04-0.43-0.07-0.55-0.11c-0.06-0.02-0.17-0.07-0.33-0.15c-0.18-0.06-0.37-0.12-0.55-0.18
				c-0.06-0.02-0.13-0.05-0.19-0.07c-0.17-0.04-0.35-0.09-0.52-0.13c-0.41,1.26-0.81,2.53-1.22,3.79c-0.24,0.73-0.37,1.2-0.39,1.39
				c-0.02,0.19,0.01,0.39,0.08,0.6c0.14,0.12,0.3,0.22,0.5,0.28c0.19,0.06,0.33,0.09,0.43,0.08c0.1,0,0.29-0.05,0.55-0.14
				c0.05-0.02,0.13-0.05,0.24-0.07c0.13,0.18,0.22,0.35,0.28,0.51c0,0.04,0,0.09,0,0.13c-0.36,0.28-0.79,0.46-1.3,0.53
				c-0.51,0.07-1.01,0.02-1.51-0.13c-0.64-0.2-1.1-0.56-1.39-1.07c-0.28-0.52-0.3-1.18-0.05-2.01c0.19-0.58,0.38-1.16,0.58-1.74
				c0.29-0.95,0.58-1.89,0.87-2.84c-0.11-0.04-0.22-0.08-0.33-0.12c-0.26-0.07-0.52-0.14-0.78-0.21c-0.04-0.03-0.08-0.06-0.12-0.09
				c-0.03-0.07-0.03-0.13-0.01-0.19C700.58,28.73,700.63,28.59,700.72,28.34z"/>
		</g>
	</g>
	<g>
		<g>
			<path d="M25.73,121.47v-6.2h18.69v6.2H25.73z M25.73,130.59v-6.2h18.69v6.2H25.73z M24.18,110.34c2.19-2.01,4.29-4.1,6.11-6.2
				h11.95c0.55,1.46,1.64,3.28,3.28,5.29c-0.82,0.73-1.46,1.82-1.92,2.83H27.1C26.64,111.53,25.55,110.89,24.18,110.34z
				 M22.63,84.35V79.8h24.62v4.56H22.63z M22.63,91.83v-4.56h24.62v4.56H22.63z M6.94,67.3l1.92,3.1c0.36,0.55,0.64,0.91,1.19,0.82
				c1.73-0.27,4.29-0.55,6.57-0.55h8.66v3.47c0,1.19,0.36,1.55,2.19,1.55c3.37,0,4.38-0.55,4.38-2.01v-3.01h6.75v3.56
				c0,1.19,0.36,1.55,2.19,1.55c3.37,0,4.38-0.55,4.38-2.01v-3.1h16.78c0.64,0,1-0.27,1-0.82c0-2.19-3.56-6.29-5.84-6.29
				c-1.46,0-3.01,2.46-3.56,4.1h-8.39v-3.01c1.73-0.27,2.46-0.82,2.46-1.37c0-0.91-3.1-2.28-7.02-2.55
				c-2.19-0.18-2.46,0.36-2.28,1.19c0.27,1.19,0.27,2.46,0.27,3.83v1.92h-6.75v-3.1c1.73-0.27,2.46-0.82,2.46-1.37
				c0-0.91-3.1-2.28-7.02-2.55c-2.19-0.18-2.46,0.36-2.28,1.19c0.27,1.19,0.27,2.46,0.27,3.83v2.01H13.14
				c-2.74,0-4.29-0.36-5.75-0.91L6.94,67.3z M5.76,104.51c1.46-0.27,3.19-0.36,6.11-0.36H21.9c-5.65,6.75-13.13,13.68-20.52,17.96
				l1.28,1.64c5.38-2.01,10.85-5.11,15.96-8.85c0,0.55,0,1.19,0,1.91v23.07c0,0.91,0.82,1.19,2.37,1.19c3.01,0,4.74-0.64,4.74-2.37
				v-5.11h18.69v5.84c0,1.28,0.91,1.55,2.83,1.55c3.19,0,4.74-0.64,4.74-2.74l-0.46-21.52l0.91-0.27c2.28,1.82,4.74,3.47,7.2,4.56
				c2.19,1,2.92,0.73,3.47-0.27c1.19-2.1,2.55-4.19,4.83-4.56l0.46-1.19c-9.67-2.1-17.96-6.75-22.16-10.85h20.34
				c0.91,0,1.09-0.27,1.09-1c0-1.82-4.1-6.57-6.47-6.57c-1.73,0-3.19,2.83-3.74,4.47H32.84c0.64-0.82,1.28-1.73,1.82-2.55
				c1.64,0.09,2.83-0.18,2.83-0.82c0-0.64-1.82-1.92-4.19-2.83h13.95v2.28c0,1.28,0.82,1.55,2.55,1.55c3.19,0,4.83-0.82,4.74-2.74
				l-0.36-15.05c1.46-0.46,2.01-0.91,2.01-1.73c0-1.37-3.47-6.02-6.66-6.02c-1.37,0-2.64,1.92-3.28,3.65H24.09
				c-0.55-1.28-3.1-2.55-6.66-2.92c-2.1-0.27-2.37,0.27-2.28,1.09c0.27,1.37,0.36,2.92,0.36,4.92v17.96c0,0.91,0.73,1.19,2.19,1.19
				c2.92,0,4.92-0.64,4.92-2.37v-1.82h5.93c-1.09,1.92-2.55,4.01-4.19,6.2H7.58c-1.73,0-3.28-0.36-4.65-0.91l-0.64,0.46
				c0.55,0.82,1.55,2.55,2.1,3.28C4.85,104.51,5.03,104.6,5.76,104.51z"/>
			<path d="M122.85,88.28c0.27,1,0.46,2.64,0.46,4.01c0.09,3.56-0.09,33.38,0,40.12c0,5.38,3.37,6.02,9.76,6.02
				c8.94,0,12.22-2.74,12.22-5.47c0-1.09-1.19-1.91-2.19-2.46c-0.55-0.27-0.73-0.46-0.82-1.73c-0.18-2.37-0.27-8.48-0.27-12.49
				h-2.01c-0.36,4.19-1.09,9.03-1.73,12.49c-0.27,1.73-1.37,2.64-4.19,2.74c-2.83,0.09-3.83-0.46-3.83-1.73l-0.09-38.94
				c1.64-0.27,2.46-0.73,2.46-1.37c0-0.91-3.56-2.46-7.39-2.46C123.12,87,122.66,87.55,122.85,88.28z M100.51,77.24
				c0.82,2.1,3.56,4.29,6.2,3.37c2.64-0.91,3.65-4.56,3.74-8.48h23.44l-2.46,8.12l1.64,0.82l7.39-7.93c1.92-0.27,3.1-0.82,3.1-1.73
				c0-1.73-4.56-6.75-7.02-6.75c-1.46,0-3.19,2.74-3.74,4.47h-22.43c-0.18-2.46-0.55-4.83-1.09-6.47l-1.92,0.09
				c0.27,3.92-1.82,10.3-6.2,12.31C100.05,75.6,100.05,76.24,100.51,77.24z M95.03,139.53l1.19,1.28
				c10.76-5.11,18.88-15.23,20.43-28.63c0.91-8.02,1.19-19.24,1.19-21.07c1.64-0.27,2.55-0.82,2.55-1.46c0-0.82-3.65-2.37-7.66-2.37
				c-2.19,0-2.64,0.55-2.46,1.37c0.18,0.91,0.36,2.01,0.46,3.56c0.09,3.01-0.09,10.76-0.73,16.87
				C108.99,119.55,106.43,129.68,95.03,139.53z M80.63,83.17c2.83,2.01,5.56,6.2,6.29,10.85c0.36,2.1,1.82,2.1,2.92,1.73
				c1.82-0.82,3.56-2.74,3.83-5.38c0.18-2.1-1.09-3.37-3.47-4.74c-2.74-1.64-6.38-2.83-8.85-3.47L80.63,83.17z M80.44,114.36
				c0.73,0.27,4.19,1.91,5.56,2.74c0.82,0.46,1.09,1.09,1.09,2.37c0,6.29-2.28,11.22-1.92,15.05c0.18,2.1,1.55,4.01,4.1,3.74
				c3.47-0.36,6.02-4.01,6.02-8.02c0-3.83-1-7.11-1.82-9.67c-0.46-1.46-0.55-2.64-0.18-4.19c1.46-6.84,5.29-21.98,7.39-30.91
				l-2.28-0.64c-2.28,7.75-7.57,24.17-9.3,28.36c-0.36,0.91-1,1.46-2.01,1.19c-1.46-0.46-3.56-0.91-6.11-1.64L80.44,114.36z
				 M96.04,75.87c1.37-0.55,3.74-2.37,3.74-5.56c0-2.1-1.46-3.56-3.47-4.83c-2.64-1.55-5.56-2.64-8.21-3.28l-0.55,1
				c2.92,2.37,4.65,6.11,5.38,10.85C93.21,76.15,94.85,76.33,96.04,75.87z"/>
			<path d="M202.37,66.12c2.28,1.82,4.38,5.84,5.11,10.21c0.36,2.1,1.64,2.1,2.83,1.64c1.64-0.73,3.37-2.64,3.65-5.2
				c0.18-1.55-0.27-2.64-1.46-3.47c-2.64-1.91-7.02-3.47-9.39-4.19L202.37,66.12z M167.26,70.86c0.46,0.82,1.37,2.1,1.82,2.74
				c0.36,0.46,0.64,0.64,1.09,0.64c2.37,0,4.19-0.09,7.48-0.09h12.49c0.73,0,1.09-0.27,1.09-0.91c0-1.73-2.74-6.02-5.29-6.02
				c-1.28,0-2.92,2.55-3.28,4.01h-9.39c-2.64,0-4.19-0.36-5.56-0.91L167.26,70.86z M158.14,132.5c1,3.56,4.29,8.48,5.75,8.48
				c0.73,0,1.09-0.82,1.09-2.83c11.67-4.83,24.8-10.3,33.74-14.23l-0.64-2.37c-3.56,1-7.93,2.19-12.68,3.47v-18.69h8.48
				c0.73,0,1.09-0.18,1.09-0.82c0-1.37-2.55-6.38-5.11-6.38c-1.64,0-3.1,3.01-3.47,4.29h-1V91.74c2.01-0.46,3.01-0.91,3.01-1.46
				c0-1.19-3.92-2.83-7.93-2.92c-2.1-0.09-2.46,0.46-2.28,1.37c0.27,1.37,0.46,3.37,0.46,5.2v32.92c-1.37,0.27-2.64,0.64-4.01,1
				V100.5c1.46-0.18,2.37-0.64,2.37-1.28c0-0.91-3.1-2.37-7.3-2.46c-1.92,0-2.28,0.46-2.1,1.28c0.27,1.19,0.46,2.92,0.46,4.83v26.54
				c-3.1,0.73-6.11,1.37-9.03,2.01C158.14,131.59,157.96,131.87,158.14,132.5z M212.67,139.34c2.64,1.73,5.11,2.01,6.66,1.64
				c1.82-0.27,3.01-1.64,3.1-3.28c0.09-1.28-0.27-2.55-1.55-3.65c-0.73-0.64-0.73-1-0.64-2.01c0.55-5.38,1.46-12.86,2.1-18.06
				l-1.55-0.36c-1.37,4.65-3.65,12.22-5.11,15.96c-0.27,0.82-0.73,1-1.37,0.36c-3.1-3.01-8.57-11.22-10.85-25.81
				c-0.73-4.83-1.37-12.58-1.73-20.15h18.42c0.82,0,1.19-0.27,1.19-0.91c0-2.19-3.74-6.75-5.93-6.75c-1.55,0-3.1,3.19-3.65,4.65
				h-10.21c-0.27-7.02-0.36-13.41-0.27-16.6c1.92-0.27,2.83-0.82,2.83-1.46c0-1.19-4.01-2.55-8.12-2.55c-1.55,0-1.91,0.36-1.91,1.28
				c0,6.29,0.09,12.86,0.36,19.33h-28c-2.64,0-4.19-0.36-5.65-0.91l-0.46,0.55l1.92,3.1c0.46,0.73,0.73,0.91,1.37,0.82
				c1.37-0.27,3.65-0.55,5.65-0.55h25.35c0.36,8.57,1.09,16.87,2.28,24.07C198.72,118.73,204.1,133.87,212.67,139.34z"/>
			<path d="M286.08,111.07c3.28,2.83,6.38,9.03,7.11,12.95c0.27,1.37,1.19,1.82,2.37,1.46c2.1-0.64,3.92-3.19,3.92-5.47
				c0-1.19-0.18-1.82-1.09-2.92c-2.19-2.46-7.39-5.56-11.4-7.11L286.08,111.07z M281.79,91.92v-8.21h3.83v8.21H281.79z
				 M273.22,91.92v-8.21h3.83v8.21H273.22z M270.12,106.88c2.83,1.28,6.11,5.38,7.11,7.93c0.55,1.37,1.55,1.64,2.64,1.09
				c1.73-0.91,2.74-2.83,2.74-4.56c0-1.09-0.36-1.91-1.73-2.74c-2.55-1.55-7.39-2.55-10.21-2.55L270.12,106.88z M264.65,91.92v-8.21
				h3.83v8.21H264.65z M264.1,111.89c0.18,0.82,0.27,2.01,0.36,3.19c0.18,3.47,0.09,15.5,0,18.79c-0.09,3.28,1.73,4.56,5.56,4.92
				c4.38,0.46,13.04,0.46,17.14-1.09c2.28-0.82,3.56-2.19,3.56-3.65c0-1.09-1.19-1.91-2.19-2.46c-0.55-0.27-0.73-0.46-0.82-1.73
				c-0.18-2.46-0.27-8.39-0.27-12.58h-2.01c-0.36,4.38-1.09,9.03-1.73,12.58c-0.18,0.82-0.36,1.55-1.28,1.91
				c-1.91,0.82-7.02,1-9.85,0.36c-1-0.18-1.28-0.73-1.28-1.28l-0.09-16.41c1.46-0.27,2.37-0.73,2.37-1.37
				c0-0.91-3.28-2.46-7.48-2.46C264.28,110.62,263.92,111.16,264.1,111.89z M252.52,71.5c0.55,0.82,1.55,2.28,2.1,3.01
				c0.46,0.64,0.64,0.73,1.37,0.64c1.28-0.09,2.74-0.18,5.2-0.18h10.3v5.74h-5.2c-0.55-1.09-2.92-2.28-6.29-2.64
				c-1.92-0.18-2.46,0.36-2.28,1c0.36,1.37,0.55,2.83,0.55,4.38l-0.09,13.86c0,0.91,0.73,1.19,2.19,1.19c2.55,0,4.29-0.64,4.29-2.37
				v-1.19h20.97v1.64c0,1.28,0.82,1.55,2.46,1.55h0.55c-0.82,0.64-1.55,1.82-1.92,2.74h-25.08c-2.64,0-4.19-0.36-5.56-0.91
				l-0.46,0.55c0.46,0.82,1.37,2.19,1.82,2.83c0.36,0.46,0.64,0.64,1.09,0.64c1.19,0,2.64-0.09,4.74-0.09h31.28
				c0.73,0,0.82-0.27,0.82-0.82c0-1.55-2.37-4.56-4.47-5.29c0.82-0.27,1.19-0.82,1.19-1.64l-0.09-11.13
				c1.46-0.36,2.01-0.82,2.01-1.55c0-1.46-3.65-6.02-6.11-6.02c-1.28,0-2.46,1.64-3.1,3.28h-6.02v-5.74h18.69
				c0.91,0,1.09-0.27,1.09-0.91c0-1.82-3.65-6.57-6.02-6.57c-1.73,0-3.37,2.83-3.74,4.47h-10.03V65.3c2.01-0.36,2.92-0.91,2.92-1.55
				c0-0.91-3.47-2.55-8.02-2.83c-2.28-0.18-2.92,0.36-2.74,1.28c0.36,1.92,0.55,3.65,0.55,6.11v3.65h-13.77
				c-1.73,0-3.19-0.36-4.56-0.91L252.52,71.5z M252.52,126.3c0.55,2.19,2.55,4.29,4.83,3.74c5.11-1.37,5.75-11.85,4.47-17.14h-1.28
				c0,4.74-2.83,8.75-6.93,11.03C252.61,124.48,252.25,125.21,252.52,126.3z M236.65,83.81l1.73,1.19
				c4.47-3.19,13.13-12.49,16.87-18.6c1.46,0.27,2.74,0,2.74-0.64c0-1-3.37-3.28-7.3-4.56c-1.55-0.55-2.01-0.36-2.28,0.73
				C246.68,68.12,241.21,78.34,236.65,83.81z M234.37,105.88l1.37,1.19c2.1-1.37,5.2-4.1,8.3-7.48c0.09,1.64,0.09,3.37,0.09,5.11
				v26.17c0,3.28-0.09,6.47-0.09,8.75c0,1.19,0.73,1.46,2.74,1.46c3.47,0,4.29-1,4.29-2.46V98.4c2.19-0.27,2.83-0.91,2.83-1.46
				c0-0.73-2.46-1.92-5.56-2.46c2.55-3.19,4.92-6.75,6.66-10.12c1.46,0.18,2.55,0.09,2.55-0.64c0-0.91-3.56-2.83-6.84-4.01
				c-1.64-0.64-2.1-0.36-2.37,0.55C245.95,88.09,239.21,100.04,234.37,105.88z"/>
			<path d="M354.29,101.41h0.18h11.22c-1.28,5.29-3.28,10.3-5.75,15.05C357.21,111.53,355.29,106.33,354.29,101.41z M346.99,91.38
				l1.28,0.91c5.47-4.38,8.57-10.94,9.12-22.62h5.11c0,3.74,0,14.13-0.09,18.79c-0.09,2.74,2.92,3.47,9.76,2.83
				c4.38-0.36,6.38-2.74,5.93-4.29c-0.18-0.73-0.64-1.09-1.55-1.46c-0.46-0.18-0.64-0.46-0.64-1.19c-0.18-2.92-0.09-6.38,0-9.76
				l-1.92-0.09c-0.27,3.19-0.82,6.47-1.55,9.3c-0.36,1.37-0.64,1.82-1.82,2.01c-1.55,0.09-2.37-0.09-2.37-1.28V70.77
				c1.55-0.27,2.19-0.73,2.19-1.46c0-2.19-3.74-6.11-5.56-6.11c-1.37,0-2.64,2.1-3.19,3.56h-3.19c-0.55-1.37-2.92-2.46-5.93-2.83
				c-1.64-0.18-2.01,0.27-1.82,0.91c0.27,1.09,0.36,2.74,0.36,5.02C351.01,75.78,350.46,84.9,346.99,91.38z M339.7,139.53l1.09,1.55
				c7.02-2.92,13.41-7.66,18.6-13.59c3.37,6.2,7.11,10.94,10.49,13.04c1.82,1.09,2.74,0.73,3.28-0.36c1.19-2.74,2.64-4.47,5.2-4.65
				l0.55-1.19c-5.93-2.1-11.22-6.66-15.32-12.22c4.1-5.93,7.11-12.68,8.75-19.79c1.55-0.27,2.01-0.64,2.01-1.28
				c0-2.01-4.01-6.29-6.38-6.29c-1.46,0-2.46,2.01-3.01,3.65h-13.13c-2.64,0-3.92-0.46-5.38-1l-0.64,0.64
				c0.55,0.82,1.37,2.28,1.82,3.01c0.36,0.55,0.64,0.73,1.09,0.64c0.64-0.09,1.28-0.09,2.01-0.18c1.19,7.11,3.37,14.13,6.02,20.24
				C351.83,129.22,345.72,135.42,339.7,139.53z M337.42,116.55c2.64,3.37,4.01,9.39,4.56,13.31c0.18,1.37,1.28,1.64,2.46,1.28
				c2.37-0.73,4.01-3.01,4.38-5.02c0.27-1.37-0.09-2.37-0.73-3.37c-1.46-2.28-5.56-5.29-9.58-7.11L337.42,116.55z M333.32,110.71
				V97.3h2.64v13.41H333.32z M325.47,78.52c0.09-3.1,0.09-6.11,0.09-8.66h15.5v8.66H325.47z M324.29,110.71l0.18-1.55
				c0.27-2.64,0.55-6.93,0.73-11.85h2.64v13.41H324.29z M318,139.71l1.28,1.19c5.84-3.47,12.4-12.77,14.86-19.88
				c1.46,0,2.55-0.46,2.55-1c0-1.09-3.37-2.55-6.84-3.37c-2.01-0.46-2.37-0.27-2.55,0.73C326.11,123.93,323.28,132.78,318,139.71z
				 M318.18,105.97c-0.55,10.12-1.55,20.7-6.11,30.73l1.73,1c5.47-6.2,8.39-13.5,10.03-24.07h26.26c0.55,0,0.82-0.18,0.82-0.64
				c0-1.82-3.37-6.29-5.56-6.29c-1.37,0-2.74,2.92-3.01,4.01h-0.91V97.3h7.02c0.55,0,0.82-0.18,0.82-0.64c0-1.73-3.1-5.74-4.74-5.74
				c-1.28,0-2.19,2.37-2.37,3.47h-0.73v-6.66c1.28-0.27,2.01-0.64,2.01-1.19c0-0.64-2.1-2.01-5.84-2.37
				c-1.82-0.18-2.28,0.18-2.1,0.91c0.27,1.19,0.46,2.55,0.46,4.38v4.92h-2.64v-6.75c1.28-0.27,2.01-0.64,2.01-1.19
				c0-0.73-2.1-2.01-5.84-2.28c-1.82-0.09-2.28,0.18-2.1,0.91c0.27,1.19,0.46,2.55,0.46,4.38v4.92h-2.55
				c0.09-4.1,0.18-8.57,0.18-12.86h15.59v1.19c0,1.28,0.64,1.64,2.46,1.64c2.92,0,4.38-0.55,4.38-1.73l-0.18-11.4
				c1.37-0.27,2.1-0.82,2.1-1.46c0-1.92-4.19-6.57-6.47-6.57c-1.55,0-2.83,2.55-3.19,3.65h-13.5c-0.73-1.37-3.19-2.55-6.11-2.92
				c-2.28-0.27-2.83,0.27-2.64,1c0.36,1.46,0.64,3.56,0.73,6.2C318.73,75.78,318.63,98.22,318.18,105.97z"/>
		</g>
		<g>
			<path d="M88.39,169.04c-1.31-0.01-1.98-0.03-2-0.06c-0.03-0.03-0.04-0.09-0.04-0.2c0-0.11,0.01-0.17,0.04-0.2
				c0.01-0.04,0.18-0.07,0.52-0.11c0.02,0,0.05,0,0.08-0.01c0.35-0.04,0.55-0.09,0.62-0.17c0.06-0.08,0.1-0.32,0.12-0.73
				c0-0.06,0-0.11,0-0.14c0.02-0.84,0.02-2.31,0.01-4.42c-0.01-2.1-0.03-3.19-0.06-3.25c-0.05-0.1-0.13-0.17-0.25-0.21
				c-0.12-0.04-0.39-0.07-0.79-0.11c-0.13-0.02-0.22-0.08-0.29-0.19c-0.06-0.11-0.06-0.2,0.03-0.29c0.03-0.02,0.81-0.03,2.36-0.03
				c1.54,0,2.42,0.01,2.65,0.03c1.36,0.13,2.43,0.63,3.19,1.52c0.76,0.88,1.14,2.05,1.13,3.49c0,1.49-0.42,2.68-1.26,3.57
				c-0.84,0.89-2.02,1.38-3.53,1.47C90.54,169.03,89.7,169.04,88.39,169.04z M91.03,168.41c0.98-0.15,1.72-0.59,2.22-1.34
				c0.5-0.75,0.75-1.78,0.75-3.1c0-2.16-0.66-3.55-1.98-4.17c-0.4-0.19-0.92-0.3-1.56-0.34c-0.64-0.03-0.99,0.04-1.08,0.21
				c-0.04,0.07-0.06,1.5-0.06,4.29c0,2.79,0.02,4.22,0.06,4.29c0.05,0.1,0.24,0.17,0.57,0.2C90.28,168.49,90.64,168.48,91.03,168.41
				z"/>
			<path d="M101.15,169.21c-1.04-0.12-1.85-0.59-2.41-1.4c-0.57-0.81-0.77-1.81-0.62-2.98c0.14-1.01,0.57-1.82,1.29-2.41
				c0.65-0.53,1.4-0.79,2.25-0.79c0.85,0,1.55,0.28,2.08,0.82c0.59,0.6,0.85,1.41,0.75,2.43c0,0.04,0,0.09,0,0.15
				c-0.01,0.12-0.03,0.2-0.07,0.23c-0.05,0.04-0.19,0.06-0.41,0.08c-0.16,0.01-0.52,0.01-1.1,0.01c-0.32,0-0.58,0-0.78,0
				c-0.09,0-0.22,0-0.4,0c-1,0.01-1.58,0.02-1.75,0.03c-0.17,0.01-0.27,0.06-0.3,0.14l-0.01,0.03c-0.06,0.15-0.05,0.41,0.05,0.8
				c0.1,0.39,0.23,0.71,0.38,0.95c0.41,0.65,1.02,1,1.81,1.06c0.8,0.05,1.47-0.21,2.03-0.78c0.13-0.13,0.21-0.2,0.24-0.22
				c0.03-0.02,0.08,0,0.14,0.04c0.06,0.05,0.09,0.09,0.08,0.13c-0.01,0.04-0.06,0.13-0.15,0.28c-0.33,0.5-0.77,0.88-1.32,1.12
				C102.41,169.2,101.81,169.28,101.15,169.21z M102.73,164.75c0.3-0.16,0.43-0.5,0.37-1.04c-0.05-0.46-0.23-0.83-0.52-1.12
				c-0.28-0.27-0.61-0.42-0.99-0.44c-0.39-0.02-0.75,0.12-1.08,0.41c-0.31,0.28-0.55,0.7-0.72,1.26c-0.17,0.55-0.15,0.88,0.05,0.98
				c0.09,0.05,0.57,0.06,1.45,0.05C102.15,164.83,102.63,164.8,102.73,164.75z"/>
			<path d="M108.98,169.03c-0.15,0-0.26,0-0.34,0c-1.29,0-1.95-0.01-1.98-0.04c-0.03-0.03-0.04-0.08-0.04-0.17
				c0-0.09,0.01-0.14,0.04-0.17c0.01-0.04,0.16-0.07,0.44-0.11c0.03,0,0.06,0,0.11-0.01c0.24-0.03,0.38-0.09,0.44-0.18
				c0.09-0.12,0.15-0.4,0.16-0.85c0.02-0.33,0.02-1.09,0.01-2.29c0-0.25,0-0.44,0-0.57s0-0.31,0-0.54c0-0.62-0.01-1.02-0.03-1.18
				c-0.02-0.23-0.06-0.37-0.14-0.44c-0.06-0.04-0.18-0.06-0.37-0.06c-0.07,0-0.13,0-0.18,0c-0.02,0-0.05,0-0.08,0
				c-0.22-0.01-0.35-0.02-0.38-0.04c-0.04-0.02-0.06-0.08-0.06-0.2c0-0.11,0.02-0.18,0.06-0.21c0.04-0.02,0.16-0.05,0.38-0.08
				c0.37-0.05,0.6-0.1,0.69-0.16c0.08-0.06,0.14-0.24,0.18-0.52c0.26-1.88,1.08-3.02,2.48-3.4c0.39-0.1,0.79-0.11,1.18-0.04
				c0.37,0.07,0.66,0.2,0.86,0.38c0.2,0.2,0.25,0.42,0.14,0.66c-0.15,0.31-0.4,0.46-0.76,0.45c-0.36-0.01-0.72-0.19-1.06-0.53
				c-0.22-0.21-0.38-0.32-0.47-0.34c-0.1-0.01-0.22,0.06-0.36,0.23c-0.43,0.48-0.64,1.32-0.64,2.54c0,0.01,0,0.02,0,0.04
				c0,0.23,0.01,0.38,0.04,0.44c0.04,0.08,0.13,0.13,0.27,0.15c0.1,0.02,0.34,0.03,0.73,0.03c0.03,0,0.05,0,0.07,0
				c0.05,0,0.11,0,0.21,0c0.36,0,0.56,0.01,0.62,0.03c0.06,0.02,0.09,0.09,0.09,0.21c0,0.03,0,0.05,0,0.06c0,0.01,0,0.03,0,0.06
				c0,0.12-0.03,0.19-0.1,0.21c-0.06,0.02-0.29,0.03-0.69,0.03c-0.06,0-0.1,0-0.12,0c-0.09,0-0.21,0-0.36,0
				c-0.27-0.01-0.45,0.01-0.54,0.06c-0.1,0.07-0.16,0.25-0.19,0.54c-0.02,0.2-0.02,0.68-0.01,1.44c0,0.41,0,0.74,0,0.99
				c0,0.2,0,0.48,0,0.84c0,0.81,0.01,1.32,0.03,1.54c0.02,0.3,0.07,0.49,0.16,0.58c0.06,0.06,0.2,0.11,0.43,0.12
				c0.1,0.01,0.18,0.02,0.25,0.03c0.26,0.04,0.4,0.07,0.45,0.09c0.04,0.02,0.06,0.08,0.06,0.18c0,0.01,0,0.02,0,0.04
				c0,0.06-0.02,0.11-0.06,0.12c-0.05,0.03-0.2,0.05-0.44,0.06C110,169.03,109.6,169.03,108.98,169.03z"/>
			<path d="M116.05,169.21c-1.04-0.12-1.85-0.59-2.41-1.4c-0.57-0.81-0.77-1.81-0.62-2.98c0.14-1.01,0.57-1.82,1.29-2.41
				c0.65-0.53,1.4-0.79,2.25-0.79c0.85,0,1.55,0.28,2.08,0.82c0.59,0.6,0.85,1.41,0.75,2.43c0,0.04,0,0.09,0,0.15
				c-0.01,0.12-0.03,0.2-0.07,0.23c-0.05,0.04-0.19,0.06-0.41,0.08c-0.16,0.01-0.52,0.01-1.1,0.01c-0.32,0-0.58,0-0.78,0
				c-0.09,0-0.22,0-0.4,0c-1,0.01-1.58,0.02-1.75,0.03c-0.17,0.01-0.27,0.06-0.3,0.14l-0.01,0.03c-0.06,0.15-0.05,0.41,0.05,0.8
				c0.1,0.39,0.23,0.71,0.38,0.95c0.41,0.65,1.02,1,1.81,1.06c0.8,0.05,1.47-0.21,2.03-0.78c0.13-0.13,0.21-0.2,0.24-0.22
				c0.03-0.02,0.08,0,0.14,0.04c0.06,0.05,0.09,0.09,0.08,0.13s-0.06,0.13-0.15,0.28c-0.33,0.5-0.77,0.88-1.32,1.12
				C117.31,169.2,116.7,169.28,116.05,169.21z M117.62,164.75c0.3-0.16,0.43-0.5,0.37-1.04c-0.05-0.46-0.23-0.83-0.52-1.12
				c-0.28-0.27-0.61-0.42-0.99-0.44c-0.39-0.02-0.75,0.12-1.08,0.41c-0.31,0.28-0.55,0.7-0.72,1.26c-0.17,0.55-0.15,0.88,0.05,0.98
				c0.09,0.05,0.57,0.06,1.45,0.05C117.05,164.83,117.53,164.8,117.62,164.75z"/>
			<path d="M123.75,169.03c-0.13,0-0.23,0-0.3,0c-1.12,0-1.71-0.01-1.74-0.03c-0.02-0.03-0.03-0.1-0.03-0.21
				c0-0.11,0.01-0.18,0.04-0.19c0.01-0.01,0.13-0.03,0.37-0.07c0.04-0.01,0.09-0.02,0.16-0.03c0.19-0.02,0.31-0.06,0.36-0.11
				c0.07-0.07,0.12-0.24,0.14-0.51c0.02-0.19,0.03-0.64,0.03-1.33c0-0.22,0-0.39,0-0.51c0-0.11,0-0.26,0-0.45
				c0.01-0.99,0-1.61-0.01-1.88c-0.02-0.37-0.07-0.6-0.16-0.7c-0.06-0.07-0.22-0.12-0.47-0.14c-0.06-0.01-0.1-0.01-0.12-0.01
				c-0.22-0.02-0.35-0.04-0.38-0.06c-0.04-0.02-0.06-0.08-0.06-0.18c0-0.1,0.05-0.17,0.14-0.22c0.1-0.05,0.44-0.18,1.02-0.38
				c0.05-0.02,0.1-0.04,0.18-0.07c0.43-0.15,0.7-0.23,0.82-0.26c0.16-0.04,0.26-0.03,0.3,0.01c0.04,0.04,0.06,0.14,0.07,0.32
				c0.01,0.05,0.01,0.08,0.01,0.1c0.04,0.35,0.09,0.54,0.16,0.58c0.07,0.04,0.23-0.04,0.47-0.24c0.65-0.55,1.34-0.83,2.08-0.85
				c0.74-0.02,1.27,0.23,1.6,0.75c0.19,0.31,0.31,0.64,0.36,0.99c0.05,0.35,0.07,1.22,0.08,2.6c0,0.13,0,0.31,0,0.54
				c0,0.72,0.01,1.18,0.03,1.37c0.02,0.27,0.06,0.45,0.14,0.54c0.05,0.05,0.16,0.09,0.36,0.11c0.06,0.01,0.11,0.02,0.15,0.03
				c0.01,0,0.02,0,0.04,0.01c0.16,0.02,0.24,0.04,0.27,0.06c0.02,0.02,0.03,0.06,0.03,0.14c0,0.02,0,0.03,0,0.04s0,0.03,0,0.05
				c0,0.06-0.01,0.11-0.04,0.12c-0.06,0.03-0.19,0.05-0.4,0.06c-0.15,0-0.49,0-1.04,0c-0.13,0-0.22,0-0.29,0c-0.07,0-0.17,0-0.3,0
				c-0.56,0-0.91,0-1.06,0c-0.21-0.01-0.34-0.03-0.38-0.06c-0.04-0.02-0.06-0.06-0.06-0.12c0-0.02,0-0.03,0-0.04
				c0-0.09,0.02-0.15,0.06-0.18c0.04-0.03,0.14-0.06,0.32-0.08c0.05-0.01,0.1-0.02,0.18-0.03c0.2-0.02,0.33-0.05,0.38-0.11
				c0.07-0.06,0.12-0.22,0.14-0.48c0.02-0.18,0.03-0.61,0.03-1.28c0-0.25,0-0.44,0-0.58c0-1.28-0.01-2.05-0.03-2.32
				c-0.03-0.29-0.1-0.54-0.22-0.74c-0.22-0.37-0.62-0.51-1.19-0.44c-0.58,0.07-1.08,0.33-1.52,0.77l-0.03,0.03
				c-0.1,0.09-0.16,0.23-0.17,0.41c-0.01,0.18-0.02,0.78-0.02,1.78c0,0.17,0,0.31,0,0.4c0,0.14,0,0.32,0,0.56
				c0,0.71,0.01,1.16,0.03,1.34c0.02,0.27,0.06,0.45,0.12,0.52c0.05,0.06,0.16,0.09,0.33,0.11c0.06,0.01,0.11,0.02,0.15,0.03
				c0.18,0.04,0.29,0.07,0.33,0.1c0.04,0.03,0.06,0.09,0.06,0.18c0,0.01,0,0.02,0,0.04c0,0.06-0.02,0.11-0.06,0.12
				c-0.05,0.03-0.17,0.05-0.38,0.06C124.66,169.03,124.31,169.03,123.75,169.03z"/>
			<path d="M134.55,169.18c-0.84-0.16-1.5-0.61-1.98-1.37c-0.42-0.69-0.62-1.5-0.6-2.42c0.02-0.92,0.26-1.72,0.71-2.41
				c0.5-0.74,1.18-1.18,2.03-1.32c0.76-0.13,1.42,0.01,1.99,0.42c0.19,0.15,0.32,0.22,0.37,0.21c0.07-0.01,0.12-0.13,0.14-0.37
				c0.01-0.17,0.01-0.59,0.01-1.26c0-0.08,0-0.2,0-0.34c0-0.49,0-0.81-0.01-0.95c-0.02-0.18-0.07-0.3-0.15-0.36
				c-0.06-0.04-0.19-0.06-0.4-0.08c-0.06-0.01-0.11-0.01-0.15-0.01c-0.26-0.03-0.41-0.05-0.45-0.08c-0.05-0.02-0.07-0.08-0.07-0.18
				s0.05-0.17,0.14-0.21s0.42-0.12,0.99-0.26c0.05-0.01,0.1-0.02,0.12-0.03c0.09-0.02,0.22-0.05,0.38-0.1
				c0.4-0.09,0.65-0.14,0.75-0.15c0.16-0.01,0.25,0.03,0.27,0.12c0.03,0.07,0.03,0.25,0.01,0.52c-0.01,0.13-0.01,0.23-0.01,0.3
				c-0.03,0.8-0.04,2.55-0.03,5.25c0,2.73,0.02,4.13,0.06,4.2c0.04,0.07,0.09,0.13,0.17,0.16c0.08,0.03,0.23,0.06,0.45,0.08
				c0.24,0.03,0.38,0.05,0.42,0.08c0.04,0.02,0.06,0.08,0.06,0.18c0,0.1-0.02,0.16-0.07,0.19c-0.05,0.02-0.21,0.04-0.49,0.06
				c-0.49,0.03-0.88,0.05-1.17,0.07c-0.03,0-0.07,0-0.14,0.01c-0.29,0.01-0.47,0.01-0.52-0.01c-0.06-0.01-0.09-0.07-0.1-0.16v-0.03
				c-0.03-0.31-0.11-0.47-0.23-0.47c-0.05,0-0.18,0.08-0.41,0.25c-0.28,0.21-0.62,0.35-0.99,0.43
				C135.27,169.24,134.91,169.25,134.55,169.18z M136.22,168.33c0.43-0.13,0.71-0.32,0.85-0.59c0.05-0.06,0.08-0.8,0.1-2.22
				c0.02-1.42,0.01-2.19-0.03-2.33c-0.05-0.18-0.23-0.36-0.55-0.52c-0.32-0.16-0.64-0.25-0.96-0.25c-0.77,0-1.34,0.37-1.73,1.1
				c-0.38,0.73-0.49,1.66-0.32,2.8c0.13,0.8,0.44,1.38,0.93,1.76C135,168.46,135.57,168.54,136.22,168.33z"/>
			<path d="M144.81,169.21c-1.04-0.12-1.85-0.59-2.41-1.4c-0.57-0.81-0.77-1.81-0.62-2.98c0.14-1.01,0.57-1.82,1.29-2.41
				c0.65-0.53,1.4-0.79,2.25-0.79c0.85,0,1.55,0.28,2.08,0.82c0.59,0.6,0.85,1.41,0.75,2.43c0,0.04,0,0.09,0,0.15
				c-0.01,0.12-0.03,0.2-0.07,0.23c-0.05,0.04-0.19,0.06-0.41,0.08c-0.16,0.01-0.52,0.01-1.1,0.01c-0.32,0-0.58,0-0.78,0
				c-0.09,0-0.22,0-0.4,0c-1,0.01-1.58,0.02-1.75,0.03c-0.17,0.01-0.27,0.06-0.3,0.14l-0.01,0.03c-0.06,0.15-0.05,0.41,0.05,0.8
				c0.1,0.39,0.23,0.71,0.38,0.95c0.41,0.65,1.02,1,1.81,1.06c0.8,0.05,1.47-0.21,2.03-0.78c0.13-0.13,0.21-0.2,0.24-0.22
				c0.03-0.02,0.08,0,0.14,0.04c0.06,0.05,0.09,0.09,0.08,0.13s-0.06,0.13-0.15,0.28c-0.33,0.5-0.77,0.88-1.32,1.12
				C146.07,169.2,145.47,169.28,144.81,169.21z M146.39,164.75c0.3-0.16,0.43-0.5,0.37-1.04c-0.05-0.46-0.23-0.83-0.52-1.12
				c-0.28-0.27-0.61-0.42-0.99-0.44c-0.39-0.02-0.75,0.12-1.08,0.41c-0.31,0.28-0.55,0.7-0.72,1.26c-0.17,0.55-0.15,0.88,0.05,0.98
				c0.09,0.05,0.57,0.06,1.45,0.05C145.81,164.83,146.3,164.8,146.39,164.75z"/>
			<path d="M152.37,169.04c-1.23-0.01-1.85-0.03-1.88-0.06c-0.03-0.03-0.04-0.08-0.04-0.17c0-0.09,0.01-0.15,0.04-0.19
				c0.02-0.03,0.13-0.06,0.33-0.08c0.05-0.01,0.1-0.02,0.16-0.03c0.21-0.02,0.34-0.05,0.4-0.11c0.07-0.07,0.12-0.24,0.14-0.49
				c0.02-0.18,0.03-0.61,0.03-1.29c0-0.25,0-0.44,0-0.58c0-0.11,0-0.26,0-0.45c0.01-0.99,0-1.61-0.01-1.88
				c-0.02-0.37-0.07-0.6-0.16-0.7c-0.06-0.07-0.22-0.12-0.47-0.14c-0.06-0.01-0.1-0.01-0.12-0.01c-0.22-0.02-0.35-0.04-0.38-0.06
				c-0.04-0.02-0.06-0.08-0.06-0.18c0-0.1,0.05-0.17,0.15-0.22c0.1-0.05,0.44-0.18,1.03-0.38c0.06-0.02,0.15-0.05,0.26-0.1
				c0.39-0.14,0.64-0.22,0.75-0.23c0.15-0.04,0.24-0.01,0.29,0.07c0.03,0.05,0.05,0.2,0.07,0.44c0.01,0.06,0.01,0.1,0.01,0.14
				c0.04,0.46,0.09,0.71,0.15,0.76c0.06,0.05,0.19-0.06,0.38-0.34c0.43-0.62,0.93-1,1.51-1.13c0.58-0.13,1.01,0.03,1.29,0.47
				c0.18,0.28,0.2,0.54,0.04,0.78c-0.15,0.22-0.38,0.34-0.7,0.37c-0.35,0.03-0.66-0.08-0.93-0.32c-0.23-0.18-0.45-0.21-0.65-0.07
				s-0.43,0.45-0.67,0.95c-0.01,0.03-0.03,0.06-0.06,0.1c-0.13,0.28-0.2,0.52-0.23,0.7c-0.02,0.18-0.03,0.69-0.03,1.52
				c0,0.1,0,0.18,0,0.23c0,0.11,0,0.27,0,0.47c0,0.58,0,0.94,0.01,1.1c0.02,0.22,0.07,0.36,0.15,0.43c0.06,0.05,0.2,0.1,0.41,0.12
				c0.08,0.01,0.15,0.02,0.19,0.03c0.26,0.04,0.43,0.1,0.51,0.19c0.08,0.09,0.07,0.18-0.03,0.29
				C154.22,169.03,153.59,169.04,152.37,169.04z"/>
			<path d="M159.82,169.2c-0.32-0.05-0.68-0.13-1.08-0.27c-0.4-0.13-0.62-0.24-0.67-0.34c-0.03-0.05-0.04-0.32-0.03-0.82
				c0-0.5,0.02-0.76,0.05-0.79c0.03-0.03,0.14-0.04,0.33-0.04c0.19,0,0.31,0.01,0.34,0.04c0.04,0.02,0.09,0.2,0.16,0.54
				c0.1,0.46,0.19,0.74,0.27,0.84c0.08,0.1,0.26,0.18,0.54,0.25c0.65,0.14,1.2,0.09,1.65-0.13c0.45-0.22,0.68-0.56,0.68-1.01
				c0-0.36-0.12-0.63-0.35-0.82c-0.23-0.19-0.72-0.42-1.45-0.67c-0.69-0.24-1.19-0.49-1.52-0.76c-0.32-0.27-0.53-0.61-0.61-1.01
				c-0.15-0.66,0.01-1.23,0.47-1.73c0.43-0.46,1.02-0.74,1.77-0.84c0.79-0.1,1.55,0.04,2.29,0.41c0.02,0.01,0.04,0.02,0.07,0.04
				c0.13,0.06,0.2,0.13,0.23,0.19c0.02,0.06,0.03,0.25,0.01,0.55c0,0.07,0,0.13,0,0.19c0,0.05,0,0.12,0,0.2
				c-0.01,0.29-0.03,0.46-0.06,0.51c-0.03,0.05-0.11,0.07-0.25,0.07c-0.03,0-0.05,0-0.07,0c-0.01,0-0.02,0-0.04,0
				c-0.14,0-0.22-0.02-0.26-0.05c-0.04-0.04-0.08-0.17-0.14-0.41c-0.01-0.05-0.02-0.08-0.03-0.1c-0.1-0.4-0.19-0.65-0.27-0.75
				c-0.08-0.1-0.24-0.18-0.5-0.25c-0.52-0.14-0.98-0.1-1.37,0.11c-0.39,0.21-0.59,0.53-0.59,0.95c0,0.34,0.11,0.6,0.32,0.78
				c0.21,0.18,0.67,0.4,1.36,0.65c0.89,0.32,1.49,0.64,1.82,0.97c0.32,0.32,0.49,0.77,0.49,1.32c0.01,0.75-0.33,1.34-1.02,1.76
				C161.68,169.18,160.83,169.32,159.82,169.2z"/>
			<path d="M173.11,169.18c-0.93-0.15-1.67-0.58-2.2-1.3c-0.53-0.72-0.78-1.6-0.73-2.65c0.05-1.12,0.42-2.02,1.12-2.69
				c0.64-0.6,1.42-0.91,2.33-0.93c0.91-0.02,1.71,0.26,2.37,0.84c0.73,0.64,1.14,1.52,1.23,2.63c0.06,0.85-0.08,1.62-0.44,2.3
				c-0.34,0.66-0.83,1.15-1.48,1.48C174.65,169.2,173.91,169.3,173.11,169.18z M174.15,168.63c0.56-0.14,0.98-0.58,1.25-1.34
				c0.28-0.75,0.35-1.66,0.23-2.72c-0.09-0.77-0.32-1.38-0.69-1.82c-0.35-0.42-0.75-0.64-1.2-0.66c-0.45-0.02-0.85,0.17-1.2,0.56
				c-0.38,0.42-0.63,1.01-0.74,1.77c-0.13,0.89-0.11,1.68,0.07,2.39c0.16,0.68,0.44,1.18,0.84,1.51
				C173.12,168.66,173.6,168.76,174.15,168.63z"/>
			<path d="M181.78,169.03c-0.15,0-0.26,0-0.34,0c-1.29,0-1.95-0.01-1.98-0.04c-0.03-0.03-0.04-0.08-0.04-0.17
				c0-0.09,0.01-0.14,0.04-0.17c0.01-0.04,0.16-0.07,0.44-0.11c0.03,0,0.06,0,0.11-0.01c0.24-0.03,0.38-0.09,0.44-0.18
				c0.09-0.12,0.15-0.4,0.16-0.85c0.02-0.33,0.02-1.09,0.01-2.29c0-0.25,0-0.44,0-0.57s0-0.31,0-0.54c0-0.62-0.01-1.02-0.03-1.18
				c-0.02-0.23-0.06-0.37-0.14-0.44c-0.06-0.04-0.18-0.06-0.37-0.06c-0.07,0-0.13,0-0.18,0c-0.02,0-0.05,0-0.08,0
				c-0.22-0.01-0.35-0.02-0.38-0.04c-0.04-0.02-0.06-0.08-0.06-0.2c0-0.11,0.02-0.18,0.06-0.21c0.04-0.02,0.16-0.05,0.38-0.08
				c0.37-0.05,0.6-0.1,0.69-0.16s0.14-0.24,0.18-0.52c0.26-1.88,1.08-3.02,2.48-3.4c0.39-0.1,0.79-0.11,1.18-0.04
				c0.37,0.07,0.66,0.2,0.86,0.38c0.2,0.2,0.25,0.42,0.14,0.66c-0.15,0.31-0.4,0.46-0.76,0.45s-0.72-0.19-1.06-0.53
				c-0.22-0.21-0.38-0.32-0.47-0.34c-0.1-0.01-0.22,0.06-0.36,0.23c-0.43,0.48-0.64,1.32-0.64,2.54c0,0.01,0,0.02,0,0.04
				c0,0.23,0.01,0.38,0.04,0.44c0.04,0.08,0.13,0.13,0.27,0.15c0.1,0.02,0.34,0.03,0.73,0.03c0.03,0,0.05,0,0.07,0
				c0.05,0,0.11,0,0.21,0c0.36,0,0.56,0.01,0.62,0.03c0.06,0.02,0.09,0.09,0.09,0.21c0,0.03,0,0.05,0,0.06c0,0.01,0,0.03,0,0.06
				c0,0.12-0.03,0.19-0.1,0.21c-0.06,0.02-0.29,0.03-0.69,0.03c-0.06,0-0.1,0-0.12,0c-0.09,0-0.21,0-0.36,0
				c-0.27-0.01-0.45,0.01-0.54,0.06c-0.1,0.07-0.16,0.25-0.19,0.54c-0.02,0.2-0.02,0.68-0.01,1.44c0,0.41,0,0.74,0,0.99
				c0,0.2,0,0.48,0,0.84c0,0.81,0.01,1.32,0.03,1.54c0.02,0.3,0.07,0.49,0.16,0.58c0.06,0.06,0.2,0.11,0.43,0.12
				c0.1,0.01,0.18,0.02,0.25,0.03c0.26,0.04,0.4,0.07,0.45,0.09c0.04,0.02,0.06,0.08,0.06,0.18c0,0.01,0,0.02,0,0.04
				c0,0.06-0.02,0.11-0.06,0.12c-0.05,0.03-0.2,0.05-0.44,0.06C182.79,169.03,182.4,169.03,181.78,169.03z"/>
			<path d="M190.53,168.79c0-0.11,0.01-0.17,0.04-0.2c0.01-0.04,0.18-0.07,0.52-0.11c0.02,0,0.05,0,0.08-0.01
				c0.35-0.04,0.55-0.09,0.62-0.17c0.06-0.08,0.1-0.32,0.12-0.73c0-0.06,0-0.11,0-0.14c0.02-0.84,0.02-2.31,0.01-4.42
				c-0.01-2.1-0.03-3.19-0.06-3.25c-0.05-0.1-0.13-0.17-0.25-0.21c-0.12-0.04-0.39-0.07-0.79-0.11c-0.14-0.01-0.24-0.07-0.3-0.19
				c-0.06-0.12-0.04-0.21,0.05-0.29c0.04-0.03,0.9-0.04,2.58-0.03c1.68,0.01,2.6,0.03,2.74,0.06c1.58,0.32,2.37,1.1,2.37,2.35
				c0,0.89-0.47,1.57-1.41,2.04c-0.32,0.15-0.48,0.25-0.48,0.32s0.16,0.15,0.48,0.26c1.36,0.46,2.01,1.27,1.95,2.44
				c-0.05,0.71-0.34,1.29-0.88,1.73c-0.54,0.44-1.31,0.72-2.3,0.85c-0.23,0.03-1.12,0.04-2.67,0.04c-1.55,0.01-2.35,0-2.37-0.03
				C190.54,168.96,190.53,168.9,190.53,168.79z M194.7,163.49c0.72-0.06,1.26-0.3,1.61-0.71c0.35-0.41,0.49-0.95,0.42-1.64
				c-0.06-0.6-0.29-1.03-0.67-1.29c-0.38-0.26-0.98-0.38-1.79-0.37c-0.31,0.01-0.5,0.02-0.58,0.04c-0.07,0.02-0.13,0.08-0.16,0.18
				c-0.03,0.07-0.04,0.68-0.04,1.81c0,1.13,0.01,1.73,0.04,1.8c0.04,0.1,0.14,0.16,0.32,0.19
				C194.02,163.53,194.3,163.53,194.7,163.49z M195.07,168.43c0.74-0.1,1.29-0.36,1.66-0.79s0.51-0.98,0.44-1.65
				c-0.07-0.68-0.35-1.17-0.83-1.47c-0.48-0.31-1.19-0.45-2.13-0.45c-0.05,0-0.11,0-0.19,0c-0.19,0-0.31,0.02-0.36,0.05
				c-0.07,0.06-0.12,0.19-0.14,0.4c-0.01,0.16-0.01,0.52-0.01,1.1c0,0.27,0,0.48,0,0.63c0,0.09,0,0.22,0,0.38
				c0,0.86,0.01,1.36,0.02,1.51c0.01,0.15,0.06,0.23,0.14,0.26l0.01,0.01c0.05,0.02,0.26,0.03,0.62,0.04
				C194.66,168.45,194.91,168.45,195.07,168.43z"/>
			<path d="M203.26,169.2c-0.48-0.08-0.82-0.23-1.03-0.45c-0.23-0.26-0.38-0.68-0.47-1.28c-0.07-0.54-0.11-1.42-0.1-2.63
				c0-0.15,0-0.35,0-0.6c0.01-0.61,0.01-1,0-1.17c-0.02-0.23-0.06-0.38-0.12-0.45c-0.05-0.05-0.16-0.09-0.33-0.12
				c-0.07-0.01-0.13-0.02-0.18-0.03c-0.01,0-0.02,0-0.04-0.01c-0.17-0.03-0.27-0.05-0.3-0.08c-0.03-0.02-0.04-0.07-0.04-0.14v-0.03
				c0-0.02,0-0.04,0-0.06c0-0.08,0.03-0.13,0.1-0.16c0.06-0.02,0.3-0.06,0.71-0.1c0.16-0.02,0.3-0.03,0.4-0.04
				c0.09-0.01,0.21-0.02,0.36-0.04c0.36-0.04,0.59-0.07,0.69-0.07c0.13,0.01,0.21,0.06,0.25,0.16c0.02,0.07,0.02,0.25,0.01,0.53
				c-0.01,0.13-0.01,0.23-0.01,0.3c-0.02,0.71-0.02,1.62-0.01,2.72c0.01,1.1,0.03,1.7,0.06,1.8c0.14,0.52,0.43,0.84,0.88,0.95
				c0.45,0.11,0.97-0.01,1.56-0.36c0.03-0.02,0.06-0.04,0.1-0.06c0.2-0.13,0.33-0.23,0.38-0.32c0.08-0.11,0.13-0.3,0.15-0.58
				c0.02-0.19,0.03-0.64,0.04-1.34c0-0.16,0-0.28,0-0.37c0-0.14,0-0.33,0.01-0.58c0.01-0.75,0.01-1.23,0-1.43
				c-0.02-0.27-0.06-0.46-0.12-0.55c-0.06-0.05-0.18-0.1-0.37-0.14c-0.06-0.01-0.11-0.02-0.15-0.03c-0.01,0-0.02,0-0.04-0.01
				c-0.17-0.03-0.27-0.05-0.3-0.08c-0.03-0.02-0.04-0.07-0.04-0.14v-0.03c0-0.02,0-0.04,0-0.07c-0.01-0.07,0.02-0.12,0.1-0.14
				s0.32-0.05,0.74-0.11c0.16-0.02,0.29-0.03,0.38-0.04c0.12-0.02,0.27-0.04,0.47-0.07c0.3-0.06,0.49-0.06,0.58-0.03
				c0.11,0.05,0.18,0.23,0.21,0.52c0.02,0.21,0.02,0.71,0.01,1.51c-0.01,0.51-0.01,0.93-0.01,1.26c0,0.24,0,0.56,0,0.96
				c0,0.92,0,1.51,0.01,1.76c0.01,0.35,0.05,0.57,0.11,0.66c0.05,0.06,0.15,0.1,0.3,0.12c0.07,0,0.13,0,0.18,0.01
				c0.18,0.03,0.29,0.05,0.33,0.08c0.04,0.03,0.06,0.09,0.06,0.18v0.03c0,0.09-0.04,0.15-0.12,0.16s-0.38,0.04-0.88,0.07
				c-0.07,0.01-0.13,0.01-0.16,0.01c-0.07,0.01-0.17,0.01-0.3,0.01c-0.43,0.04-0.68,0.04-0.75,0.01c-0.07-0.03-0.11-0.12-0.12-0.29
				c-0.01-0.06-0.01-0.1-0.01-0.14c-0.04-0.35-0.09-0.55-0.16-0.6c-0.07-0.05-0.22,0.02-0.44,0.23c-0.38,0.35-0.8,0.6-1.24,0.75
				C204.11,169.22,203.68,169.26,203.26,169.2z M204.07,160.43l-0.01-0.01l-0.03-0.01c-0.05-0.05-0.07-0.1-0.05-0.15
				c0.02-0.05,0.13-0.24,0.31-0.55c0.06-0.08,0.1-0.15,0.12-0.19c0.07-0.12,0.19-0.3,0.34-0.55c0.19-0.32,0.31-0.52,0.36-0.6
				c0.24-0.38,0.45-0.63,0.64-0.75c0.19-0.11,0.39-0.12,0.6-0.02c0.28,0.14,0.39,0.34,0.32,0.61c-0.07,0.27-0.32,0.57-0.74,0.91
				c-0.33,0.27-0.67,0.56-1.03,0.85c-0.33,0.28-0.53,0.44-0.6,0.48C204.21,160.48,204.14,160.48,204.07,160.43z"/>
			<path d="M210.91,165.62c-0.02-0.02-0.03-0.16-0.03-0.4c0-0.25,0.01-0.38,0.03-0.4c0.02-0.02,0.62-0.03,1.78-0.03
				c1.16,0,1.75,0.01,1.78,0.03c0.02,0.02,0.03,0.16,0.03,0.4c0,0.25-0.01,0.38-0.03,0.4c-0.02,0.02-0.61,0.03-1.78,0.03
				C211.52,165.66,210.93,165.64,210.91,165.62z"/>
			<path d="M220.6,169.03c-0.27,0-0.48,0-0.63,0c-1.49,0-2.25-0.01-2.29-0.03c-0.03-0.03-0.04-0.11-0.03-0.24
				c0-0.13,0.02-0.2,0.06-0.21l0.07-0.01c0.2-0.03,0.37-0.05,0.52-0.06c0.41-0.04,0.65-0.09,0.73-0.15
				c0.07-0.06,0.12-0.24,0.14-0.54c0.03-0.43,0.03-1.86,0.02-4.3c-0.01-2.44-0.03-3.69-0.06-3.77c-0.04-0.1-0.1-0.16-0.2-0.18
				c-0.1-0.02-0.4-0.03-0.91-0.03c-0.05,0-0.13,0-0.23,0c-0.45,0-0.72,0.04-0.81,0.11c-0.09,0.07-0.19,0.34-0.29,0.8
				c-0.03,0.12-0.05,0.21-0.07,0.27c-0.02,0.06-0.04,0.15-0.06,0.26c-0.08,0.35-0.14,0.55-0.17,0.61c-0.03,0.06-0.11,0.08-0.24,0.08
				c-0.05,0-0.08,0-0.11,0c-0.22,0-0.33-0.01-0.34-0.04c-0.01-0.04,0-0.48,0.03-1.33c0.03-0.85,0.05-1.29,0.07-1.3
				c0.02-0.03,1.42-0.04,4.2-0.04c2.77,0,4.17,0.01,4.18,0.03c0.02,0.02,0.04,0.46,0.08,1.32c0.03,0.86,0.04,1.31,0.03,1.33
				c-0.01,0.02-0.12,0.03-0.34,0.03c-0.22,0-0.34-0.01-0.36-0.03c-0.01-0.01-0.04-0.12-0.08-0.34c-0.06-0.24-0.11-0.43-0.15-0.58
				c-0.02-0.06-0.04-0.16-0.07-0.27c-0.1-0.46-0.19-0.72-0.28-0.8c-0.09-0.07-0.35-0.11-0.77-0.11c-0.11,0-0.2,0-0.26,0
				c-0.1,0-0.24,0-0.41-0.01c-0.28-0.02-0.47,0-0.55,0.07c-0.1,0.09-0.16,0.34-0.19,0.74c-0.02,0.29-0.02,0.98-0.01,2.06
				c0,0.65,0,1.18,0,1.58c0,0.37,0,0.86,0,1.47c-0.01,1.13,0,1.84,0.01,2.14c0.02,0.41,0.07,0.67,0.15,0.78
				c0.06,0.07,0.21,0.11,0.44,0.12c0.12,0,0.21,0,0.29,0.01c0.31,0.04,0.49,0.07,0.55,0.09c0.05,0.02,0.08,0.09,0.08,0.2
				c0,0.03,0,0.05,0,0.07c0.01,0.07-0.01,0.12-0.06,0.14c-0.06,0.03-0.2,0.05-0.44,0.06C221.64,169.03,221.24,169.03,220.6,169.03z"
				/>
			<path d="M227.89,169.04c-1.13-0.01-1.71-0.03-1.74-0.06c-0.03-0.03-0.04-0.08-0.04-0.17c0-0.09,0.01-0.15,0.04-0.19
				c0.02-0.03,0.13-0.06,0.33-0.08c0.05-0.01,0.11-0.02,0.19-0.03c0.19-0.02,0.32-0.05,0.37-0.11c0.07-0.07,0.12-0.25,0.14-0.52
				c0.01-0.2,0.01-0.67,0.01-1.41c0-0.32,0-0.58,0-0.77c0-0.16,0-0.39,0-0.67c0-0.79,0-1.28-0.01-1.5
				c-0.02-0.29-0.06-0.48-0.14-0.56c-0.05-0.06-0.19-0.09-0.4-0.1c-0.07-0.01-0.13-0.01-0.18-0.01c-0.23-0.03-0.36-0.05-0.4-0.08
				c-0.04-0.02-0.06-0.08-0.06-0.18c0-0.1,0.05-0.18,0.16-0.23c0.1-0.05,0.47-0.17,1.1-0.36c0.07-0.02,0.17-0.05,0.3-0.1
				c0.48-0.15,0.76-0.23,0.84-0.25c0.09-0.02,0.15-0.01,0.2,0.03c0.05,0.04,0.07,0.17,0.08,0.38c0,0.21,0,0.93-0.01,2.17
				c0,0.11,0,0.27,0,0.49c-0.01,1.37-0.01,2.24,0,2.61c0.02,0.52,0.07,0.85,0.15,0.99c0.06,0.1,0.19,0.16,0.41,0.19
				c0.05,0.01,0.08,0.01,0.1,0.01c0.05,0.01,0.13,0.02,0.22,0.04l0.1,0.01c0.02,0.01,0.03,0.07,0.03,0.19
				c0,0.12-0.01,0.19-0.03,0.21C229.61,169.03,229.03,169.04,227.89,169.04z M227.72,159.92c-0.29-0.05-0.51-0.2-0.66-0.44
				c-0.15-0.23-0.19-0.47-0.12-0.73c0.07-0.27,0.25-0.48,0.52-0.6c0.13-0.06,0.27-0.09,0.44-0.1c0.17,0,0.32,0.03,0.44,0.08
				c0.33,0.16,0.51,0.39,0.55,0.71c0.04,0.31-0.06,0.58-0.27,0.8C228.37,159.9,228.07,159.99,227.72,159.92z"/>
			<path d="M233.5,169.04c-1.19-0.01-1.8-0.03-1.82-0.06c-0.03-0.03-0.04-0.08-0.04-0.17c0-0.09,0.01-0.14,0.04-0.17
				c0.01-0.04,0.13-0.07,0.36-0.1c0.29-0.05,0.48-0.09,0.58-0.14c0.09-0.05,0.15-0.14,0.17-0.28c0.02-0.14,0.03-1.67,0.02-4.57
				c-0.01-2.89-0.02-4.36-0.04-4.42c-0.04-0.06-0.1-0.11-0.19-0.14c-0.09-0.03-0.24-0.06-0.46-0.08c-0.24-0.03-0.38-0.05-0.42-0.08
				c-0.04-0.02-0.06-0.08-0.06-0.18c0-0.09,0.01-0.16,0.03-0.19c0.02-0.02,0.42-0.12,1.2-0.3c0.78-0.18,1.19-0.27,1.23-0.27
				c0.07,0,0.12,0.02,0.15,0.06c0.03,0.05,0.04,0.16,0.04,0.36c0.01,0.16,0,0.48-0.01,0.97c-0.02,0.85-0.03,1.99-0.03,3.42
				c0.01,1.45,0.03,2.2,0.05,2.24c0.05,0.08,0.09,0.12,0.14,0.11c0.07-0.02,0.2-0.11,0.38-0.29c0.13-0.12,0.42-0.41,0.88-0.88
				c0.01-0.01,0.03-0.03,0.05-0.05c0.48-0.48,0.79-0.79,0.91-0.92c0.16-0.19,0.2-0.32,0.12-0.38c-0.05-0.05-0.21-0.1-0.51-0.15
				c-0.02-0.01-0.03-0.01-0.04-0.01c-0.2-0.04-0.32-0.07-0.36-0.1c-0.04-0.03-0.06-0.1-0.06-0.2c0-0.01,0-0.02,0-0.04
				c0-0.07,0.02-0.12,0.06-0.14c0.05-0.03,0.17-0.05,0.37-0.05c0.15,0,0.49,0,1.04,0c0.13,0,0.22,0,0.29,0c0.12,0,0.27,0,0.47,0
				c0.64,0,1.01,0.01,1.12,0.02c0.1,0.01,0.15,0.07,0.14,0.17c0,0.03,0,0.05,0,0.06s0,0.02,0,0.04c0,0.09-0.02,0.15-0.06,0.16
				c-0.04,0.02-0.18,0.04-0.42,0.07c-0.06,0.01-0.11,0.01-0.15,0.01c-0.03,0-0.07,0-0.12,0.01c-0.32,0.05-0.54,0.11-0.67,0.18
				c-0.13,0.08-0.41,0.33-0.85,0.76c-0.07,0.07-0.13,0.13-0.16,0.16c-0.05,0.05-0.11,0.11-0.21,0.19c-0.18,0.16-0.28,0.29-0.3,0.37
				c-0.04,0.12,0,0.29,0.1,0.51c0.08,0.16,0.29,0.53,0.62,1.08c0.16,0.27,0.3,0.49,0.4,0.66c0.07,0.13,0.18,0.31,0.32,0.53
				c0.37,0.61,0.6,1,0.7,1.17c0.16,0.24,0.28,0.39,0.37,0.45c0.07,0.05,0.19,0.08,0.36,0.1c0.06,0.01,0.1,0.01,0.12,0.01
				c0.05,0.01,0.11,0.02,0.18,0.03l0.14,0.03c0.03,0.01,0.04,0.07,0.03,0.19c0,0.12-0.02,0.19-0.04,0.21
				c-0.02,0.02-0.4,0.03-1.12,0.02s-1.09-0.03-1.11-0.06l-0.15-0.25c-0.33-0.58-0.61-1.07-0.85-1.48c-0.06-0.1-0.13-0.24-0.23-0.41
				c-0.37-0.64-0.62-1.04-0.73-1.21c-0.15-0.22-0.27-0.33-0.36-0.33c-0.06,0-0.17,0.08-0.33,0.23c-0.05,0.05-0.08,0.08-0.1,0.1
				c-0.21,0.2-0.33,0.39-0.37,0.57c-0.04,0.18-0.05,0.63-0.03,1.35c0,0.01,0,0.03,0,0.05c0.02,0.43,0.06,0.68,0.12,0.76
				c0.06,0.08,0.25,0.13,0.57,0.17c0.25,0.04,0.38,0.06,0.4,0.07c0.02,0.01,0.03,0.07,0.03,0.19c0,0.11-0.01,0.18-0.03,0.21
				C235.3,169.03,234.69,169.04,233.5,169.04z"/>
			<path d="M248.13,169.04c-1.43-0.01-2.15-0.03-2.18-0.06c-0.03-0.03-0.04-0.09-0.04-0.2c0-0.11,0.01-0.17,0.04-0.2
				c0.01-0.04,0.18-0.07,0.52-0.11c0.02,0,0.05,0,0.08-0.01c0.35-0.04,0.55-0.09,0.62-0.17c0.06-0.08,0.1-0.34,0.12-0.78
				c0-0.04,0-0.06,0-0.08c0.02-0.83,0.02-2.3,0.01-4.42c-0.01-2.11-0.03-3.2-0.06-3.26c-0.05-0.1-0.13-0.17-0.25-0.21
				c-0.12-0.04-0.38-0.07-0.78-0.11c-0.15-0.02-0.25-0.08-0.31-0.2c-0.06-0.11-0.04-0.21,0.05-0.28c0.04-0.03,0.85-0.04,2.43-0.03
				c1.59,0.01,2.46,0.03,2.63,0.07c0.94,0.16,1.64,0.46,2.11,0.91c0.46,0.45,0.71,1.07,0.73,1.86c0.05,1-0.28,1.77-0.97,2.31
				c-0.69,0.54-1.73,0.84-3.12,0.89c-0.05,0-0.13,0-0.23,0c-0.24,0.01-0.39,0.03-0.45,0.05c-0.09,0.05-0.15,0.16-0.18,0.34
				c-0.01,0.12-0.01,0.42-0.01,0.91c0,0.16,0,0.3,0,0.4c0,0.08,0,0.2,0,0.36c0,0.51,0.01,0.84,0.03,0.97
				c0.02,0.19,0.07,0.31,0.16,0.37c0.06,0.04,0.22,0.07,0.48,0.1c0.07,0,0.13,0,0.18,0.01c0.12,0.01,0.27,0.03,0.47,0.06l0.1,0.01
				c0.04,0.02,0.06,0.09,0.06,0.22c0,0.13-0.01,0.21-0.04,0.23C250.28,169.03,249.55,169.04,248.13,169.04z M250.1,164.39
				c1.45-0.16,2.18-0.98,2.18-2.47c0-0.83-0.2-1.44-0.6-1.82c-0.4-0.38-1.04-0.58-1.91-0.6c-0.35-0.02-0.56-0.02-0.65,0.01
				c-0.09,0.02-0.15,0.08-0.19,0.17c-0.03,0.05-0.05,0.74-0.06,2.08c-0.01,1.34-0.01,2.11,0.01,2.31c0.02,0.17,0.11,0.28,0.29,0.33
				C249.34,164.44,249.65,164.44,250.1,164.39z"/>
			<path d="M257.26,169.17c-0.48-0.1-0.84-0.33-1.1-0.7c-0.26-0.37-0.36-0.8-0.31-1.29c0.06-0.57,0.36-1.03,0.88-1.38
				c0.53-0.35,1.45-0.71,2.76-1.08c0.26-0.06,0.41-0.13,0.47-0.21c0.06-0.08,0.08-0.26,0.08-0.54c0-0.67-0.11-1.14-0.32-1.41
				c-0.21-0.27-0.58-0.41-1.09-0.41c-0.37,0-0.61,0.05-0.71,0.14c-0.1,0.09-0.2,0.33-0.29,0.73c-0.1,0.43-0.21,0.72-0.34,0.87
				s-0.31,0.23-0.57,0.23c-0.37-0.01-0.59-0.17-0.64-0.47c-0.05-0.31,0.07-0.65,0.38-1.04c0.34-0.41,0.84-0.7,1.5-0.86
				c0.63-0.16,1.24-0.17,1.84-0.04c0.62,0.14,1.06,0.41,1.3,0.81c0.16,0.27,0.26,0.56,0.29,0.86s0.06,1.09,0.08,2.37
				c0.01,1.13,0.02,1.81,0.03,2.02s0.05,0.37,0.11,0.48c0.09,0.16,0.23,0.24,0.42,0.25c0.19,0,0.36-0.07,0.49-0.22
				c0.06-0.06,0.13-0.07,0.21-0.03c0.09,0.05,0.12,0.11,0.09,0.18c-0.12,0.31-0.36,0.53-0.71,0.67c-0.34,0.13-0.69,0.14-1.04,0.04
				c-0.38-0.1-0.64-0.3-0.8-0.59c-0.1-0.2-0.2-0.3-0.29-0.3c-0.08,0-0.24,0.1-0.47,0.29C258.85,169.13,258.09,169.34,257.26,169.17z
				 M258.76,168.3c0.19-0.04,0.42-0.14,0.69-0.3c0.27-0.16,0.43-0.31,0.51-0.43c0.07-0.12,0.11-0.54,0.11-1.24
				c0-0.7-0.04-1.09-0.11-1.15c-0.08-0.08-0.35-0.05-0.81,0.1c-0.46,0.15-0.83,0.33-1.11,0.53c-0.43,0.3-0.68,0.69-0.74,1.15
				c-0.07,0.43,0.03,0.78,0.3,1.06C257.88,168.31,258.27,168.4,258.76,168.3z"/>
			<path d="M266.64,169.03c-0.15,0-0.26,0-0.33,0c-1.2,0-1.82-0.01-1.85-0.03c-0.02-0.02-0.03-0.09-0.03-0.21
				c0-0.12,0.01-0.18,0.03-0.19l0.08-0.01c0.11-0.02,0.2-0.03,0.27-0.04c0.3-0.05,0.5-0.09,0.59-0.14c0.09-0.05,0.15-0.14,0.17-0.28
				s0.03-1.67,0.02-4.57c-0.01-2.89-0.02-4.36-0.04-4.42c-0.04-0.06-0.1-0.11-0.19-0.14c-0.09-0.03-0.24-0.06-0.46-0.08
				c-0.28-0.04-0.43-0.06-0.44-0.07c-0.03-0.02-0.04-0.08-0.04-0.19c0-0.11,0.01-0.17,0.04-0.19c0.01-0.01,0.4-0.11,1.18-0.29
				c0.78-0.19,1.19-0.28,1.23-0.28c0.08,0,0.13,0.02,0.15,0.06c0.03,0.05,0.05,0.16,0.05,0.36c0,0.13-0.01,0.45-0.03,0.96
				c-0.02,0.83-0.03,2.51-0.03,5.02c0.01,2.54,0.03,3.85,0.05,3.92c0.04,0.11,0.1,0.18,0.19,0.23c0.09,0.04,0.27,0.08,0.54,0.12
				c0.18,0.03,0.3,0.05,0.34,0.08c0.04,0.03,0.06,0.09,0.06,0.18c0,0.01,0,0.02,0,0.04c0,0.06-0.02,0.11-0.06,0.12
				c-0.06,0.03-0.19,0.05-0.41,0.06C267.6,169.03,267.23,169.03,266.64,169.03z"/>
			<path d="M271.65,169.17c-0.48-0.1-0.84-0.33-1.1-0.7c-0.26-0.37-0.36-0.8-0.31-1.29c0.06-0.57,0.36-1.03,0.88-1.38
				c0.53-0.35,1.45-0.71,2.76-1.08c0.26-0.06,0.41-0.13,0.47-0.21c0.06-0.08,0.08-0.26,0.08-0.54c0-0.67-0.11-1.14-0.32-1.41
				c-0.21-0.27-0.58-0.41-1.09-0.41c-0.37,0-0.61,0.05-0.71,0.14c-0.1,0.09-0.2,0.33-0.29,0.73c-0.1,0.43-0.21,0.72-0.34,0.87
				c-0.12,0.15-0.31,0.23-0.57,0.23c-0.37-0.01-0.59-0.17-0.64-0.47c-0.05-0.31,0.07-0.65,0.38-1.04c0.34-0.41,0.84-0.7,1.5-0.86
				c0.63-0.16,1.24-0.17,1.84-0.04c0.62,0.14,1.06,0.41,1.3,0.81c0.16,0.27,0.26,0.56,0.29,0.86c0.03,0.3,0.06,1.09,0.08,2.37
				c0.01,1.13,0.02,1.81,0.03,2.02s0.05,0.37,0.11,0.48c0.09,0.16,0.23,0.24,0.42,0.25c0.19,0,0.36-0.07,0.49-0.22
				c0.06-0.06,0.13-0.07,0.21-0.03c0.09,0.05,0.12,0.11,0.09,0.18c-0.12,0.31-0.36,0.53-0.71,0.67c-0.34,0.13-0.69,0.14-1.04,0.04
				c-0.38-0.1-0.64-0.3-0.8-0.59c-0.1-0.2-0.2-0.3-0.29-0.3c-0.08,0-0.24,0.1-0.47,0.29C273.24,169.13,272.48,169.34,271.65,169.17z
				 M273.15,168.3c0.19-0.04,0.42-0.14,0.69-0.3c0.27-0.16,0.43-0.31,0.51-0.43c0.07-0.12,0.11-0.54,0.11-1.24
				c0-0.7-0.04-1.09-0.11-1.15c-0.08-0.08-0.35-0.05-0.81,0.1c-0.46,0.15-0.83,0.33-1.11,0.53c-0.43,0.3-0.68,0.69-0.74,1.15
				c-0.07,0.43,0.03,0.78,0.3,1.06C272.27,168.31,272.66,168.4,273.15,168.3z"/>
			<path d="M280,168.22c-0.48-0.51-0.8-1.14-0.95-1.89c-0.15-0.78-0.09-1.56,0.18-2.36c0.31-0.91,0.93-1.58,1.86-2.01
				c0.93-0.43,1.84-0.48,2.72-0.13c0.41,0.16,0.76,0.42,1.04,0.75c0.27,0.31,0.41,0.61,0.42,0.91c0.02,0.31-0.11,0.52-0.4,0.62
				c-0.27,0.08-0.5,0.06-0.7-0.07c-0.2-0.13-0.34-0.34-0.41-0.63c-0.01-0.04-0.03-0.12-0.06-0.26c-0.04-0.13-0.06-0.22-0.07-0.27
				c-0.07-0.32-0.16-0.52-0.25-0.6c-0.1-0.08-0.3-0.12-0.62-0.12c-0.66,0-1.2,0.29-1.62,0.86c-0.38,0.52-0.6,1.17-0.65,1.94
				c-0.05,0.77,0.08,1.46,0.38,2.06c0.34,0.67,0.83,1.08,1.47,1.25c0.47,0.13,0.93,0.12,1.39-0.01c0.46-0.14,0.84-0.38,1.15-0.74
				c0.1-0.1,0.16-0.16,0.19-0.18c0.03-0.02,0.07-0.01,0.13,0.02c0.06,0.03,0.09,0.07,0.08,0.12c0,0.05-0.04,0.14-0.12,0.28
				c-0.32,0.56-0.77,0.96-1.36,1.21c-0.59,0.25-1.24,0.32-1.96,0.21C281.13,169.07,280.52,168.75,280,168.22z"/>
			<path d="M290.62,169.21c-1.04-0.12-1.85-0.59-2.41-1.4c-0.57-0.81-0.77-1.81-0.62-2.98c0.14-1.01,0.57-1.82,1.29-2.41
				c0.65-0.53,1.4-0.79,2.25-0.79c0.85,0,1.55,0.28,2.08,0.82c0.59,0.6,0.85,1.41,0.75,2.43c0,0.04,0,0.09,0,0.15
				c-0.01,0.12-0.03,0.2-0.07,0.23c-0.05,0.04-0.19,0.06-0.41,0.08c-0.16,0.01-0.52,0.01-1.1,0.01c-0.32,0-0.58,0-0.78,0
				c-0.09,0-0.22,0-0.4,0c-1,0.01-1.58,0.02-1.75,0.03c-0.17,0.01-0.27,0.06-0.3,0.14l-0.01,0.03c-0.06,0.15-0.05,0.41,0.05,0.8
				c0.1,0.39,0.23,0.71,0.38,0.95c0.41,0.65,1.02,1,1.81,1.06c0.8,0.05,1.47-0.21,2.03-0.78c0.13-0.13,0.21-0.2,0.24-0.22
				c0.03-0.02,0.08,0,0.14,0.04c0.06,0.05,0.09,0.09,0.08,0.13s-0.06,0.13-0.15,0.28c-0.33,0.5-0.77,0.88-1.32,1.12
				C291.88,169.2,291.28,169.28,290.62,169.21z M292.2,164.75c0.3-0.16,0.43-0.5,0.37-1.04c-0.05-0.46-0.23-0.83-0.52-1.12
				c-0.28-0.27-0.61-0.42-0.99-0.44c-0.39-0.02-0.75,0.12-1.08,0.41c-0.31,0.28-0.55,0.7-0.72,1.26c-0.17,0.55-0.15,0.88,0.05,0.98
				c0.09,0.05,0.57,0.06,1.45,0.05C291.62,164.83,292.11,164.8,292.2,164.75z"/>
		</g>
		<g>
			<g>
				<g>
					<rect x="189.76" y="10.8" width="4.74" height="12.2"/>
				</g>
				<polygon points="202.31,23 202.31,14.01 206.59,16.69 206.59,23 				"/>
				<polygon points="177.67,23 177.67,16.69 181.96,14.01 181.96,23 				"/>
			</g>
			<g>
				<polyline points="164.29,47.7 164.29,33.49 158.72,33.49 158.72,47.7 				"/>
				<polyline points="165.17,32.31 165.17,30.53 157.84,30.53 157.84,32.31 				"/>
			</g>
			<g>
				<polyline points="173.22,47.7 173.22,33.49 167.66,33.49 167.66,47.7 				"/>
				<polyline points="174.11,32.31 174.11,30.53 166.77,30.53 166.77,32.31 				"/>
			</g>
			<g>
				<polyline points="210.29,47.7 210.29,33.49 215.85,33.49 215.85,47.7 				"/>
				<polyline points="209.4,32.31 209.4,30.53 216.74,30.53 216.74,32.31 				"/>
			</g>
			<g>
				<polyline points="219.98,47.7 219.98,33.49 225.54,33.49 225.54,47.7 				"/>
				<polyline points="219.09,32.31 219.09,30.53 226.43,30.53 226.43,32.31 				"/>
			</g>
			<path d="M145.97,28.41l-0.48-6.17c10.89-0.85,18.18-6.2,25.23-11.38c6.73-4.95,13.09-9.62,21.67-9.62
				c8.47,0,14.41,4.42,20.71,9.11c6.53,4.86,13.93,10.36,25.84,11.91l-0.8,6.13c-13.51-1.76-21.95-8.03-28.73-13.08
				c-5.92-4.4-10.6-7.88-17.02-7.88c-6.55,0-11.86,3.9-18.01,8.42C166.99,21.27,158.62,27.42,145.97,28.41z"/>
			<rect x="164.26" y="24.95" width="54.98" height="3.44"/>
			<path d="M164.26,24.26"/>
			<rect x="180.07" y="30.51" width="23.37" height="11"/>
		</g>
		<line class="st1" x1="144.47" y1="39.91" x2="5.36" y2="39.91"/>
		<line class="st1" x1="239.04" y1="39.91" x2="378.15" y2="39.91"/>
		<line class="st1" x1="303.01" y1="164.83" x2="378.15" y2="164.86"/>
		<line class="st1" x1="5.36" y1="163.37" x2="80.5" y2="163.39"/>
	</g>
</g>
</svg>
