<?xml version="1.0" encoding="utf-8"?>
<!-- Generator: Adobe Illustrator 25.2.3, SVG Export Plug-In . SVG Version: 6.00 Build 0)  -->
<svg version="1.1" id="圖層_1" xmlns="http://www.w3.org/2000/svg" xmlns:xlink="http://www.w3.org/1999/xlink" x="0px" y="0px"
	 viewBox="0 0 375 375" style="enable-background:new 0 0 375 375;" xml:space="preserve">
<g>
	<path d="M156.24,219.84l-5.44-6.6c-33.01,15.15-88.55,37.67-135.93,53.6c-5.83,1.94-6.21,4.27-4.27,8.93
		c5.05,12.43,19.42,30.68,25.63,28.74c2.72-1.17,3.11-5.83,1.55-12.82C78.95,268,124.78,241.2,156.24,219.84z M233.13,159.65V22.94
		c8.93-1.55,12.43-3.5,12.43-6.21c0-5.05-12.43-11.65-34.95-13.2c-9.71-0.39-11.65,1.94-10.87,5.44c1.55,6.99,2.33,14.37,2.33,24.86
		v125.83c0,15.53-0.78,29.13-0.78,36.9c0,6.99,4.66,7.77,13.98,7.77c12.82,0,18.25-3.88,18.25-10.87
		C233.52,182.56,233.13,175.18,233.13,159.65z M264.59,146.05c0,46.6,11.26,99.03,64.08,130.49c10.87,6.6,21.36,7.38,28.35,5.83
		c6.21-1.55,10.87-6.99,10.87-13.2c0-3.5-1.55-8.16-6.99-11.26c-2.33-1.55-2.33-4.27-1.94-8.16c1.17-15.92,3.11-36.9,5.83-52.82
		l-5.44-1.55c-4.27,14.37-12.43,36.51-16.7,47.77c-1.55,3.5-2.72,3.11-5.05,1.94c-28.74-17.09-47.77-48.16-47.77-92.04
		c5.83-1.17,9.32-2.72,9.32-5.05c0-3.11-13.2-6.6-26.41-6.6C266.14,141.39,264.59,143.34,264.59,146.05z M254.49,8.57
		c1.17,5.44,1.55,12.82,1.55,18.64c0,16.7-0.39,43.89-1.17,58.64c-0.39,8.54,4.66,12.04,16.31,13.2
		c29.13,2.33,53.21,0.39,71.46-5.05c12.82-3.88,18.64-12.43,16.7-19.42c-1.17-3.88-5.05-6.21-9.71-7.38
		c-2.33-0.78-3.11-1.17-3.11-5.44c-0.39-13.98-0.39-26.8,0.39-40l-7.38-1.17c-2.33,12.82-6.21,28.35-10.49,43.5
		c-1.55,4.66-2.72,5.83-5.83,6.99c-8.93,2.72-22.91,3.5-35.34,1.94c-3.88-0.78-5.05-3.11-5.05-7.77V19.06
		c6.6-0.39,10.49-3.5,10.49-5.44c0-3.88-14.76-10.1-29.9-10.1C254.88,3.52,253.72,5.85,254.49,8.57z M248.28,218.68
		c7.77,43.11,45.44,115.35,78.84,132.05c10.49,5.05,13.2,2.72,15.53-1.55c5.83-11.65,12.43-21.36,26.8-22.14l1.94-5.05
		c-52.82-13.98-101.36-63.3-114.96-106.02L248.28,218.68z M226.53,120.42v13.59h143.31c3.11,0,4.66-1.17,4.66-3.5
		c0-9.32-17.09-27.96-27.19-27.96c-6.21,0-12.43,10.49-14.37,17.87H226.53z M141.48,337.52l32.23,11.26
		c6.99,2.33,8.54,6.21,8.93,15.53c0.39,5.05,1.94,6.6,8.16,6.99c21.75,1.94,39.61-9.71,39.61-27.57V233.83
		c8.54-1.55,11.26-3.5,11.26-5.83c0-3.88-10.87-9.32-31.07-11.26c-10.49-0.78-12.43,1.94-11.65,5.44c1.55,6.6,1.94,13.98,1.94,23.69
		v86.99c0,3.11-1.17,4.66-6.6,4.27c-16.7-1.94-34.18-4.27-51.26-6.6L141.48,337.52z M101.09,7.79
		c12.04,13.59,21.36,36.51,23.3,57.09c0.78,8.93,7.38,9.71,13.2,7.38c8.16-2.72,15.15-10.49,15.92-22.14
		c0.78-8.93-3.11-15.15-9.71-20.97C133.32,18.28,113.9,8.18,104.19,4.3L101.09,7.79z M95.65,97.12c1.94,3.5,5.83,8.93,7.77,11.65
		c1.55,1.94,2.72,2.72,4.66,2.72c5.44,0,8.93-0.39,16.31-0.39h27.57v82.33c0,6.21,4.27,6.99,12.82,6.99
		c12.43,0,17.48-3.5,17.48-10.1l-0.39-70.68c7.38-2.33,10.49-4.66,10.49-8.16c0-8.54-19.81-28.74-29.9-28.74
		c-5.83,0-12.04,8.54-14.76,15.92h-33.01c-7.38,0-13.2-1.55-17.09-3.88L95.65,97.12z M60.7,356.94l5.44,6.21
		c34.56-18.64,81.56-62.92,102.53-93.99c8.93,1.55,13.98-0.39,13.98-3.11c0-4.27-16.7-15.15-29.52-20.58
		c-8.16-3.11-10.1-2.72-12.04,1.94C125.56,278.49,97.2,323.54,60.7,356.94z M23.8,69.55c1.17,11.65,11.26,20.58,24.08,17.87
		c22.53-4.27,34.56-40.78,28.35-77.29l-6.6,0.78c0,19.42-14.76,39.61-38.06,47.77C24.97,61,23.8,64.89,23.8,69.55z M51.76,231.11
		c22.91,3.11,35.34-8.93,39.23-26.02c4.27-17.87,7.77-42.72,7.77-65.63c4.66-1.17,8.93-3.5,8.93-7.38
		c0-7.77-19.03-25.24-28.35-25.24c-5.05,0-10.49,7.77-12.43,14.76H21.08c-8.93,0-13.98-1.17-19.03-3.5l-1.55,2.33
		c1.55,3.11,5.44,8.54,6.99,11.65c1.55,1.55,2.72,2.33,4.66,2.33c7.38,0,12.82-0.39,22.14-0.39h37.28
		c-0.39,18.64-2.72,41.94-6.21,58.64c-1.17,5.83-3.11,6.99-8.93,6.21c-12.04-1.55-35.73-5.05-46.22-6.6l-2.33,6.21
		c5.44,2.33,19.81,7.77,28.35,11.26c5.83,2.33,6.6,5.83,6.6,14.37C42.83,228.39,44.39,230.33,51.76,231.11z"/>
</g>
</svg>
